<svg xmlns="http://www.w3.org/2000/svg" xmlns:xlink="http://www.w3.org/1999/xlink" width="850" zoomAndPan="magnify" viewBox="0 0 637.5 262.499992" height="350" preserveAspectRatio="xMidYMid meet" version="1.0"><defs><clipPath id="0e9579c894"><path d="M 0.355469 0 L 636.644531 0 L 636.644531 262 L 0.355469 262 Z M 0.355469 0 " clip-rule="nonzero"/></clipPath><clipPath id="4d0fd96f3c"><path d="M 413.207031 0 L 636.644531 0 L 636.644531 262 L 413.207031 262 Z M 413.207031 0 " clip-rule="nonzero"/></clipPath><clipPath id="15a9ad0ef5"><path d="M 0.355469 98.699219 L 192.722656 98.699219 L 192.722656 262 L 0.355469 262 Z M 0.355469 98.699219 " clip-rule="nonzero"/></clipPath><clipPath id="d7d62b525f"><path d="M 0.355469 111 L 180 111 L 180 262 L 0.355469 262 Z M 0.355469 111 " clip-rule="nonzero"/></clipPath><clipPath id="dbe1e0ef7d"><path d="M 0.355469 136 L 155 136 L 155 262 L 0.355469 262 Z M 0.355469 136 " clip-rule="nonzero"/></clipPath><clipPath id="47fad7546d"><path d="M 129 232 L 140 232 L 140 262 L 129 262 Z M 129 232 " clip-rule="nonzero"/></clipPath><clipPath id="44fc7c9f68"><path d="M 0.355469 163 L 128 163 L 128 262 L 0.355469 262 Z M 0.355469 163 " clip-rule="nonzero"/></clipPath><clipPath id="5a45a2a6fa"><path d="M 0.355469 177 L 18 177 L 18 181 L 0.355469 181 Z M 0.355469 177 " clip-rule="nonzero"/></clipPath><clipPath id="19e841a45b"><path d="M 107 250 L 115 250 L 115 262 L 107 262 Z M 107 250 " clip-rule="nonzero"/></clipPath></defs><g clip-path="url(#0e9579c894)"><path fill="#ffffff" d="M 0.355469 0 L 637.144531 0 L 637.144531 268.949219 L 0.355469 268.949219 Z M 0.355469 0 " fill-opacity="1" fill-rule="nonzero"/><path fill="#ffffff" d="M 0.355469 0 L 637.144531 0 L 637.144531 262.207031 L 0.355469 262.207031 Z M 0.355469 0 " fill-opacity="1" fill-rule="nonzero"/><path fill="#093a7b" d="M 0.355469 0 L 637.144531 0 L 637.144531 262.207031 L 0.355469 262.207031 Z M 0.355469 0 " fill-opacity="1" fill-rule="nonzero"/></g><g clip-path="url(#4d0fd96f3c)"><path fill="#f3e2dc" d="M 710.191406 265.417969 C 713.941406 243.5 714.902344 221.101562 712.980469 198.894531 C 713.363281 126.023438 713.652344 53.152344 709.710938 -19.621094 C 612.191406 -15.585938 510.730469 -16.449219 413.113281 -17.796875 C 413.5 2.007812 419.078125 19.792969 430.90625 35.847656 C 434.945312 41.328125 439.5625 46.324219 445.140625 50.171875 C 461.394531 61.324219 485.820312 61.996094 495.535156 79.203125 C 503.710938 93.527344 496.785156 111.699219 498.902344 128.042969 C 500.632812 141.980469 509.09375 154.480469 520.347656 162.84375 C 531.597656 171.207031 545.351562 175.726562 559.296875 177.457031 C 571.800781 178.992188 585.359375 178.800781 595.457031 186.300781 C 606.902344 194.757812 610.171875 210.046875 615.847656 223.121094 C 630.753906 257.535156 672.78125 269.554688 710.191406 265.417969 Z M 710.191406 265.417969 " fill-opacity="1" fill-rule="nonzero"/></g><g clip-path="url(#15a9ad0ef5)"><path fill="#060654" d="M 138.433594 152.988281 C 103.414062 117.96875 56.839844 98.699219 7.304688 98.699219 C -42.230469 98.699219 -88.800781 117.96875 -123.820312 152.988281 C -158.839844 188.070312 -178.109375 234.640625 -178.109375 284.117188 C -178.109375 333.589844 -158.839844 380.222656 -123.820312 415.242188 L -122.523438 413.945312 C -157.171875 379.292969 -176.320312 333.15625 -176.320312 284.117188 C -176.320312 235.074219 -157.234375 188.996094 -122.523438 154.285156 C -87.8125 119.636719 -41.734375 100.550781 7.304688 100.550781 C 56.347656 100.550781 102.425781 119.636719 137.136719 154.347656 C 171.785156 188.996094 190.933594 235.136719 190.933594 284.175781 C 190.933594 333.21875 171.847656 379.292969 137.136719 414.007812 C 102.425781 448.65625 56.347656 467.742188 7.304688 467.742188 C -41.734375 467.742188 -87.8125 448.65625 -122.523438 413.945312 L -123.820312 415.242188 C -88.800781 450.261719 -42.230469 469.53125 7.304688 469.53125 C 56.839844 469.53125 103.414062 450.261719 138.433594 415.242188 C 173.453125 380.222656 192.722656 333.652344 192.722656 284.117188 C 192.722656 234.640625 173.453125 188.070312 138.433594 152.988281 Z M 138.433594 152.988281 " fill-opacity="1" fill-rule="nonzero"/></g><g clip-path="url(#d7d62b525f)"><path fill="#060654" d="M -114.492188 405.914062 C -81.945312 438.464844 -38.707031 456.375 7.304688 456.375 C 53.320312 456.375 96.554688 438.464844 129.105469 405.914062 C 161.65625 373.363281 179.566406 330.128906 179.566406 284.117188 L 177.714844 284.117188 C 177.714844 329.636719 159.988281 372.4375 127.808594 404.617188 C 95.628906 436.796875 52.828125 454.523438 7.304688 454.523438 C -38.214844 454.523438 -81.015625 436.796875 -113.195312 404.617188 C -145.375 372.4375 -163.101562 329.636719 -163.101562 284.117188 C -163.101562 238.59375 -145.375 195.792969 -113.195312 163.613281 C -81.015625 131.496094 -38.214844 113.769531 7.304688 113.769531 C 52.828125 113.769531 95.628906 131.496094 127.808594 163.675781 C 159.988281 195.855469 177.714844 238.65625 177.714844 284.175781 L 179.566406 284.175781 C 179.566406 238.164062 161.65625 194.925781 129.105469 162.378906 C 96.554688 129.828125 53.320312 111.914062 7.304688 111.914062 C -38.707031 111.914062 -81.945312 129.828125 -114.492188 162.378906 C -146.980469 194.867188 -164.957031 238.164062 -164.957031 284.117188 C -164.957031 330.128906 -146.980469 373.425781 -114.492188 405.914062 Z M -114.492188 405.914062 " fill-opacity="1" fill-rule="nonzero"/></g><path fill="#060654" d="M 117.988281 173.496094 C 118.175781 173.679688 118.359375 173.867188 118.542969 174.050781 C 118.730469 174.234375 118.976562 174.296875 119.222656 174.296875 C 119.472656 174.296875 119.71875 174.234375 119.902344 174.050781 C 120.273438 173.679688 120.273438 173.125 119.902344 172.753906 C 119.71875 172.570312 119.53125 172.382812 119.347656 172.199219 C 118.851562 171.703125 118.421875 171.269531 117.925781 170.777344 C 117.554688 170.40625 117 170.40625 116.628906 170.777344 C 116.257812 171.148438 116.257812 171.703125 116.628906 172.074219 C 117.0625 172.507812 117.496094 173 117.988281 173.496094 Z M 117.988281 173.496094 " fill-opacity="1" fill-rule="nonzero"/><path fill="#060654" d="M 3.539062 127.664062 C 4.464844 127.664062 5.390625 127.605469 6.316406 127.605469 C 6.8125 127.605469 7.246094 127.171875 7.246094 126.675781 C 7.246094 126.183594 6.8125 125.75 6.316406 125.75 C 5.390625 125.75 4.464844 125.75 3.539062 125.8125 C 3.042969 125.8125 2.613281 126.246094 2.613281 126.738281 C 2.613281 127.234375 3.042969 127.664062 3.539062 127.664062 Z M 3.539062 127.664062 " fill-opacity="1" fill-rule="nonzero"/><path fill="#060654" d="M 95.136719 154.53125 C 95.875 155.027344 96.679688 155.582031 97.421875 156.140625 C 97.605469 156.261719 97.792969 156.324219 97.976562 156.324219 C 98.285156 156.324219 98.53125 156.199219 98.71875 155.953125 C 99.027344 155.519531 98.902344 154.964844 98.472656 154.65625 C 97.730469 154.101562 96.925781 153.605469 96.1875 153.050781 C 95.753906 152.742188 95.199219 152.867188 94.886719 153.296875 C 94.578125 153.667969 94.703125 154.285156 95.136719 154.53125 Z M 95.136719 154.53125 " fill-opacity="1" fill-rule="nonzero"/><path fill="#060654" d="M 108.351562 164.601562 C 108.539062 164.722656 108.722656 164.847656 108.972656 164.847656 C 109.21875 164.847656 109.464844 164.722656 109.652344 164.539062 C 109.960938 164.167969 109.960938 163.550781 109.527344 163.242188 C 108.785156 162.625 108.105469 162.070312 107.363281 161.449219 C 106.996094 161.140625 106.375 161.203125 106.066406 161.574219 C 105.757812 161.945312 105.820312 162.5625 106.191406 162.871094 C 106.933594 163.425781 107.675781 164.042969 108.351562 164.601562 Z M 108.351562 164.601562 " fill-opacity="1" fill-rule="nonzero"/><path fill="#060654" d="M 127.871094 184.304688 C 128.054688 184.550781 128.304688 184.613281 128.613281 184.613281 C 128.796875 184.613281 129.042969 184.550781 129.230469 184.425781 C 129.601562 184.117188 129.664062 183.5 129.351562 183.128906 C 128.734375 182.390625 128.179688 181.710938 127.5625 180.96875 C 127.253906 180.597656 126.636719 180.535156 126.265625 180.84375 C 125.894531 181.152344 125.832031 181.769531 126.140625 182.140625 C 126.636719 182.882812 127.253906 183.5625 127.871094 184.304688 Z M 127.871094 184.304688 " fill-opacity="1" fill-rule="nonzero"/><path fill="#060654" d="M 83.339844 147.308594 C 84.140625 147.738281 84.945312 148.234375 85.746094 148.664062 C 85.871094 148.726562 86.054688 148.789062 86.242188 148.789062 C 86.550781 148.789062 86.859375 148.605469 87.042969 148.355469 C 87.292969 147.925781 87.167969 147.367188 86.734375 147.058594 C 85.933594 146.566406 85.128906 146.132812 84.265625 145.699219 C 83.832031 145.453125 83.277344 145.640625 83.03125 146.070312 C 82.722656 146.503906 82.90625 147.058594 83.339844 147.308594 Z M 83.339844 147.308594 " fill-opacity="1" fill-rule="nonzero"/><path fill="#060654" d="M 160.113281 242.238281 C 159.988281 241.746094 159.496094 241.4375 159 241.558594 C 158.507812 241.683594 158.199219 242.175781 158.320312 242.671875 C 158.566406 243.535156 158.816406 244.460938 159 245.328125 C 159.125 245.757812 159.496094 246.007812 159.925781 246.007812 C 159.988281 246.007812 160.050781 246.007812 160.175781 246.007812 C 160.667969 245.882812 160.976562 245.390625 160.851562 244.894531 C 160.605469 244.09375 160.359375 243.164062 160.113281 242.238281 Z M 160.113281 242.238281 " fill-opacity="1" fill-rule="nonzero"/><path fill="#060654" d="M 136.210938 195.296875 C 136.394531 195.542969 136.703125 195.667969 136.949219 195.667969 C 137.136719 195.667969 137.320312 195.605469 137.507812 195.484375 C 137.9375 195.175781 138.0625 194.617188 137.753906 194.1875 C 137.199219 193.445312 136.703125 192.640625 136.148438 191.902344 C 135.839844 191.46875 135.28125 191.40625 134.851562 191.714844 C 134.417969 192.023438 134.355469 192.582031 134.664062 193.011719 C 135.160156 193.816406 135.652344 194.554688 136.210938 195.296875 Z M 136.210938 195.296875 " fill-opacity="1" fill-rule="nonzero"/><path fill="#060654" d="M 161.839844 258.976562 C 161.902344 259.410156 162.335938 259.78125 162.769531 259.78125 C 162.828125 259.78125 162.890625 259.78125 162.890625 259.78125 C 163.386719 259.71875 163.757812 259.222656 163.632812 258.730469 C 163.507812 257.804688 163.324219 256.878906 163.136719 255.949219 C 163.078125 255.457031 162.582031 255.085938 162.089844 255.210938 C 161.59375 255.269531 161.222656 255.765625 161.347656 256.257812 C 161.53125 257.1875 161.65625 258.050781 161.839844 258.976562 Z M 161.839844 258.976562 " fill-opacity="1" fill-rule="nonzero"/><path fill="#060654" d="M 58.015625 136.003906 C 58.878906 136.3125 59.746094 136.621094 60.609375 136.929688 C 60.734375 136.992188 60.792969 136.992188 60.917969 136.992188 C 61.289062 136.992188 61.660156 136.746094 61.78125 136.375 C 61.96875 135.878906 61.722656 135.386719 61.226562 135.199219 C 60.363281 134.890625 59.4375 134.582031 58.570312 134.273438 C 58.078125 134.089844 57.582031 134.335938 57.398438 134.832031 C 57.273438 135.324219 57.519531 135.820312 58.015625 136.003906 Z M 58.015625 136.003906 " fill-opacity="1" fill-rule="nonzero"/><path fill="#060654" d="M 149.859375 219.324219 C 150.042969 219.695312 150.351562 219.878906 150.722656 219.878906 C 150.847656 219.878906 150.972656 219.878906 151.09375 219.816406 C 151.589844 219.632812 151.773438 219.078125 151.527344 218.582031 C 151.15625 217.71875 150.722656 216.914062 150.351562 216.050781 C 150.105469 215.617188 149.550781 215.371094 149.117188 215.617188 C 148.6875 215.867188 148.4375 216.421875 148.6875 216.855469 C 149.054688 217.65625 149.425781 218.519531 149.859375 219.324219 Z M 149.859375 219.324219 " fill-opacity="1" fill-rule="nonzero"/><path fill="#060654" d="M 143.558594 207.03125 C 143.746094 207.34375 144.054688 207.527344 144.363281 207.527344 C 144.546875 207.527344 144.671875 207.464844 144.792969 207.402344 C 145.226562 207.15625 145.414062 206.601562 145.164062 206.167969 C 144.734375 205.367188 144.238281 204.5625 143.746094 203.757812 C 143.496094 203.328125 142.941406 203.203125 142.449219 203.449219 C 142.015625 203.699219 141.890625 204.253906 142.136719 204.746094 C 142.632812 205.425781 143.125 206.230469 143.558594 207.03125 Z M 143.558594 207.03125 " fill-opacity="1" fill-rule="nonzero"/><path fill="#060654" d="M 155.789062 228.960938 C 155.601562 228.464844 155.046875 228.21875 154.613281 228.402344 C 154.121094 228.589844 153.875 229.144531 154.058594 229.578125 C 154.367188 230.441406 154.675781 231.304688 154.984375 232.171875 C 155.109375 232.542969 155.480469 232.789062 155.851562 232.789062 C 155.972656 232.789062 156.035156 232.789062 156.160156 232.726562 C 156.652344 232.542969 156.898438 232.046875 156.714844 231.554688 C 156.46875 230.6875 156.097656 229.824219 155.789062 228.960938 Z M 155.789062 228.960938 " fill-opacity="1" fill-rule="nonzero"/><path fill="#060654" d="M 31.148438 129.394531 C 32.074219 129.519531 33 129.703125 33.863281 129.828125 C 33.925781 129.828125 33.988281 129.828125 34.050781 129.828125 C 34.484375 129.828125 34.914062 129.519531 34.976562 129.085938 C 35.039062 128.59375 34.730469 128.097656 34.234375 128.035156 C 33.308594 127.851562 32.382812 127.726562 31.457031 127.605469 C 30.960938 127.542969 30.46875 127.851562 30.40625 128.40625 C 30.34375 128.839844 30.652344 129.332031 31.148438 129.394531 Z M 31.148438 129.394531 " fill-opacity="1" fill-rule="nonzero"/><path fill="#060654" d="M 44.734375 132.113281 C 45.664062 132.359375 46.527344 132.542969 47.390625 132.792969 C 47.453125 132.792969 47.578125 132.792969 47.640625 132.792969 C 48.070312 132.792969 48.441406 132.542969 48.503906 132.113281 C 48.625 131.617188 48.316406 131.125 47.824219 131 C 46.898438 130.753906 46.03125 130.507812 45.105469 130.320312 C 44.613281 130.199219 44.117188 130.507812 43.996094 131 C 43.933594 131.496094 44.242188 131.988281 44.734375 132.113281 Z M 44.734375 132.113281 " fill-opacity="1" fill-rule="nonzero"/><path fill="#060654" d="M 17.375 127.914062 C 18.300781 127.972656 19.226562 128.035156 20.152344 128.097656 C 20.152344 128.097656 20.214844 128.097656 20.214844 128.097656 C 20.710938 128.097656 21.078125 127.726562 21.140625 127.234375 C 21.203125 126.738281 20.832031 126.308594 20.277344 126.246094 C 19.351562 126.183594 18.425781 126.121094 17.496094 126.058594 C 17.003906 126.058594 16.570312 126.429688 16.507812 126.925781 C 16.507812 127.480469 16.878906 127.914062 17.375 127.914062 Z M 17.375 127.914062 " fill-opacity="1" fill-rule="nonzero"/><path fill="#060654" d="M 70.925781 141.070312 C 71.789062 141.4375 72.589844 141.808594 73.457031 142.242188 C 73.578125 142.304688 73.703125 142.304688 73.828125 142.304688 C 74.199219 142.304688 74.507812 142.117188 74.691406 141.746094 C 74.9375 141.253906 74.691406 140.757812 74.257812 140.511719 C 73.394531 140.140625 72.53125 139.710938 71.726562 139.339844 C 71.234375 139.152344 70.738281 139.339844 70.492188 139.832031 C 70.246094 140.328125 70.492188 140.882812 70.925781 141.070312 Z M 70.925781 141.070312 " fill-opacity="1" fill-rule="nonzero"/><g clip-path="url(#dbe1e0ef7d)"><path fill="#060654" d="M 152.949219 284.117188 C 152.949219 323.027344 137.816406 359.589844 110.269531 387.078125 C 82.78125 414.625 46.21875 429.757812 7.304688 429.757812 C -31.605469 429.757812 -68.171875 414.625 -95.65625 387.078125 C -123.140625 359.589844 -138.335938 323.027344 -138.335938 284.117188 C -138.335938 245.203125 -123.203125 208.640625 -95.65625 181.152344 C -68.171875 153.667969 -31.605469 138.535156 7.304688 138.535156 C 46.21875 138.535156 82.78125 153.667969 110.269531 181.214844 C 137.753906 208.699219 152.949219 245.265625 152.949219 284.117188 L 154.800781 284.117188 C 154.800781 244.710938 139.484375 207.710938 111.625 179.855469 C 83.710938 152 46.710938 136.683594 7.304688 136.683594 C -32.097656 136.683594 -69.097656 152 -96.953125 179.855469 C -124.808594 207.710938 -140.125 244.769531 -140.125 284.117188 C -140.125 323.519531 -124.808594 360.519531 -96.953125 388.375 C -69.097656 416.230469 -32.039062 431.546875 7.304688 431.546875 C 46.710938 431.546875 83.710938 416.230469 111.566406 388.375 C 139.421875 360.519531 154.738281 323.460938 154.738281 284.117188 Z M 152.949219 284.117188 " fill-opacity="1" fill-rule="nonzero"/></g><path fill="#060654" d="M 21.574219 152.742188 C 33.308594 154.039062 44.796875 156.878906 55.792969 161.203125 C 55.914062 161.265625 56.039062 161.265625 56.164062 161.265625 C 56.53125 161.265625 56.902344 161.019531 57.027344 160.710938 C 57.210938 160.214844 56.964844 159.722656 56.53125 159.535156 C 45.414062 155.152344 33.742188 152.246094 21.882812 150.949219 C 21.390625 150.890625 20.894531 151.257812 20.832031 151.753906 C 20.769531 152.246094 21.019531 152.679688 21.574219 152.742188 Z M 21.574219 152.742188 " fill-opacity="1" fill-rule="nonzero"/><path fill="#060654" d="M 86.425781 178.4375 C 91.429688 182.203125 96.1875 186.34375 100.570312 190.789062 C 104.460938 194.679688 108.105469 198.816406 111.441406 203.203125 C 111.625 203.449219 111.875 203.574219 112.183594 203.574219 C 112.367188 203.574219 112.554688 203.511719 112.738281 203.390625 C 113.171875 203.082031 113.234375 202.523438 112.925781 202.09375 C 109.527344 197.644531 105.820312 193.507812 101.867188 189.554688 C 97.359375 185.042969 92.601562 180.84375 87.539062 177.015625 C 87.105469 176.707031 86.550781 176.769531 86.242188 177.199219 C 85.996094 177.570312 86.054688 178.128906 86.425781 178.4375 Z M 86.425781 178.4375 " fill-opacity="1" fill-rule="nonzero"/><g clip-path="url(#47fad7546d)"><path fill="#060654" d="M 138.925781 268.613281 C 138.988281 268.613281 138.988281 268.613281 139.050781 268.613281 C 139.542969 268.550781 139.914062 268.117188 139.851562 267.5625 C 138.433594 255.703125 135.40625 244.03125 130.835938 232.972656 C 130.648438 232.480469 130.09375 232.292969 129.601562 232.480469 C 129.105469 232.664062 128.921875 233.222656 129.105469 233.714844 C 133.554688 244.585938 136.578125 256.074219 138 267.808594 C 138.0625 268.242188 138.496094 268.613281 138.925781 268.613281 Z M 138.925781 268.613281 " fill-opacity="1" fill-rule="nonzero"/></g><g clip-path="url(#44fc7c9f68)"><path fill="#060654" d="M 7.304688 163.921875 C -25.859375 163.921875 -55.878906 177.386719 -77.683594 199.1875 C -99.421875 220.929688 -112.949219 251.007812 -112.949219 284.175781 C -112.949219 317.34375 -99.484375 347.363281 -77.683594 369.164062 C -55.941406 390.90625 -25.859375 404.433594 7.304688 404.433594 C 40.472656 404.433594 70.492188 390.96875 92.292969 369.164062 C 114.035156 347.425781 127.5625 317.34375 127.5625 284.175781 C 127.5625 251.007812 114.035156 220.929688 92.292969 199.1875 C 70.554688 177.449219 40.472656 163.921875 7.304688 163.921875 Z M 125.648438 284.117188 C 125.648438 316.726562 112.367188 346.3125 90.9375 367.746094 C 69.503906 389.175781 39.917969 402.457031 7.304688 402.457031 C -25.304688 402.457031 -54.890625 389.238281 -76.324219 367.804688 C -97.753906 346.375 -111.035156 316.789062 -111.035156 284.175781 C -111.035156 251.566406 -97.753906 221.980469 -76.324219 200.546875 C -54.890625 179.117188 -25.304688 165.835938 7.304688 165.835938 C 39.917969 165.835938 69.503906 179.117188 90.9375 200.546875 C 112.367188 221.980469 125.648438 251.503906 125.648438 284.117188 Z M 125.648438 284.117188 " fill-opacity="1" fill-rule="nonzero"/></g><g clip-path="url(#5a45a2a6fa)"><path fill="#060654" d="M 16.449219 177.757812 C 13.421875 177.507812 10.332031 177.386719 7.304688 177.386719 C 1.6875 177.386719 -3.933594 177.820312 -9.433594 178.746094 C -9.925781 178.804688 -10.296875 179.300781 -10.171875 179.792969 C -10.109375 180.226562 -9.679688 180.597656 -9.246094 180.597656 C -9.183594 180.597656 -9.121094 180.597656 -9.121094 180.597656 C -3.6875 179.734375 1.808594 179.300781 7.367188 179.300781 C 10.394531 179.300781 13.359375 179.425781 16.386719 179.671875 C 16.878906 179.734375 17.375 179.363281 17.375 178.804688 C 17.375 178.25 17.003906 177.820312 16.449219 177.757812 Z M 16.449219 177.757812 " fill-opacity="1" fill-rule="nonzero"/></g><g clip-path="url(#19e841a45b)"><path fill="#060654" d="M 112.183594 276.828125 C 112.246094 277.320312 112.613281 277.691406 113.109375 277.691406 C 113.109375 277.691406 113.171875 277.691406 113.171875 277.691406 C 113.664062 277.628906 114.035156 277.199219 114.035156 276.703125 C 113.417969 268.117188 111.75 259.53125 109.03125 251.257812 C 108.847656 250.761719 108.351562 250.515625 107.859375 250.640625 C 107.363281 250.824219 107.117188 251.316406 107.242188 251.8125 C 109.960938 259.964844 111.566406 268.367188 112.183594 276.828125 Z M 112.183594 276.828125 " fill-opacity="1" fill-rule="nonzero"/></g><path fill="#060654" d="M 65.242188 194.371094 C 57.953125 189.675781 50.109375 185.910156 41.894531 183.066406 C 41.402344 182.882812 40.90625 183.191406 40.722656 183.625 C 40.535156 184.117188 40.84375 184.613281 41.277344 184.796875 C 49.367188 187.578125 57.089844 191.28125 64.253906 195.855469 C 64.4375 195.976562 64.5625 195.976562 64.746094 195.976562 C 65.054688 195.976562 65.363281 195.855469 65.550781 195.542969 C 65.796875 195.234375 65.675781 194.679688 65.242188 194.371094 Z M 65.242188 194.371094 " fill-opacity="1" fill-rule="nonzero"/><path fill="#060654" d="M 83.894531 210.925781 C 83.523438 211.292969 83.523438 211.851562 83.832031 212.222656 C 89.699219 218.398438 94.765625 225.316406 98.902344 232.726562 C 99.089844 233.035156 99.398438 233.222656 99.707031 233.222656 C 99.828125 233.222656 100.015625 233.160156 100.136719 233.097656 C 100.570312 232.851562 100.757812 232.292969 100.507812 231.863281 C 96.246094 224.328125 91.121094 217.285156 85.128906 210.984375 C 84.820312 210.554688 84.265625 210.554688 83.894531 210.925781 Z M 83.894531 210.925781 " fill-opacity="1" fill-rule="nonzero"/></svg>