<svg xmlns="http://www.w3.org/2000/svg" xmlns:xlink="http://www.w3.org/1999/xlink" width="1080" zoomAndPan="magnify" viewBox="0 0 810 809.999993" height="1080" preserveAspectRatio="xMidYMid meet" version="1.0"><path fill="#000000" d="M 402.105469 247.339844 C 398.765625 247.335938 395.425781 247.441406 392.089844 247.65625 C 388.753906 247.875 385.429688 248.199219 382.117188 248.636719 C 378.804688 249.074219 375.507812 249.617188 372.230469 250.273438 C 368.953125 250.925781 365.699219 251.6875 362.472656 252.558594 C 359.246094 253.425781 356.050781 254.402344 352.886719 255.480469 C 349.722656 256.5625 346.601562 257.746094 343.515625 259.035156 C 340.429688 260.320312 337.390625 261.707031 334.398438 263.195312 C 331.40625 264.683594 328.464844 266.269531 325.578125 267.949219 C 322.6875 269.632812 319.859375 271.40625 317.089844 273.277344 C 314.316406 275.148438 311.609375 277.105469 308.96875 279.152344 C 306.328125 281.203125 303.757812 283.335938 301.257812 285.550781 C 298.757812 287.769531 296.332031 290.070312 293.984375 292.445312 C 291.636719 294.824219 289.367188 297.277344 287.183594 299.808594 C 284.996094 302.335938 282.894531 304.933594 280.882812 307.597656 C 278.867188 310.265625 276.941406 312.996094 275.109375 315.792969 C 273.273438 318.585938 271.535156 321.4375 269.886719 324.347656 C 268.242188 327.257812 266.695312 330.214844 265.246094 333.226562 C 263.796875 336.238281 262.445312 339.296875 261.199219 342.394531 C 259.953125 345.496094 258.808594 348.636719 257.765625 351.8125 C 256.726562 354.988281 255.792969 358.195312 254.964844 361.433594 C 254.136719 364.671875 253.414062 367.933594 252.800781 371.21875 C 252.191406 374.503906 251.6875 377.808594 251.292969 381.125 C 250.898438 384.445312 250.613281 387.773438 250.4375 391.113281 C 250.265625 394.449219 250.199219 397.789062 250.246094 401.132812 C 250.292969 404.472656 250.449219 407.808594 250.714844 411.140625 C 250.984375 414.472656 251.359375 417.792969 251.847656 421.101562 C 252.332031 424.40625 252.929688 427.695312 253.632812 430.960938 C 254.335938 434.230469 255.148438 437.46875 256.066406 440.683594 C 256.980469 443.898438 258.003906 447.078125 259.132812 450.222656 C 260.261719 453.371094 261.492188 456.476562 262.824219 459.539062 C 264.160156 462.605469 265.59375 465.621094 267.125 468.59375 C 268.660156 471.5625 270.289062 474.480469 272.011719 477.339844 L 250.597656 541.570312 C 250.507812 541.839844 250.4375 542.113281 250.378906 542.394531 C 250.320312 542.675781 250.28125 542.957031 250.253906 543.242188 C 250.230469 543.527344 250.222656 543.808594 250.234375 544.09375 C 250.242188 544.382812 250.269531 544.664062 250.3125 544.945312 C 250.355469 545.230469 250.417969 545.507812 250.492188 545.78125 C 250.570312 546.058594 250.660156 546.328125 250.769531 546.59375 C 250.875 546.855469 251 547.113281 251.140625 547.363281 C 251.277344 547.613281 251.429688 547.851562 251.597656 548.085938 C 251.765625 548.316406 251.945312 548.539062 252.136719 548.746094 C 252.332031 548.957031 252.535156 549.15625 252.75 549.34375 C 252.96875 549.527344 253.195312 549.699219 253.433594 549.859375 C 253.667969 550.019531 253.914062 550.164062 254.167969 550.292969 C 254.421875 550.425781 254.683594 550.539062 254.953125 550.636719 C 255.21875 550.738281 255.492188 550.820312 255.769531 550.886719 C 256.046875 550.953125 256.328125 551.003906 256.609375 551.039062 C 256.894531 551.070312 257.179688 551.089844 257.464844 551.089844 C 258.246094 551.089844 259.011719 550.964844 259.753906 550.714844 L 323.980469 529.308594 C 326.476562 530.808594 329.015625 532.234375 331.59375 533.589844 C 334.175781 534.941406 336.789062 536.222656 339.441406 537.425781 C 342.09375 538.628906 344.78125 539.753906 347.5 540.804688 C 350.214844 541.851562 352.960938 542.820312 355.734375 543.710938 C 358.507812 544.601562 361.304688 545.414062 364.125 546.144531 C 366.945312 546.871094 369.785156 547.519531 372.640625 548.085938 C 375.5 548.652344 378.371094 549.136719 381.257812 549.539062 C 384.140625 549.9375 387.035156 550.257812 389.9375 550.492188 C 392.84375 550.726562 395.75 550.875 398.664062 550.945312 C 401.574219 551.011719 404.488281 550.996094 407.398438 550.894531 C 410.308594 550.792969 413.214844 550.609375 416.117188 550.339844 C 419.015625 550.074219 421.90625 549.722656 424.789062 549.289062 C 427.667969 548.855469 430.535156 548.335938 433.386719 547.738281 C 436.234375 547.140625 439.066406 546.457031 441.878906 545.695312 C 444.691406 544.933594 447.476562 544.09375 450.242188 543.171875 C 453.003906 542.246094 455.738281 541.246094 458.441406 540.167969 C 461.148438 539.085938 463.820312 537.929688 466.460938 536.695312 C 469.097656 535.460938 471.699219 534.152344 474.261719 532.769531 C 476.828125 531.386719 479.347656 529.929688 481.828125 528.402344 C 484.308594 526.875 486.742188 525.273438 489.128906 523.605469 C 491.515625 521.9375 493.855469 520.203125 496.140625 518.398438 C 498.429688 516.59375 500.664062 514.726562 502.84375 512.796875 C 505.023438 510.863281 507.148438 508.871094 509.214844 506.816406 C 511.277344 504.761719 513.285156 502.652344 515.226562 500.480469 C 517.171875 498.3125 519.050781 496.089844 520.867188 493.8125 C 522.683594 491.535156 524.433594 489.207031 526.113281 486.828125 C 527.796875 484.449219 529.410156 482.023438 530.953125 479.554688 C 532.496094 477.082031 533.964844 474.570312 535.363281 472.011719 C 536.761719 469.457031 538.082031 466.863281 539.332031 464.230469 C 540.578125 461.597656 541.75 458.933594 542.847656 456.234375 C 543.941406 453.535156 544.957031 450.804688 545.894531 448.046875 C 546.835938 445.289062 547.691406 442.507812 548.46875 439.699219 C 549.246094 436.894531 549.945312 434.066406 550.558594 431.21875 C 551.175781 428.371094 551.707031 425.507812 552.15625 422.632812 C 552.609375 419.753906 552.976562 416.863281 553.257812 413.964844 C 553.542969 411.066406 553.742188 408.160156 553.859375 405.25 C 553.976562 402.339844 554.011719 399.429688 553.960938 396.515625 C 553.910156 393.601562 553.773438 390.695312 553.554688 387.789062 C 553.335938 384.886719 553.035156 381.988281 552.652344 379.101562 C 552.265625 376.214844 551.796875 373.339844 551.25 370.480469 C 550.699219 367.617188 550.066406 364.777344 549.351562 361.953125 C 548.636719 359.128906 547.84375 356.328125 546.96875 353.546875 C 546.09375 350.769531 545.140625 348.019531 544.105469 345.296875 C 543.070312 342.570312 541.960938 339.878906 540.773438 337.222656 C 539.582031 334.5625 538.320312 331.9375 536.980469 329.351562 C 535.640625 326.765625 534.226562 324.21875 532.742188 321.710938 C 531.257812 319.207031 529.699219 316.746094 528.070312 314.332031 C 526.445312 311.914062 524.75 309.546875 522.984375 307.230469 C 521.21875 304.910156 519.390625 302.644531 517.496094 300.433594 C 515.601562 298.21875 513.644531 296.0625 511.628906 293.960938 C 509.609375 291.863281 507.53125 289.820312 505.394531 287.839844 C 503.261719 285.859375 501.070312 283.941406 498.824219 282.085938 C 496.578125 280.234375 494.277344 278.445312 491.929688 276.722656 C 489.582031 275 487.183594 273.347656 484.738281 271.761719 C 482.296875 270.175781 479.808594 268.664062 477.277344 267.222656 C 474.742188 265.78125 472.171875 264.414062 469.5625 263.121094 C 466.953125 261.828125 464.308594 260.609375 461.628906 259.46875 C 458.945312 258.328125 456.234375 257.265625 453.496094 256.28125 C 450.753906 255.296875 447.984375 254.390625 445.191406 253.566406 C 442.398438 252.738281 439.582031 251.996094 436.746094 251.332031 C 433.910156 250.667969 431.058594 250.085938 428.1875 249.585938 C 425.316406 249.085938 422.4375 248.671875 419.542969 248.335938 C 416.648438 248.003906 413.746094 247.753906 410.839844 247.585938 C 407.929688 247.421875 405.019531 247.339844 402.105469 247.339844 Z M 402.105469 536.625 C 395.644531 536.621094 389.214844 536.160156 382.820312 535.246094 C 376.421875 534.332031 370.121094 532.96875 363.917969 531.164062 C 357.714844 529.355469 351.667969 527.121094 345.78125 524.460938 C 339.894531 521.796875 334.222656 518.734375 328.769531 515.269531 C 327.585938 514.519531 326.296875 514.144531 324.898438 514.144531 C 324.113281 514.144531 323.351562 514.269531 322.609375 514.519531 L 268.890625 532.421875 L 286.800781 478.710938 C 287.140625 477.679688 287.246094 476.625 287.117188 475.546875 C 286.984375 474.46875 286.632812 473.472656 286.054688 472.550781 C 284.710938 470.425781 283.429688 468.261719 282.207031 466.0625 C 280.984375 463.863281 279.820312 461.632812 278.71875 459.371094 C 277.621094 457.109375 276.582031 454.816406 275.609375 452.496094 C 274.632812 450.175781 273.722656 447.832031 272.878906 445.464844 C 272.03125 443.09375 271.25 440.703125 270.539062 438.289062 C 269.824219 435.878906 269.175781 433.449219 268.59375 431 C 268.015625 428.550781 267.5 426.089844 267.054688 423.613281 C 266.609375 421.136719 266.234375 418.648438 265.925781 416.152344 C 265.617188 413.65625 265.378906 411.152344 265.207031 408.640625 C 265.035156 406.132812 264.933594 403.617188 264.902344 401.101562 C 264.867188 398.585938 264.902344 396.074219 265.007812 393.558594 C 265.113281 391.042969 265.289062 388.535156 265.53125 386.03125 C 265.777344 383.527344 266.089844 381.03125 266.46875 378.542969 C 266.847656 376.058594 267.296875 373.582031 267.8125 371.121094 C 268.332031 368.65625 268.914062 366.210938 269.566406 363.78125 C 270.214844 361.351562 270.933594 358.941406 271.71875 356.550781 C 272.5 354.160156 273.347656 351.789062 274.261719 349.445312 C 275.175781 347.101562 276.152344 344.785156 277.195312 342.496094 C 278.234375 340.203125 279.339844 337.945312 280.503906 335.714844 C 281.667969 333.484375 282.894531 331.289062 284.179688 329.125 C 285.46875 326.960938 286.8125 324.835938 288.214844 322.75 C 289.617188 320.660156 291.078125 318.613281 292.59375 316.601562 C 294.109375 314.59375 295.675781 312.628906 297.300781 310.707031 C 298.925781 308.785156 300.597656 306.910156 302.324219 305.078125 C 304.050781 303.25 305.828125 301.46875 307.652344 299.734375 C 309.476562 298.003906 311.347656 296.320312 313.265625 294.691406 C 315.179688 293.0625 317.140625 291.488281 319.144531 289.964844 C 321.148438 288.441406 323.191406 286.976562 325.277344 285.566406 C 327.359375 284.160156 329.480469 282.808594 331.640625 281.515625 C 333.796875 280.222656 335.992188 278.988281 338.21875 277.816406 C 340.441406 276.644531 342.699219 275.535156 344.988281 274.484375 C 347.273438 273.4375 349.589844 272.453125 351.929688 271.53125 C 354.269531 270.609375 356.636719 269.753906 359.023438 268.960938 C 361.414062 268.171875 363.820312 267.445312 366.25 266.789062 C 368.675781 266.128906 371.121094 265.535156 373.582031 265.011719 C 376.042969 264.488281 378.515625 264.03125 381.003906 263.644531 C 383.488281 263.253906 385.984375 262.933594 388.488281 262.683594 C 390.988281 262.433594 393.5 262.25 396.011719 262.136719 C 398.523438 262.023438 401.039062 261.980469 403.554688 262.003906 C 406.070312 262.027344 408.585938 262.121094 411.097656 262.285156 C 413.605469 262.449219 416.109375 262.679688 418.609375 262.980469 C 421.105469 263.28125 423.59375 263.648438 426.074219 264.085938 C 428.550781 264.523438 431.015625 265.03125 433.464844 265.601562 C 435.914062 266.175781 438.347656 266.816406 440.761719 267.519531 C 443.175781 268.226562 445.570312 269 447.941406 269.839844 C 450.3125 270.675781 452.660156 271.578125 454.984375 272.546875 C 457.308594 273.511719 459.601562 274.542969 461.867188 275.636719 C 464.132812 276.730469 466.367188 277.882812 468.570312 279.101562 C 470.773438 280.316406 472.941406 281.59375 475.074219 282.925781 C 477.207031 284.261719 479.300781 285.65625 481.355469 287.105469 C 483.410156 288.554688 485.425781 290.0625 487.398438 291.621094 C 489.371094 293.183594 491.300781 294.796875 493.1875 296.464844 C 495.070312 298.132812 496.90625 299.847656 498.699219 301.617188 C 500.488281 303.386719 502.226562 305.203125 503.917969 307.066406 C 505.609375 308.929688 507.246094 310.835938 508.832031 312.792969 C 510.417969 314.746094 511.945312 316.742188 513.421875 318.777344 C 514.898438 320.816406 516.316406 322.894531 517.679688 325.007812 C 519.039062 327.125 520.339844 329.277344 521.585938 331.464844 C 522.828125 333.652344 524.011719 335.871094 525.132812 338.125 C 526.253906 340.375 527.3125 342.65625 528.304688 344.96875 C 529.300781 347.277344 530.234375 349.617188 531.101562 351.976562 C 531.96875 354.339844 532.769531 356.722656 533.507812 359.128906 C 534.242188 361.535156 534.914062 363.957031 535.515625 366.402344 C 536.117188 368.84375 536.652344 371.300781 537.121094 373.773438 C 537.589844 376.246094 537.988281 378.730469 538.320312 381.222656 C 538.652344 383.71875 538.914062 386.21875 539.109375 388.726562 C 539.300781 391.234375 539.425781 393.746094 539.484375 396.261719 C 539.539062 398.777344 539.527344 401.292969 539.445312 403.808594 C 539.359375 406.320312 539.210938 408.832031 538.988281 411.339844 C 538.769531 413.84375 538.480469 416.34375 538.121094 418.835938 C 537.765625 421.324219 537.339844 423.804688 536.84375 426.269531 C 536.351562 428.738281 535.789062 431.1875 535.160156 433.625 C 534.53125 436.0625 533.835938 438.480469 533.074219 440.875 C 532.3125 443.273438 531.488281 445.648438 530.59375 448.003906 C 529.703125 450.355469 528.746094 452.679688 527.726562 454.980469 C 526.707031 457.28125 525.625 459.550781 524.480469 461.792969 C 523.335938 464.03125 522.128906 466.238281 520.863281 468.414062 C 519.597656 470.585938 518.269531 472.726562 516.886719 474.828125 C 515.503906 476.929688 514.0625 478.988281 512.566406 481.011719 C 511.070312 483.035156 509.519531 485.015625 507.914062 486.949219 C 506.304688 488.886719 504.648438 490.777344 502.9375 492.625 C 501.230469 494.46875 499.46875 496.269531 497.660156 498.015625 C 495.851562 499.765625 493.996094 501.464844 492.09375 503.113281 C 490.195312 504.757812 488.246094 506.351562 486.257812 507.890625 C 484.269531 509.433594 482.238281 510.917969 480.167969 512.34375 C 478.097656 513.773438 475.988281 515.144531 473.839844 516.457031 C 471.695312 517.769531 469.511719 519.023438 467.296875 520.214844 C 465.082031 521.40625 462.835938 522.539062 460.558594 523.609375 C 458.28125 524.675781 455.976562 525.683594 453.644531 526.625 C 451.3125 527.566406 448.953125 528.445312 446.574219 529.257812 C 444.191406 530.070312 441.789062 530.820312 439.367188 531.5 C 436.945312 532.179688 434.507812 532.792969 432.050781 533.339844 C 429.59375 533.886719 427.125 534.367188 424.644531 534.777344 C 422.164062 535.191406 419.671875 535.53125 417.167969 535.808594 C 414.667969 536.082031 412.160156 536.285156 409.648438 536.421875 C 407.136719 536.558594 404.625 536.625 402.105469 536.625 Z M 344.25 399.214844 C 344.25 400.164062 344.15625 401.105469 343.972656 402.035156 C 343.785156 402.96875 343.511719 403.871094 343.148438 404.75 C 342.785156 405.628906 342.339844 406.460938 341.8125 407.25 C 341.285156 408.039062 340.683594 408.769531 340.011719 409.441406 C 339.34375 410.113281 338.609375 410.714844 337.820312 411.242188 C 337.03125 411.769531 336.199219 412.214844 335.320312 412.578125 C 334.445312 412.941406 333.539062 413.214844 332.609375 413.402344 C 331.675781 413.585938 330.734375 413.679688 329.785156 413.679688 C 328.835938 413.679688 327.894531 413.585938 326.964844 413.402344 C 326.03125 413.214844 325.128906 412.941406 324.25 412.578125 C 323.371094 412.214844 322.539062 411.769531 321.75 411.242188 C 320.960938 410.714844 320.230469 410.113281 319.558594 409.441406 C 318.886719 408.769531 318.285156 408.039062 317.757812 407.25 C 317.230469 406.460938 316.785156 405.628906 316.421875 404.75 C 316.058594 403.871094 315.785156 402.96875 315.597656 402.035156 C 315.414062 401.105469 315.320312 400.164062 315.320312 399.214844 C 315.320312 398.265625 315.414062 397.324219 315.597656 396.390625 C 315.785156 395.460938 316.058594 394.554688 316.421875 393.679688 C 316.785156 392.800781 317.230469 391.96875 317.757812 391.179688 C 318.285156 390.390625 318.886719 389.65625 319.558594 388.988281 C 320.230469 388.316406 320.960938 387.714844 321.75 387.1875 C 322.539062 386.660156 323.371094 386.214844 324.25 385.851562 C 325.128906 385.488281 326.03125 385.214844 326.964844 385.027344 C 327.894531 384.84375 328.835938 384.75 329.785156 384.75 C 330.734375 384.75 331.675781 384.84375 332.609375 385.027344 C 333.539062 385.214844 334.445312 385.488281 335.320312 385.851562 C 336.199219 386.214844 337.03125 386.660156 337.820312 387.1875 C 338.609375 387.714844 339.34375 388.316406 340.011719 388.988281 C 340.683594 389.65625 341.285156 390.390625 341.8125 391.179688 C 342.339844 391.96875 342.785156 392.800781 343.148438 393.679688 C 343.511719 394.554688 343.785156 395.460938 343.972656 396.390625 C 344.15625 397.324219 344.25 398.265625 344.25 399.214844 Z M 416.570312 399.214844 C 416.570312 400.164062 416.480469 401.105469 416.292969 402.035156 C 416.109375 402.96875 415.832031 403.871094 415.46875 404.75 C 415.105469 405.628906 414.660156 406.460938 414.132812 407.25 C 413.605469 408.039062 413.007812 408.769531 412.335938 409.441406 C 411.664062 410.113281 410.933594 410.714844 410.144531 411.242188 C 409.351562 411.769531 408.519531 412.214844 407.640625 412.578125 C 406.765625 412.941406 405.859375 413.214844 404.929688 413.402344 C 403.996094 413.585938 403.058594 413.679688 402.105469 413.679688 C 401.15625 413.679688 400.214844 413.585938 399.285156 413.402344 C 398.355469 413.214844 397.449219 412.941406 396.570312 412.578125 C 395.695312 412.214844 394.859375 411.769531 394.070312 411.242188 C 393.28125 410.714844 392.550781 410.113281 391.878906 409.441406 C 391.207031 408.769531 390.609375 408.039062 390.082031 407.25 C 389.554688 406.460938 389.105469 405.628906 388.742188 404.75 C 388.378906 403.871094 388.105469 402.96875 387.921875 402.035156 C 387.734375 401.105469 387.644531 400.164062 387.644531 399.214844 C 387.644531 398.265625 387.734375 397.324219 387.921875 396.390625 C 388.105469 395.460938 388.378906 394.554688 388.742188 393.679688 C 389.105469 392.800781 389.554688 391.96875 390.082031 391.179688 C 390.609375 390.390625 391.207031 389.65625 391.878906 388.988281 C 392.550781 388.316406 393.28125 387.714844 394.070312 387.1875 C 394.859375 386.660156 395.695312 386.214844 396.570312 385.851562 C 397.449219 385.488281 398.355469 385.214844 399.285156 385.027344 C 400.214844 384.84375 401.15625 384.75 402.105469 384.75 C 403.058594 384.75 403.996094 384.84375 404.929688 385.027344 C 405.859375 385.214844 406.765625 385.488281 407.640625 385.851562 C 408.519531 386.214844 409.351562 386.660156 410.144531 387.1875 C 410.933594 387.714844 411.664062 388.316406 412.335938 388.988281 C 413.007812 389.65625 413.605469 390.390625 414.132812 391.179688 C 414.660156 391.96875 415.105469 392.800781 415.46875 393.679688 C 415.832031 394.554688 416.109375 395.460938 416.292969 396.390625 C 416.480469 397.324219 416.570312 398.265625 416.570312 399.214844 Z M 488.894531 399.214844 C 488.894531 400.164062 488.800781 401.105469 488.613281 402.035156 C 488.429688 402.96875 488.15625 403.871094 487.792969 404.75 C 487.429688 405.628906 486.984375 406.460938 486.457031 407.25 C 485.925781 408.039062 485.328125 408.769531 484.65625 409.441406 C 483.984375 410.113281 483.253906 410.714844 482.464844 411.242188 C 481.675781 411.769531 480.839844 412.214844 479.964844 412.578125 C 479.085938 412.941406 478.183594 413.214844 477.25 413.402344 C 476.320312 413.585938 475.378906 413.679688 474.429688 413.679688 C 473.480469 413.679688 472.539062 413.585938 471.605469 413.402344 C 470.675781 413.214844 469.769531 412.941406 468.894531 412.578125 C 468.015625 412.214844 467.183594 411.769531 466.394531 411.242188 C 465.601562 410.714844 464.871094 410.113281 464.199219 409.441406 C 463.527344 408.769531 462.929688 408.039062 462.402344 407.25 C 461.875 406.460938 461.429688 405.628906 461.066406 404.75 C 460.703125 403.871094 460.425781 402.96875 460.242188 402.035156 C 460.058594 401.105469 459.964844 400.164062 459.964844 399.214844 C 459.964844 398.265625 460.058594 397.324219 460.242188 396.390625 C 460.425781 395.460938 460.703125 394.554688 461.066406 393.679688 C 461.429688 392.800781 461.875 391.96875 462.402344 391.179688 C 462.929688 390.390625 463.527344 389.65625 464.199219 388.988281 C 464.871094 388.316406 465.601562 387.714844 466.394531 387.1875 C 467.183594 386.660156 468.015625 386.214844 468.894531 385.851562 C 469.769531 385.488281 470.675781 385.214844 471.605469 385.027344 C 472.539062 384.84375 473.480469 384.75 474.429688 384.75 C 475.378906 384.75 476.320312 384.84375 477.25 385.027344 C 478.183594 385.214844 479.085938 385.488281 479.964844 385.851562 C 480.839844 386.214844 481.675781 386.660156 482.464844 387.1875 C 483.253906 387.714844 483.984375 388.316406 484.65625 388.988281 C 485.328125 389.65625 485.925781 390.390625 486.457031 391.179688 C 486.984375 391.96875 487.429688 392.800781 487.792969 393.679688 C 488.15625 394.554688 488.429688 395.460938 488.613281 396.390625 C 488.800781 397.324219 488.894531 398.265625 488.894531 399.214844 Z M 488.894531 399.214844 " fill-opacity="1" fill-rule="nonzero"/></svg>