<svg xmlns="http://www.w3.org/2000/svg" xmlns:xlink="http://www.w3.org/1999/xlink" width="1366" zoomAndPan="magnify" viewBox="0 0 1024.5 576" height="768" preserveAspectRatio="xMidYMid meet" version="1.0"><defs><clipPath id="b88a537285"><path d="M 18 7 L 630 7 L 630 575.859375 L 18 575.859375 Z M 18 7 " clip-rule="nonzero"/></clipPath><clipPath id="ad57c0f741"><path d="M 222 61 L 508 61 L 508 575.859375 L 222 575.859375 Z M 222 61 " clip-rule="nonzero"/></clipPath><clipPath id="062ec5ec8c"><path d="M 19 320 L 293 320 L 293 575.859375 L 19 575.859375 Z M 19 320 " clip-rule="nonzero"/></clipPath></defs><g clip-path="url(#b88a537285)"><path fill="#e7e8ff" d="M 161.644531 575.191406 L 492.730469 575.191406 C 516 575.191406 538.882812 569.226562 559.203125 557.863281 C 628.347656 519.195312 650.230469 429.851562 606.808594 363.492188 L 595.445312 346.128906 C 576.507812 317.183594 572.519531 280.910156 584.71875 248.527344 L 599.980469 208.015625 C 622.070312 149.375 573.460938 88.417969 511.515625 97.085938 C 492.839844 99.699219 473.828125 95.808594 457.667969 86.070312 L 368.550781 32.359375 C 327.054688 7.347656 277.132812 0.507812 230.460938 13.429688 L 191.011719 24.355469 C 115.050781 45.390625 72.152344 125.890625 96.953125 200.859375 L 104.945312 225.023438 C 119.628906 269.40625 103.082031 318.164062 64.441406 344.367188 C 20.710938 374.019531 6.027344 431.769531 30.265625 478.777344 L 42.476562 502.464844 C 65.503906 547.132812 111.476562 575.191406 161.644531 575.191406 Z M 161.644531 575.191406 " fill-opacity="1" fill-rule="nonzero"/></g><path fill="#032068" d="M 606.152344 490.9375 C 606.660156 529.488281 580.496094 562.039062 567.207031 573.4375 L 546.839844 573.4375 C 561.980469 522.003906 587.011719 496.425781 601.035156 487.914062 C 603.371094 486.496094 606.117188 488.199219 606.152344 490.9375 Z M 606.152344 490.9375 " fill-opacity="1" fill-rule="nonzero"/><path fill="#ffffff" d="M 608.308594 364.457031 C 629.167969 443.28125 576.582031 536.636719 553.96875 571.390625 L 508.148438 571.390625 C 527.832031 422.664062 560.828125 386.519531 602.542969 362.09375 C 604.78125 360.78125 607.640625 361.9375 608.308594 364.457031 Z M 608.308594 364.457031 " fill-opacity="1" fill-rule="nonzero"/><path fill="#032068" d="M 603.570312 363.863281 C 604.671875 363.21875 606.027344 363.796875 606.339844 364.984375 C 616.617188 403.816406 608.832031 446.394531 595.523438 483.761719 C 582.464844 520.4375 564.179688 551.847656 552.867188 569.34375 L 510.476562 569.34375 C 520.269531 496.429688 533.292969 451.125 548.890625 421.074219 C 564.597656 390.8125 582.960938 375.929688 603.570312 363.863281 Z M 610.277344 363.929688 C 609.257812 360.082031 604.898438 358.347656 601.519531 360.324219 C 580.410156 372.683594 561.421875 388.082031 545.277344 419.183594 C 529.191406 450.175781 515.984375 496.667969 506.128906 571.121094 L 505.824219 573.4375 L 555.074219 573.4375 L 555.675781 572.511719 C 567.03125 555.058594 585.921875 522.882812 599.359375 485.140625 C 612.785156 447.433594 620.859375 403.921875 610.277344 363.929688 Z M 610.277344 363.929688 " fill-opacity="1" fill-rule="evenodd"/><path fill="#032068" d="M 534.425781 412.953125 C 552.449219 479.007812 531.820312 547.652344 518.332031 573.4375 L 484.730469 573.4375 C 477.171875 492.929688 507.890625 434.386719 528.089844 411.375 C 530.082031 409.105469 533.628906 410.03125 534.425781 412.953125 Z M 534.425781 412.953125 " fill-opacity="1" fill-rule="nonzero"/><path fill="#032068" d="M 579.785156 420.542969 L 590.746094 389.597656 L 594.585938 390.96875 L 569.476562 461.855469 L 585.96875 456.878906 L 587.140625 460.796875 L 567.78125 466.640625 L 544.945312 531.109375 L 565.496094 523.429688 L 566.917969 527.265625 L 543.164062 536.140625 L 530.433594 572.078125 L 526.597656 570.703125 L 552.449219 497.71875 L 542.890625 470.78125 L 546.726562 469.40625 L 554.609375 491.621094 L 577.476562 427.0625 L 570.347656 403.148438 L 574.25 401.976562 Z M 579.785156 420.542969 " fill-opacity="1" fill-rule="evenodd"/><path fill="#ffffff" d="M 517.242188 465.699219 L 522.4375 436.984375 L 526.445312 437.71875 L 515.898438 495.996094 L 529.601562 488.746094 L 531.5 492.367188 L 514.972656 501.113281 L 505.929688 551.097656 L 517.257812 542.15625 L 519.773438 545.371094 L 504.832031 557.171875 L 502.007812 572.777344 L 498 572.046875 L 505.242188 532.011719 L 493.296875 516.359375 L 496.527344 513.871094 L 506.226562 526.574219 L 516.332031 470.734375 L 506.652344 460.226562 L 509.644531 457.449219 Z M 517.242188 465.699219 " fill-opacity="1" fill-rule="evenodd"/><path fill="#ffffff" d="M 552.746094 170.835938 L 558.832031 162.417969 C 559.914062 160.917969 562.285156 161.691406 562.277344 163.539062 L 562.230469 173.683594 C 562.230469 174.296875 562.523438 174.875 563.019531 175.234375 L 572.019531 181.738281 C 573.472656 182.785156 572.804688 185.070312 571.019531 185.175781 L 559.816406 185.851562 C 559.269531 185.886719 558.765625 186.148438 558.429688 186.578125 L 550.835938 196.292969 C 549.707031 197.734375 547.390625 196.910156 547.433594 195.078125 L 547.691406 183.523438 C 547.703125 182.960938 547.464844 182.421875 547.042969 182.050781 L 537.578125 173.765625 C 536.1875 172.546875 537.175781 170.261719 539.019531 170.441406 L 551.015625 171.613281 C 551.6875 171.679688 552.347656 171.382812 552.746094 170.835938 Z M 552.746094 170.835938 " fill-opacity="1" fill-rule="nonzero"/><path fill="#f4ad5e" d="M 614.433594 283.214844 L 617.375 281.605469 C 619 280.71875 620.808594 282.433594 620.003906 284.101562 L 618.59375 287.03125 C 618.328125 287.585938 618.34375 288.234375 618.636719 288.773438 L 620.59375 292.339844 C 621.449219 293.90625 619.867188 295.6875 618.210938 295.015625 L 614.324219 293.449219 C 613.820312 293.246094 613.25 293.269531 612.761719 293.511719 L 608.570312 295.605469 C 606.929688 296.421875 605.195312 294.683594 606.019531 293.046875 L 607.914062 289.285156 C 608.167969 288.78125 608.183594 288.191406 607.960938 287.675781 L 606.082031 283.320312 C 605.347656 281.621094 607.226562 279.984375 608.8125 280.9375 L 612.539062 283.175781 C 613.117188 283.527344 613.839844 283.542969 614.433594 283.214844 Z M 614.433594 283.214844 " fill-opacity="1" fill-rule="nonzero"/><path fill="#ffffff" d="M 76.523438 150.828125 C 76.523438 176.976562 97.730469 198.175781 123.894531 198.175781 C 132.929688 198.175781 141.375 195.644531 148.558594 191.257812 L 162.816406 196.3125 C 165.101562 197.125 167.390625 195.105469 166.867188 192.738281 L 163.386719 176.980469 C 168.363281 169.484375 171.265625 160.496094 171.265625 150.828125 C 171.265625 124.679688 150.054688 103.480469 123.894531 103.480469 C 97.730469 103.480469 76.523438 124.679688 76.523438 150.828125 Z M 76.523438 150.828125 " fill-opacity="1" fill-rule="nonzero"/><path fill="#032068" d="M 123.894531 104.511719 C 98.300781 104.511719 77.554688 125.25 77.554688 150.828125 C 77.554688 176.410156 98.300781 197.144531 123.894531 197.144531 C 132.734375 197.144531 140.992188 194.671875 148.019531 190.382812 L 148.441406 190.125 L 163.164062 195.34375 C 164.6875 195.882812 166.210938 194.539062 165.863281 192.960938 L 162.289062 176.773438 L 162.53125 176.410156 C 167.398438 169.082031 170.234375 160.289062 170.234375 150.828125 C 170.234375 125.25 149.488281 104.511719 123.894531 104.511719 Z M 75.496094 150.828125 C 75.496094 124.113281 97.164062 102.453125 123.894531 102.453125 C 150.625 102.453125 172.292969 124.113281 172.292969 150.828125 C 172.292969 160.546875 169.425781 169.601562 164.488281 177.183594 L 167.871094 192.515625 C 168.570312 195.671875 165.519531 198.363281 162.472656 197.285156 L 148.671875 192.390625 C 141.425781 196.71875 132.949219 199.203125 123.894531 199.203125 C 97.164062 199.203125 75.496094 177.546875 75.496094 150.828125 Z M 75.496094 150.828125 " fill-opacity="1" fill-rule="evenodd"/><path fill="#f4ad5e" d="M 117.652344 164.117188 C 117.082031 164.117188 116.621094 163.652344 116.632812 163.085938 C 116.714844 159.601562 117.214844 156.789062 118.132812 154.648438 C 119.140625 152.296875 120.980469 149.992188 123.648438 147.730469 C 126.347656 145.433594 128.140625 143.582031 129.03125 142.167969 C 129.921875 140.722656 130.367188 139.207031 130.367188 137.625 C 130.367188 132.839844 128.054688 130.449219 123.425781 130.449219 C 121.230469 130.449219 119.46875 131.101562 118.132812 132.402344 C 117.027344 133.480469 116.367188 134.917969 116.15625 136.710938 C 116.09375 137.261719 115.640625 137.707031 115.082031 137.707031 L 104.226562 137.707031 C 103.65625 137.707031 103.1875 137.238281 103.21875 136.667969 C 103.492188 131.757812 105.304688 127.875 108.65625 125.015625 C 112.277344 121.957031 117.199219 120.429688 123.425781 120.429688 C 129.714844 120.429688 134.59375 121.886719 138.0625 124.800781 C 141.53125 127.691406 143.265625 131.78125 143.265625 137.070312 C 143.265625 139.476562 142.703125 141.757812 141.578125 143.90625 C 140.449219 146.03125 138.476562 148.394531 135.660156 150.996094 L 132.058594 154.265625 C 129.804688 156.332031 128.511719 158.75 128.1875 161.527344 L 128.074219 163.15625 C 128.039062 163.695312 127.589844 164.117188 127.046875 164.117188 Z M 115.332031 177.148438 C 115.332031 175.253906 115.996094 173.695312 117.332031 172.480469 C 118.695312 171.234375 120.433594 170.609375 122.539062 170.609375 C 124.644531 170.609375 126.363281 171.234375 127.699219 172.480469 C 129.0625 173.695312 129.742188 175.253906 129.742188 177.148438 C 129.742188 179.015625 129.078125 180.558594 127.742188 181.777344 C 126.4375 182.992188 124.703125 183.601562 122.539062 183.601562 C 120.371094 183.601562 118.621094 182.992188 117.289062 181.777344 C 115.984375 180.558594 115.332031 179.015625 115.332031 177.148438 Z M 115.332031 177.148438 " fill-opacity="1" fill-rule="nonzero"/><path fill="#ffffff" d="M 223.898438 84.222656 C 223.898438 72.601562 233.320312 63.179688 244.949219 63.179688 L 484.46875 63.179688 C 496.09375 63.179688 505.519531 72.601562 505.519531 84.222656 L 505.519531 552.324219 C 505.519531 563.945312 496.09375 573.367188 484.46875 573.367188 L 244.949219 573.367188 C 233.320312 573.367188 223.898438 563.945312 223.898438 552.324219 Z M 223.898438 84.222656 " fill-opacity="1" fill-rule="nonzero"/><g clip-path="url(#ad57c0f741)"><path fill="#032068" d="M 222.140625 84.222656 C 222.140625 71.632812 232.351562 61.425781 244.949219 61.425781 L 484.464844 61.425781 C 497.0625 61.425781 507.273438 71.632812 507.273438 84.222656 L 507.273438 552.324219 C 507.273438 564.914062 497.0625 575.121094 484.464844 575.121094 L 244.949219 575.121094 C 232.351562 575.121094 222.140625 564.914062 222.140625 552.324219 Z M 244.949219 64.933594 C 234.289062 64.933594 225.648438 73.570312 225.648438 84.222656 L 225.648438 552.324219 C 225.648438 562.976562 234.289062 571.613281 244.949219 571.613281 L 484.464844 571.613281 C 495.125 571.613281 503.765625 562.976562 503.765625 552.324219 L 503.765625 84.222656 C 503.765625 73.570312 495.125 64.933594 484.464844 64.933594 Z M 244.949219 64.933594 " fill-opacity="1" fill-rule="evenodd"/></g><path fill="#e7e8ff" d="M 451.976562 250.78125 C 451.976562 299.203125 412.699219 338.460938 364.253906 338.460938 C 315.804688 338.460938 276.53125 299.203125 276.53125 250.78125 C 276.53125 202.359375 315.804688 163.101562 364.253906 163.101562 C 412.699219 163.101562 451.976562 202.359375 451.976562 250.78125 Z M 451.976562 250.78125 " fill-opacity="1" fill-rule="nonzero"/><path fill="#ffffff" d="M 488.820312 191.160156 C 488.820312 213.433594 470.753906 231.492188 448.464844 231.492188 C 426.179688 231.492188 408.113281 213.433594 408.113281 191.160156 C 408.113281 168.886719 426.179688 150.828125 448.464844 150.828125 C 470.753906 150.828125 488.820312 168.886719 488.820312 191.160156 Z M 488.820312 191.160156 " fill-opacity="1" fill-rule="nonzero"/><path fill="#032068" d="M 448.464844 152.582031 C 427.148438 152.582031 409.867188 169.855469 409.867188 191.160156 C 409.867188 212.464844 427.148438 229.738281 448.464844 229.738281 C 469.78125 229.738281 487.0625 212.464844 487.0625 191.160156 C 487.0625 169.855469 469.78125 152.582031 448.464844 152.582031 Z M 406.359375 191.160156 C 406.359375 167.917969 425.210938 149.074219 448.464844 149.074219 C 471.71875 149.074219 490.570312 167.917969 490.570312 191.160156 C 490.570312 214.402344 471.71875 233.246094 448.464844 233.246094 C 425.210938 233.246094 406.359375 214.402344 406.359375 191.160156 Z M 406.359375 191.160156 " fill-opacity="1" fill-rule="evenodd"/><path fill="#f4ad5e" d="M 437.5 190.285156 L 425.65625 202.121094 L 437.5 213.957031 L 449.34375 202.121094 L 461.183594 213.957031 L 473.023438 202.121094 L 461.183594 190.285156 L 473.027344 178.445312 L 461.183594 166.609375 L 449.34375 178.449219 L 437.5 166.609375 L 425.65625 178.449219 Z M 437.5 190.285156 " fill-opacity="1" fill-rule="evenodd"/><path fill="#032068" d="M 308.710938 80.285156 L 299.582031 63.179688 L 429.835938 63.179688 L 419.105469 81.054688 C 415.933594 86.339844 410.222656 89.570312 404.058594 89.570312 L 324.191406 89.570312 C 317.710938 89.570312 311.761719 86 308.710938 80.285156 Z M 308.710938 80.285156 " fill-opacity="1" fill-rule="nonzero"/><path fill="#032068" d="M 502.066406 73.734375 L 225.554688 73.734375 C 234.707031 64.589844 243.449219 62.886719 246.675781 63.179688 L 480.945312 63.179688 C 492.210938 63.179688 499.71875 70.21875 502.066406 73.734375 Z M 502.066406 73.734375 " fill-opacity="1" fill-rule="nonzero"/><path fill="#032068" d="M 501.855469 563.363281 L 227.40625 563.363281 C 236.917969 572.660156 242.414062 574.386719 245.769531 574.089844 L 483.492188 574.089844 C 495.199219 574.089844 499.414062 566.9375 501.855469 563.363281 Z M 501.855469 563.363281 " fill-opacity="1" fill-rule="nonzero"/><path fill="#f4ad5e" d="M 264.25 129.785156 C 264.25 127.847656 265.820312 126.277344 267.757812 126.277344 L 361.191406 126.277344 C 363.128906 126.277344 364.703125 127.847656 364.703125 129.785156 L 364.703125 133.527344 C 364.703125 135.464844 363.128906 137.035156 361.191406 137.035156 L 267.757812 137.035156 C 265.820312 137.035156 264.25 135.464844 264.25 133.527344 Z M 264.25 129.785156 " fill-opacity="1" fill-rule="nonzero"/><path fill="#032068" d="M 264.25 366.515625 C 264.25 364.578125 265.820312 363.011719 267.757812 363.011719 L 361.191406 363.011719 C 363.128906 363.011719 364.703125 364.578125 364.703125 366.515625 L 364.703125 370.257812 C 364.703125 372.195312 363.128906 373.765625 361.191406 373.765625 L 267.757812 373.765625 C 265.820312 373.765625 264.25 372.195312 264.25 370.257812 Z M 264.25 366.515625 " fill-opacity="1" fill-rule="nonzero"/><path fill="#032068" d="M 264.25 459.457031 C 264.25 457.519531 265.820312 455.949219 267.757812 455.949219 L 323.902344 455.949219 C 325.839844 455.949219 327.410156 457.519531 327.410156 459.457031 L 327.410156 462.960938 C 327.410156 464.898438 325.839844 466.46875 323.902344 466.46875 L 267.757812 466.46875 C 265.820312 466.46875 264.25 464.898438 264.25 462.960938 Z M 264.25 459.457031 " fill-opacity="1" fill-rule="nonzero"/><path fill="#e7e8ff" d="M 262.492188 392.820312 C 262.492188 389.914062 264.851562 387.558594 267.757812 387.558594 L 455.484375 387.558594 C 458.390625 387.558594 460.746094 389.914062 460.746094 392.820312 L 460.746094 427.890625 C 460.746094 430.796875 458.390625 433.152344 455.484375 433.152344 L 267.757812 433.152344 C 264.851562 433.152344 262.492188 430.796875 262.492188 427.890625 Z M 267.757812 391.066406 C 266.789062 391.066406 266.003906 391.851562 266.003906 392.820312 L 266.003906 427.890625 C 266.003906 428.859375 266.789062 429.644531 267.757812 429.644531 L 455.484375 429.644531 C 456.453125 429.644531 457.238281 428.859375 457.238281 427.890625 L 457.238281 392.820312 C 457.238281 391.851562 456.453125 391.066406 455.484375 391.066406 Z M 267.757812 391.066406 " fill-opacity="1" fill-rule="evenodd"/><path fill="#e7e8ff" d="M 262.492188 484.003906 C 262.492188 481.097656 264.851562 478.742188 267.757812 478.742188 L 455.484375 478.742188 C 458.390625 478.742188 460.746094 481.097656 460.746094 484.003906 L 460.746094 519.074219 C 460.746094 521.980469 458.390625 524.335938 455.484375 524.335938 L 267.757812 524.335938 C 264.851562 524.335938 262.492188 521.980469 262.492188 519.074219 Z M 267.757812 482.25 C 266.789062 482.25 266.003906 483.035156 266.003906 484.003906 L 266.003906 519.074219 C 266.003906 520.042969 266.789062 520.828125 267.757812 520.828125 L 455.484375 520.828125 C 456.453125 520.828125 457.238281 520.042969 457.238281 519.074219 L 457.238281 484.003906 C 457.238281 483.035156 456.453125 482.25 455.484375 482.25 Z M 267.757812 482.25 " fill-opacity="1" fill-rule="evenodd"/><path fill="#032068" d="M 482.242188 88.25 L 485.75 88.25 L 485.75 102.59375 L 482.242188 102.59375 Z M 482.242188 88.25 " fill-opacity="1" fill-rule="evenodd"/><path fill="#032068" d="M 473.273438 90.042969 L 476.78125 90.042969 L 476.78125 102.59375 L 473.273438 102.59375 Z M 473.273438 90.042969 " fill-opacity="1" fill-rule="evenodd"/><path fill="#032068" d="M 464.304688 93.628906 L 467.8125 93.628906 L 467.8125 102.59375 L 464.304688 102.59375 Z M 464.304688 93.628906 " fill-opacity="1" fill-rule="evenodd"/><path fill="#032068" d="M 455.332031 97.214844 L 458.84375 97.214844 L 458.84375 102.59375 L 455.332031 102.59375 Z M 455.332031 97.214844 " fill-opacity="1" fill-rule="evenodd"/><path fill="#032068" d="M 364.210938 199.339844 C 348.246094 199.339844 335.300781 212.488281 335.300781 228.710938 L 335.300781 248.824219 C 335.300781 251.210938 337.238281 253.144531 339.625 253.144531 C 342.011719 253.144531 343.949219 251.210938 343.949219 248.824219 L 343.949219 228.164062 C 343.949219 216.792969 353.019531 207.574219 364.210938 207.574219 C 375.402344 207.574219 384.476562 216.792969 384.476562 228.164062 L 384.476562 247.746094 C 384.476562 250.132812 386.410156 252.066406 388.800781 252.066406 C 391.1875 252.066406 393.125 250.132812 393.125 247.746094 L 393.125 228.710938 C 393.125 212.488281 380.179688 199.339844 364.210938 199.339844 Z M 364.210938 199.339844 " fill-opacity="1" fill-rule="evenodd"/><path fill="#f4ad5e" d="M 327.328125 248.441406 C 327.328125 245.535156 329.683594 243.179688 332.589844 243.179688 L 395.832031 243.179688 C 398.738281 243.179688 401.097656 245.535156 401.097656 248.441406 L 401.097656 295.710938 C 401.097656 298.617188 398.738281 300.972656 395.832031 300.972656 L 332.589844 300.972656 C 329.683594 300.972656 327.328125 298.617188 327.328125 295.710938 Z M 327.328125 248.441406 " fill-opacity="1" fill-rule="nonzero"/><path fill="#ffffff" d="M 368.917969 274.46875 C 370.628906 273.09375 371.722656 270.984375 371.722656 268.617188 C 371.722656 264.476562 368.363281 261.117188 364.214844 261.117188 C 360.070312 261.117188 356.707031 264.476562 356.707031 268.617188 C 356.707031 271.195312 358.007812 273.46875 359.984375 274.816406 L 358.308594 281.851562 C 358.058594 282.898438 358.855469 283.902344 359.933594 283.902344 L 369.054688 283.902344 C 370.132812 283.902344 370.925781 282.898438 370.679688 281.851562 Z M 368.917969 274.46875 " fill-opacity="1" fill-rule="evenodd"/><path fill="#032068" d="M 474.191406 405.09375 L 431.511719 405.09375 C 428.863281 405.09375 427.171875 402.269531 428.417969 399.933594 L 449.757812 360.027344 C 451.082031 357.554688 454.625 357.554688 455.949219 360.027344 L 477.289062 399.933594 C 478.539062 402.269531 476.84375 405.09375 474.191406 405.09375 Z M 474.191406 405.09375 " fill-opacity="1" fill-rule="nonzero"/><path fill="#ffffff" d="M 450.894531 390.101562 L 454.738281 390.101562 L 455.34375 373.53125 L 450.292969 373.53125 Z M 455.484375 395.265625 C 455.484375 394.445312 455.234375 393.773438 454.738281 393.25 C 454.230469 392.714844 453.601562 392.449219 452.851562 392.449219 C 452.101562 392.449219 451.476562 392.714844 450.980469 393.25 C 450.472656 393.773438 450.222656 394.445312 450.222656 395.265625 C 450.222656 396.085938 450.472656 396.765625 450.980469 397.296875 C 451.476562 397.820312 452.101562 398.082031 452.851562 398.082031 C 453.601562 398.082031 454.230469 397.820312 454.738281 397.296875 C 455.234375 396.765625 455.484375 396.085938 455.484375 395.265625 Z M 455.484375 395.265625 " fill-opacity="1" fill-rule="nonzero"/><path fill="#f4ad5e" d="M 290.726562 409.558594 C 290.726562 412.023438 288.726562 414.023438 286.257812 414.023438 C 283.792969 414.023438 281.792969 412.023438 281.792969 409.558594 C 281.792969 407.09375 283.792969 405.09375 286.257812 405.09375 C 288.726562 405.09375 290.726562 407.09375 290.726562 409.558594 Z M 290.726562 409.558594 " fill-opacity="1" fill-rule="nonzero"/><path fill="#f4ad5e" d="M 312.171875 409.558594 C 312.171875 412.023438 310.171875 414.023438 307.703125 414.023438 C 305.238281 414.023438 303.238281 412.023438 303.238281 409.558594 C 303.238281 407.09375 305.238281 405.09375 307.703125 405.09375 C 310.171875 405.09375 312.171875 407.09375 312.171875 409.558594 Z M 312.171875 409.558594 " fill-opacity="1" fill-rule="nonzero"/><path fill="#f4ad5e" d="M 333.617188 409.558594 C 333.617188 412.023438 331.617188 414.023438 329.148438 414.023438 C 326.683594 414.023438 324.679688 412.023438 324.679688 409.558594 C 324.679688 407.09375 326.683594 405.09375 329.148438 405.09375 C 331.617188 405.09375 333.617188 407.09375 333.617188 409.558594 Z M 333.617188 409.558594 " fill-opacity="1" fill-rule="nonzero"/><path fill="#f4ad5e" d="M 355.0625 409.558594 C 355.0625 412.023438 353.0625 414.023438 350.59375 414.023438 C 348.125 414.023438 346.125 412.023438 346.125 409.558594 C 346.125 407.09375 348.125 405.09375 350.59375 405.09375 C 353.0625 405.09375 355.0625 407.09375 355.0625 409.558594 Z M 355.0625 409.558594 " fill-opacity="1" fill-rule="nonzero"/><path fill="#f4ad5e" d="M 376.503906 409.558594 C 376.503906 412.023438 374.503906 414.023438 372.039062 414.023438 C 369.570312 414.023438 367.570312 412.023438 367.570312 409.558594 C 367.570312 407.09375 369.570312 405.09375 372.039062 405.09375 C 374.503906 405.09375 376.503906 407.09375 376.503906 409.558594 Z M 376.503906 409.558594 " fill-opacity="1" fill-rule="nonzero"/><path fill="#f4ad5e" d="M 397.949219 409.558594 C 397.949219 412.023438 395.949219 414.023438 393.480469 414.023438 C 391.015625 414.023438 389.015625 412.023438 389.015625 409.558594 C 389.015625 407.09375 391.015625 405.09375 393.480469 405.09375 C 395.949219 405.09375 397.949219 407.09375 397.949219 409.558594 Z M 397.949219 409.558594 " fill-opacity="1" fill-rule="nonzero"/><path fill="#efcb96" d="M 159.972656 239.058594 C 135.097656 256.652344 145.554688 287.933594 150.242188 300.050781 L 148.1875 324.785156 C 150.3125 332.570312 158.027344 348.144531 171.875 348.144531 C 185.71875 348.144531 192.066406 334.851562 193.507812 328.203125 L 191.34375 309.4375 C 207.570312 303.570312 208.652344 280.113281 207.570312 261.347656 C 206.285156 239.058594 181.886719 223.5625 159.972656 239.058594 Z M 159.972656 239.058594 " fill-opacity="1" fill-rule="nonzero"/><path fill="#032068" d="M 151.023438 293.921875 L 148.867188 315.1875 C 148.148438 313.613281 146.496094 309.042969 145.636719 303.371094 C 144.558594 296.28125 127.316406 269.109375 132.703125 249.023438 C 137.011719 232.953125 148.867188 233.664062 154.253906 236.027344 C 157.488281 230.117188 176.886719 210.03125 204.902344 212.394531 C 232.921875 214.757812 236.15625 254.929688 213.527344 260.835938 C 195.421875 265.5625 175.089844 262.804688 167.1875 260.835938 C 166.46875 262.414062 164.386719 267.691406 161.796875 276.199219 C 158.566406 286.832031 158.566406 289.195312 157.488281 282.105469 C 156.410156 275.015625 152.101562 262.019531 146.710938 275.015625 C 142.402344 285.414062 147.789062 291.949219 151.023438 293.921875 Z M 151.023438 293.921875 " fill-opacity="1" fill-rule="nonzero"/><path fill="#032068" d="M 166.671875 309.007812 C 174.089844 313.375 185.554688 310.828125 190.359375 309.007812 L 191.390625 316.648438 C 180.679688 319.269531 170.449219 312.648438 166.671875 309.007812 Z M 166.671875 309.007812 " fill-opacity="1" fill-rule="nonzero"/><g clip-path="url(#062ec5ec8c)"><path fill="#f4ad5e" d="M 170.925781 335.027344 C 186.441406 335.027344 193.953125 326.394531 196.210938 321.234375 C 196.476562 320.632812 197.046875 320.207031 197.707031 320.238281 C 206.269531 320.667969 218.414062 325.863281 221.460938 326.910156 C 221.542969 326.9375 221.613281 326.96875 221.6875 327.011719 C 245.625 339.867188 268.324219 362.617188 282.546875 444.675781 C 287.15625 478.917969 295.386719 550.371094 291.4375 562.222656 C 287.488281 574.078125 260.15625 575.722656 246.988281 575.066406 L 74.121094 575.066406 C 69.542969 575.066406 70.960938 567.859375 72.890625 562.386719 C 73.328125 561.148438 72.144531 559.785156 70.84375 559.964844 C 62.964844 561.058594 47.9375 559.628906 31.644531 547.40625 C 0.0351562 521.722656 36.582031 418.992188 60.289062 370.585938 C 78.917969 332.558594 123.207031 321.269531 144.125 320.253906 C 144.796875 320.222656 145.382812 320.648438 145.652344 321.269531 C 147.929688 326.429688 155.445312 335.027344 170.925781 335.027344 Z M 170.925781 335.027344 " fill-opacity="1" fill-rule="nonzero"/></g><path fill="#032068" d="M 67.226562 558.125 C 56.363281 535.046875 33.355469 512.230469 21.054688 501.851562 C 20.109375 501.054688 18.699219 501.679688 18.664062 502.910156 C 18.363281 513.527344 19.792969 532.957031 27.691406 544.445312 C 35.753906 556.171875 55.207031 559.742188 65.867188 560.199219 C 66.964844 560.242188 67.695312 559.121094 67.226562 558.125 Z M 67.226562 558.125 " fill-opacity="1" fill-rule="nonzero"/><path fill="#032068" d="M 167.960938 499.003906 C 122.917969 544.839844 85.3125 559.589844 72.144531 561.234375 L 70.167969 570.128906 C 108.890625 563.804688 151.5 520.078125 167.960938 499.003906 Z M 167.960938 499.003906 " fill-opacity="1" fill-rule="nonzero"/><path fill="#ffffff" d="M 178.824219 484.25 L 178.824219 417.320312 C 178.824219 416.574219 179.363281 415.9375 180.101562 415.816406 L 212.582031 410.402344 C 213.523438 410.246094 214.375 410.976562 214.359375 411.925781 L 213.417969 477.0625 C 213.40625 477.765625 212.917969 478.371094 212.230469 478.527344 L 180.691406 485.734375 C 179.734375 485.953125 178.824219 485.230469 178.824219 484.25 Z M 178.824219 484.25 " fill-opacity="1" fill-rule="nonzero"/><path fill="#032068" d="M 212.332031 408.894531 C 214.210938 408.582031 215.914062 410.046875 215.886719 411.949219 L 214.941406 477.085938 C 214.921875 478.488281 213.941406 479.699219 212.570312 480.015625 L 181.03125 487.222656 C 179.121094 487.660156 177.300781 486.210938 177.300781 484.25 L 177.300781 417.320312 C 177.300781 415.828125 178.378906 414.554688 179.851562 414.308594 Z M 212.835938 411.90625 L 180.351562 417.320312 L 180.351562 484.25 L 211.890625 477.039062 Z M 212.835938 411.90625 " fill-opacity="1" fill-rule="evenodd"/><path fill="#032068" d="M 93.875 464.429688 C 92.292969 467.589844 75.433594 475.625 67.203125 479.25 C 75.894531 476.878906 126.800781 459.160156 151.164062 450.601562 C 144.25 450.601562 103.75 462.453125 102.761719 460.480469 C 101.972656 458.898438 105.070312 438.746094 106.714844 428.867188 C 103.09375 439.40625 95.453125 461.269531 93.875 464.429688 Z M 93.875 464.429688 " fill-opacity="1" fill-rule="nonzero"/><path fill="#efcb96" d="M 165.984375 446.648438 C 162.03125 452.972656 157.753906 455.871094 156.105469 456.527344 L 163.019531 479.25 C 171.910156 474.308594 186.726562 475.296875 197.59375 469.371094 C 208.460938 463.445312 206.484375 434.796875 200.558594 436.773438 C 195.816406 438.351562 184.09375 443.355469 178.828125 445.660156 L 178.828125 431.832031 C 171.910156 434.796875 170.921875 438.746094 165.984375 446.648438 Z M 165.984375 446.648438 " fill-opacity="1" fill-rule="nonzero"/><path fill="#f4ad5e" d="M 228.425781 323.523438 C 220.71875 323.523438 201.878906 341.507812 201.878906 350.070312 C 200.167969 356.921875 245.550781 454.542969 278.945312 472.523438 C 312.34375 490.507812 339.746094 468.242188 337.179688 433.992188 C 334.480469 398.023438 237.367188 323.523438 228.425781 323.523438 Z M 228.425781 323.523438 " fill-opacity="1" fill-rule="nonzero"/><path fill="#032068" d="M 337.175781 431.421875 C 305.664062 438.957031 292.078125 464.816406 289.222656 476.804688 C 296.644531 478.804688 310.628906 485.367188 326.902344 469.101562 C 338.566406 457.433594 338.890625 439.414062 337.175781 431.421875 Z M 337.175781 431.421875 " fill-opacity="1" fill-rule="nonzero"/><path fill="#032068" d="M 241.269531 430.566406 C 261.820312 464.816406 280.089844 475.09375 286.652344 475.949219 L 288.367188 487.082031 C 283.226562 486.226562 270.898438 478.519531 252.402344 454.542969 C 226.367188 421.660156 207.015625 371.195312 201.878906 350.070312 C 206.160156 364.628906 215.578125 387.75 241.269531 430.566406 Z M 241.269531 430.566406 " fill-opacity="1" fill-rule="nonzero"/><path fill="#efcb96" d="M 203.589844 297.976562 C 204.792969 299.804688 215.96875 318.042969 220.71875 326.933594 C 216.21875 331.507812 206.773438 340.652344 204.972656 340.652344 C 202.722656 340.652344 189.976562 336.839844 184.730469 329.980469 C 179.480469 323.125 187.726562 314.742188 187.726562 313.980469 C 187.726562 313.214844 174.234375 307.121094 171.984375 304.074219 C 169.734375 301.023438 172.761719 297.835938 176.1875 298.691406 C 178.144531 298.691406 190.746094 305.542969 195.027344 307.253906 C 196.828125 306.644531 199.308594 304.6875 203.589844 297.976562 Z M 203.589844 297.976562 " fill-opacity="1" fill-rule="nonzero"/><path fill="#032068" d="M 171.050781 302.972656 C 171.738281 307.769531 178.1875 311.820312 181.324219 313.25 L 183.894531 311.535156 C 182.753906 310.964844 179.613281 309.308594 176.1875 307.253906 C 172.761719 305.199219 171.335938 303.542969 171.050781 302.972656 Z M 171.050781 302.972656 " fill-opacity="1" fill-rule="nonzero"/><path fill="#032068" d="M 183.039062 332.945312 C 176.875 326.777344 179.898438 319.527344 182.183594 316.671875 L 186.464844 315.816406 C 181.328125 324.382812 184.46875 330.089844 186.464844 331.230469 Z M 183.039062 332.945312 " fill-opacity="1" fill-rule="nonzero"/></svg>