<svg xmlns="http://www.w3.org/2000/svg" xmlns:xlink="http://www.w3.org/1999/xlink" width="1366" zoomAndPan="magnify" viewBox="0 0 1024.5 576" height="768" preserveAspectRatio="xMidYMid meet" version="1.0"><defs><clipPath id="e736533d6f"><path d="M 231 0.140625 L 809 0.140625 L 809 575 L 231 575 Z M 231 0.140625 " clip-rule="nonzero"/></clipPath></defs><g clip-path="url(#e736533d6f)"><path fill="#caddff" d="M 280.773438 241.542969 C 301.335938 157.742188 265.34375 135.046875 286.707031 89.019531 C 319.578125 18.207031 463.515625 -13.003906 557.816406 -0.269531 C 673.316406 15.328125 785.730469 100.480469 805.390625 229.277344 C 826.394531 366.898438 738.1875 495.726562 615.804688 547.457031 C 568.972656 567.253906 512.207031 576.265625 457.269531 573.597656 C 449.800781 573.234375 441.695312 570.765625 434.324219 569.972656 C 428.550781 569.347656 423.484375 570.480469 417.804688 569.585938 C 401.386719 567.007812 385.410156 563.300781 370.21875 558.445312 C 363.203125 556.199219 358.609375 549.285156 351.960938 546.542969 C 344.40625 543.433594 334.859375 544.425781 327.875 540.667969 C 306.738281 529.296875 288.4375 514.953125 274.347656 497.535156 C 267.03125 488.484375 227.894531 438.648438 231.714844 373.324219 C 234.875 319.335938 264.476562 307.964844 280.773438 241.542969 " fill-opacity="1" fill-rule="nonzero"/></g><path fill="#000000" d="M 398.242188 415.15625 L 670.296875 415.15625 C 674.441406 415.15625 678.160156 412.667969 679.648438 408.90625 L 808.613281 82.980469 C 809.894531 79.734375 809.265625 76.363281 807.414062 73.835938 C 805.628906 71.40625 800.476562 64.226562 800.476562 64.226562 L 527.210938 69.757812 C 523.066406 69.757812 519.347656 72.242188 517.863281 76.007812 L 384.074219 403.515625 C 384.074219 403.515625 388.3125 408.898438 390.390625 411.460938 C 392.195312 413.679688 394.984375 415.15625 398.242188 415.15625 " fill-opacity="1" fill-rule="nonzero"/><path fill="#ffffff" d="M 391.625 405.445312 L 663.683594 405.445312 C 667.828125 405.445312 671.546875 402.960938 673.027344 399.195312 L 801.183594 74.191406 C 803.699219 67.8125 798.859375 60.96875 791.839844 60.96875 L 519.78125 60.96875 C 515.636719 60.96875 511.917969 63.449219 510.433594 67.21875 L 382.28125 392.21875 C 379.765625 398.597656 384.605469 405.445312 391.625 405.445312 " fill-opacity="1" fill-rule="nonzero"/><path fill="#000000" d="M 519.777344 62.015625 C 516.089844 62.015625 512.722656 64.257812 511.40625 67.601562 L 383.25 392.605469 C 382.207031 395.253906 382.53125 398.128906 384.140625 400.492188 C 385.804688 402.9375 388.605469 404.402344 391.625 404.402344 L 663.683594 404.402344 C 667.375 404.402344 670.738281 402.15625 672.054688 398.8125 L 800.207031 73.808594 C 801.25 71.160156 800.929688 68.285156 799.316406 65.917969 C 797.65625 63.472656 794.859375 62.015625 791.839844 62.015625 Z M 663.683594 406.492188 L 391.625 406.492188 C 387.910156 406.492188 384.46875 404.691406 382.414062 401.671875 C 380.40625 398.722656 380.003906 395.144531 381.304688 391.839844 L 509.460938 66.832031 C 511.09375 62.699219 515.238281 59.921875 519.777344 59.921875 L 791.839844 59.921875 C 795.550781 59.921875 798.992188 61.722656 801.046875 64.742188 C 803.054688 67.691406 803.457031 71.273438 802.15625 74.578125 L 674 399.578125 C 672.371094 403.714844 668.226562 406.492188 663.683594 406.492188 " fill-opacity="1" fill-rule="nonzero"/><path fill="#ffffff" d="M 368.9375 385.1875 L 640.996094 385.1875 C 645.136719 385.1875 648.851562 382.699219 650.339844 378.9375 L 778.496094 53.929688 C 781.007812 47.554688 776.171875 40.707031 769.148438 40.707031 L 497.089844 40.707031 C 492.945312 40.707031 489.230469 43.195312 487.742188 46.957031 L 359.589844 371.964844 C 357.074219 378.335938 361.914062 385.1875 368.9375 385.1875 " fill-opacity="1" fill-rule="nonzero"/><path fill="#000000" d="M 497.089844 41.753906 C 493.402344 41.753906 490.035156 44 488.71875 47.34375 L 360.5625 372.34375 C 359.519531 374.996094 359.84375 377.871094 361.453125 380.234375 C 363.117188 382.679688 365.914062 384.140625 368.9375 384.140625 L 640.992188 384.140625 C 644.6875 384.140625 648.046875 381.894531 649.367188 378.550781 L 777.519531 53.550781 C 778.566406 50.902344 778.238281 48.027344 776.632812 45.660156 C 774.96875 43.214844 772.167969 41.753906 769.148438 41.753906 Z M 640.992188 386.230469 L 368.9375 386.230469 C 365.222656 386.230469 361.777344 384.429688 359.722656 381.410156 C 357.71875 378.464844 357.316406 374.882812 358.617188 371.578125 L 486.773438 46.574219 C 488.402344 42.441406 492.550781 39.664062 497.089844 39.664062 L 769.148438 39.664062 C 772.863281 39.664062 776.308594 41.464844 778.359375 44.480469 C 780.371094 47.429688 780.769531 51.015625 779.46875 54.316406 L 651.3125 379.316406 C 649.683594 383.457031 645.535156 386.230469 640.992188 386.230469 " fill-opacity="1" fill-rule="nonzero"/><path fill="#99b9ff" d="M 391.269531 365.757812 L 630.976562 365.757812 C 634.628906 365.757812 637.90625 363.570312 639.210938 360.253906 L 752.128906 73.890625 C 754.34375 68.273438 750.078125 62.242188 743.894531 62.242188 L 504.183594 62.242188 C 500.535156 62.242188 497.257812 64.429688 495.953125 67.746094 L 383.035156 354.109375 C 380.820312 359.726562 385.082031 365.757812 391.269531 365.757812 " fill-opacity="1" fill-rule="nonzero"/><path fill="#ffffff" d="M 608.257812 252.632812 L 500.726562 252.632812 C 489.59375 252.632812 481.957031 241.433594 486.011719 231.070312 C 488.386719 225.019531 494.222656 221.039062 500.726562 221.039062 L 608.257812 221.039062 C 619.382812 221.039062 627.023438 232.234375 622.964844 242.59375 C 620.59375 248.648438 614.757812 252.632812 608.257812 252.632812 " fill-opacity="1" fill-rule="nonzero"/><path fill="#ffffff" d="M 549.910156 160.414062 L 627.664062 160.414062 C 629.621094 160.414062 631.203125 158.828125 631.203125 156.875 C 631.203125 154.921875 629.621094 153.335938 627.664062 153.335938 L 549.910156 153.335938 C 547.953125 153.335938 546.371094 154.921875 546.371094 156.875 C 546.371094 158.828125 547.953125 160.414062 549.910156 160.414062 " fill-opacity="1" fill-rule="nonzero"/><path fill="#ffffff" d="M 516.660156 178.375 L 634.902344 178.375 C 636.859375 178.375 638.441406 176.792969 638.441406 174.835938 C 638.441406 172.882812 636.859375 171.296875 634.902344 171.296875 L 516.660156 171.296875 C 514.703125 171.296875 513.117188 172.882812 513.117188 174.835938 C 513.117188 176.792969 514.703125 178.375 516.660156 178.375 " fill-opacity="1" fill-rule="nonzero"/><path fill="#ffffff" d="M 526.105469 196.792969 L 603.859375 196.792969 C 605.816406 196.792969 607.398438 195.207031 607.398438 193.253906 C 607.398438 191.296875 605.816406 189.714844 603.859375 189.714844 L 526.105469 189.714844 C 524.152344 189.714844 522.566406 191.296875 522.566406 193.253906 C 522.566406 195.207031 524.152344 196.792969 526.105469 196.792969 " fill-opacity="1" fill-rule="nonzero"/><path fill="#000000" d="M 631.089844 366.339844 L 604.476562 366.339844 C 603.902344 366.339844 603.429688 365.867188 603.429688 365.289062 C 603.429688 364.714844 603.902344 364.246094 604.476562 364.246094 L 631.089844 364.246094 C 634.289062 364.246094 637.207031 362.300781 638.347656 359.398438 L 666.363281 288.363281 C 666.570312 287.828125 667.175781 287.566406 667.714844 287.78125 C 668.253906 287.988281 668.515625 288.59375 668.304688 289.132812 L 640.296875 360.167969 C 638.835938 363.859375 635.136719 366.339844 631.089844 366.339844 " fill-opacity="1" fill-rule="nonzero"/><path fill="#000000" d="M 473.890625 125.15625 C 473.761719 125.15625 473.628906 125.136719 473.503906 125.082031 C 472.96875 124.871094 472.703125 124.261719 472.917969 123.726562 L 491.589844 76.722656 C 491.800781 76.1875 492.410156 75.925781 492.945312 76.140625 C 493.480469 76.351562 493.742188 76.957031 493.53125 77.496094 L 474.859375 124.496094 C 474.695312 124.90625 474.304688 125.15625 473.890625 125.15625 " fill-opacity="1" fill-rule="nonzero"/><path fill="#000000" d="M 726.296875 140.257812 C 726.167969 140.257812 726.039062 140.234375 725.914062 140.1875 C 725.375 139.976562 725.109375 139.363281 725.324219 138.828125 L 751.265625 73.042969 C 752.167969 70.742188 751.886719 68.25 750.496094 66.203125 C 749.054688 64.085938 746.625 62.816406 744 62.816406 L 526.996094 62.816406 C 526.417969 62.816406 525.949219 62.347656 525.949219 61.769531 C 525.949219 61.191406 526.417969 60.726562 526.996094 60.726562 L 744 60.726562 C 747.3125 60.726562 750.390625 62.332031 752.222656 65.027344 C 754.015625 67.660156 754.375 70.859375 753.210938 73.804688 L 727.269531 139.597656 C 727.109375 140.003906 726.714844 140.257812 726.296875 140.257812 " fill-opacity="1" fill-rule="nonzero"/><path fill="#000000" d="M 580.269531 223.550781 L 578.789062 222.070312 L 587.507812 213.355469 L 588.988281 214.832031 L 580.269531 223.550781 " fill-opacity="1" fill-rule="nonzero"/><path fill="#000000" d="M 587.507812 260.238281 L 578.789062 251.519531 L 580.269531 250.039062 L 588.988281 258.761719 L 587.507812 260.238281 " fill-opacity="1" fill-rule="nonzero"/><path fill="#000000" d="M 550.820312 223.550781 L 542.101562 214.832031 L 543.582031 213.355469 L 552.300781 222.070312 L 550.820312 223.550781 " fill-opacity="1" fill-rule="nonzero"/><path fill="#000000" d="M 568.507812 245.371094 L 567.628906 243.476562 C 570.503906 242.136719 572.367188 239.222656 572.367188 236.046875 C 572.367188 231.527344 568.691406 227.855469 564.175781 227.855469 C 561.453125 227.855469 558.910156 229.207031 557.382812 231.46875 L 555.652344 230.296875 C 557.566406 227.457031 560.753906 225.765625 564.175781 225.765625 C 569.84375 225.765625 574.457031 230.375 574.457031 236.046875 C 574.457031 240.027344 572.125 243.691406 568.507812 245.371094 " fill-opacity="1" fill-rule="nonzero"/><path fill="#ffffff" d="M 575.699219 95.636719 C 586.535156 79.839844 605.617188 72.777344 618.316406 79.855469 C 631.019531 86.933594 632.535156 105.476562 621.703125 121.269531 C 621.027344 122.257812 620.316406 123.207031 619.578125 124.128906 C 608.515625 137.894531 597.949219 133.21875 586.042969 126.585938 C 579.570312 122.976562 569.050781 126.859375 568.539062 119.179688 C 568.046875 111.789062 570.394531 103.382812 575.699219 95.636719 " fill-opacity="1" fill-rule="nonzero"/><path fill="#5479f7" d="M 568.546875 119.179688 C 569.058594 126.859375 572.613281 133.445312 579.089844 137.050781 C 591 143.6875 608.507812 137.894531 619.578125 124.132812 C 602.007812 108.148438 578.070312 115.328125 568.546875 119.179688 " fill-opacity="1" fill-rule="nonzero"/><path fill="#000000" d="M 609.371094 105.261719 L 614.820312 98.132812 C 616.875 95.433594 617.175781 92.03125 615.546875 89.78125 C 615.078125 89.128906 612.652344 88.820312 610.746094 88.597656 C 609.398438 88.4375 608.28125 87.714844 607.640625 86.59375 L 606.777344 85.085938 C 605.65625 84.046875 604.015625 83.632812 602.316406 84.078125 C 601.730469 84.226562 601.152344 84.449219 600.585938 84.746094 L 600.03125 85.035156 C 597.382812 86.417969 595.488281 89.121094 595.222656 91.914062 L 594.40625 101.484375 L 609.371094 105.261719 " fill-opacity="1" fill-rule="nonzero"/><path fill="#ffffff" d="M 607.238281 92.5 L 597.746094 92.191406 L 592.566406 105.375 C 591.515625 107.800781 591.976562 110.058594 593.269531 111.230469 L 591.503906 115.300781 C 590.304688 118.046875 591.382812 120.808594 593.914062 121.464844 C 596.4375 122.125 599.457031 120.425781 600.648438 117.679688 L 603.222656 111.777344 C 605.933594 110.542969 608.277344 108.050781 609.570312 105.089844 L 611.675781 100.246094 C 613.582031 95.859375 612.484375 93.316406 607.238281 92.5 " fill-opacity="1" fill-rule="nonzero"/><path fill="#000000" d="M 595.0625 122.652344 C 594.585938 122.652344 594.113281 122.59375 593.648438 122.476562 C 592.242188 122.109375 591.128906 121.199219 590.5 119.917969 C 589.777344 118.4375 589.796875 116.597656 590.546875 114.878906 L 592.261719 110.9375 C 592.492188 110.40625 593.109375 110.164062 593.636719 110.394531 C 594.164062 110.625 594.410156 111.238281 594.179688 111.769531 L 592.464844 115.714844 C 591.960938 116.875 591.929688 118.074219 592.382812 119 C 592.738281 119.734375 593.363281 120.238281 594.175781 120.449219 C 596.1875 120.972656 598.710938 119.511719 599.695312 117.257812 L 602.261719 111.355469 C 602.492188 110.828125 603.109375 110.585938 603.636719 110.816406 C 604.167969 111.042969 604.414062 111.664062 604.179688 112.191406 L 601.613281 118.09375 C 600.414062 120.851562 597.714844 122.652344 595.0625 122.652344 " fill-opacity="1" fill-rule="nonzero"/><path fill="#000000" d="M 598.480469 93.492188 L 594.042969 104.085938 C 593.195312 106.042969 592.71875 108.625 593.558594 110.011719 C 593.925781 110.625 594.550781 110.957031 595.460938 111.027344 C 595.484375 111.027344 595.511719 111.03125 595.535156 111.03125 L 598.738281 111.5 C 602.949219 111.460938 606.816406 108.785156 608.609375 104.667969 L 610.714844 99.832031 C 611.574219 97.863281 611.59375 96.09375 610.78125 94.980469 C 610.054688 93.980469 608.699219 93.554688 606.855469 93.738281 C 606.808594 93.738281 606.761719 93.742188 606.71875 93.738281 Z M 598.664062 113.59375 C 598.613281 113.59375 598.5625 113.589844 598.515625 113.582031 L 595.265625 113.109375 C 593.277344 112.945312 592.265625 111.925781 591.761719 111.089844 C 590.457031 108.929688 591.09375 105.632812 592.125 103.269531 L 596.832031 92.023438 C 596.996094 91.621094 597.410156 91.363281 597.824219 91.378906 L 606.714844 91.648438 C 609.269531 91.410156 611.3125 92.15625 612.472656 93.746094 C 613.734375 95.476562 613.789062 98 612.632812 100.664062 L 610.53125 105.503906 C 608.394531 110.40625 603.738281 113.578125 598.664062 113.59375 " fill-opacity="1" fill-rule="nonzero"/><path fill="#000000" d="M 419.324219 372.648438 C 421.085938 358.355469 420.074219 360.546875 420.074219 360.546875 L 360.164062 364.074219 C 360.164062 364.074219 354.707031 401.195312 354.367188 403.730469 C 354.078125 405.871094 339.453125 481.253906 327.882812 540.65625 C 341.011719 547.71875 355.234375 553.636719 370.222656 558.433594 C 381.300781 533.566406 393.199219 503.503906 401.550781 473.304688 C 408.125 499.988281 414.585938 537.851562 417.800781 569.585938 C 430.738281 571.617188 443.949219 572.949219 457.265625 573.597656 C 465.558594 519.339844 473.65625 432.269531 453.066406 374.074219 L 419.324219 372.648438 " fill-opacity="1" fill-rule="nonzero"/><path fill="#caddff" d="M 402.753906 483.953125 C 402.253906 483.953125 401.8125 483.589844 401.722656 483.082031 C 399.449219 469.683594 393.46875 452.484375 389 443.597656 C 383.6875 433.035156 383.105469 422.234375 382.722656 415.082031 C 382.691406 414.507812 383.132812 414.011719 383.710938 413.984375 C 384.277344 413.957031 384.777344 414.394531 384.808594 414.972656 C 385.183594 421.945312 385.753906 432.488281 390.867188 442.65625 C 395.40625 451.683594 401.480469 469.140625 403.785156 482.730469 C 403.882812 483.300781 403.5 483.839844 402.929688 483.9375 C 402.871094 483.945312 402.8125 483.953125 402.753906 483.953125 " fill-opacity="1" fill-rule="nonzero"/><path fill="#ffffff" d="M 465.222656 189.824219 L 464.984375 189.078125 C 464.132812 186.40625 463.820312 183.597656 463.949219 180.800781 C 464.066406 178.222656 464.488281 173.523438 463.578125 172.046875 C 461.019531 167.890625 451.105469 150.371094 433.554688 158.148438 C 419.871094 164.207031 420.882812 185.546875 421.597656 192.785156 C 421.761719 194.460938 421.515625 196.152344 420.890625 197.714844 C 420.859375 197.792969 420.820312 197.875 420.78125 197.957031 L 412.628906 214.667969 C 411.453125 217.097656 411.9375 220.007812 413.839844 221.925781 L 414.890625 222.980469 C 417.195312 225.6875 422.308594 227.03125 425.800781 227.34375 C 428.351562 227.570312 430.289062 227.34375 432.179688 226.355469 C 433.972656 225.414062 434.699219 224.222656 435.230469 222.242188 C 435.230469 222.242188 439.464844 208.203125 441.167969 209.289062 C 446.882812 212.9375 449.933594 212.375 453.488281 208.210938 C 455.71875 205.601562 458.683594 201.488281 460.828125 195.3125 C 461.050781 194.671875 461.496094 194.128906 462.070312 193.765625 L 464.535156 192.214844 C 465.226562 191.628906 465.496094 190.683594 465.222656 189.824219 " fill-opacity="1" fill-rule="nonzero"/><path fill="#000000" d="M 442.222656 157.226562 C 439.707031 157.226562 436.960938 157.78125 433.976562 159.105469 C 421.300781 164.71875 421.824219 184.460938 422.636719 192.6875 C 422.816406 194.515625 422.546875 196.390625 421.859375 198.105469 C 421.816406 198.214844 421.769531 198.316406 421.71875 198.417969 L 413.566406 215.125 C 412.585938 217.148438 412.992188 219.589844 414.582031 221.195312 L 415.628906 222.25 C 415.648438 222.269531 415.667969 222.289062 415.683594 222.304688 C 417.652344 224.617188 422.230469 225.980469 425.894531 226.304688 C 428.402344 226.523438 430.082031 226.273438 431.691406 225.429688 C 433.097656 224.695312 433.714844 223.855469 434.21875 221.972656 C 435.671875 217.164062 438.394531 209.039062 440.445312 208.28125 C 440.886719 208.117188 441.339844 208.164062 441.726562 208.414062 C 447.351562 212.003906 449.742188 210.992188 452.691406 207.535156 C 455.851562 203.835938 458.1875 199.726562 459.835938 194.976562 C 460.136719 194.121094 460.726562 193.375 461.511719 192.882812 L 463.90625 191.375 C 464.238281 191.0625 464.367188 190.582031 464.222656 190.144531 L 463.984375 189.398438 C 463.128906 186.707031 462.761719 183.800781 462.902344 180.753906 C 462.921875 180.394531 462.941406 179.996094 462.964844 179.570312 C 463.082031 177.480469 463.300781 173.589844 462.6875 172.597656 L 462.410156 172.144531 C 459.929688 168.074219 453.320312 157.226562 442.222656 157.226562 Z M 427.472656 228.472656 C 426.917969 228.472656 426.332031 228.445312 425.707031 228.386719 C 421.933594 228.054688 416.644531 226.621094 414.121094 223.695312 L 413.097656 222.664062 C 410.886719 220.4375 410.316406 217.035156 411.683594 214.210938 L 419.839844 197.5 C 419.867188 197.441406 419.894531 197.382812 419.917969 197.328125 C 420.484375 195.921875 420.703125 194.390625 420.554688 192.894531 C 419.695312 184.214844 419.207031 163.359375 433.128906 157.195312 C 444.949219 151.957031 455.402344 156.621094 464.195312 171.058594 L 464.46875 171.5 C 465.351562 172.941406 465.261719 175.929688 465.054688 179.6875 C 465.03125 180.109375 465.011719 180.5 464.992188 180.851562 C 464.863281 183.644531 465.195312 186.308594 465.976562 188.761719 L 466.21875 189.507812 C 466.621094 190.777344 466.226562 192.15625 465.207031 193.011719 C 465.175781 193.042969 465.132812 193.074219 465.089844 193.101562 L 462.625 194.652344 C 462.242188 194.894531 461.957031 195.25 461.8125 195.660156 C 460.078125 200.660156 457.613281 204.988281 454.285156 208.894531 C 450.34375 213.507812 446.714844 213.945312 441.007812 210.425781 C 439.917969 211.734375 437.753906 217.507812 436.230469 222.542969 C 435.695312 224.539062 434.878906 226.121094 432.660156 227.285156 C 431.117188 228.09375 429.503906 228.472656 427.472656 228.472656 " fill-opacity="1" fill-rule="nonzero"/><path fill="#000000" d="M 454.613281 147.992188 C 459.082031 150.296875 461.09375 154.492188 463.546875 155.148438 C 472.453125 157.535156 476.679688 162.167969 473.578125 169.71875 C 468.410156 182.292969 452.773438 176.625 449.511719 176.65625 C 446.457031 176.683594 441.410156 178.519531 438.441406 184.636719 C 438.054688 185.425781 437.1875 185.867188 436.328125 185.730469 C 435.324219 185.574219 434.609375 184.679688 434.691406 183.660156 C 434.949219 180.449219 435.078125 173.933594 432.023438 173.023438 C 428.1875 171.878906 422.152344 180.792969 427.636719 186.839844 C 429.320312 188.695312 429.289062 191.863281 427.460938 193.648438 C 426.269531 194.8125 423.726562 195.339844 421.535156 194.246094 C 420.199219 193.578125 419.453125 192.238281 418.976562 190.824219 C 416.996094 184.984375 414.433594 164.9375 421.066406 154.21875 C 429.0625 141.304688 448.664062 144.933594 454.613281 147.992188 " fill-opacity="1" fill-rule="nonzero"/><path fill="#000000" d="M 441.101562 210.296875 C 440.910156 210.296875 440.714844 210.246094 440.539062 210.132812 C 436.417969 207.488281 433.84375 203.5 432.414062 200.617188 C 432.15625 200.101562 432.367188 199.472656 432.882812 199.21875 C 433.398438 198.957031 434.027344 199.171875 434.285156 199.6875 C 435.601562 202.332031 437.949219 205.988281 441.667969 208.371094 C 442.15625 208.683594 442.296875 209.332031 441.984375 209.816406 C 441.785156 210.128906 441.449219 210.296875 441.101562 210.296875 " fill-opacity="1" fill-rule="nonzero"/><path fill="#ffffff" d="M 329.449219 448.964844 L 240.765625 423.324219 C 239.617188 422.988281 238.957031 421.792969 239.289062 420.644531 L 255.058594 366.105469 C 255.390625 364.953125 256.589844 364.292969 257.738281 364.625 L 346.421875 390.265625 C 347.570312 390.601562 348.234375 391.800781 347.902344 392.949219 L 332.132812 447.488281 C 331.796875 448.636719 330.597656 449.296875 329.449219 448.964844 " fill-opacity="1" fill-rule="nonzero"/><path fill="#000000" d="M 258.925781 366.210938 C 257.304688 366.210938 255.808594 367.277344 255.335938 368.910156 L 241.019531 418.417969 C 240.742188 419.378906 240.855469 420.386719 241.335938 421.261719 C 241.820312 422.136719 242.613281 422.769531 243.570312 423.046875 L 327.226562 447.234375 C 329.203125 447.804688 331.28125 446.664062 331.855469 444.679688 L 346.167969 395.171875 C 346.445312 394.214844 346.335938 393.203125 345.851562 392.328125 C 345.367188 391.457031 344.574219 390.820312 343.617188 390.542969 L 259.964844 366.359375 C 259.617188 366.257812 259.269531 366.210938 258.925781 366.210938 Z M 328.261719 449.472656 C 327.726562 449.472656 327.183594 449.398438 326.644531 449.242188 L 242.992188 425.054688 C 241.496094 424.621094 240.257812 423.632812 239.503906 422.269531 C 238.753906 420.910156 238.578125 419.332031 239.011719 417.839844 L 253.328125 368.328125 C 254.21875 365.242188 257.457031 363.453125 260.542969 364.347656 L 344.199219 388.539062 C 345.691406 388.96875 346.929688 389.957031 347.683594 391.320312 C 348.433594 392.683594 348.609375 394.257812 348.179688 395.753906 L 333.863281 445.265625 C 333.125 447.808594 330.789062 449.472656 328.261719 449.472656 " fill-opacity="1" fill-rule="nonzero"/><path fill="#ffffff" d="M 253.75 372.003906 L 254.273438 372.949219 C 258.816406 381.148438 266.417969 387.207031 275.417969 389.808594 L 318.648438 402.308594 C 327.675781 404.917969 337.367188 403.835938 345.597656 399.300781 L 253.75 372.003906 " fill-opacity="1" fill-rule="nonzero"/><path fill="#000000" d="M 328.539062 404.765625 C 325.136719 404.765625 321.71875 404.285156 318.359375 403.3125 L 275.128906 390.816406 C 265.796875 388.117188 258.066406 381.953125 253.359375 373.457031 L 252.835938 372.507812 C 252.554688 372.003906 252.738281 371.367188 253.242188 371.085938 C 253.746094 370.808594 254.382812 370.992188 254.664062 371.496094 L 255.1875 372.445312 C 259.625 380.453125 266.914062 386.261719 275.707031 388.804688 L 318.941406 401.308594 C 327.761719 403.855469 337.050781 402.816406 345.089844 398.382812 C 345.597656 398.105469 346.230469 398.285156 346.511719 398.792969 C 346.789062 399.300781 346.605469 399.933594 346.101562 400.214844 C 340.632812 403.230469 334.617188 404.765625 328.539062 404.765625 " fill-opacity="1" fill-rule="nonzero"/><path fill="#000000" d="M 297.777344 406.949219 L 290.839844 404.941406 L 295.519531 388.753906 L 302.460938 390.761719 L 297.777344 406.949219 " fill-opacity="1" fill-rule="nonzero"/><path fill="#ffffff" d="M 540.921875 263.953125 C 540.921875 263.953125 538.84375 248.402344 546.328125 243 C 551.992188 238.910156 560.238281 236.359375 563.441406 235.414062 C 564.371094 235.136719 566.101562 235.332031 566.496094 236.21875 C 566.496094 236.21875 567.214844 237.894531 564.816406 239.027344 L 557.902344 241.914062 C 557.25 242.21875 557.152344 243.097656 557.722656 243.542969 C 559.464844 244.890625 562.636719 248.636719 563.144531 250.679688 C 564 254.085938 562.175781 257.109375 558.921875 259.894531 C 555.671875 262.683594 554.820312 263.210938 554.667969 263.953125 C 554.511719 264.695312 554.4375 267.636719 554.4375 267.636719 L 540.921875 263.953125 " fill-opacity="1" fill-rule="nonzero"/><path fill="#000000" d="M 541.886719 263.132812 L 553.4375 266.277344 C 553.476562 265.351562 553.542969 264.21875 553.644531 263.738281 C 553.839844 262.816406 554.472656 262.285156 556.351562 260.703125 C 556.871094 260.269531 557.492188 259.746094 558.246094 259.105469 C 561.53125 256.285156 562.800781 253.613281 562.128906 250.929688 C 561.71875 249.296875 558.847656 245.734375 557.082031 244.367188 C 556.527344 243.9375 556.238281 243.261719 556.3125 242.5625 C 556.390625 241.863281 556.820312 241.265625 557.457031 240.964844 L 564.417969 238.058594 C 565.839844 237.386719 565.542969 236.636719 565.539062 236.628906 C 565.390625 236.4375 564.375 236.226562 563.738281 236.414062 C 556.414062 238.585938 550.761719 241.085938 546.9375 243.851562 C 540.90625 248.203125 541.605469 260.144531 541.886719 263.132812 Z M 554.4375 268.679688 C 554.347656 268.679688 554.25 268.671875 554.160156 268.644531 L 540.648438 264.964844 C 540.242188 264.851562 539.945312 264.507812 539.886719 264.09375 C 539.796875 263.433594 537.816406 247.859375 545.714844 242.152344 C 549.726562 239.253906 555.59375 236.648438 563.144531 234.410156 C 564.472656 234.015625 566.769531 234.28125 567.449219 235.785156 C 567.84375 236.707031 567.882812 238.734375 565.265625 239.96875 L 558.480469 242.804688 C 560.207031 244.199219 563.554688 248 564.160156 250.421875 C 565.039062 253.949219 563.550781 257.308594 559.605469 260.691406 C 558.84375 261.339844 558.21875 261.867188 557.699219 262.304688 C 556.601562 263.222656 555.738281 263.953125 555.691406 264.167969 C 555.597656 264.617188 555.511719 266.480469 555.480469 267.664062 C 555.472656 267.980469 555.316406 268.28125 555.058594 268.476562 C 554.878906 268.609375 554.65625 268.679688 554.4375 268.679688 " fill-opacity="1" fill-rule="nonzero"/><path fill="#ffffff" d="M 289.941406 359.269531 L 285.851562 365.578125 C 284.585938 367.527344 283.933594 369.808594 283.972656 372.128906 L 301.382812 376.929688 C 301.382812 376.929688 303.238281 386.351562 307.042969 386.785156 C 311.984375 387.351562 308.703125 381.707031 308.5625 380.152344 C 308.417969 378.601562 308.574219 373.265625 307.675781 368.449219 C 306.773438 363.632812 302.894531 358.195312 302.894531 358.195312 L 289.941406 359.269531 " fill-opacity="1" fill-rule="nonzero"/><path fill="#000000" d="M 285.03125 371.335938 L 301.660156 375.925781 C 302.042969 376.027344 302.332031 376.339844 302.40625 376.730469 C 303.121094 380.328125 305.066406 385.503906 307.160156 385.746094 C 307.878906 385.828125 308.40625 385.753906 308.574219 385.546875 C 309.019531 384.988281 308.335938 382.984375 308.007812 382.019531 C 307.757812 381.292969 307.5625 380.71875 307.519531 380.25 C 307.480469 379.800781 307.460938 379.097656 307.441406 378.207031 C 307.378906 375.769531 307.292969 372.089844 306.648438 368.640625 C 305.949219 364.910156 303.308594 360.695312 302.375 359.289062 L 290.542969 360.269531 L 286.726562 366.144531 C 285.714844 367.710938 285.132812 369.492188 285.03125 371.335938 Z M 307.679688 387.867188 C 307.441406 387.867188 307.1875 387.851562 306.921875 387.824219 C 302.988281 387.371094 301.027344 380.128906 300.492188 377.769531 L 283.695312 373.140625 C 283.246094 373.011719 282.933594 372.609375 282.925781 372.148438 C 282.882812 369.609375 283.589844 367.140625 284.972656 365.011719 L 289.066406 358.699219 C 289.242188 358.429688 289.53125 358.253906 289.855469 358.226562 L 302.808594 357.152344 C 303.179688 357.121094 303.53125 357.285156 303.746094 357.585938 C 303.910156 357.816406 307.769531 363.273438 308.703125 368.257812 C 309.375 371.871094 309.472656 375.804688 309.53125 378.15625 C 309.550781 379.003906 309.566406 379.675781 309.601562 380.058594 C 309.625 380.277344 309.816406 380.84375 309.984375 381.34375 C 310.570312 383.058594 311.371094 385.40625 310.203125 386.855469 C 309.660156 387.53125 308.816406 387.867188 307.679688 387.867188 " fill-opacity="1" fill-rule="nonzero"/><path fill="#5479f7" d="M 556.363281 267.863281 C 553.199219 261.4375 543.179688 262.441406 539.046875 263.605469 C 538.621094 263.726562 538.246094 263.992188 537.972656 264.34375 C 532.320312 271.691406 527.28125 275.59375 523.046875 277.683594 C 518.59375 279.878906 513.261719 279.207031 509.382812 276.105469 C 493.539062 263.441406 466.816406 241.578125 466.816406 241.578125 C 457.863281 236.554688 449.398438 232.589844 441.445312 229.5 C 435.15625 217.09375 430.058594 215.832031 418.429688 213.386719 C 415.800781 212.828125 413.542969 212.589844 411.636719 212.535156 C 407.210938 212.417969 402.988281 214.40625 400.1875 217.832031 L 398.566406 219.820312 C 375.125 218.679688 360.167969 228.476562 357.804688 230.140625 C 331.035156 248.988281 340.835938 255.535156 315.183594 282.691406 C 289.535156 309.851562 288.027344 357.375 288.027344 357.375 C 288.019531 365.0625 298.808594 363.796875 304.40625 362.621094 C 306.300781 362.222656 307.703125 360.636719 307.871094 358.710938 C 308.21875 354.714844 369.042969 246.578125 359.773438 331.28125 C 358.675781 341.285156 360.199219 358.417969 356.9375 367.3125 C 353.460938 376.792969 357.480469 387.507812 366.492188 392.066406 C 380.773438 399.289062 402.992188 397.832031 410.949219 397.160156 C 423.0625 396.132812 436.203125 395.105469 446.464844 390.796875 C 450.867188 388.949219 455.734375 385.132812 458.632812 382.652344 C 460.246094 381.277344 461.011719 379.15625 460.667969 377.066406 C 459.425781 369.515625 456.640625 350.117188 457.53125 332.46875 C 458.21875 318.96875 461.230469 306.285156 462.460938 301.570312 C 462.707031 300.621094 463.800781 300.175781 464.636719 300.695312 C 471.808594 305.148438 500.847656 321.710938 522.855469 312.628906 C 553.648438 299.921875 557.394531 269.960938 556.363281 267.863281 " fill-opacity="1" fill-rule="nonzero"/><path fill="#caddff" d="M 628.152344 541.625 L 631.4375 532.214844 C 642.070312 508.546875 665.527344 493.238281 691.472656 493.035156 L 715.894531 492.839844 C 721.207031 492.800781 726.46875 492.121094 731.570312 490.835938 C 733.476562 490.355469 736.363281 499.164062 738.222656 498.515625 C 740.414062 497.753906 741.570312 487.5 743.683594 486.507812 C 746.464844 485.195312 749.164062 483.6875 751.757812 481.984375 L 781.039062 462.804688 C 784.910156 460.265625 789.679688 464.421875 787.691406 468.609375 L 775.246094 494.816406 C 764.367188 517.730469 741.875 531.757812 717.824219 532.695312 C 714.933594 532.804688 714.15625 523.621094 711.234375 523.347656 C 709.273438 523.164062 705.175781 531.996094 703.210938 531.632812 C 699.964844 531.03125 696.726562 530.179688 693.515625 529.0625 C 669.402344 518.261719 628.152344 541.625 628.152344 541.625 " fill-opacity="1" fill-rule="nonzero"/><path fill="#ffffff" d="M 650.023438 526.726562 C 649.691406 526.726562 649.363281 526.570312 649.164062 526.273438 C 648.832031 525.796875 648.953125 525.148438 649.433594 524.820312 C 662.035156 516.195312 676.730469 511.875 691.9375 512.320312 C 695.074219 512.410156 698.257812 512.679688 701.335938 512.945312 C 702.75 513.0625 704.148438 513.183594 705.515625 513.285156 C 730.238281 515.085938 746.34375 508.597656 762.957031 490.160156 C 766.957031 485.71875 776.8125 475.546875 776.910156 475.445312 C 777.3125 475.03125 777.976562 475.019531 778.390625 475.421875 C 778.804688 475.824219 778.816406 476.488281 778.410156 476.898438 C 778.316406 477.003906 768.484375 487.144531 764.511719 491.558594 C 747.40625 510.546875 730.824219 517.222656 705.363281 515.371094 C 703.988281 515.269531 702.582031 515.152344 701.15625 515.03125 C 698.105469 514.769531 694.953125 514.5 691.875 514.410156 C 677.125 513.980469 662.847656 518.175781 650.617188 526.546875 C 650.433594 526.671875 650.226562 526.726562 650.023438 526.726562 " fill-opacity="1" fill-rule="nonzero"/><path fill="#ffffff" d="M 628.40625 540.96875 L 635.644531 507.699219 C 642.417969 476.589844 659.371094 448.652344 683.785156 428.292969 C 684.988281 427.285156 686.761719 427.355469 687.859375 428.480469 L 691.507812 432.203125 C 693.871094 430.3125 691.980469 421.460938 694.085938 419.335938 C 709.3125 403.9375 717.558594 382.765625 716.542969 360.863281 C 716.316406 355.910156 723.015625 354.167969 725.230469 358.597656 L 733.933594 376 C 740.054688 388.242188 741.820312 401.582031 739.761719 414.203125 C 739.464844 416.011719 731.929688 417.105469 731.484375 418.878906 C 731.039062 420.625 737.679688 423.042969 737.09375 424.742188 C 732.34375 438.429688 722.871094 450.527344 709.46875 458.371094 C 691.234375 469.046875 675.101562 482.953125 661.859375 499.40625 L 628.40625 540.96875 " fill-opacity="1" fill-rule="nonzero"/><path fill="#caddff" d="M 712.789062 428.875 C 712.59375 428.875 712.386719 428.820312 712.207031 428.699219 C 711.726562 428.382812 711.597656 427.730469 711.921875 427.25 C 722.515625 411.402344 725.410156 392.109375 720.761719 368.269531 C 720.65625 367.703125 721.023438 367.15625 721.589844 367.042969 C 722.160156 366.933594 722.707031 367.304688 722.816406 367.871094 C 727.574219 392.277344 724.574219 412.082031 713.65625 428.414062 C 713.460938 428.714844 713.125 428.875 712.789062 428.875 " fill-opacity="1" fill-rule="nonzero"/><path fill="#caddff" d="M 645.480469 506.746094 C 645.402344 506.746094 645.316406 506.734375 645.234375 506.710938 C 644.671875 506.578125 644.328125 506.011719 644.464844 505.449219 C 644.535156 505.15625 652.058594 475.425781 685.082031 452.378906 C 691.257812 448.066406 699.71875 442.167969 706.878906 433.859375 C 707.257812 433.425781 707.917969 433.375 708.355469 433.753906 C 708.792969 434.128906 708.839844 434.792969 708.464844 435.226562 C 701.128906 443.726562 692.542969 449.71875 686.277344 454.09375 C 653.898438 476.695312 646.566406 505.652344 646.496094 505.941406 C 646.382812 506.421875 645.953125 506.746094 645.480469 506.746094 " fill-opacity="1" fill-rule="nonzero"/><path fill="#ffffff" d="M 261.808594 292.152344 C 261.808594 292.152344 260.160156 206.980469 301.121094 158.105469 C 304.976562 153.503906 305.816406 149.964844 310.480469 146.472656 C 313.003906 144.585938 320.105469 149.179688 321.140625 147.804688 C 321.949219 146.730469 319.207031 134.8125 320 133.742188 C 341.929688 104.0625 355.074219 79.246094 362.101562 65.582031 C 363.664062 62.546875 368.164062 63.125 368.90625 66.449219 C 372.105469 80.78125 376.59375 109.222656 370.566406 138.398438 C 369.90625 141.601562 361.898438 140.609375 360.964844 143.816406 C 360.3125 146.0625 366.808594 152.511719 366.007812 154.746094 C 361.289062 167.9375 354.648438 181.523438 342.828125 191.957031 C 293.390625 235.613281 261.808594 292.152344 261.808594 292.152344 " fill-opacity="1" fill-rule="nonzero"/><path fill="#caddff" d="M 300.476562 204.28125 C 300.199219 204.28125 299.925781 204.171875 299.71875 203.957031 C 299.320312 203.535156 299.335938 202.875 299.753906 202.476562 C 329.496094 174.136719 344.679688 143.976562 352.183594 123.664062 C 360.316406 101.648438 361.425781 86.128906 361.433594 85.976562 C 361.472656 85.402344 361.96875 84.964844 362.546875 85.003906 C 363.125 85.042969 363.558594 85.539062 363.519531 86.117188 C 363.511719 86.273438 362.394531 102.023438 354.175781 124.308594 C 346.601562 144.847656 331.257812 175.34375 301.199219 203.992188 C 300.996094 204.183594 300.734375 204.28125 300.476562 204.28125 " fill-opacity="1" fill-rule="nonzero"/><path fill="#ffffff" d="M 621.535156 479.0625 L 618.175781 485.332031 C 613.039062 494.90625 606.546875 503.683594 598.90625 511.386719 C 598.308594 511.992188 598.449219 515.441406 598.632812 517.898438 C 598.753906 519.527344 597.0625 520.675781 595.605469 519.949219 C 593.914062 519.109375 592.121094 518.03125 591.25 518.949219 C 580.484375 530.34375 572.195312 543.882812 566.949219 558.707031 L 565.132812 563.847656 C 578.792969 560.609375 592.050781 556.621094 604.6875 551.882812 L 618.949219 522.070312 C 623.5 512.542969 626.695312 502.425781 628.429688 492.015625 L 630.101562 481.984375 C 630.953125 476.867188 623.988281 474.488281 621.535156 479.0625 " fill-opacity="1" fill-rule="nonzero"/><path fill="#000000" d="M 538.140625 471.261719 C 536.433594 471.261719 535.035156 472.65625 535.035156 474.367188 C 535.035156 476.078125 536.433594 477.472656 538.140625 477.472656 C 539.855469 477.472656 541.246094 476.078125 541.246094 474.367188 C 541.246094 472.65625 539.855469 471.261719 538.140625 471.261719 Z M 538.140625 479.5625 C 535.277344 479.5625 532.945312 477.230469 532.945312 474.367188 C 532.945312 471.5 535.277344 469.167969 538.140625 469.167969 C 541.007812 469.167969 543.339844 471.5 543.339844 474.367188 C 543.339844 477.230469 541.007812 479.5625 538.140625 479.5625 " fill-opacity="1" fill-rule="nonzero"/><path fill="#000000" d="M 273.46875 61.277344 C 270.359375 61.277344 267.824219 63.8125 267.824219 66.925781 C 267.824219 70.039062 270.359375 72.570312 273.46875 72.570312 C 276.582031 72.570312 279.117188 70.039062 279.117188 66.925781 C 279.117188 63.8125 276.582031 61.277344 273.46875 61.277344 Z M 273.46875 74.664062 C 269.203125 74.664062 265.734375 71.191406 265.734375 66.925781 C 265.734375 62.660156 269.203125 59.1875 273.46875 59.1875 C 277.734375 59.1875 281.207031 62.660156 281.207031 66.925781 C 281.207031 71.191406 277.734375 74.664062 273.46875 74.664062 " fill-opacity="1" fill-rule="nonzero"/><path fill="#000000" d="M 268.902344 94.582031 C 266.988281 94.582031 265.429688 96.140625 265.429688 98.054688 C 265.429688 99.972656 266.988281 101.527344 268.902344 101.527344 C 270.820312 101.527344 272.378906 99.972656 272.378906 98.054688 C 272.378906 96.140625 270.820312 94.582031 268.902344 94.582031 Z M 268.902344 103.617188 C 265.835938 103.617188 263.339844 101.125 263.339844 98.054688 C 263.339844 94.988281 265.835938 92.492188 268.902344 92.492188 C 271.972656 92.492188 274.46875 94.988281 274.46875 98.054688 C 274.46875 101.125 271.972656 103.617188 268.902344 103.617188 " fill-opacity="1" fill-rule="nonzero"/><path fill="#000000" d="M 733.746094 324.375 C 733.613281 324.375 733.484375 324.347656 733.359375 324.296875 C 732.820312 324.085938 732.558594 323.476562 732.773438 322.941406 L 757.921875 259.808594 C 758.136719 259.277344 758.746094 259.015625 759.28125 259.226562 C 759.816406 259.441406 760.078125 260.050781 759.867188 260.589844 L 734.722656 323.710938 C 734.554688 324.125 734.160156 324.375 733.746094 324.375 " fill-opacity="1" fill-rule="nonzero"/><path fill="#000000" d="M 427.59375 121.792969 C 427.46875 121.792969 427.335938 121.773438 427.207031 121.722656 C 426.671875 121.507812 426.410156 120.898438 426.625 120.359375 L 451.773438 57.238281 C 451.984375 56.695312 452.597656 56.4375 453.132812 56.652344 C 453.667969 56.867188 453.929688 57.472656 453.714844 58.007812 L 428.566406 121.136719 C 428.402344 121.546875 428.011719 121.792969 427.59375 121.792969 " fill-opacity="1" fill-rule="nonzero"/><path fill="#000000" d="M 748.742188 345.328125 C 748.613281 345.328125 748.480469 345.300781 748.355469 345.25 C 747.820312 345.039062 747.558594 344.429688 747.773438 343.894531 L 758.972656 315.769531 C 759.1875 315.234375 759.800781 314.972656 760.335938 315.1875 C 760.871094 315.398438 761.132812 316.007812 760.917969 316.542969 L 749.714844 344.667969 C 749.554688 345.078125 749.160156 345.328125 748.742188 345.328125 " fill-opacity="1" fill-rule="nonzero"/><path fill="#000000" d="M 404.136719 134.722656 C 404.007812 134.722656 403.878906 134.695312 403.75 134.648438 C 403.214844 134.433594 402.953125 133.824219 403.164062 133.289062 L 414.371094 105.164062 C 414.582031 104.628906 415.191406 104.367188 415.726562 104.582031 C 416.265625 104.792969 416.527344 105.402344 416.3125 105.9375 L 405.109375 134.0625 C 404.945312 134.472656 404.550781 134.722656 404.136719 134.722656 " fill-opacity="1" fill-rule="nonzero"/><path fill="#000000" d="M 576.824219 458.875 C 576.691406 458.875 576.5625 458.851562 576.4375 458.800781 C 575.898438 458.589844 575.640625 457.980469 575.851562 457.445312 L 601 394.316406 C 601.214844 393.78125 601.820312 393.519531 602.359375 393.730469 C 602.894531 393.945312 603.15625 394.554688 602.941406 395.089844 L 577.792969 458.21875 C 577.628906 458.628906 577.238281 458.875 576.824219 458.875 " fill-opacity="1" fill-rule="nonzero"/><path fill="#000000" d="M 499.457031 457.671875 C 499.328125 457.671875 499.195312 457.644531 499.0625 457.59375 C 498.53125 457.375 498.273438 456.765625 498.488281 456.230469 L 510.597656 426.460938 C 510.816406 425.925781 511.425781 425.667969 511.960938 425.886719 C 512.492188 426.105469 512.753906 426.714844 512.535156 427.25 L 500.425781 457.015625 C 500.265625 457.425781 499.871094 457.671875 499.457031 457.671875 " fill-opacity="1" fill-rule="nonzero"/><path fill="#000000" d="M 308.320312 34.804688 C 308.007812 34.804688 307.695312 34.6875 307.457031 34.445312 C 306.980469 33.972656 306.980469 33.199219 307.457031 32.722656 L 310.210938 29.964844 C 310.6875 29.492188 311.460938 29.492188 311.9375 29.964844 C 312.414062 30.445312 312.414062 31.214844 311.9375 31.695312 L 309.183594 34.445312 C 308.941406 34.6875 308.632812 34.804688 308.320312 34.804688 " fill-opacity="1" fill-rule="nonzero"/><path fill="#000000" d="M 296.726562 46.398438 C 296.414062 46.398438 296.101562 46.277344 295.863281 46.039062 C 295.386719 45.5625 295.386719 44.792969 295.863281 44.3125 L 298.617188 41.5625 C 299.097656 41.082031 299.867188 41.082031 300.34375 41.5625 C 300.820312 42.035156 300.820312 42.808594 300.34375 43.285156 L 297.589844 46.039062 C 297.351562 46.277344 297.039062 46.398438 296.726562 46.398438 " fill-opacity="1" fill-rule="nonzero"/><path fill="#000000" d="M 311.074219 46.398438 C 310.761719 46.398438 310.449219 46.277344 310.210938 46.039062 L 307.457031 43.285156 C 306.980469 42.808594 306.980469 42.035156 307.457031 41.5625 C 307.933594 41.082031 308.707031 41.082031 309.183594 41.5625 L 311.9375 44.3125 C 312.414062 44.792969 312.414062 45.5625 311.9375 46.039062 C 311.699219 46.277344 311.386719 46.398438 311.074219 46.398438 " fill-opacity="1" fill-rule="nonzero"/><path fill="#000000" d="M 299.480469 34.804688 C 299.167969 34.804688 298.855469 34.6875 298.617188 34.445312 L 295.863281 31.695312 C 295.386719 31.214844 295.386719 30.445312 295.863281 29.964844 C 296.339844 29.492188 297.113281 29.492188 297.589844 29.964844 L 300.34375 32.722656 C 300.820312 33.199219 300.820312 33.972656 300.34375 34.445312 C 300.105469 34.6875 299.792969 34.804688 299.480469 34.804688 " fill-opacity="1" fill-rule="nonzero"/></svg>