<svg xmlns="http://www.w3.org/2000/svg" xmlns:xlink="http://www.w3.org/1999/xlink" width="1366" zoomAndPan="magnify" viewBox="0 0 1024.5 576" height="768" preserveAspectRatio="xMidYMid meet" version="1.0"><path fill="#e7e8ff" d="M 145.421875 517.539062 L 443.285156 517.539062 C 464.21875 517.539062 484.808594 512.171875 503.089844 501.949219 C 565.292969 467.15625 584.980469 386.769531 545.917969 327.066406 L 535.695312 311.441406 C 518.65625 285.398438 515.070312 252.757812 526.042969 223.621094 L 539.773438 187.175781 C 559.648438 134.410156 515.917969 79.5625 460.1875 87.363281 C 443.382812 89.710938 426.28125 86.214844 411.742188 77.449219 L 331.566406 29.125 C 294.238281 6.621094 249.324219 0.464844 207.335938 12.09375 L 171.84375 21.925781 C 103.503906 40.851562 64.910156 113.28125 87.222656 180.734375 L 94.414062 202.476562 C 107.625 242.410156 92.738281 286.277344 57.972656 309.855469 C 18.632812 336.535156 5.421875 388.496094 27.226562 430.792969 L 38.214844 452.105469 C 58.929688 492.296875 100.289062 517.539062 145.421875 517.539062 Z M 145.421875 517.539062 " fill-opacity="1" fill-rule="nonzero"/><path fill="#032068" d="M 545.328125 441.734375 C 545.785156 476.421875 522.246094 505.707031 510.289062 515.960938 L 491.96875 515.960938 C 505.589844 469.683594 528.105469 446.671875 540.726562 439.011719 C 542.824219 437.738281 545.296875 439.269531 545.328125 441.734375 Z M 545.328125 441.734375 " fill-opacity="1" fill-rule="nonzero"/><path fill="#ffffff" d="M 547.265625 327.929688 C 566.035156 398.855469 518.726562 482.851562 498.382812 514.121094 L 457.15625 514.121094 C 474.863281 380.304688 504.550781 347.78125 542.082031 325.804688 C 544.09375 324.625 546.667969 325.667969 547.265625 327.929688 Z M 547.265625 327.929688 " fill-opacity="1" fill-rule="nonzero"/><path fill="#032068" d="M 543.003906 327.394531 C 543.992188 326.816406 545.214844 327.335938 545.496094 328.40625 C 554.742188 363.34375 547.738281 401.65625 535.765625 435.277344 C 524.019531 468.273438 507.566406 496.535156 497.390625 512.28125 L 459.253906 512.28125 C 468.0625 446.675781 479.777344 405.914062 493.808594 378.875 C 507.941406 351.648438 524.460938 338.253906 543.003906 327.394531 Z M 549.039062 327.457031 C 548.121094 323.996094 544.199219 322.433594 541.160156 324.214844 C 522.167969 335.332031 505.085938 349.191406 490.5625 377.171875 C 476.089844 405.058594 464.207031 446.890625 455.34375 513.878906 L 455.066406 515.960938 L 499.375 515.960938 L 499.914062 515.128906 C 510.132812 499.425781 527.125 470.476562 539.21875 436.515625 C 551.296875 402.589844 558.558594 363.441406 549.039062 327.457031 Z M 549.039062 327.457031 " fill-opacity="1" fill-rule="evenodd"/><path fill="#032068" d="M 480.800781 371.566406 C 497.011719 431 478.453125 492.765625 466.320312 515.960938 L 436.089844 515.960938 C 429.289062 443.527344 456.925781 390.851562 475.097656 370.144531 C 476.890625 368.101562 480.082031 368.9375 480.800781 371.566406 Z M 480.800781 371.566406 " fill-opacity="1" fill-rule="nonzero"/><path fill="#032068" d="M 521.605469 378.398438 L 531.46875 350.550781 L 534.921875 351.789062 L 512.332031 415.566406 L 527.171875 411.089844 L 528.222656 414.617188 L 510.808594 419.871094 L 490.261719 477.878906 L 508.753906 470.96875 L 510.03125 474.417969 L 488.660156 482.40625 L 477.207031 514.738281 L 473.753906 513.503906 L 497.011719 447.835938 L 488.414062 423.597656 L 491.863281 422.359375 L 498.957031 442.347656 L 519.527344 384.261719 L 513.117188 362.746094 L 516.625 361.691406 Z M 521.605469 378.398438 " fill-opacity="1" fill-rule="evenodd"/><path fill="#ffffff" d="M 465.339844 419.023438 L 470.011719 393.1875 L 473.617188 393.847656 L 464.128906 446.285156 L 476.457031 439.761719 L 478.164062 443.019531 L 463.296875 450.890625 L 455.160156 495.863281 L 465.355469 487.816406 L 467.617188 490.710938 L 454.171875 501.328125 L 451.632812 515.371094 L 448.027344 514.710938 L 454.542969 478.691406 L 443.792969 464.605469 L 446.703125 462.367188 L 455.429688 473.796875 L 464.519531 423.554688 L 455.8125 414.101562 L 458.503906 411.601562 Z M 465.339844 419.023438 " fill-opacity="1" fill-rule="evenodd"/><path fill="#ffffff" d="M 497.277344 153.71875 L 502.753906 146.144531 C 503.730469 144.796875 505.863281 145.492188 505.855469 147.15625 L 505.8125 156.28125 C 505.8125 156.835938 506.074219 157.351562 506.523438 157.675781 L 514.621094 163.527344 C 515.925781 164.46875 515.328125 166.527344 513.722656 166.625 L 503.640625 167.230469 C 503.148438 167.261719 502.695312 167.5 502.394531 167.886719 L 495.5625 176.625 C 494.546875 177.921875 492.464844 177.179688 492.5 175.53125 L 492.730469 165.136719 C 492.742188 164.628906 492.527344 164.144531 492.148438 163.808594 L 483.636719 156.355469 C 482.382812 155.261719 483.273438 153.203125 484.929688 153.363281 L 495.722656 154.417969 C 496.328125 154.480469 496.921875 154.210938 497.277344 153.71875 Z M 497.277344 153.71875 " fill-opacity="1" fill-rule="nonzero"/><path fill="#f4ad5e" d="M 552.777344 254.835938 L 555.425781 253.386719 C 556.886719 252.585938 558.511719 254.128906 557.789062 255.628906 L 556.519531 258.269531 C 556.28125 258.765625 556.296875 259.347656 556.558594 259.832031 L 558.320312 263.042969 C 559.089844 264.453125 557.667969 266.054688 556.175781 265.453125 L 552.679688 264.042969 C 552.226562 263.859375 551.710938 263.878906 551.273438 264.097656 L 547.5 265.980469 C 546.027344 266.71875 544.464844 265.152344 545.207031 263.679688 L 546.910156 260.292969 C 547.140625 259.839844 547.15625 259.3125 546.953125 258.847656 L 545.261719 254.929688 C 544.605469 253.402344 546.292969 251.925781 547.71875 252.785156 L 551.070312 254.800781 C 551.59375 255.113281 552.242188 255.128906 552.777344 254.835938 Z M 552.777344 254.835938 " fill-opacity="1" fill-rule="nonzero"/><path fill="#ffffff" d="M 68.84375 135.71875 C 68.84375 159.246094 87.925781 178.316406 111.460938 178.316406 C 119.589844 178.316406 127.1875 176.042969 133.648438 172.09375 L 146.480469 176.644531 C 148.535156 177.371094 150.59375 175.558594 150.121094 173.425781 L 146.992188 159.25 C 151.46875 152.503906 154.078125 144.417969 154.078125 135.71875 C 154.078125 112.191406 134.996094 93.117188 111.460938 93.117188 C 87.925781 93.117188 68.84375 112.191406 68.84375 135.71875 Z M 68.84375 135.71875 " fill-opacity="1" fill-rule="nonzero"/><path fill="#032068" d="M 111.460938 94.042969 C 88.4375 94.042969 69.773438 112.703125 69.773438 135.71875 C 69.773438 158.734375 88.4375 177.390625 111.460938 177.390625 C 119.414062 177.390625 126.84375 175.167969 133.167969 171.304688 L 133.542969 171.074219 L 146.789062 175.769531 C 148.160156 176.257812 149.53125 175.046875 149.21875 173.625 L 146.003906 159.0625 L 146.222656 158.734375 C 150.601562 152.140625 153.152344 144.230469 153.152344 135.71875 C 153.152344 112.703125 134.488281 94.042969 111.460938 94.042969 Z M 67.917969 135.71875 C 67.917969 111.679688 87.414062 92.191406 111.460938 92.191406 C 135.511719 92.191406 155.003906 111.679688 155.003906 135.71875 C 155.003906 144.460938 152.425781 152.609375 147.980469 159.429688 L 151.027344 173.226562 C 151.65625 176.066406 148.910156 178.488281 146.171875 177.515625 L 133.753906 173.117188 C 127.234375 177.007812 119.605469 179.242188 111.460938 179.242188 C 87.414062 179.242188 67.917969 159.757812 67.917969 135.71875 Z M 67.917969 135.71875 " fill-opacity="1" fill-rule="evenodd"/><path fill="#f4ad5e" d="M 105.84375 147.671875 C 105.332031 147.671875 104.917969 147.257812 104.929688 146.746094 C 105 143.613281 105.453125 141.082031 106.277344 139.15625 C 107.1875 137.039062 108.839844 134.964844 111.242188 132.929688 C 113.667969 130.867188 115.285156 129.199219 116.085938 127.925781 C 116.882812 126.625 117.285156 125.261719 117.285156 123.835938 C 117.285156 119.535156 115.203125 117.382812 111.042969 117.382812 C 109.066406 117.382812 107.480469 117.96875 106.277344 119.140625 C 105.285156 120.109375 104.691406 121.402344 104.5 123.015625 C 104.441406 123.511719 104.039062 123.914062 103.535156 123.914062 L 93.769531 123.914062 C 93.253906 123.914062 92.835938 123.492188 92.863281 122.976562 C 93.105469 118.558594 94.738281 115.0625 97.753906 112.492188 C 101.007812 109.742188 105.4375 108.367188 111.042969 108.367188 C 116.699219 108.367188 121.085938 109.679688 124.207031 112.300781 C 127.328125 114.898438 128.890625 118.578125 128.890625 123.339844 C 128.890625 125.503906 128.382812 127.554688 127.371094 129.492188 C 126.355469 131.402344 124.582031 133.527344 122.046875 135.871094 L 118.804688 138.8125 C 116.777344 140.667969 115.617188 142.847656 115.324219 145.34375 L 115.222656 146.808594 C 115.191406 147.296875 114.785156 147.671875 114.296875 147.671875 Z M 103.757812 159.398438 C 103.757812 157.695312 104.359375 156.292969 105.558594 155.199219 C 106.785156 154.078125 108.347656 153.515625 110.242188 153.515625 C 112.136719 153.515625 113.683594 154.078125 114.882812 155.199219 C 116.109375 156.292969 116.722656 157.695312 116.722656 159.398438 C 116.722656 161.082031 116.125 162.46875 114.921875 163.5625 C 113.75 164.65625 112.1875 165.207031 110.242188 165.207031 C 108.292969 165.207031 106.71875 164.65625 105.519531 163.5625 C 104.34375 162.46875 103.757812 161.082031 103.757812 159.398438 Z M 103.757812 159.398438 " fill-opacity="1" fill-rule="nonzero"/><path fill="#ffffff" d="M 201.429688 75.789062 C 201.429688 65.335938 209.910156 56.855469 220.371094 56.855469 L 435.855469 56.855469 C 446.3125 56.855469 454.792969 65.335938 454.792969 75.789062 L 454.792969 496.964844 C 454.792969 507.425781 446.3125 515.902344 435.855469 515.902344 L 220.371094 515.902344 C 209.910156 515.902344 201.429688 507.425781 201.429688 496.964844 Z M 201.429688 75.789062 " fill-opacity="1" fill-rule="nonzero"/><path fill="#032068" d="M 199.851562 75.789062 C 199.851562 64.460938 209.039062 55.28125 220.371094 55.28125 L 435.851562 55.28125 C 447.183594 55.28125 456.371094 64.460938 456.371094 75.789062 L 456.371094 496.964844 C 456.371094 508.292969 447.183594 517.476562 435.851562 517.476562 L 220.371094 517.476562 C 209.039062 517.476562 199.851562 508.292969 199.851562 496.964844 Z M 220.371094 58.433594 C 210.78125 58.433594 203.007812 66.207031 203.007812 75.789062 L 203.007812 496.964844 C 203.007812 506.550781 210.78125 514.320312 220.371094 514.320312 L 435.851562 514.320312 C 445.441406 514.320312 453.214844 506.550781 453.214844 496.964844 L 453.214844 75.789062 C 453.214844 66.207031 445.441406 58.433594 435.851562 58.433594 Z M 220.371094 58.433594 " fill-opacity="1" fill-rule="evenodd"/><path fill="#e7e8ff" d="M 406.621094 225.652344 C 406.621094 269.21875 371.289062 304.539062 327.703125 304.539062 C 284.117188 304.539062 248.78125 269.21875 248.78125 225.652344 C 248.78125 182.082031 284.117188 146.761719 327.703125 146.761719 C 371.289062 146.761719 406.621094 182.082031 406.621094 225.652344 Z M 406.621094 225.652344 " fill-opacity="1" fill-rule="nonzero"/><path fill="#ffffff" d="M 439.769531 172.007812 C 439.769531 192.050781 423.515625 208.296875 403.464844 208.296875 C 383.414062 208.296875 367.160156 192.050781 367.160156 172.007812 C 367.160156 151.964844 383.414062 135.71875 403.464844 135.71875 C 423.515625 135.71875 439.769531 151.964844 439.769531 172.007812 Z M 439.769531 172.007812 " fill-opacity="1" fill-rule="nonzero"/><path fill="#032068" d="M 403.464844 137.296875 C 384.285156 137.296875 368.738281 152.835938 368.738281 172.007812 C 368.738281 191.175781 384.285156 206.71875 403.464844 206.71875 C 422.640625 206.71875 438.1875 191.175781 438.1875 172.007812 C 438.1875 152.835938 422.640625 137.296875 403.464844 137.296875 Z M 365.582031 172.007812 C 365.582031 151.09375 382.542969 134.140625 403.464844 134.140625 C 424.382812 134.140625 441.34375 151.09375 441.34375 172.007812 C 441.34375 192.921875 424.382812 209.875 403.464844 209.875 C 382.542969 209.875 365.582031 192.921875 365.582031 172.007812 Z M 365.582031 172.007812 " fill-opacity="1" fill-rule="evenodd"/><path fill="#f4ad5e" d="M 393.597656 171.21875 L 382.945312 181.867188 L 393.597656 192.519531 L 404.253906 181.867188 L 414.90625 192.519531 L 425.558594 181.867188 L 414.90625 171.21875 L 425.5625 160.566406 L 414.90625 149.917969 L 404.253906 160.570312 L 393.597656 149.917969 L 382.945312 160.570312 Z M 393.597656 171.21875 " fill-opacity="1" fill-rule="evenodd"/><path fill="#032068" d="M 277.734375 72.246094 L 269.523438 56.855469 L 386.703125 56.855469 L 377.046875 72.941406 C 374.195312 77.691406 369.058594 80.601562 363.511719 80.601562 L 291.660156 80.601562 C 285.832031 80.601562 280.476562 77.390625 277.734375 72.246094 Z M 277.734375 72.246094 " fill-opacity="1" fill-rule="nonzero"/><path fill="#032068" d="M 451.6875 66.355469 L 202.921875 66.355469 C 211.15625 58.121094 219.019531 56.59375 221.921875 56.855469 L 432.683594 56.855469 C 442.816406 56.855469 449.574219 63.1875 451.6875 66.355469 Z M 451.6875 66.355469 " fill-opacity="1" fill-rule="nonzero"/><path fill="#032068" d="M 451.496094 506.898438 L 204.585938 506.898438 C 213.144531 515.261719 218.089844 516.816406 221.105469 516.550781 L 434.976562 516.550781 C 445.507812 516.550781 449.300781 510.117188 451.496094 506.898438 Z M 451.496094 506.898438 " fill-opacity="1" fill-rule="nonzero"/><path fill="#f4ad5e" d="M 237.734375 116.785156 C 237.734375 115.042969 239.144531 113.628906 240.890625 113.628906 L 324.949219 113.628906 C 326.691406 113.628906 328.105469 115.042969 328.105469 116.785156 L 328.105469 120.152344 C 328.105469 121.894531 326.691406 123.308594 324.949219 123.308594 L 240.890625 123.308594 C 239.144531 123.308594 237.734375 121.894531 237.734375 120.152344 Z M 237.734375 116.785156 " fill-opacity="1" fill-rule="nonzero"/><path fill="#032068" d="M 237.734375 329.785156 C 237.734375 328.042969 239.144531 326.628906 240.890625 326.628906 L 324.949219 326.628906 C 326.691406 326.628906 328.105469 328.042969 328.105469 329.785156 L 328.105469 333.152344 C 328.105469 334.894531 326.691406 336.308594 324.949219 336.308594 L 240.890625 336.308594 C 239.144531 336.308594 237.734375 334.894531 237.734375 333.152344 Z M 237.734375 329.785156 " fill-opacity="1" fill-rule="nonzero"/><path fill="#032068" d="M 237.734375 413.40625 C 237.734375 411.664062 239.144531 410.25 240.890625 410.25 L 291.398438 410.25 C 293.140625 410.25 294.554688 411.664062 294.554688 413.40625 L 294.554688 416.5625 C 294.554688 418.304688 293.140625 419.71875 291.398438 419.71875 L 240.890625 419.71875 C 239.144531 419.71875 237.734375 418.304688 237.734375 416.5625 Z M 237.734375 413.40625 " fill-opacity="1" fill-rule="nonzero"/><path fill="#e7e8ff" d="M 236.152344 353.453125 C 236.152344 350.835938 238.273438 348.71875 240.886719 348.71875 L 409.777344 348.71875 C 412.390625 348.71875 414.511719 350.835938 414.511719 353.453125 L 414.511719 385.007812 C 414.511719 387.621094 412.390625 389.738281 409.777344 389.738281 L 240.886719 389.738281 C 238.273438 389.738281 236.152344 387.621094 236.152344 385.007812 Z M 240.886719 351.871094 C 240.015625 351.871094 239.308594 352.578125 239.308594 353.453125 L 239.308594 385.007812 C 239.308594 385.878906 240.015625 386.585938 240.886719 386.585938 L 409.777344 386.585938 C 410.648438 386.585938 411.355469 385.878906 411.355469 385.007812 L 411.355469 353.453125 C 411.355469 352.578125 410.648438 351.871094 409.777344 351.871094 Z M 240.886719 351.871094 " fill-opacity="1" fill-rule="evenodd"/><path fill="#e7e8ff" d="M 236.152344 435.496094 C 236.152344 432.882812 238.273438 430.761719 240.886719 430.761719 L 409.777344 430.761719 C 412.390625 430.761719 414.511719 432.882812 414.511719 435.496094 L 414.511719 467.050781 C 414.511719 469.664062 412.390625 471.785156 409.777344 471.785156 L 240.886719 471.785156 C 238.273438 471.785156 236.152344 469.664062 236.152344 467.050781 Z M 240.886719 433.917969 C 240.015625 433.917969 239.308594 434.625 239.308594 435.496094 L 239.308594 467.050781 C 239.308594 467.921875 240.015625 468.628906 240.886719 468.628906 L 409.777344 468.628906 C 410.648438 468.628906 411.355469 467.921875 411.355469 467.050781 L 411.355469 435.496094 C 411.355469 434.625 410.648438 433.917969 409.777344 433.917969 Z M 240.886719 433.917969 " fill-opacity="1" fill-rule="evenodd"/><path fill="#032068" d="M 433.851562 79.414062 L 437.007812 79.414062 L 437.007812 92.320312 L 433.851562 92.320312 Z M 433.851562 79.414062 " fill-opacity="1" fill-rule="evenodd"/><path fill="#032068" d="M 425.78125 81.027344 L 428.9375 81.027344 L 428.9375 92.320312 L 425.78125 92.320312 Z M 425.78125 81.027344 " fill-opacity="1" fill-rule="evenodd"/><path fill="#032068" d="M 417.710938 84.253906 L 420.867188 84.253906 L 420.867188 92.320312 L 417.710938 92.320312 Z M 417.710938 84.253906 " fill-opacity="1" fill-rule="evenodd"/><path fill="#032068" d="M 409.644531 87.480469 L 412.800781 87.480469 L 412.800781 92.320312 L 409.644531 92.320312 Z M 409.644531 87.480469 " fill-opacity="1" fill-rule="evenodd"/><path fill="#032068" d="M 327.664062 179.367188 C 313.300781 179.367188 301.65625 191.199219 301.65625 205.792969 L 301.65625 223.890625 C 301.65625 226.035156 303.398438 227.777344 305.546875 227.777344 C 307.691406 227.777344 309.433594 226.035156 309.433594 223.890625 L 309.433594 205.300781 C 309.433594 195.070312 317.597656 186.777344 327.664062 186.777344 C 337.734375 186.777344 345.894531 195.070312 345.894531 205.300781 L 345.894531 222.917969 C 345.894531 225.066406 347.636719 226.808594 349.785156 226.808594 C 351.933594 226.808594 353.675781 225.066406 353.675781 222.917969 L 353.675781 205.792969 C 353.675781 191.199219 342.03125 179.367188 327.664062 179.367188 Z M 327.664062 179.367188 " fill-opacity="1" fill-rule="evenodd"/><path fill="#f4ad5e" d="M 294.480469 223.546875 C 294.480469 220.929688 296.601562 218.8125 299.214844 218.8125 L 356.113281 218.8125 C 358.726562 218.8125 360.847656 220.929688 360.847656 223.546875 L 360.847656 266.078125 C 360.847656 268.691406 358.726562 270.808594 356.113281 270.808594 L 299.214844 270.808594 C 296.601562 270.808594 294.480469 268.691406 294.480469 266.078125 Z M 294.480469 223.546875 " fill-opacity="1" fill-rule="nonzero"/><path fill="#ffffff" d="M 331.898438 246.964844 C 333.4375 245.726562 334.421875 243.828125 334.421875 241.699219 C 334.421875 237.972656 331.398438 234.949219 327.667969 234.949219 C 323.9375 234.949219 320.914062 237.972656 320.914062 241.699219 C 320.914062 244.019531 322.082031 246.0625 323.863281 247.277344 L 322.355469 253.605469 C 322.128906 254.546875 322.84375 255.453125 323.816406 255.453125 L 332.023438 255.453125 C 332.992188 255.453125 333.707031 254.546875 333.480469 253.605469 Z M 331.898438 246.964844 " fill-opacity="1" fill-rule="evenodd"/><path fill="#032068" d="M 426.609375 364.496094 L 388.210938 364.496094 C 385.828125 364.496094 384.304688 361.957031 385.429688 359.851562 L 404.625 323.949219 C 405.816406 321.722656 409.003906 321.722656 410.195312 323.949219 L 429.394531 359.851562 C 430.519531 361.957031 428.992188 364.496094 426.609375 364.496094 Z M 426.609375 364.496094 " fill-opacity="1" fill-rule="nonzero"/><path fill="#ffffff" d="M 405.652344 351.007812 L 409.105469 351.007812 L 409.652344 336.09375 L 405.105469 336.09375 Z M 409.777344 355.652344 C 409.777344 354.914062 409.554688 354.308594 409.105469 353.839844 C 408.652344 353.359375 408.085938 353.121094 407.410156 353.121094 C 406.734375 353.121094 406.171875 353.359375 405.726562 353.839844 C 405.269531 354.308594 405.042969 354.914062 405.042969 355.652344 C 405.042969 356.390625 405.269531 357 405.726562 357.480469 C 406.171875 357.949219 406.734375 358.183594 407.410156 358.183594 C 408.085938 358.183594 408.652344 357.949219 409.105469 357.480469 C 409.554688 357 409.777344 356.390625 409.777344 355.652344 Z M 409.777344 355.652344 " fill-opacity="1" fill-rule="nonzero"/><path fill="#f4ad5e" d="M 261.554688 368.511719 C 261.554688 370.730469 259.753906 372.53125 257.535156 372.53125 C 255.316406 372.53125 253.515625 370.730469 253.515625 368.511719 C 253.515625 366.292969 255.316406 364.496094 257.535156 364.496094 C 259.753906 364.496094 261.554688 366.292969 261.554688 368.511719 Z M 261.554688 368.511719 " fill-opacity="1" fill-rule="nonzero"/><path fill="#f4ad5e" d="M 280.847656 368.511719 C 280.847656 370.730469 279.046875 372.53125 276.828125 372.53125 C 274.609375 372.53125 272.808594 370.730469 272.808594 368.511719 C 272.808594 366.292969 274.609375 364.496094 276.828125 364.496094 C 279.046875 364.496094 280.847656 366.292969 280.847656 368.511719 Z M 280.847656 368.511719 " fill-opacity="1" fill-rule="nonzero"/><path fill="#f4ad5e" d="M 300.140625 368.511719 C 300.140625 370.730469 298.339844 372.53125 296.121094 372.53125 C 293.902344 372.53125 292.101562 370.730469 292.101562 368.511719 C 292.101562 366.292969 293.902344 364.496094 296.121094 364.496094 C 298.339844 364.496094 300.140625 366.292969 300.140625 368.511719 Z M 300.140625 368.511719 " fill-opacity="1" fill-rule="nonzero"/><path fill="#f4ad5e" d="M 319.433594 368.511719 C 319.433594 370.730469 317.632812 372.53125 315.414062 372.53125 C 313.191406 372.53125 311.394531 370.730469 311.394531 368.511719 C 311.394531 366.292969 313.191406 364.496094 315.414062 364.496094 C 317.632812 364.496094 319.433594 366.292969 319.433594 368.511719 Z M 319.433594 368.511719 " fill-opacity="1" fill-rule="nonzero"/><path fill="#f4ad5e" d="M 338.726562 368.511719 C 338.726562 370.730469 336.925781 372.53125 334.707031 372.53125 C 332.484375 372.53125 330.6875 370.730469 330.6875 368.511719 C 330.6875 366.292969 332.484375 364.496094 334.707031 364.496094 C 336.925781 364.496094 338.726562 366.292969 338.726562 368.511719 Z M 338.726562 368.511719 " fill-opacity="1" fill-rule="nonzero"/><path fill="#f4ad5e" d="M 358.015625 368.511719 C 358.015625 370.730469 356.21875 372.53125 353.996094 372.53125 C 351.777344 372.53125 349.976562 370.730469 349.976562 368.511719 C 349.976562 366.292969 351.777344 364.496094 353.996094 364.496094 C 356.21875 364.496094 358.015625 366.292969 358.015625 368.511719 Z M 358.015625 368.511719 " fill-opacity="1" fill-rule="nonzero"/><path fill="#efcb96" d="M 143.921875 215.105469 C 121.539062 230.933594 130.949219 259.078125 135.164062 269.984375 L 133.316406 292.234375 C 135.230469 299.242188 142.171875 313.253906 154.628906 313.253906 C 167.082031 313.253906 172.792969 301.292969 174.089844 295.3125 L 172.144531 278.425781 C 186.742188 273.148438 187.714844 252.042969 186.742188 235.15625 C 185.585938 215.105469 163.636719 201.160156 143.921875 215.105469 Z M 143.921875 215.105469 " fill-opacity="1" fill-rule="nonzero"/><path fill="#032068" d="M 135.867188 264.464844 L 133.929688 283.601562 C 133.28125 282.183594 131.796875 278.074219 131.019531 272.96875 C 130.050781 266.59375 114.539062 242.140625 119.386719 224.070312 C 123.265625 209.609375 133.929688 210.25 138.777344 212.375 C 141.683594 207.058594 159.136719 188.988281 184.34375 191.113281 C 209.550781 193.238281 212.460938 229.382812 192.097656 234.699219 C 175.8125 238.953125 157.519531 236.472656 150.410156 234.699219 C 149.765625 236.117188 147.890625 240.863281 145.5625 248.519531 C 142.65625 258.089844 142.65625 260.214844 141.683594 253.835938 C 140.714844 247.457031 136.835938 235.761719 131.992188 247.457031 C 128.113281 256.8125 132.960938 262.695312 135.867188 264.464844 Z M 135.867188 264.464844 " fill-opacity="1" fill-rule="nonzero"/><path fill="#032068" d="M 149.949219 278.042969 C 156.621094 281.96875 166.933594 279.679688 171.257812 278.042969 L 172.183594 284.917969 C 162.550781 287.273438 153.347656 281.316406 149.949219 278.042969 Z M 149.949219 278.042969 " fill-opacity="1" fill-rule="nonzero"/><path fill="#f4ad5e" d="M 153.773438 301.453125 C 167.730469 301.453125 174.492188 293.683594 176.523438 289.039062 C 176.761719 288.5 177.277344 288.117188 177.867188 288.144531 C 185.570312 288.535156 196.496094 293.207031 199.238281 294.148438 C 199.3125 294.175781 199.375 294.203125 199.441406 294.238281 C 220.976562 305.808594 241.398438 326.277344 254.195312 400.109375 C 258.34375 430.917969 265.746094 495.207031 262.195312 505.875 C 258.636719 516.539062 234.050781 518.019531 222.203125 517.429688 L 66.683594 517.429688 C 62.566406 517.429688 63.839844 510.941406 65.578125 506.019531 C 65.96875 504.90625 64.902344 503.679688 63.734375 503.84375 C 56.648438 504.824219 43.125 503.535156 28.46875 492.542969 C 0.03125 469.433594 32.914062 377 54.242188 333.449219 C 71 299.230469 110.84375 289.074219 129.660156 288.160156 C 130.269531 288.132812 130.792969 288.515625 131.039062 289.070312 C 133.085938 293.71875 139.847656 301.453125 153.773438 301.453125 Z M 153.773438 301.453125 " fill-opacity="1" fill-rule="nonzero"/><path fill="#032068" d="M 60.480469 502.1875 C 50.707031 481.421875 30.011719 460.890625 18.941406 451.550781 C 18.09375 450.835938 16.824219 451.398438 16.792969 452.507812 C 16.523438 462.058594 17.808594 479.539062 24.914062 489.875 C 32.167969 500.429688 49.667969 503.640625 59.257812 504.050781 C 60.246094 504.09375 60.902344 503.082031 60.480469 502.1875 Z M 60.480469 502.1875 " fill-opacity="1" fill-rule="nonzero"/><path fill="#032068" d="M 151.105469 448.992188 C 110.582031 490.230469 76.753906 503.503906 64.90625 504.984375 L 63.128906 512.984375 C 97.964844 507.296875 136.296875 467.953125 151.105469 448.992188 Z M 151.105469 448.992188 " fill-opacity="1" fill-rule="nonzero"/><path fill="#ffffff" d="M 160.882812 435.714844 L 160.882812 375.496094 C 160.882812 374.824219 161.367188 374.25 162.027344 374.140625 L 191.25 369.269531 C 192.097656 369.128906 192.863281 369.789062 192.851562 370.644531 L 192 429.25 C 191.992188 429.882812 191.550781 430.425781 190.933594 430.566406 L 162.558594 437.054688 C 161.699219 437.25 160.882812 436.597656 160.882812 435.714844 Z M 160.882812 435.714844 " fill-opacity="1" fill-rule="nonzero"/><path fill="#032068" d="M 191.027344 367.914062 C 192.714844 367.636719 194.246094 368.953125 194.222656 370.664062 L 193.371094 429.269531 C 193.355469 430.535156 192.472656 431.621094 191.238281 431.90625 L 162.863281 438.390625 C 161.148438 438.785156 159.507812 437.480469 159.507812 435.714844 L 159.507812 375.496094 C 159.507812 374.152344 160.476562 373.007812 161.804688 372.789062 Z M 191.476562 370.625 L 162.253906 375.496094 L 162.253906 435.714844 L 190.628906 429.230469 Z M 191.476562 370.625 " fill-opacity="1" fill-rule="evenodd"/><path fill="#032068" d="M 84.453125 417.882812 C 83.03125 420.726562 67.863281 427.957031 60.457031 431.214844 C 68.28125 429.082031 114.078125 413.144531 135.996094 405.441406 C 129.777344 405.441406 93.339844 416.105469 92.453125 414.328125 C 91.742188 412.90625 94.523438 394.773438 96.007812 385.886719 C 92.746094 395.367188 85.875 415.039062 84.453125 417.882812 Z M 84.453125 417.882812 " fill-opacity="1" fill-rule="nonzero"/><path fill="#efcb96" d="M 149.328125 401.886719 C 145.773438 407.574219 141.921875 410.179688 140.441406 410.773438 L 146.660156 431.214844 C 154.660156 426.773438 167.992188 427.660156 177.765625 422.328125 C 187.542969 416.996094 185.765625 391.21875 180.433594 392.996094 C 176.167969 394.421875 165.621094 398.921875 160.882812 400.996094 L 160.882812 388.554688 C 154.660156 391.21875 153.773438 394.773438 149.328125 401.886719 Z M 149.328125 401.886719 " fill-opacity="1" fill-rule="nonzero"/><path fill="#f4ad5e" d="M 205.503906 291.101562 C 198.570312 291.101562 181.621094 307.28125 181.621094 314.988281 C 180.082031 321.152344 220.910156 408.984375 250.957031 425.164062 C 281 441.34375 305.652344 421.3125 303.34375 390.496094 C 300.917969 358.132812 213.546875 291.101562 205.503906 291.101562 Z M 205.503906 291.101562 " fill-opacity="1" fill-rule="nonzero"/><path fill="#032068" d="M 303.34375 388.183594 C 274.992188 394.960938 262.769531 418.230469 260.199219 429.019531 C 266.878906 430.816406 279.460938 436.722656 294.097656 422.085938 C 304.59375 411.589844 304.882812 395.375 303.34375 388.183594 Z M 303.34375 388.183594 " fill-opacity="1" fill-rule="nonzero"/><path fill="#032068" d="M 217.058594 387.414062 C 235.546875 418.230469 251.980469 427.476562 257.890625 428.246094 L 259.429688 438.265625 C 254.808594 437.492188 243.714844 430.558594 227.074219 408.984375 C 203.652344 379.398438 186.242188 333.992188 181.621094 314.988281 C 185.472656 328.085938 193.945312 348.886719 217.058594 387.414062 Z M 217.058594 387.414062 " fill-opacity="1" fill-rule="nonzero"/><path fill="#efcb96" d="M 183.160156 268.113281 C 184.242188 269.757812 194.296875 286.171875 198.570312 294.167969 C 194.523438 298.285156 186.023438 306.511719 184.40625 306.511719 C 182.382812 306.511719 170.914062 303.085938 166.191406 296.914062 C 161.46875 290.742188 168.890625 283.199219 168.890625 282.511719 C 168.890625 281.828125 156.75 276.34375 154.726562 273.601562 C 152.703125 270.855469 155.425781 267.988281 158.507812 268.757812 C 160.269531 268.757812 171.605469 274.921875 175.457031 276.464844 C 177.078125 275.914062 179.308594 274.152344 183.160156 268.113281 Z M 183.160156 268.113281 " fill-opacity="1" fill-rule="nonzero"/><path fill="#032068" d="M 153.886719 272.609375 C 154.503906 276.925781 160.308594 280.574219 163.128906 281.859375 L 165.441406 280.316406 C 164.414062 279.800781 161.589844 278.3125 158.507812 276.464844 C 155.425781 274.613281 154.144531 273.125 153.886719 272.609375 Z M 153.886719 272.609375 " fill-opacity="1" fill-rule="nonzero"/><path fill="#032068" d="M 164.671875 299.578125 C 159.125 294.03125 161.847656 287.507812 163.902344 284.9375 L 167.753906 284.167969 C 163.132812 291.875 165.957031 297.011719 167.753906 298.035156 Z M 164.671875 299.578125 " fill-opacity="1" fill-rule="nonzero"/></svg>