<svg xmlns="http://www.w3.org/2000/svg" xmlns:xlink="http://www.w3.org/1999/xlink" width="1366" zoomAndPan="magnify" viewBox="0 0 1024.5 576" height="768" preserveAspectRatio="xMidYMid meet" version="1.0"><defs><clipPath id="f521e5b976"><path d="M 3 0.140625 L 581 0.140625 L 581 558 L 3 558 Z M 3 0.140625 " clip-rule="nonzero"/></clipPath></defs><g clip-path="url(#f521e5b976)"><path fill="#caddff" d="M 52.871094 225.46875 C 73.433594 141.667969 37.441406 118.972656 58.804688 72.945312 C 91.675781 2.132812 235.613281 -29.078125 329.914062 -16.34375 C 445.414062 -0.746094 557.828125 84.40625 577.488281 213.203125 C 598.492188 350.824219 510.289062 479.652344 387.902344 531.382812 C 341.074219 551.179688 284.304688 560.191406 229.367188 557.523438 C 221.902344 557.160156 213.792969 554.691406 206.421875 553.898438 C 200.648438 553.273438 195.585938 554.40625 189.902344 553.511719 C 173.484375 550.933594 157.507812 547.226562 142.316406 542.371094 C 135.300781 540.121094 130.707031 533.210938 124.058594 530.46875 C 116.507812 527.359375 106.957031 528.351562 99.972656 524.59375 C 78.835938 513.222656 60.535156 498.878906 46.445312 481.457031 C 39.128906 472.410156 -0.0078125 422.574219 3.816406 357.25 C 6.972656 303.261719 36.574219 291.890625 52.871094 225.46875 " fill-opacity="1" fill-rule="nonzero"/></g><path fill="#000000" d="M 170.339844 399.082031 L 442.394531 399.082031 C 446.542969 399.082031 450.261719 396.59375 451.746094 392.832031 L 580.710938 66.90625 C 581.992188 63.660156 581.363281 60.289062 579.511719 57.761719 C 577.726562 55.332031 572.574219 48.152344 572.574219 48.152344 L 299.308594 53.683594 C 295.164062 53.683594 291.449219 56.167969 289.960938 59.933594 L 156.175781 387.441406 C 156.175781 387.441406 160.410156 392.824219 162.488281 395.386719 C 164.292969 397.605469 167.082031 399.082031 170.339844 399.082031 " fill-opacity="1" fill-rule="nonzero"/><path fill="#ffffff" d="M 163.722656 389.371094 L 435.78125 389.371094 C 439.929688 389.371094 443.644531 386.886719 445.125 383.121094 L 573.28125 58.117188 C 575.796875 51.738281 570.957031 44.894531 563.9375 44.894531 L 291.878906 44.894531 C 287.734375 44.894531 284.019531 47.375 282.53125 51.144531 L 154.378906 376.144531 C 151.863281 382.523438 156.703125 389.371094 163.722656 389.371094 " fill-opacity="1" fill-rule="nonzero"/><path fill="#000000" d="M 291.878906 45.941406 C 288.1875 45.941406 284.820312 48.183594 283.507812 51.527344 L 155.347656 376.53125 C 154.304688 379.179688 154.628906 382.054688 156.238281 384.417969 C 157.90625 386.863281 160.703125 388.324219 163.722656 388.324219 L 435.78125 388.324219 C 439.472656 388.324219 442.835938 386.082031 444.152344 382.738281 L 572.308594 57.734375 C 573.347656 55.085938 573.027344 52.210938 571.417969 49.84375 C 569.753906 47.398438 566.957031 45.941406 563.9375 45.941406 Z M 435.78125 390.417969 L 163.722656 390.417969 C 160.011719 390.417969 156.566406 388.617188 154.511719 385.597656 C 152.503906 382.648438 152.101562 379.066406 153.40625 375.761719 L 281.558594 50.757812 C 283.191406 46.625 287.335938 43.847656 291.878906 43.847656 L 563.9375 43.847656 C 567.648438 43.847656 571.09375 45.648438 573.144531 48.667969 C 575.152344 51.617188 575.558594 55.199219 574.253906 58.503906 L 446.101562 383.503906 C 444.46875 387.640625 440.324219 390.417969 435.78125 390.417969 " fill-opacity="1" fill-rule="nonzero"/><path fill="#ffffff" d="M 141.035156 369.113281 L 413.09375 369.113281 C 417.238281 369.113281 420.949219 366.625 422.4375 362.859375 L 550.59375 37.855469 C 553.105469 31.480469 548.269531 24.632812 541.25 24.632812 L 269.191406 24.632812 C 265.042969 24.632812 261.328125 27.121094 259.84375 30.882812 L 131.6875 355.886719 C 129.171875 362.261719 134.015625 369.113281 141.035156 369.113281 " fill-opacity="1" fill-rule="nonzero"/><path fill="#000000" d="M 269.191406 25.679688 C 265.5 25.679688 262.132812 27.925781 260.820312 31.269531 L 132.660156 356.269531 C 131.617188 358.921875 131.941406 361.792969 133.550781 364.160156 C 135.21875 366.605469 138.015625 368.066406 141.035156 368.066406 L 413.09375 368.066406 C 416.785156 368.066406 420.148438 365.820312 421.464844 362.476562 L 549.621094 37.476562 C 550.664062 34.828125 550.339844 31.949219 548.730469 29.585938 C 547.066406 27.140625 544.265625 25.679688 541.25 25.679688 Z M 413.09375 370.15625 L 141.035156 370.15625 C 137.320312 370.15625 133.878906 368.355469 131.824219 365.335938 C 129.816406 362.390625 129.414062 358.808594 130.714844 355.503906 L 258.871094 30.5 C 260.503906 26.367188 264.648438 23.589844 269.191406 23.589844 L 541.25 23.589844 C 544.960938 23.589844 548.40625 25.390625 550.457031 28.40625 C 552.46875 31.355469 552.871094 34.941406 551.566406 38.242188 L 423.410156 363.242188 C 421.78125 367.382812 417.632812 370.15625 413.09375 370.15625 " fill-opacity="1" fill-rule="nonzero"/><path fill="#99b9ff" d="M 163.367188 349.683594 L 403.074219 349.683594 C 406.726562 349.683594 410.003906 347.496094 411.3125 344.179688 L 524.230469 57.816406 C 526.441406 52.199219 522.179688 46.167969 515.992188 46.167969 L 276.285156 46.167969 C 272.632812 46.167969 269.355469 48.355469 268.050781 51.671875 L 155.132812 338.035156 C 152.917969 343.652344 157.179688 349.683594 163.367188 349.683594 " fill-opacity="1" fill-rule="nonzero"/><path fill="#ffffff" d="M 380.355469 236.558594 L 272.824219 236.558594 C 261.691406 236.558594 254.054688 225.359375 258.113281 214.996094 C 260.484375 208.945312 266.324219 204.960938 272.824219 204.960938 L 380.355469 204.960938 C 391.480469 204.960938 399.125 216.160156 395.0625 226.519531 C 392.691406 232.574219 386.855469 236.558594 380.355469 236.558594 " fill-opacity="1" fill-rule="nonzero"/><path fill="#ffffff" d="M 322.007812 144.339844 L 399.761719 144.339844 C 401.71875 144.339844 403.300781 142.753906 403.300781 140.800781 C 403.300781 138.847656 401.71875 137.261719 399.761719 137.261719 L 322.007812 137.261719 C 320.054688 137.261719 318.46875 138.847656 318.46875 140.800781 C 318.46875 142.753906 320.054688 144.339844 322.007812 144.339844 " fill-opacity="1" fill-rule="nonzero"/><path fill="#ffffff" d="M 288.757812 162.300781 L 407 162.300781 C 408.957031 162.300781 410.539062 160.71875 410.539062 158.761719 C 410.539062 156.808594 408.957031 155.222656 407 155.222656 L 288.757812 155.222656 C 286.800781 155.222656 285.21875 156.808594 285.21875 158.761719 C 285.21875 160.71875 286.800781 162.300781 288.757812 162.300781 " fill-opacity="1" fill-rule="nonzero"/><path fill="#ffffff" d="M 298.207031 180.71875 L 375.957031 180.71875 C 377.914062 180.71875 379.496094 179.132812 379.496094 177.179688 C 379.496094 175.222656 377.914062 173.640625 375.957031 173.640625 L 298.207031 173.640625 C 296.25 173.640625 294.664062 175.222656 294.664062 177.179688 C 294.664062 179.132812 296.25 180.71875 298.207031 180.71875 " fill-opacity="1" fill-rule="nonzero"/><path fill="#000000" d="M 403.1875 350.265625 L 376.574219 350.265625 C 376 350.265625 375.527344 349.792969 375.527344 349.214844 C 375.527344 348.636719 376 348.171875 376.574219 348.171875 L 403.1875 348.171875 C 406.386719 348.171875 409.304688 346.226562 410.445312 343.324219 L 438.460938 272.289062 C 438.667969 271.753906 439.277344 271.492188 439.816406 271.707031 C 440.351562 271.914062 440.613281 272.519531 440.402344 273.058594 L 412.394531 344.09375 C 410.9375 347.78125 407.238281 350.265625 403.1875 350.265625 " fill-opacity="1" fill-rule="nonzero"/><path fill="#000000" d="M 245.988281 109.082031 C 245.859375 109.082031 245.730469 109.058594 245.601562 109.007812 C 245.066406 108.796875 244.800781 108.1875 245.015625 107.652344 L 263.6875 60.648438 C 263.898438 60.113281 264.507812 59.851562 265.042969 60.066406 C 265.582031 60.277344 265.84375 60.882812 265.632812 61.421875 L 246.960938 108.421875 C 246.796875 108.832031 246.40625 109.082031 245.988281 109.082031 " fill-opacity="1" fill-rule="nonzero"/><path fill="#000000" d="M 498.398438 124.183594 C 498.265625 124.183594 498.136719 124.15625 498.011719 124.113281 C 497.476562 123.902344 497.207031 123.289062 497.425781 122.753906 L 523.363281 56.96875 C 524.269531 54.667969 523.984375 52.175781 522.59375 50.128906 C 521.152344 48.011719 518.722656 46.742188 516.101562 46.742188 L 299.09375 46.742188 C 298.515625 46.742188 298.046875 46.273438 298.046875 45.695312 C 298.046875 45.117188 298.515625 44.652344 299.09375 44.652344 L 516.101562 44.652344 C 519.414062 44.652344 522.488281 46.257812 524.320312 48.953125 C 526.113281 51.585938 526.472656 54.785156 525.308594 57.730469 L 499.367188 123.523438 C 499.207031 123.929688 498.8125 124.183594 498.398438 124.183594 " fill-opacity="1" fill-rule="nonzero"/><path fill="#000000" d="M 352.371094 207.476562 L 350.890625 205.996094 L 359.609375 197.277344 L 361.089844 198.753906 L 352.371094 207.476562 " fill-opacity="1" fill-rule="nonzero"/><path fill="#000000" d="M 359.609375 244.164062 L 350.890625 235.445312 L 352.371094 233.964844 L 361.089844 242.6875 L 359.609375 244.164062 " fill-opacity="1" fill-rule="nonzero"/><path fill="#000000" d="M 322.917969 207.476562 L 314.199219 198.753906 L 315.679688 197.277344 L 324.398438 205.996094 L 322.917969 207.476562 " fill-opacity="1" fill-rule="nonzero"/><path fill="#000000" d="M 340.605469 229.296875 L 339.726562 227.402344 C 342.601562 226.0625 344.464844 223.148438 344.464844 219.972656 C 344.464844 215.453125 340.789062 211.78125 336.273438 211.78125 C 333.550781 211.78125 331.011719 213.132812 329.484375 215.394531 L 327.75 214.222656 C 329.664062 211.382812 332.851562 209.691406 336.273438 209.691406 C 341.941406 209.691406 346.558594 214.300781 346.558594 219.972656 C 346.558594 223.953125 344.222656 227.617188 340.605469 229.296875 " fill-opacity="1" fill-rule="nonzero"/><path fill="#ffffff" d="M 347.800781 79.5625 C 358.632812 63.765625 377.714844 56.703125 390.414062 63.78125 C 403.117188 70.859375 404.636719 89.402344 393.800781 105.195312 C 393.125 106.183594 392.414062 107.132812 391.675781 108.054688 C 380.613281 121.820312 370.050781 117.144531 358.140625 110.511719 C 351.667969 106.902344 341.148438 110.785156 340.636719 103.101562 C 340.144531 95.714844 342.492188 87.308594 347.800781 79.5625 " fill-opacity="1" fill-rule="nonzero"/><path fill="#5479f7" d="M 340.644531 103.105469 C 341.15625 110.785156 344.710938 117.371094 351.1875 120.976562 C 363.097656 127.613281 380.609375 121.820312 391.675781 108.058594 C 374.109375 92.074219 350.167969 99.253906 340.644531 103.105469 " fill-opacity="1" fill-rule="nonzero"/><path fill="#000000" d="M 381.46875 89.1875 L 386.917969 82.058594 C 388.972656 79.359375 389.273438 75.957031 387.644531 73.707031 C 387.175781 73.054688 384.75 72.746094 382.847656 72.523438 C 381.496094 72.363281 380.378906 71.640625 379.738281 70.519531 L 378.875 69.011719 C 377.753906 67.972656 376.117188 67.558594 374.414062 68.003906 C 373.828125 68.152344 373.25 68.375 372.683594 68.671875 L 372.128906 68.960938 C 369.480469 70.34375 367.585938 73.046875 367.324219 75.835938 L 366.507812 85.410156 L 381.46875 89.1875 " fill-opacity="1" fill-rule="nonzero"/><path fill="#ffffff" d="M 379.335938 76.425781 L 369.84375 76.117188 L 364.664062 89.300781 C 363.613281 91.726562 364.074219 93.980469 365.367188 95.15625 L 363.601562 99.222656 C 362.402344 101.96875 363.484375 104.734375 366.011719 105.386719 C 368.535156 106.050781 371.554688 104.351562 372.75 101.601562 L 375.320312 95.703125 C 378.035156 94.46875 380.378906 91.972656 381.667969 89.015625 L 383.773438 84.171875 C 385.679688 79.785156 384.582031 77.242188 379.335938 76.425781 " fill-opacity="1" fill-rule="nonzero"/><path fill="#000000" d="M 367.164062 106.578125 C 366.683594 106.578125 366.210938 106.519531 365.746094 106.402344 C 364.339844 106.035156 363.226562 105.125 362.601562 103.84375 C 361.875 102.363281 361.894531 100.523438 362.644531 98.804688 L 364.363281 94.859375 C 364.589844 94.328125 365.207031 94.089844 365.734375 94.320312 C 366.265625 94.550781 366.507812 95.164062 366.277344 95.695312 L 364.5625 99.636719 C 364.058594 100.800781 364.027344 101.996094 364.480469 102.925781 C 364.835938 103.660156 365.460938 104.164062 366.273438 104.375 C 368.289062 104.898438 370.8125 103.4375 371.792969 101.183594 L 374.363281 95.28125 C 374.59375 94.753906 375.207031 94.511719 375.734375 94.742188 C 376.265625 94.96875 376.511719 95.589844 376.28125 96.117188 L 373.710938 102.019531 C 372.511719 104.777344 369.816406 106.578125 367.164062 106.578125 " fill-opacity="1" fill-rule="nonzero"/><path fill="#000000" d="M 370.582031 77.417969 L 366.144531 88.011719 C 365.292969 89.96875 364.816406 92.550781 365.65625 93.9375 C 366.023438 94.550781 366.648438 94.882812 367.558594 94.949219 C 367.582031 94.949219 367.609375 94.953125 367.632812 94.957031 L 370.835938 95.425781 C 375.046875 95.386719 378.917969 92.710938 380.707031 88.59375 L 382.8125 83.753906 C 383.671875 81.789062 383.691406 80.019531 382.878906 78.90625 C 382.15625 77.90625 380.796875 77.476562 378.953125 77.660156 C 378.90625 77.664062 378.859375 77.667969 378.816406 77.664062 Z M 370.765625 97.519531 C 370.714844 97.519531 370.664062 97.515625 370.613281 97.507812 L 367.363281 97.035156 C 365.378906 96.871094 364.363281 95.851562 363.863281 95.015625 C 362.558594 92.855469 363.191406 89.558594 364.222656 87.195312 L 368.929688 75.949219 C 369.097656 75.546875 369.507812 75.289062 369.921875 75.304688 L 378.8125 75.574219 C 381.367188 75.335938 383.410156 76.082031 384.570312 77.671875 C 385.832031 79.402344 385.886719 81.925781 384.734375 84.589844 L 382.628906 89.429688 C 380.496094 94.332031 375.835938 97.503906 370.765625 97.519531 " fill-opacity="1" fill-rule="nonzero"/><path fill="#000000" d="M 191.421875 356.574219 C 193.183594 342.28125 192.171875 344.472656 192.171875 344.472656 L 132.265625 348 C 132.265625 348 126.804688 385.121094 126.464844 387.65625 C 126.179688 389.796875 111.550781 465.179688 99.980469 524.582031 C 113.109375 531.644531 127.332031 537.5625 142.320312 542.359375 C 153.402344 517.492188 165.300781 487.429688 173.648438 457.230469 C 180.222656 483.914062 186.6875 521.777344 189.902344 553.511719 C 202.839844 555.542969 216.046875 556.875 229.363281 557.523438 C 237.65625 503.265625 245.753906 416.195312 225.164062 358 L 191.421875 356.574219 " fill-opacity="1" fill-rule="nonzero"/><path fill="#caddff" d="M 174.851562 467.878906 C 174.351562 467.878906 173.910156 467.515625 173.824219 467.007812 C 171.550781 453.609375 165.566406 436.410156 161.097656 427.523438 C 155.785156 416.960938 155.203125 406.160156 154.820312 399.007812 C 154.789062 398.433594 155.230469 397.9375 155.808594 397.90625 C 156.375 397.882812 156.875 398.320312 156.910156 398.898438 C 157.285156 405.871094 157.851562 416.414062 162.964844 426.582031 C 167.503906 435.609375 173.578125 453.066406 175.882812 466.65625 C 175.980469 467.226562 175.597656 467.765625 175.03125 467.863281 C 174.96875 467.871094 174.910156 467.878906 174.851562 467.878906 " fill-opacity="1" fill-rule="nonzero"/><path fill="#ffffff" d="M 237.320312 173.75 L 237.082031 173.003906 C 236.230469 170.332031 235.921875 167.523438 236.046875 164.726562 C 236.167969 162.148438 236.585938 157.449219 235.675781 155.972656 C 233.121094 151.816406 223.203125 134.296875 205.652344 142.070312 C 191.96875 148.132812 192.980469 169.472656 193.695312 176.710938 C 193.859375 178.386719 193.617188 180.074219 192.988281 181.640625 C 192.957031 181.71875 192.917969 181.800781 192.882812 181.882812 L 184.726562 198.589844 C 183.550781 201.023438 184.035156 203.933594 185.9375 205.851562 L 186.988281 206.90625 C 189.296875 209.613281 194.40625 210.957031 197.898438 211.269531 C 200.449219 211.496094 202.386719 211.269531 204.277344 210.28125 C 206.074219 209.339844 206.796875 208.148438 207.328125 206.167969 C 207.328125 206.167969 211.566406 192.128906 213.265625 193.210938 C 218.980469 196.863281 222.035156 196.300781 225.585938 192.136719 C 227.816406 189.527344 230.78125 185.414062 232.925781 179.238281 C 233.148438 178.597656 233.59375 178.054688 234.167969 177.691406 L 236.636719 176.140625 C 237.324219 175.554688 237.597656 174.609375 237.320312 173.75 " fill-opacity="1" fill-rule="nonzero"/><path fill="#000000" d="M 214.324219 141.152344 C 211.804688 141.152344 209.058594 141.707031 206.074219 143.03125 C 193.398438 148.644531 193.921875 168.386719 194.734375 176.609375 C 194.914062 178.441406 194.644531 180.316406 193.957031 182.03125 C 193.914062 182.140625 193.867188 182.242188 193.816406 182.34375 L 185.664062 199.050781 C 184.683594 201.074219 185.09375 203.515625 186.679688 205.121094 L 187.730469 206.175781 C 187.746094 206.195312 187.765625 206.214844 187.78125 206.230469 C 189.75 208.542969 194.328125 209.90625 197.992188 210.230469 C 200.5 210.449219 202.179688 210.199219 203.792969 209.355469 C 205.199219 208.621094 205.8125 207.78125 206.320312 205.898438 C 207.769531 201.089844 210.492188 192.964844 212.542969 192.207031 C 212.984375 192.042969 213.4375 192.089844 213.828125 192.335938 C 219.449219 195.929688 221.839844 194.917969 224.789062 191.460938 C 227.949219 187.761719 230.289062 183.652344 231.9375 178.898438 C 232.234375 178.046875 232.828125 177.300781 233.609375 176.808594 L 236.003906 175.300781 C 236.335938 174.988281 236.464844 174.507812 236.320312 174.070312 L 236.085938 173.324219 C 235.226562 170.632812 234.859375 167.722656 235 164.679688 C 235.019531 164.320312 235.042969 163.921875 235.066406 163.496094 C 235.179688 161.40625 235.398438 157.515625 234.785156 156.523438 L 234.507812 156.070312 C 232.03125 152 225.417969 141.152344 214.324219 141.152344 Z M 199.574219 212.394531 C 199.015625 212.394531 198.429688 212.371094 197.808594 212.3125 C 194.03125 211.980469 188.742188 210.546875 186.21875 207.621094 L 185.195312 206.589844 C 182.984375 204.363281 182.417969 200.960938 183.78125 198.136719 L 191.941406 181.425781 C 191.964844 181.367188 191.992188 181.308594 192.015625 181.25 C 192.582031 179.847656 192.800781 178.316406 192.652344 176.820312 C 191.796875 168.136719 191.304688 147.285156 205.226562 141.121094 C 217.050781 135.882812 227.503906 140.546875 236.296875 154.984375 L 236.566406 155.425781 C 237.449219 156.867188 237.359375 159.855469 237.152344 163.613281 C 237.128906 164.03125 237.109375 164.421875 237.09375 164.777344 C 236.964844 167.570312 237.296875 170.234375 238.074219 172.6875 L 238.316406 173.433594 C 238.722656 174.703125 238.328125 176.078125 237.304688 176.9375 C 237.273438 176.96875 237.230469 177 237.1875 177.027344 L 234.722656 178.578125 C 234.34375 178.820312 234.054688 179.175781 233.910156 179.585938 C 232.175781 184.585938 229.710938 188.914062 226.382812 192.820312 C 222.441406 197.433594 218.8125 197.871094 213.105469 194.351562 C 212.015625 195.660156 209.851562 201.429688 208.328125 206.46875 C 207.792969 208.464844 206.976562 210.046875 204.761719 211.210938 C 203.214844 212.019531 201.601562 212.394531 199.574219 212.394531 " fill-opacity="1" fill-rule="nonzero"/><path fill="#000000" d="M 226.710938 131.917969 C 231.179688 134.222656 233.191406 138.417969 235.648438 139.074219 C 244.554688 141.460938 248.78125 146.089844 245.675781 153.644531 C 240.507812 166.21875 224.871094 160.550781 221.609375 160.582031 C 218.554688 160.609375 213.511719 162.445312 210.539062 168.5625 C 210.15625 169.351562 209.285156 169.792969 208.429688 169.65625 C 207.421875 169.5 206.707031 168.605469 206.789062 167.582031 C 207.046875 164.375 207.175781 157.859375 204.121094 156.949219 C 200.289062 155.804688 194.25 164.71875 199.738281 170.765625 C 201.421875 172.621094 201.386719 175.789062 199.558594 177.574219 C 198.367188 178.738281 195.824219 179.265625 193.632812 178.171875 C 192.296875 177.503906 191.550781 176.164062 191.074219 174.75 C 189.097656 168.910156 186.53125 148.863281 193.164062 138.144531 C 201.160156 125.230469 220.765625 128.859375 226.710938 131.917969 " fill-opacity="1" fill-rule="nonzero"/><path fill="#000000" d="M 213.203125 194.222656 C 213.007812 194.222656 212.816406 194.171875 212.640625 194.058594 C 208.515625 191.414062 205.941406 187.425781 204.511719 184.542969 C 204.253906 184.027344 204.464844 183.398438 204.980469 183.144531 C 205.5 182.882812 206.125 183.097656 206.382812 183.613281 C 207.699219 186.257812 210.046875 189.910156 213.769531 192.296875 C 214.253906 192.609375 214.394531 193.257812 214.082031 193.742188 C 213.886719 194.054688 213.546875 194.222656 213.203125 194.222656 " fill-opacity="1" fill-rule="nonzero"/><path fill="#ffffff" d="M 101.546875 432.890625 L 12.863281 407.25 C 11.714844 406.914062 11.054688 405.71875 11.386719 404.570312 L 27.15625 350.03125 C 27.488281 348.878906 28.6875 348.21875 29.835938 348.550781 L 118.523438 374.191406 C 119.667969 374.527344 120.332031 375.726562 120 376.875 L 104.230469 431.414062 C 103.898438 432.5625 102.695312 433.222656 101.546875 432.890625 " fill-opacity="1" fill-rule="nonzero"/><path fill="#000000" d="M 31.027344 350.136719 C 29.402344 350.136719 27.90625 351.203125 27.433594 352.835938 L 13.117188 402.34375 C 12.839844 403.304688 12.953125 404.3125 13.433594 405.1875 C 13.917969 406.0625 14.710938 406.695312 15.671875 406.972656 L 99.324219 431.160156 C 101.300781 431.730469 103.378906 430.589844 103.953125 428.605469 L 118.269531 379.097656 C 118.546875 378.140625 118.433594 377.128906 117.949219 376.253906 C 117.46875 375.382812 116.675781 374.746094 115.714844 374.46875 L 32.0625 350.285156 C 31.71875 350.183594 31.367188 350.136719 31.027344 350.136719 Z M 100.359375 433.398438 C 99.824219 433.398438 99.28125 433.324219 98.742188 433.167969 L 15.089844 408.980469 C 13.59375 408.546875 12.355469 407.558594 11.605469 406.195312 C 10.851562 404.832031 10.675781 403.257812 11.109375 401.761719 L 25.425781 352.253906 C 26.316406 349.164062 29.558594 347.378906 32.644531 348.273438 L 116.296875 372.460938 C 117.792969 372.894531 119.03125 373.882812 119.78125 375.246094 C 120.53125 376.609375 120.710938 378.183594 120.277344 379.679688 L 105.960938 429.1875 C 105.222656 431.734375 102.886719 433.398438 100.359375 433.398438 " fill-opacity="1" fill-rule="nonzero"/><path fill="#ffffff" d="M 25.847656 355.929688 L 26.371094 356.875 C 30.914062 365.074219 38.515625 371.132812 47.515625 373.734375 L 90.75 386.234375 C 99.773438 388.84375 109.46875 387.761719 117.695312 383.226562 L 25.847656 355.929688 " fill-opacity="1" fill-rule="nonzero"/><path fill="#000000" d="M 100.640625 388.691406 C 97.238281 388.691406 93.816406 388.210938 90.457031 387.238281 L 47.226562 374.742188 C 37.894531 372.042969 30.164062 365.878906 25.457031 357.382812 L 24.933594 356.433594 C 24.652344 355.929688 24.835938 355.292969 25.339844 355.011719 C 25.84375 354.730469 26.484375 354.914062 26.761719 355.421875 L 27.289062 356.371094 C 31.726562 364.378906 39.011719 370.1875 47.808594 372.730469 L 91.039062 385.230469 C 99.859375 387.78125 109.148438 386.742188 117.1875 382.308594 C 117.695312 382.03125 118.332031 382.210938 118.609375 382.71875 C 118.890625 383.226562 118.707031 383.859375 118.199219 384.140625 C 112.730469 387.15625 106.71875 388.691406 100.640625 388.691406 " fill-opacity="1" fill-rule="nonzero"/><path fill="#000000" d="M 69.875 390.875 L 62.941406 388.867188 L 67.621094 372.679688 L 74.558594 374.6875 L 69.875 390.875 " fill-opacity="1" fill-rule="nonzero"/><path fill="#ffffff" d="M 313.019531 247.878906 C 313.019531 247.878906 310.945312 232.328125 318.425781 226.925781 C 324.09375 222.835938 332.339844 220.285156 335.539062 219.339844 C 336.46875 219.0625 338.199219 219.257812 338.59375 220.144531 C 338.59375 220.144531 339.316406 221.816406 336.917969 222.949219 L 330 225.839844 C 329.347656 226.144531 329.253906 227.023438 329.820312 227.46875 C 331.5625 228.8125 334.734375 232.5625 335.242188 234.605469 C 336.097656 238.011719 334.273438 241.035156 331.023438 243.820312 C 327.773438 246.609375 326.921875 247.136719 326.765625 247.878906 C 326.609375 248.621094 326.535156 251.5625 326.535156 251.5625 L 313.019531 247.878906 " fill-opacity="1" fill-rule="nonzero"/><path fill="#000000" d="M 313.984375 247.058594 L 325.535156 250.203125 C 325.578125 249.277344 325.640625 248.144531 325.742188 247.664062 C 325.9375 246.742188 326.570312 246.210938 328.449219 244.628906 C 328.96875 244.195312 329.589844 243.671875 330.34375 243.03125 C 333.628906 240.210938 334.898438 237.539062 334.226562 234.855469 C 333.816406 233.222656 330.945312 229.660156 329.179688 228.292969 C 328.625 227.863281 328.335938 227.1875 328.414062 226.488281 C 328.488281 225.789062 328.917969 225.191406 329.554688 224.890625 L 336.515625 221.984375 C 337.941406 221.308594 337.640625 220.5625 337.636719 220.554688 C 337.492188 220.359375 336.476562 220.152344 335.839844 220.339844 C 328.515625 222.511719 322.859375 225.011719 319.039062 227.777344 C 313.003906 232.128906 313.707031 244.070312 313.984375 247.058594 Z M 326.535156 252.605469 C 326.445312 252.605469 326.347656 252.597656 326.261719 252.570312 L 312.746094 248.890625 C 312.34375 248.777344 312.042969 248.433594 311.984375 248.019531 C 311.898438 247.359375 309.914062 231.785156 317.8125 226.078125 C 321.828125 223.179688 327.691406 220.574219 335.242188 218.335938 C 336.570312 217.941406 338.867188 218.207031 339.546875 219.710938 C 339.941406 220.632812 339.980469 222.660156 337.363281 223.894531 L 330.578125 226.730469 C 332.304688 228.121094 335.652344 231.925781 336.257812 234.347656 C 337.136719 237.875 335.648438 241.234375 331.703125 244.617188 C 330.941406 245.265625 330.316406 245.792969 329.796875 246.230469 C 328.699219 247.148438 327.835938 247.878906 327.792969 248.09375 C 327.695312 248.542969 327.613281 250.40625 327.578125 251.589844 C 327.570312 251.90625 327.414062 252.207031 327.15625 252.402344 C 326.976562 252.535156 326.757812 252.605469 326.535156 252.605469 " fill-opacity="1" fill-rule="nonzero"/><path fill="#ffffff" d="M 62.039062 343.195312 L 57.949219 349.503906 C 56.683594 351.449219 56.03125 353.734375 56.070312 356.054688 L 73.480469 360.855469 C 73.480469 360.855469 75.339844 370.277344 79.140625 370.710938 C 84.082031 371.277344 80.800781 365.628906 80.660156 364.078125 C 80.519531 362.527344 80.671875 357.191406 79.773438 352.375 C 78.875 347.558594 74.992188 342.121094 74.992188 342.121094 L 62.039062 343.195312 " fill-opacity="1" fill-rule="nonzero"/><path fill="#000000" d="M 57.132812 355.261719 L 73.757812 359.851562 C 74.140625 359.953125 74.429688 360.265625 74.507812 360.65625 C 75.21875 364.253906 77.164062 369.429688 79.257812 369.667969 C 79.980469 369.753906 80.503906 369.679688 80.671875 369.472656 C 81.117188 368.914062 80.433594 366.910156 80.105469 365.945312 C 79.855469 365.21875 79.660156 364.644531 79.617188 364.171875 C 79.578125 363.726562 79.558594 363.019531 79.539062 362.132812 C 79.480469 359.695312 79.390625 356.015625 78.746094 352.566406 C 78.046875 348.835938 75.40625 344.617188 74.472656 343.210938 L 62.640625 344.195312 L 58.828125 350.070312 C 57.8125 351.636719 57.234375 353.417969 57.132812 355.261719 Z M 79.78125 371.792969 C 79.539062 371.792969 79.285156 371.777344 79.019531 371.75 C 75.089844 371.296875 73.128906 364.054688 72.589844 361.695312 L 55.792969 357.0625 C 55.34375 356.9375 55.035156 356.535156 55.023438 356.074219 C 54.980469 353.53125 55.6875 351.066406 57.070312 348.933594 L 61.164062 342.625 C 61.339844 342.355469 61.632812 342.179688 61.953125 342.152344 L 74.90625 341.078125 C 75.277344 341.046875 75.628906 341.210938 75.84375 341.511719 C 76.007812 341.742188 79.871094 347.199219 80.800781 352.183594 C 81.476562 355.796875 81.570312 359.730469 81.628906 362.082031 C 81.652344 362.929688 81.667969 363.601562 81.699219 363.984375 C 81.722656 364.203125 81.914062 364.769531 82.085938 365.269531 C 82.667969 366.984375 83.46875 369.332031 82.300781 370.78125 C 81.757812 371.457031 80.914062 371.792969 79.78125 371.792969 " fill-opacity="1" fill-rule="nonzero"/><path fill="#5479f7" d="M 328.460938 251.789062 C 325.296875 245.363281 315.277344 246.367188 311.144531 247.53125 C 310.71875 247.652344 310.34375 247.917969 310.074219 248.269531 C 304.417969 255.617188 299.378906 259.519531 295.144531 261.609375 C 290.691406 263.804688 285.359375 263.132812 281.480469 260.03125 C 265.636719 247.367188 238.917969 225.503906 238.917969 225.503906 C 229.960938 220.480469 221.496094 216.515625 213.542969 213.425781 C 207.257812 201.019531 202.15625 199.757812 190.527344 197.3125 C 187.898438 196.753906 185.644531 196.515625 183.734375 196.460938 C 179.308594 196.34375 175.089844 198.332031 172.285156 201.757812 L 170.664062 203.746094 C 147.222656 202.605469 132.269531 212.402344 129.902344 214.066406 C 103.132812 232.914062 112.933594 239.460938 87.285156 266.617188 C 61.632812 293.777344 60.125 341.300781 60.125 341.300781 C 60.121094 348.984375 70.910156 347.722656 76.503906 346.546875 C 78.398438 346.148438 79.800781 344.5625 79.96875 342.632812 C 80.316406 338.640625 141.140625 230.503906 131.871094 315.203125 C 130.777344 325.210938 132.296875 342.34375 129.035156 351.238281 C 125.558594 360.71875 129.582031 371.433594 138.589844 375.992188 C 152.871094 383.214844 175.089844 381.757812 183.046875 381.085938 C 195.160156 380.058594 208.300781 379.03125 218.5625 374.722656 C 222.964844 372.875 227.832031 369.058594 230.730469 366.578125 C 232.34375 365.203125 233.109375 363.082031 232.765625 360.988281 C 231.523438 353.4375 228.738281 334.042969 229.628906 316.394531 C 230.316406 302.894531 233.328125 290.210938 234.558594 285.496094 C 234.804688 284.542969 235.902344 284.101562 236.734375 284.621094 C 243.910156 289.074219 272.945312 305.636719 294.953125 296.554688 C 325.746094 283.847656 329.492188 253.886719 328.460938 251.789062 " fill-opacity="1" fill-rule="nonzero"/><path fill="#caddff" d="M 400.25 525.550781 L 403.535156 516.140625 C 414.167969 492.46875 437.625 477.164062 463.570312 476.957031 L 487.992188 476.765625 C 493.304688 476.726562 498.566406 476.046875 503.667969 474.761719 C 505.574219 474.28125 508.460938 483.089844 510.324219 482.441406 C 512.515625 481.679688 513.671875 471.425781 515.78125 470.433594 C 518.5625 469.121094 521.261719 467.613281 523.855469 465.910156 L 553.136719 446.730469 C 557.007812 444.191406 561.777344 448.347656 559.789062 452.53125 L 547.34375 478.742188 C 536.464844 501.65625 513.972656 515.683594 489.921875 516.617188 C 487.03125 516.730469 486.253906 507.546875 483.332031 507.273438 C 481.375 507.089844 477.273438 515.921875 475.308594 515.558594 C 472.0625 514.957031 468.824219 514.105469 465.617188 512.988281 C 441.5 502.1875 400.25 525.550781 400.25 525.550781 " fill-opacity="1" fill-rule="nonzero"/><path fill="#ffffff" d="M 422.125 510.652344 C 421.789062 510.652344 421.460938 510.496094 421.261719 510.199219 C 420.933594 509.722656 421.054688 509.070312 421.53125 508.746094 C 434.132812 500.121094 448.828125 495.800781 464.035156 496.246094 C 467.171875 496.335938 470.355469 496.605469 473.433594 496.871094 C 474.847656 496.988281 476.246094 497.109375 477.613281 497.210938 C 502.335938 499.011719 518.441406 492.523438 535.054688 474.085938 C 539.058594 469.644531 548.910156 459.472656 549.007812 459.371094 C 549.414062 458.957031 550.074219 458.945312 550.492188 459.347656 C 550.902344 459.75 550.914062 460.414062 550.511719 460.824219 C 550.414062 460.929688 540.582031 471.070312 536.609375 475.484375 C 519.503906 494.472656 502.921875 501.148438 477.464844 499.296875 C 476.085938 499.195312 474.679688 499.074219 473.257812 498.957031 C 470.203125 498.695312 467.050781 498.425781 463.976562 498.332031 C 449.222656 497.90625 434.945312 502.101562 422.714844 510.472656 C 422.53125 510.59375 422.328125 510.652344 422.125 510.652344 " fill-opacity="1" fill-rule="nonzero"/><path fill="#ffffff" d="M 400.503906 524.894531 L 407.742188 491.625 C 414.515625 460.515625 431.46875 432.578125 455.882812 412.21875 C 457.085938 411.210938 458.859375 411.28125 459.960938 412.402344 L 463.605469 416.128906 C 465.96875 414.238281 464.078125 405.386719 466.183594 403.257812 C 481.410156 387.859375 489.65625 366.691406 488.644531 344.789062 C 488.417969 339.835938 495.113281 338.09375 497.328125 342.523438 L 506.03125 359.925781 C 512.152344 372.167969 513.917969 385.507812 511.859375 398.128906 C 511.5625 399.9375 504.027344 401.03125 503.582031 402.804688 C 503.136719 404.550781 509.78125 406.96875 509.191406 408.667969 C 504.445312 422.355469 494.96875 434.449219 481.566406 442.296875 C 463.335938 452.972656 447.203125 466.878906 433.957031 483.332031 L 400.503906 524.894531 " fill-opacity="1" fill-rule="nonzero"/><path fill="#caddff" d="M 484.890625 412.800781 C 484.691406 412.800781 484.488281 412.746094 484.304688 412.625 C 483.828125 412.308594 483.695312 411.65625 484.019531 411.175781 C 494.613281 395.328125 497.507812 376.035156 492.859375 352.195312 C 492.753906 351.628906 493.121094 351.082031 493.6875 350.96875 C 494.257812 350.859375 494.804688 351.230469 494.917969 351.796875 C 499.671875 376.203125 496.671875 396.007812 485.757812 412.335938 C 485.558594 412.640625 485.226562 412.800781 484.890625 412.800781 " fill-opacity="1" fill-rule="nonzero"/><path fill="#caddff" d="M 417.578125 490.667969 C 417.5 490.667969 417.414062 490.660156 417.332031 490.636719 C 416.769531 490.503906 416.425781 489.9375 416.5625 489.375 C 416.632812 489.078125 424.15625 459.351562 457.179688 436.304688 C 463.355469 431.992188 471.816406 426.09375 478.976562 417.785156 C 479.359375 417.351562 480.015625 417.300781 480.453125 417.679688 C 480.894531 418.054688 480.9375 418.71875 480.5625 419.152344 C 473.226562 427.652344 464.644531 433.644531 458.375 438.019531 C 425.996094 460.621094 418.667969 489.578125 418.59375 489.867188 C 418.480469 490.347656 418.050781 490.667969 417.578125 490.667969 " fill-opacity="1" fill-rule="nonzero"/><path fill="#ffffff" d="M 33.90625 276.078125 C 33.90625 276.078125 32.257812 190.902344 73.21875 142.03125 C 77.078125 137.429688 77.914062 133.890625 82.578125 130.398438 C 85.101562 128.511719 92.207031 133.105469 93.238281 131.730469 C 94.050781 130.65625 91.308594 118.738281 92.097656 117.667969 C 114.03125 87.988281 127.171875 63.171875 134.199219 49.507812 C 135.761719 46.472656 140.261719 47.046875 141.003906 50.375 C 144.203125 64.707031 148.691406 93.148438 142.664062 122.324219 C 142.003906 125.527344 133.996094 124.535156 133.066406 127.738281 C 132.410156 129.988281 138.90625 136.4375 138.105469 138.671875 C 133.386719 151.863281 126.746094 165.449219 114.925781 175.882812 C 65.488281 219.539062 33.90625 276.078125 33.90625 276.078125 " fill-opacity="1" fill-rule="nonzero"/><path fill="#caddff" d="M 72.574219 188.207031 C 72.296875 188.207031 72.023438 188.097656 71.816406 187.882812 C 71.417969 187.460938 71.433594 186.800781 71.851562 186.402344 C 101.59375 158.0625 116.78125 127.902344 124.28125 107.589844 C 132.414062 85.574219 133.523438 70.054688 133.535156 69.902344 C 133.570312 69.324219 134.066406 68.890625 134.644531 68.929688 C 135.222656 68.96875 135.660156 69.464844 135.617188 70.039062 C 135.609375 70.199219 134.492188 85.949219 126.273438 108.234375 C 118.699219 128.773438 103.359375 159.269531 73.296875 187.917969 C 73.09375 188.109375 72.832031 188.207031 72.574219 188.207031 " fill-opacity="1" fill-rule="nonzero"/><path fill="#ffffff" d="M 393.632812 462.988281 L 390.273438 469.257812 C 385.136719 478.832031 378.644531 487.609375 371.003906 495.3125 C 370.410156 495.917969 370.546875 499.367188 370.730469 501.824219 C 370.851562 503.453125 369.164062 504.601562 367.703125 503.875 C 366.011719 503.035156 364.222656 501.957031 363.351562 502.875 C 352.585938 514.269531 344.296875 527.808594 339.046875 542.632812 L 337.230469 547.773438 C 350.894531 544.535156 364.148438 540.546875 376.785156 535.804688 L 391.046875 505.996094 C 395.601562 496.46875 398.792969 486.351562 400.527344 475.9375 L 402.199219 465.910156 C 403.050781 460.792969 396.085938 458.414062 393.632812 462.988281 " fill-opacity="1" fill-rule="nonzero"/><path fill="#000000" d="M 310.242188 455.1875 C 308.53125 455.1875 307.136719 456.582031 307.136719 458.292969 C 307.136719 460.003906 308.53125 461.394531 310.242188 461.394531 C 311.953125 461.394531 313.34375 460.003906 313.34375 458.292969 C 313.34375 456.582031 311.953125 455.1875 310.242188 455.1875 Z M 310.242188 463.488281 C 307.375 463.488281 305.042969 461.15625 305.042969 458.292969 C 305.042969 455.425781 307.375 453.09375 310.242188 453.09375 C 313.105469 453.09375 315.4375 455.425781 315.4375 458.292969 C 315.4375 461.15625 313.105469 463.488281 310.242188 463.488281 " fill-opacity="1" fill-rule="nonzero"/><path fill="#000000" d="M 45.566406 45.203125 C 42.457031 45.203125 39.921875 47.738281 39.921875 50.851562 C 39.921875 53.964844 42.457031 56.496094 45.566406 56.496094 C 48.683594 56.496094 51.214844 53.964844 51.214844 50.851562 C 51.214844 47.738281 48.683594 45.203125 45.566406 45.203125 Z M 45.566406 58.589844 C 41.300781 58.589844 37.832031 55.117188 37.832031 50.851562 C 37.832031 46.585938 41.300781 43.113281 45.566406 43.113281 C 49.835938 43.113281 53.304688 46.585938 53.304688 50.851562 C 53.304688 55.117188 49.835938 58.589844 45.566406 58.589844 " fill-opacity="1" fill-rule="nonzero"/><path fill="#000000" d="M 41.003906 78.507812 C 39.085938 78.507812 37.527344 80.066406 37.527344 81.980469 C 37.527344 83.898438 39.085938 85.453125 41.003906 85.453125 C 42.917969 85.453125 44.476562 83.898438 44.476562 81.980469 C 44.476562 80.066406 42.917969 78.507812 41.003906 78.507812 Z M 41.003906 87.542969 C 37.933594 87.542969 35.4375 85.050781 35.4375 81.980469 C 35.4375 78.914062 37.933594 76.417969 41.003906 76.417969 C 44.070312 76.417969 46.566406 78.914062 46.566406 81.980469 C 46.566406 85.050781 44.070312 87.542969 41.003906 87.542969 " fill-opacity="1" fill-rule="nonzero"/><path fill="#000000" d="M 505.84375 308.300781 C 505.714844 308.300781 505.582031 308.273438 505.457031 308.222656 C 504.921875 308.011719 504.660156 307.402344 504.875 306.867188 L 530.023438 243.734375 C 530.234375 243.203125 530.84375 242.941406 531.378906 243.152344 C 531.917969 243.367188 532.179688 243.976562 531.96875 244.511719 L 506.820312 307.636719 C 506.652344 308.046875 506.257812 308.300781 505.84375 308.300781 " fill-opacity="1" fill-rule="nonzero"/><path fill="#000000" d="M 199.695312 105.71875 C 199.566406 105.71875 199.433594 105.699219 199.308594 105.648438 C 198.769531 105.433594 198.507812 104.824219 198.722656 104.285156 L 223.871094 41.160156 C 224.085938 40.621094 224.695312 40.363281 225.230469 40.578125 C 225.765625 40.789062 226.03125 41.398438 225.816406 41.933594 L 200.667969 105.0625 C 200.503906 105.472656 200.109375 105.71875 199.695312 105.71875 " fill-opacity="1" fill-rule="nonzero"/><path fill="#000000" d="M 520.839844 329.253906 C 520.710938 329.253906 520.582031 329.226562 520.457031 329.175781 C 519.917969 328.964844 519.65625 328.355469 519.871094 327.820312 L 531.070312 299.695312 C 531.285156 299.160156 531.898438 298.898438 532.433594 299.113281 C 532.96875 299.324219 533.230469 299.933594 533.015625 300.46875 L 521.8125 328.59375 C 521.652344 329.003906 521.257812 329.253906 520.839844 329.253906 " fill-opacity="1" fill-rule="nonzero"/><path fill="#000000" d="M 176.234375 118.648438 C 176.105469 118.648438 175.976562 118.621094 175.847656 118.574219 C 175.3125 118.359375 175.050781 117.75 175.261719 117.214844 L 186.46875 89.089844 C 186.679688 88.554688 187.289062 88.292969 187.828125 88.507812 C 188.363281 88.71875 188.625 89.328125 188.410156 89.863281 L 177.207031 117.988281 C 177.042969 118.398438 176.648438 118.648438 176.234375 118.648438 " fill-opacity="1" fill-rule="nonzero"/><path fill="#000000" d="M 348.921875 442.800781 C 348.792969 442.800781 348.660156 442.777344 348.535156 442.726562 C 347.996094 442.515625 347.738281 441.90625 347.949219 441.371094 L 373.097656 378.242188 C 373.3125 377.707031 373.921875 377.445312 374.457031 377.65625 C 374.996094 377.871094 375.253906 378.480469 375.042969 379.015625 L 349.890625 442.140625 C 349.726562 442.554688 349.335938 442.800781 348.921875 442.800781 " fill-opacity="1" fill-rule="nonzero"/><path fill="#000000" d="M 271.558594 441.597656 C 271.425781 441.597656 271.292969 441.570312 271.164062 441.515625 C 270.628906 441.300781 270.371094 440.691406 270.589844 440.152344 L 282.695312 410.386719 C 282.914062 409.851562 283.523438 409.59375 284.058594 409.8125 C 284.59375 410.03125 284.851562 410.640625 284.632812 411.175781 L 272.527344 440.941406 C 272.363281 441.351562 271.96875 441.597656 271.558594 441.597656 " fill-opacity="1" fill-rule="nonzero"/><path fill="#000000" d="M 80.417969 18.730469 C 80.105469 18.730469 79.792969 18.613281 79.554688 18.371094 C 79.078125 17.898438 79.078125 17.125 79.554688 16.648438 L 82.308594 13.890625 C 82.785156 13.417969 83.558594 13.417969 84.035156 13.890625 C 84.511719 14.371094 84.511719 15.140625 84.035156 15.621094 L 81.28125 18.371094 C 81.042969 18.613281 80.730469 18.730469 80.417969 18.730469 " fill-opacity="1" fill-rule="nonzero"/><path fill="#000000" d="M 68.824219 30.324219 C 68.511719 30.324219 68.199219 30.203125 67.960938 29.964844 C 67.488281 29.488281 67.488281 28.714844 67.960938 28.238281 L 70.71875 25.488281 C 71.195312 25.007812 71.964844 25.007812 72.441406 25.488281 C 72.917969 25.960938 72.917969 26.734375 72.441406 27.210938 L 69.6875 29.964844 C 69.449219 30.203125 69.136719 30.324219 68.824219 30.324219 " fill-opacity="1" fill-rule="nonzero"/><path fill="#000000" d="M 83.171875 30.324219 C 82.859375 30.324219 82.546875 30.203125 82.308594 29.964844 L 79.554688 27.210938 C 79.078125 26.734375 79.078125 25.960938 79.554688 25.488281 C 80.03125 25.007812 80.804688 25.007812 81.28125 25.488281 L 84.035156 28.238281 C 84.511719 28.714844 84.511719 29.488281 84.035156 29.964844 C 83.796875 30.203125 83.484375 30.324219 83.171875 30.324219 " fill-opacity="1" fill-rule="nonzero"/><path fill="#000000" d="M 71.582031 18.730469 C 71.269531 18.730469 70.957031 18.613281 70.71875 18.371094 L 67.960938 15.621094 C 67.488281 15.140625 67.488281 14.371094 67.960938 13.890625 C 68.4375 13.417969 69.210938 13.417969 69.6875 13.890625 L 72.441406 16.648438 C 72.917969 17.125 72.917969 17.898438 72.441406 18.371094 C 72.203125 18.613281 71.890625 18.730469 71.582031 18.730469 " fill-opacity="1" fill-rule="nonzero"/></svg>