<svg xmlns="http://www.w3.org/2000/svg" xmlns:xlink="http://www.w3.org/1999/xlink" width="1366" zoomAndPan="magnify" viewBox="0 0 1024.5 576" height="768" preserveAspectRatio="xMidYMid meet" version="1.0"><defs><clipPath id="c2e92047c7"><path d="M 231 7 L 843 7 L 843 575.859375 L 231 575.859375 Z M 231 7 " clip-rule="nonzero"/></clipPath><clipPath id="43f2c2e5a0"><path d="M 435 61 L 721 61 L 721 575.859375 L 435 575.859375 Z M 435 61 " clip-rule="nonzero"/></clipPath><clipPath id="cf8a8be211"><path d="M 232 320 L 506 320 L 506 575.859375 L 232 575.859375 Z M 232 320 " clip-rule="nonzero"/></clipPath></defs><g clip-path="url(#c2e92047c7)"><path fill="#e7e8ff" d="M 374.996094 575.191406 L 706.082031 575.191406 C 729.351562 575.191406 752.234375 569.226562 772.554688 557.863281 C 841.699219 519.195312 863.582031 429.851562 820.160156 363.492188 L 808.800781 346.128906 C 789.859375 317.183594 785.871094 280.910156 798.070312 248.527344 L 813.332031 208.015625 C 835.425781 149.375 786.816406 88.417969 724.871094 97.085938 C 706.191406 99.699219 687.183594 95.808594 671.019531 86.070312 L 581.902344 32.359375 C 540.410156 7.347656 490.488281 0.507812 443.816406 13.429688 L 404.363281 24.355469 C 328.402344 45.390625 285.503906 125.890625 310.304688 200.859375 L 318.300781 225.023438 C 332.984375 269.40625 316.433594 318.164062 277.792969 344.367188 C 234.066406 374.019531 219.382812 431.769531 243.617188 478.777344 L 255.828125 502.464844 C 278.855469 547.132812 324.828125 575.191406 374.996094 575.191406 Z M 374.996094 575.191406 " fill-opacity="1" fill-rule="nonzero"/></g><path fill="#032068" d="M 819.507812 490.9375 C 820.011719 529.488281 793.847656 562.039062 780.558594 573.4375 L 760.195312 573.4375 C 775.335938 522.003906 800.363281 496.425781 814.390625 487.914062 C 816.726562 486.496094 819.472656 488.199219 819.507812 490.9375 Z M 819.507812 490.9375 " fill-opacity="1" fill-rule="nonzero"/><path fill="#ffffff" d="M 821.660156 364.457031 C 842.523438 443.28125 789.9375 536.636719 767.324219 571.390625 L 721.5 571.390625 C 741.183594 422.664062 774.179688 386.519531 815.894531 362.09375 C 818.136719 360.78125 820.996094 361.9375 821.660156 364.457031 Z M 821.660156 364.457031 " fill-opacity="1" fill-rule="nonzero"/><path fill="#032068" d="M 816.921875 363.863281 C 818.023438 363.21875 819.378906 363.796875 819.691406 364.984375 C 829.972656 403.816406 822.183594 446.394531 808.878906 483.761719 C 795.820312 520.4375 777.53125 551.847656 766.21875 569.34375 L 723.828125 569.34375 C 733.625 496.429688 746.644531 451.125 762.242188 421.074219 C 777.949219 390.8125 796.3125 375.929688 816.921875 363.863281 Z M 823.628906 363.929688 C 822.609375 360.082031 818.25 358.347656 814.871094 360.324219 C 793.765625 372.683594 774.773438 388.082031 758.632812 419.183594 C 742.546875 450.175781 729.335938 496.667969 719.484375 571.121094 L 719.179688 573.4375 L 768.425781 573.4375 L 769.027344 572.511719 C 780.386719 555.058594 799.273438 522.882812 812.714844 485.140625 C 826.140625 447.433594 834.214844 403.921875 823.628906 363.929688 Z M 823.628906 363.929688 " fill-opacity="1" fill-rule="evenodd"/><path fill="#032068" d="M 747.78125 412.953125 C 765.800781 479.007812 745.171875 547.652344 731.683594 573.4375 L 698.082031 573.4375 C 690.523438 492.929688 721.246094 434.386719 741.441406 411.375 C 743.433594 409.105469 746.984375 410.03125 747.78125 412.953125 Z M 747.78125 412.953125 " fill-opacity="1" fill-rule="nonzero"/><path fill="#032068" d="M 793.136719 420.542969 L 804.101562 389.597656 L 807.9375 390.96875 L 782.828125 461.855469 L 799.324219 456.878906 L 800.496094 460.796875 L 781.132812 466.640625 L 758.300781 531.109375 L 778.851562 523.429688 L 780.269531 527.265625 L 756.515625 536.140625 L 743.789062 572.078125 L 739.949219 570.703125 L 765.800781 497.71875 L 756.242188 470.78125 L 760.078125 469.40625 L 767.960938 491.621094 L 790.828125 427.0625 L 783.703125 403.148438 L 787.605469 401.976562 Z M 793.136719 420.542969 " fill-opacity="1" fill-rule="evenodd"/><path fill="#ffffff" d="M 730.59375 465.699219 L 735.789062 436.984375 L 739.796875 437.71875 L 729.253906 495.996094 L 742.953125 488.746094 L 744.851562 492.367188 L 728.328125 501.113281 L 719.28125 551.097656 L 730.613281 542.15625 L 733.128906 545.371094 L 718.183594 557.171875 L 715.359375 572.777344 L 711.351562 572.046875 L 718.597656 532.011719 L 706.648438 516.359375 L 709.882812 513.871094 L 719.582031 526.574219 L 729.683594 470.734375 L 720.007812 460.226562 L 722.996094 457.449219 Z M 730.59375 465.699219 " fill-opacity="1" fill-rule="evenodd"/><path fill="#ffffff" d="M 766.097656 170.835938 L 772.183594 162.417969 C 773.269531 160.917969 775.640625 161.691406 775.628906 163.539062 L 775.585938 173.683594 C 775.582031 174.296875 775.875 174.875 776.371094 175.234375 L 785.375 181.738281 C 786.824219 182.785156 786.160156 185.070312 784.375 185.175781 L 773.167969 185.851562 C 772.625 185.886719 772.117188 186.148438 771.785156 186.578125 L 764.1875 196.292969 C 763.0625 197.734375 760.746094 196.910156 760.785156 195.078125 L 761.042969 183.523438 C 761.054688 182.960938 760.816406 182.421875 760.394531 182.050781 L 750.933594 173.765625 C 749.539062 172.546875 750.53125 170.261719 752.371094 170.441406 L 764.367188 171.613281 C 765.042969 171.679688 765.699219 171.382812 766.097656 170.835938 Z M 766.097656 170.835938 " fill-opacity="1" fill-rule="nonzero"/><path fill="#f4ad5e" d="M 827.785156 283.214844 L 830.730469 281.605469 C 832.355469 280.71875 834.160156 282.433594 833.359375 284.101562 L 831.945312 287.03125 C 831.679688 287.585938 831.695312 288.234375 831.992188 288.773438 L 833.945312 292.339844 C 834.804688 293.90625 833.222656 295.6875 831.5625 295.015625 L 827.679688 293.449219 C 827.171875 293.246094 826.601562 293.269531 826.113281 293.511719 L 821.921875 295.605469 C 820.285156 296.421875 818.546875 294.683594 819.371094 293.046875 L 821.265625 289.285156 C 821.519531 288.78125 821.535156 288.191406 821.316406 287.675781 L 819.433594 283.320312 C 818.703125 281.621094 820.578125 279.984375 822.164062 280.9375 L 825.890625 283.175781 C 826.472656 283.527344 827.191406 283.542969 827.785156 283.214844 Z M 827.785156 283.214844 " fill-opacity="1" fill-rule="nonzero"/><path fill="#ffffff" d="M 289.875 150.828125 C 289.875 176.976562 311.085938 198.175781 337.246094 198.175781 C 346.28125 198.175781 354.726562 195.644531 361.910156 191.257812 L 376.171875 196.3125 C 378.457031 197.125 380.742188 195.105469 380.21875 192.738281 L 376.742188 176.980469 C 381.71875 169.484375 384.617188 160.496094 384.617188 150.828125 C 384.617188 124.679688 363.410156 103.480469 337.246094 103.480469 C 311.085938 103.480469 289.875 124.679688 289.875 150.828125 Z M 289.875 150.828125 " fill-opacity="1" fill-rule="nonzero"/><path fill="#032068" d="M 337.246094 104.511719 C 311.65625 104.511719 290.90625 125.25 290.90625 150.828125 C 290.90625 176.410156 311.65625 197.144531 337.246094 197.144531 C 346.089844 197.144531 354.347656 194.671875 361.375 190.382812 L 361.792969 190.125 L 376.515625 195.34375 C 378.039062 195.882812 379.5625 194.539062 379.214844 192.960938 L 375.640625 176.773438 L 375.882812 176.410156 C 380.75 169.082031 383.585938 160.289062 383.585938 150.828125 C 383.585938 125.25 362.839844 104.511719 337.246094 104.511719 Z M 288.847656 150.828125 C 288.847656 124.113281 310.515625 102.453125 337.246094 102.453125 C 363.976562 102.453125 385.648438 124.113281 385.648438 150.828125 C 385.648438 160.546875 382.777344 169.601562 377.839844 177.183594 L 381.226562 192.515625 C 381.921875 195.671875 378.875 198.363281 375.828125 197.285156 L 362.027344 192.390625 C 354.777344 196.71875 346.300781 199.203125 337.246094 199.203125 C 310.515625 199.203125 288.847656 177.546875 288.847656 150.828125 Z M 288.847656 150.828125 " fill-opacity="1" fill-rule="evenodd"/><path fill="#f4ad5e" d="M 331.003906 164.117188 C 330.433594 164.117188 329.972656 163.652344 329.984375 163.085938 C 330.066406 159.601562 330.566406 156.789062 331.488281 154.648438 C 332.496094 152.296875 334.332031 149.992188 337.003906 147.730469 C 339.703125 145.433594 341.496094 143.582031 342.386719 142.167969 C 343.273438 140.722656 343.71875 139.207031 343.71875 137.625 C 343.71875 132.839844 341.40625 130.449219 336.78125 130.449219 C 334.585938 130.449219 332.820312 131.101562 331.488281 132.402344 C 330.378906 133.480469 329.722656 134.917969 329.511719 136.710938 C 329.445312 137.261719 328.996094 137.707031 328.4375 137.707031 L 317.582031 137.707031 C 317.007812 137.707031 316.542969 137.238281 316.574219 136.667969 C 316.84375 131.757812 318.65625 127.875 322.011719 125.015625 C 325.628906 121.957031 330.550781 120.429688 336.78125 120.429688 C 343.066406 120.429688 347.945312 121.886719 351.414062 124.800781 C 354.882812 127.691406 356.621094 131.78125 356.621094 137.070312 C 356.621094 139.476562 356.054688 141.757812 354.929688 143.90625 C 353.804688 146.03125 351.832031 148.394531 349.011719 150.996094 L 345.410156 154.265625 C 343.15625 156.332031 341.867188 158.75 341.539062 161.527344 L 341.429688 163.15625 C 341.390625 163.695312 340.941406 164.117188 340.402344 164.117188 Z M 328.683594 177.148438 C 328.683594 175.253906 329.351562 173.695312 330.6875 172.480469 C 332.050781 171.234375 333.785156 170.609375 335.890625 170.609375 C 337.996094 170.609375 339.714844 171.234375 341.050781 172.480469 C 342.414062 173.695312 343.097656 175.253906 343.097656 177.148438 C 343.097656 179.015625 342.429688 180.558594 341.09375 181.777344 C 339.789062 182.992188 338.054688 183.601562 335.890625 183.601562 C 333.726562 183.601562 331.976562 182.992188 330.640625 181.777344 C 329.335938 180.558594 328.683594 179.015625 328.683594 177.148438 Z M 328.683594 177.148438 " fill-opacity="1" fill-rule="nonzero"/><path fill="#ffffff" d="M 437.25 84.222656 C 437.25 72.601562 446.675781 63.179688 458.304688 63.179688 L 697.820312 63.179688 C 709.449219 63.179688 718.875 72.601562 718.875 84.222656 L 718.875 552.324219 C 718.875 563.945312 709.449219 573.367188 697.820312 573.367188 L 458.304688 573.367188 C 446.675781 573.367188 437.25 563.945312 437.25 552.324219 Z M 437.25 84.222656 " fill-opacity="1" fill-rule="nonzero"/><g clip-path="url(#43f2c2e5a0)"><path fill="#032068" d="M 435.496094 84.222656 C 435.496094 71.632812 445.707031 61.425781 458.300781 61.425781 L 697.820312 61.425781 C 710.414062 61.425781 720.628906 71.632812 720.628906 84.222656 L 720.628906 552.324219 C 720.628906 564.914062 710.414062 575.121094 697.820312 575.121094 L 458.300781 575.121094 C 445.707031 575.121094 435.496094 564.914062 435.496094 552.324219 Z M 458.300781 64.933594 C 447.644531 64.933594 439.003906 73.570312 439.003906 84.222656 L 439.003906 552.324219 C 439.003906 562.976562 447.644531 571.613281 458.300781 571.613281 L 697.820312 571.613281 C 708.476562 571.613281 717.117188 562.976562 717.117188 552.324219 L 717.117188 84.222656 C 717.117188 73.570312 708.476562 64.933594 697.820312 64.933594 Z M 458.300781 64.933594 " fill-opacity="1" fill-rule="evenodd"/></g><path fill="#e7e8ff" d="M 665.328125 250.78125 C 665.328125 299.203125 626.054688 338.460938 577.605469 338.460938 C 529.160156 338.460938 489.882812 299.203125 489.882812 250.78125 C 489.882812 202.359375 529.160156 163.101562 577.605469 163.101562 C 626.054688 163.101562 665.328125 202.359375 665.328125 250.78125 Z M 665.328125 250.78125 " fill-opacity="1" fill-rule="nonzero"/><path fill="#ffffff" d="M 702.171875 191.160156 C 702.171875 213.433594 684.105469 231.492188 661.820312 231.492188 C 639.535156 231.492188 621.46875 213.433594 621.46875 191.160156 C 621.46875 168.886719 639.535156 150.828125 661.820312 150.828125 C 684.105469 150.828125 702.171875 168.886719 702.171875 191.160156 Z M 702.171875 191.160156 " fill-opacity="1" fill-rule="nonzero"/><path fill="#032068" d="M 661.820312 152.582031 C 640.503906 152.582031 623.222656 169.855469 623.222656 191.160156 C 623.222656 212.464844 640.503906 229.738281 661.820312 229.738281 C 683.136719 229.738281 700.414062 212.464844 700.414062 191.160156 C 700.414062 169.855469 683.136719 152.582031 661.820312 152.582031 Z M 619.710938 191.160156 C 619.710938 167.917969 638.5625 149.074219 661.820312 149.074219 C 685.074219 149.074219 703.925781 167.917969 703.925781 191.160156 C 703.925781 214.402344 685.074219 233.246094 661.820312 233.246094 C 638.5625 233.246094 619.710938 214.402344 619.710938 191.160156 Z M 619.710938 191.160156 " fill-opacity="1" fill-rule="evenodd"/><path fill="#f4ad5e" d="M 650.851562 190.285156 L 639.011719 202.121094 L 650.855469 213.957031 L 662.695312 202.121094 L 674.535156 213.957031 L 686.378906 202.121094 L 674.535156 190.285156 L 686.382812 178.445312 L 674.539062 166.609375 L 662.695312 178.449219 L 650.851562 166.609375 L 639.011719 178.449219 Z M 650.851562 190.285156 " fill-opacity="1" fill-rule="evenodd"/><path fill="#032068" d="M 522.066406 80.285156 L 512.9375 63.179688 L 643.1875 63.179688 L 632.457031 81.054688 C 629.285156 86.339844 623.574219 89.570312 617.414062 89.570312 L 537.546875 89.570312 C 531.066406 89.570312 525.113281 86 522.066406 80.285156 Z M 522.066406 80.285156 " fill-opacity="1" fill-rule="nonzero"/><path fill="#032068" d="M 715.417969 73.734375 L 438.90625 73.734375 C 448.058594 64.589844 456.800781 62.886719 460.027344 63.179688 L 694.296875 63.179688 C 705.5625 63.179688 713.074219 70.21875 715.417969 73.734375 Z M 715.417969 73.734375 " fill-opacity="1" fill-rule="nonzero"/><path fill="#032068" d="M 715.207031 563.363281 L 440.757812 563.363281 C 450.269531 572.660156 455.765625 574.386719 459.121094 574.089844 L 696.84375 574.089844 C 708.550781 574.089844 712.769531 566.9375 715.207031 563.363281 Z M 715.207031 563.363281 " fill-opacity="1" fill-rule="nonzero"/><path fill="#f4ad5e" d="M 477.601562 129.785156 C 477.601562 127.847656 479.171875 126.277344 481.113281 126.277344 L 574.546875 126.277344 C 576.484375 126.277344 578.054688 127.847656 578.054688 129.785156 L 578.054688 133.527344 C 578.054688 135.464844 576.484375 137.035156 574.546875 137.035156 L 481.113281 137.035156 C 479.171875 137.035156 477.601562 135.464844 477.601562 133.527344 Z M 477.601562 129.785156 " fill-opacity="1" fill-rule="nonzero"/><path fill="#032068" d="M 477.601562 366.515625 C 477.601562 364.578125 479.171875 363.011719 481.113281 363.011719 L 574.546875 363.011719 C 576.484375 363.011719 578.054688 364.578125 578.054688 366.515625 L 578.054688 370.257812 C 578.054688 372.195312 576.484375 373.765625 574.546875 373.765625 L 481.113281 373.765625 C 479.171875 373.765625 477.601562 372.195312 477.601562 370.257812 Z M 477.601562 366.515625 " fill-opacity="1" fill-rule="nonzero"/><path fill="#032068" d="M 477.601562 459.457031 C 477.601562 457.519531 479.171875 455.949219 481.113281 455.949219 L 537.253906 455.949219 C 539.191406 455.949219 540.761719 457.519531 540.761719 459.457031 L 540.761719 462.960938 C 540.761719 464.898438 539.191406 466.46875 537.253906 466.46875 L 481.113281 466.46875 C 479.171875 466.46875 477.601562 464.898438 477.601562 462.960938 Z M 477.601562 459.457031 " fill-opacity="1" fill-rule="nonzero"/><path fill="#e7e8ff" d="M 475.847656 392.820312 C 475.847656 389.914062 478.203125 387.558594 481.109375 387.558594 L 668.835938 387.558594 C 671.742188 387.558594 674.101562 389.914062 674.101562 392.820312 L 674.101562 427.890625 C 674.101562 430.796875 671.742188 433.152344 668.835938 433.152344 L 481.109375 433.152344 C 478.203125 433.152344 475.847656 430.796875 475.847656 427.890625 Z M 481.109375 391.066406 C 480.140625 391.066406 479.355469 391.851562 479.355469 392.820312 L 479.355469 427.890625 C 479.355469 428.859375 480.140625 429.644531 481.109375 429.644531 L 668.835938 429.644531 C 669.804688 429.644531 670.589844 428.859375 670.589844 427.890625 L 670.589844 392.820312 C 670.589844 391.851562 669.804688 391.066406 668.835938 391.066406 Z M 481.109375 391.066406 " fill-opacity="1" fill-rule="evenodd"/><path fill="#e7e8ff" d="M 475.847656 484.003906 C 475.847656 481.097656 478.203125 478.742188 481.109375 478.742188 L 668.835938 478.742188 C 671.742188 478.742188 674.101562 481.097656 674.101562 484.003906 L 674.101562 519.074219 C 674.101562 521.980469 671.742188 524.335938 668.835938 524.335938 L 481.109375 524.335938 C 478.203125 524.335938 475.847656 521.980469 475.847656 519.074219 Z M 481.109375 482.25 C 480.140625 482.25 479.355469 483.035156 479.355469 484.003906 L 479.355469 519.074219 C 479.355469 520.042969 480.140625 520.828125 481.109375 520.828125 L 668.835938 520.828125 C 669.804688 520.828125 670.589844 520.042969 670.589844 519.074219 L 670.589844 484.003906 C 670.589844 483.035156 669.804688 482.25 668.835938 482.25 Z M 481.109375 482.25 " fill-opacity="1" fill-rule="evenodd"/><path fill="#032068" d="M 695.59375 88.25 L 699.105469 88.25 L 699.105469 102.59375 L 695.59375 102.59375 Z M 695.59375 88.25 " fill-opacity="1" fill-rule="evenodd"/><path fill="#032068" d="M 686.625 90.042969 L 690.136719 90.042969 L 690.136719 102.59375 L 686.625 102.59375 Z M 686.625 90.042969 " fill-opacity="1" fill-rule="evenodd"/><path fill="#032068" d="M 677.65625 93.628906 L 681.164062 93.628906 L 681.164062 102.59375 L 677.65625 102.59375 Z M 677.65625 93.628906 " fill-opacity="1" fill-rule="evenodd"/><path fill="#032068" d="M 668.6875 97.214844 L 672.195312 97.214844 L 672.195312 102.59375 L 668.6875 102.59375 Z M 668.6875 97.214844 " fill-opacity="1" fill-rule="evenodd"/><path fill="#032068" d="M 577.566406 199.339844 C 561.601562 199.339844 548.65625 212.488281 548.65625 228.710938 L 548.65625 248.824219 C 548.65625 251.210938 550.589844 253.144531 552.980469 253.144531 C 555.367188 253.144531 557.300781 251.210938 557.300781 248.824219 L 557.300781 228.164062 C 557.300781 216.792969 566.375 207.574219 577.566406 207.574219 C 588.757812 207.574219 597.828125 216.792969 597.828125 228.164062 L 597.828125 247.746094 C 597.828125 250.132812 599.765625 252.066406 602.152344 252.066406 C 604.542969 252.066406 606.476562 250.132812 606.476562 247.746094 L 606.476562 228.710938 C 606.476562 212.488281 593.53125 199.339844 577.566406 199.339844 Z M 577.566406 199.339844 " fill-opacity="1" fill-rule="evenodd"/><path fill="#f4ad5e" d="M 540.679688 248.441406 C 540.679688 245.535156 543.035156 243.179688 545.941406 243.179688 L 609.1875 243.179688 C 612.09375 243.179688 614.449219 245.535156 614.449219 248.441406 L 614.449219 295.710938 C 614.449219 298.617188 612.09375 300.972656 609.1875 300.972656 L 545.941406 300.972656 C 543.035156 300.972656 540.679688 298.617188 540.679688 295.710938 Z M 540.679688 248.441406 " fill-opacity="1" fill-rule="nonzero"/><path fill="#ffffff" d="M 582.273438 274.46875 C 583.984375 273.09375 585.074219 270.984375 585.074219 268.617188 C 585.074219 264.476562 581.714844 261.117188 577.570312 261.117188 C 573.421875 261.117188 570.0625 264.476562 570.0625 268.617188 C 570.0625 271.195312 571.359375 273.46875 573.339844 274.816406 L 571.664062 281.851562 C 571.414062 282.898438 572.207031 283.902344 573.285156 283.902344 L 582.410156 283.902344 C 583.484375 283.902344 584.28125 282.898438 584.03125 281.851562 Z M 582.273438 274.46875 " fill-opacity="1" fill-rule="evenodd"/><path fill="#032068" d="M 687.546875 405.09375 L 644.867188 405.09375 C 642.214844 405.09375 640.523438 402.269531 641.773438 399.933594 L 663.109375 360.027344 C 664.433594 357.554688 667.980469 357.554688 669.300781 360.027344 L 690.640625 399.933594 C 691.890625 402.269531 690.195312 405.09375 687.546875 405.09375 Z M 687.546875 405.09375 " fill-opacity="1" fill-rule="nonzero"/><path fill="#ffffff" d="M 664.25 390.101562 L 668.089844 390.101562 L 668.695312 373.53125 L 663.644531 373.53125 Z M 668.835938 395.265625 C 668.835938 394.445312 668.589844 393.773438 668.089844 393.25 C 667.585938 392.714844 666.957031 392.449219 666.203125 392.449219 C 665.453125 392.449219 664.832031 392.714844 664.335938 393.25 C 663.828125 393.773438 663.574219 394.445312 663.574219 395.265625 C 663.574219 396.085938 663.828125 396.765625 664.335938 397.296875 C 664.832031 397.820312 665.453125 398.082031 666.203125 398.082031 C 666.957031 398.082031 667.585938 397.820312 668.089844 397.296875 C 668.589844 396.765625 668.835938 396.085938 668.835938 395.265625 Z M 668.835938 395.265625 " fill-opacity="1" fill-rule="nonzero"/><path fill="#f4ad5e" d="M 504.082031 409.558594 C 504.082031 412.023438 502.082031 414.023438 499.613281 414.023438 C 497.144531 414.023438 495.144531 412.023438 495.144531 409.558594 C 495.144531 407.09375 497.144531 405.09375 499.613281 405.09375 C 502.082031 405.09375 504.082031 407.09375 504.082031 409.558594 Z M 504.082031 409.558594 " fill-opacity="1" fill-rule="nonzero"/><path fill="#f4ad5e" d="M 525.523438 409.558594 C 525.523438 412.023438 523.523438 414.023438 521.058594 414.023438 C 518.589844 414.023438 516.589844 412.023438 516.589844 409.558594 C 516.589844 407.09375 518.589844 405.09375 521.058594 405.09375 C 523.523438 405.09375 525.523438 407.09375 525.523438 409.558594 Z M 525.523438 409.558594 " fill-opacity="1" fill-rule="nonzero"/><path fill="#f4ad5e" d="M 546.96875 409.558594 C 546.96875 412.023438 544.96875 414.023438 542.503906 414.023438 C 540.035156 414.023438 538.035156 412.023438 538.035156 409.558594 C 538.035156 407.09375 540.035156 405.09375 542.503906 405.09375 C 544.96875 405.09375 546.96875 407.09375 546.96875 409.558594 Z M 546.96875 409.558594 " fill-opacity="1" fill-rule="nonzero"/><path fill="#f4ad5e" d="M 568.414062 409.558594 C 568.414062 412.023438 566.414062 414.023438 563.945312 414.023438 C 561.480469 414.023438 559.480469 412.023438 559.480469 409.558594 C 559.480469 407.09375 561.480469 405.09375 563.945312 405.09375 C 566.414062 405.09375 568.414062 407.09375 568.414062 409.558594 Z M 568.414062 409.558594 " fill-opacity="1" fill-rule="nonzero"/><path fill="#f4ad5e" d="M 589.859375 409.558594 C 589.859375 412.023438 587.859375 414.023438 585.390625 414.023438 C 582.921875 414.023438 580.921875 412.023438 580.921875 409.558594 C 580.921875 407.09375 582.921875 405.09375 585.390625 405.09375 C 587.859375 405.09375 589.859375 407.09375 589.859375 409.558594 Z M 589.859375 409.558594 " fill-opacity="1" fill-rule="nonzero"/><path fill="#f4ad5e" d="M 611.304688 409.558594 C 611.304688 412.023438 609.304688 414.023438 606.835938 414.023438 C 604.367188 414.023438 602.367188 412.023438 602.367188 409.558594 C 602.367188 407.09375 604.367188 405.09375 606.835938 405.09375 C 609.304688 405.09375 611.304688 407.09375 611.304688 409.558594 Z M 611.304688 409.558594 " fill-opacity="1" fill-rule="nonzero"/><path fill="#efcb96" d="M 373.328125 239.058594 C 348.449219 256.652344 358.90625 287.933594 363.59375 300.050781 L 361.539062 324.785156 C 363.667969 332.570312 371.382812 348.144531 385.226562 348.144531 C 399.074219 348.144531 405.417969 334.851562 406.859375 328.203125 L 404.699219 309.4375 C 420.921875 303.570312 422.003906 280.113281 420.921875 261.347656 C 419.636719 239.058594 395.242188 223.5625 373.328125 239.058594 Z M 373.328125 239.058594 " fill-opacity="1" fill-rule="nonzero"/><path fill="#032068" d="M 364.375 293.921875 L 362.222656 315.1875 C 361.503906 313.613281 359.851562 309.042969 358.988281 303.371094 C 357.910156 296.28125 340.667969 269.109375 346.054688 249.023438 C 350.367188 232.953125 362.222656 233.664062 367.609375 236.027344 C 370.839844 230.117188 390.238281 210.03125 418.257812 212.394531 C 446.277344 214.757812 449.511719 254.929688 426.878906 260.835938 C 408.773438 265.5625 388.441406 262.804688 380.542969 260.835938 C 379.824219 262.414062 377.738281 267.691406 375.152344 276.199219 C 371.917969 286.832031 371.917969 289.195312 370.839844 282.105469 C 369.765625 275.015625 365.453125 262.019531 360.066406 275.015625 C 355.753906 285.414062 361.144531 291.949219 364.375 293.921875 Z M 364.375 293.921875 " fill-opacity="1" fill-rule="nonzero"/><path fill="#032068" d="M 380.027344 309.007812 C 387.441406 313.375 398.90625 310.828125 403.714844 309.007812 L 404.742188 316.648438 C 394.035156 319.269531 383.804688 312.648438 380.027344 309.007812 Z M 380.027344 309.007812 " fill-opacity="1" fill-rule="nonzero"/><g clip-path="url(#cf8a8be211)"><path fill="#f4ad5e" d="M 384.277344 335.027344 C 399.792969 335.027344 407.308594 326.394531 409.566406 321.234375 C 409.828125 320.632812 410.402344 320.207031 411.058594 320.238281 C 419.621094 320.667969 431.765625 325.863281 434.8125 326.910156 C 434.894531 326.9375 434.964844 326.96875 435.042969 327.011719 C 458.976562 339.867188 481.675781 362.617188 495.902344 444.675781 C 500.511719 478.917969 508.742188 550.371094 504.792969 562.222656 C 500.839844 574.078125 473.511719 575.722656 460.339844 575.066406 L 287.472656 575.066406 C 282.898438 575.066406 284.3125 567.859375 286.242188 562.386719 C 286.679688 561.148438 285.496094 559.785156 284.199219 559.964844 C 276.320312 561.058594 261.289062 559.628906 244.996094 547.40625 C 213.386719 521.722656 249.9375 418.992188 273.644531 370.585938 C 292.269531 332.558594 336.558594 321.269531 357.476562 320.253906 C 358.152344 320.222656 358.734375 320.648438 359.007812 321.269531 C 361.28125 326.429688 368.796875 335.027344 384.277344 335.027344 Z M 384.277344 335.027344 " fill-opacity="1" fill-rule="nonzero"/></g><path fill="#032068" d="M 280.582031 558.125 C 269.714844 535.046875 246.710938 512.230469 234.40625 501.851562 C 233.464844 501.054688 232.050781 501.679688 232.015625 502.910156 C 231.71875 513.527344 233.148438 532.957031 241.046875 544.445312 C 249.109375 556.171875 268.5625 559.742188 279.21875 560.199219 C 280.320312 560.242188 281.050781 559.121094 280.582031 558.125 Z M 280.582031 558.125 " fill-opacity="1" fill-rule="nonzero"/><path fill="#032068" d="M 381.3125 499.003906 C 336.269531 544.839844 298.667969 559.589844 285.496094 561.234375 L 283.519531 570.128906 C 322.242188 563.804688 364.851562 520.078125 381.3125 499.003906 Z M 381.3125 499.003906 " fill-opacity="1" fill-rule="nonzero"/><path fill="#ffffff" d="M 392.179688 484.25 L 392.179688 417.320312 C 392.179688 416.574219 392.71875 415.9375 393.453125 415.816406 L 425.9375 410.402344 C 426.875 410.246094 427.726562 410.976562 427.714844 411.925781 L 426.769531 477.0625 C 426.757812 477.765625 426.269531 478.371094 425.585938 478.527344 L 394.042969 485.734375 C 393.089844 485.953125 392.179688 485.230469 392.179688 484.25 Z M 392.179688 484.25 " fill-opacity="1" fill-rule="nonzero"/><path fill="#032068" d="M 425.6875 408.894531 C 427.5625 408.582031 429.265625 410.046875 429.238281 411.949219 L 428.292969 477.085938 C 428.273438 478.488281 427.296875 479.699219 425.921875 480.015625 L 394.382812 487.222656 C 392.472656 487.660156 390.652344 486.210938 390.652344 484.25 L 390.652344 417.320312 C 390.652344 415.828125 391.730469 414.554688 393.203125 414.308594 Z M 426.1875 411.90625 L 393.703125 417.320312 L 393.703125 484.25 L 425.246094 477.039062 Z M 426.1875 411.90625 " fill-opacity="1" fill-rule="evenodd"/><path fill="#032068" d="M 307.226562 464.429688 C 305.644531 467.589844 288.789062 475.625 280.554688 479.25 C 289.25 476.878906 340.152344 459.160156 364.519531 450.601562 C 357.605469 450.601562 317.105469 462.453125 316.117188 460.480469 C 315.328125 458.898438 318.421875 438.746094 320.066406 428.867188 C 316.445312 439.40625 308.808594 461.269531 307.226562 464.429688 Z M 307.226562 464.429688 " fill-opacity="1" fill-rule="nonzero"/><path fill="#efcb96" d="M 379.335938 446.648438 C 375.386719 452.972656 371.105469 455.871094 369.460938 456.527344 L 376.375 479.25 C 385.265625 474.308594 400.082031 475.296875 410.949219 469.371094 C 421.8125 463.445312 419.839844 434.796875 413.910156 436.773438 C 409.167969 438.351562 397.449219 443.355469 392.179688 445.660156 L 392.179688 431.832031 C 385.265625 434.796875 384.277344 438.746094 379.335938 446.648438 Z M 379.335938 446.648438 " fill-opacity="1" fill-rule="nonzero"/><path fill="#f4ad5e" d="M 441.777344 323.523438 C 434.074219 323.523438 415.234375 341.507812 415.234375 350.070312 C 413.519531 356.921875 458.902344 454.542969 492.300781 472.523438 C 525.695312 490.507812 553.101562 468.242188 550.53125 433.992188 C 547.832031 398.023438 450.71875 323.523438 441.777344 323.523438 Z M 441.777344 323.523438 " fill-opacity="1" fill-rule="nonzero"/><path fill="#032068" d="M 550.53125 431.421875 C 519.015625 438.957031 505.429688 464.816406 502.578125 476.804688 C 510 478.804688 523.984375 485.367188 540.253906 469.101562 C 551.921875 457.433594 552.242188 439.414062 550.53125 431.421875 Z M 550.53125 431.421875 " fill-opacity="1" fill-rule="nonzero"/><path fill="#032068" d="M 454.621094 430.566406 C 475.175781 464.816406 493.441406 475.09375 500.007812 475.949219 L 501.71875 487.082031 C 496.582031 486.226562 484.25 478.519531 465.753906 454.542969 C 439.722656 421.660156 420.367188 371.195312 415.230469 350.070312 C 419.515625 364.628906 428.933594 387.75 454.621094 430.566406 Z M 454.621094 430.566406 " fill-opacity="1" fill-rule="nonzero"/><path fill="#efcb96" d="M 416.945312 297.976562 C 418.144531 299.804688 429.324219 318.042969 434.070312 326.933594 C 429.570312 331.507812 420.125 340.652344 418.328125 340.652344 C 416.078125 340.652344 403.332031 336.839844 398.082031 329.980469 C 392.832031 323.125 401.082031 314.742188 401.082031 313.980469 C 401.082031 313.214844 387.585938 307.121094 385.335938 304.074219 C 383.085938 301.023438 386.117188 297.835938 389.542969 298.691406 C 391.5 298.691406 404.101562 305.542969 408.382812 307.253906 C 410.179688 306.644531 412.664062 304.6875 416.945312 297.976562 Z M 416.945312 297.976562 " fill-opacity="1" fill-rule="nonzero"/><path fill="#032068" d="M 384.402344 302.972656 C 385.089844 307.769531 391.539062 311.820312 394.679688 313.25 L 397.25 311.535156 C 396.109375 310.964844 392.96875 309.308594 389.542969 307.253906 C 386.117188 305.199219 384.691406 303.542969 384.402344 302.972656 Z M 384.402344 302.972656 " fill-opacity="1" fill-rule="nonzero"/><path fill="#032068" d="M 396.394531 332.945312 C 390.230469 326.777344 393.253906 319.527344 395.539062 316.671875 L 399.820312 315.816406 C 394.679688 324.382812 397.820312 330.089844 399.820312 331.230469 Z M 396.394531 332.945312 " fill-opacity="1" fill-rule="nonzero"/></svg>