<svg xmlns="http://www.w3.org/2000/svg" xmlns:xlink="http://www.w3.org/1999/xlink" width="1080" zoomAndPan="magnify" viewBox="0 0 810 809.999993" height="1080" preserveAspectRatio="xMidYMid meet" version="1.0"><defs><clipPath id="0af1aeabad"><path d="M 258.023438 244 L 552 244 L 552 523 L 258.023438 523 Z M 258.023438 244 " clip-rule="nonzero"/></clipPath></defs><path fill="#231f20" d="M 405.023438 552.347656 C 393.335938 552.347656 382.8125 545.4375 378.097656 534.722656 L 364.667969 540.597656 C 371.707031 556.605469 387.523438 567 405.023438 567 C 422.777344 567 438.660156 556.476562 445.570312 540.144531 L 432.074219 534.398438 C 427.425781 545.308594 416.835938 552.347656 405.023438 552.347656 Z M 405.023438 552.347656 " fill-opacity="1" fill-rule="nonzero"/><g clip-path="url(#0af1aeabad)"><path fill="#231f20" d="M 549.132812 502.703125 L 510.390625 470.425781 C 508.714844 469.007812 507.746094 467.003906 507.746094 464.808594 L 507.746094 376.242188 C 507.746094 347.902344 496.445312 321.5 475.914062 301.9375 C 463.839844 290.449219 449.507812 282.3125 434.011719 277.796875 C 434.335938 275.535156 434.464844 273.277344 434.269531 270.886719 C 433.171875 258.363281 423.9375 247.710938 411.800781 245 C 402.890625 243 393.722656 245.066406 386.683594 250.683594 C 379.710938 256.296875 375.710938 264.625 375.710938 273.597656 C 375.710938 275.082031 375.96875 276.4375 376.160156 277.859375 C 333.289062 290.640625 302.300781 331.050781 302.300781 378.953125 L 302.300781 464.746094 C 302.300781 466.941406 301.332031 469.007812 299.652344 470.363281 L 260.914062 502.640625 C 259.234375 504.058594 258.265625 506.125 258.265625 508.253906 L 258.265625 515.613281 C 258.265625 519.679688 261.558594 522.972656 265.625 522.972656 L 544.417969 522.972656 C 548.484375 522.972656 551.777344 519.679688 551.777344 515.613281 L 551.777344 508.253906 C 551.714844 506.125 550.746094 504.058594 549.132812 502.703125 Z M 390.300781 273.597656 C 390.300781 269.082031 392.300781 264.949219 395.789062 262.109375 C 399.339844 259.269531 403.796875 258.234375 408.507812 259.269531 C 414.382812 260.625 419.03125 265.980469 419.613281 272.113281 C 419.679688 272.953125 419.550781 273.792969 419.484375 274.632812 C 413.09375 273.726562 406.636719 273.40625 399.984375 273.664062 C 396.757812 273.792969 393.527344 274.117188 390.367188 274.632812 C 390.429688 274.246094 390.300781 273.921875 390.300781 273.597656 Z M 277.054688 508.320312 L 309.015625 481.660156 C 314.050781 477.460938 316.957031 471.328125 316.957031 464.746094 L 316.957031 378.953125 C 316.957031 330.34375 353.757812 290.511719 400.761719 288.316406 C 425.167969 287.15625 448.214844 295.804688 465.777344 312.527344 C 483.339844 329.308594 493.023438 351.902344 493.023438 376.242188 L 493.023438 464.746094 C 493.023438 471.265625 495.929688 477.460938 500.964844 481.660156 L 532.925781 508.320312 Z M 277.054688 508.320312 " fill-opacity="1" fill-rule="nonzero"/></g></svg>