<svg xmlns="http://www.w3.org/2000/svg" xmlns:xlink="http://www.w3.org/1999/xlink" width="1080" zoomAndPan="magnify" viewBox="0 0 810 809.999993" height="1080" preserveAspectRatio="xMidYMid meet" version="1.0"><defs><clipPath id="3e6e351d46"><path d="M 365.429688 800.792969 L 599.285156 800.792969 L 599.285156 810 L 365.429688 810 Z M 365.429688 800.792969 " clip-rule="nonzero"/></clipPath></defs><path fill="#4b3333" d="M 427.847656 93.125 C 427.398438 87.992188 424.746094 85.375 420.621094 83.875 C 415.339844 81.953125 412.300781 81.488281 406.808594 82.535156 C 401.828125 83.492188 396.070312 85.660156 391.539062 87.929688 C 390.5625 86.425781 388.507812 85.796875 386.726562 86.109375 C 384.199219 86.5625 381.871094 88.410156 379.894531 89.949219 C 375.925781 93.0625 372.621094 97.046875 370.273438 101.5 C 369.285156 103.375 368.484375 105.339844 367.84375 107.355469 C 367.804688 107.289062 367.769531 107.222656 367.730469 107.160156 C 366.894531 105.804688 365.757812 104.71875 364.257812 104.152344 C 362.871094 103.628906 361.25 103.679688 359.984375 104.496094 C 358.746094 105.300781 359.902344 107.300781 361.152344 106.488281 C 362.027344 105.921875 363.058594 106.039062 363.988281 106.550781 C 364.820312 107.011719 365.410156 107.746094 365.878906 108.558594 C 364.164062 108.960938 361.019531 111.277344 360.226562 112.851562 C 358.867188 115.542969 357.890625 119.90625 358.152344 122.832031 C 358.6875 128.847656 359.917969 134.167969 363.238281 139.21875 C 365.011719 141.90625 367.199219 145.054688 370.78125 146.183594 C 370.371094 150.871094 376.382812 153.339844 380.839844 154.355469 C 385.367188 155.386719 390.210938 154.078125 393.742188 151.113281 C 395.574219 149.574219 421.558594 118.875 421.976562 118.515625 C 424.171875 116.644531 425.398438 112.652344 425.335938 110.078125 C 425.308594 108.980469 425.164062 107.863281 424.914062 106.789062 C 424.796875 106.289062 424.457031 105.644531 424.671875 105.164062 C 424.945312 104.566406 428.476562 100.300781 427.847656 93.125 " fill-opacity="1" fill-rule="nonzero"/><path fill="#6168aa" d="M 467.496094 409.960938 L 384.175781 380.121094 L 309.5 427.238281 C 309.5 427.238281 316.574219 487.703125 333.082031 570.949219 C 349.589844 654.1875 386.535156 757.839844 386.535156 757.839844 L 445.484375 761.773438 C 445.484375 761.773438 441.160156 738.597656 438.03125 724.195312 C 438.292969 723.726562 410.09375 598.339844 409.328125 594.503906 C 406.96875 582.726562 401.46875 480.636719 401.46875 480.636719 C 401.46875 480.636719 450.988281 574.085938 459.636719 600.785156 C 465.101562 617.664062 498.386719 746.265625 503.066406 763.34375 C 504.386719 768.167969 560.257812 751.816406 563.597656 749.070312 C 554.164062 706.664062 528.347656 583.03125 524.089844 562.308594 C 511.515625 501.054688 467.496094 409.960938 467.496094 409.960938 " fill-opacity="1" fill-rule="nonzero"/><path fill="#333a74" d="M 474.980469 580.511719 C 467.515625 565.847656 459.316406 551.558594 450.417969 537.71875 C 441.578125 523.96875 432.046875 510.660156 421.882812 497.851562 C 416.121094 490.597656 410.15625 483.503906 403.996094 476.585938 C 403.339844 475.84375 402.25 476.9375 402.910156 477.671875 C 413.808594 489.917969 424.097656 502.699219 433.710938 515.972656 C 443.296875 529.207031 452.222656 542.921875 460.441406 557.042969 C 465.074219 564.996094 469.476562 573.082031 473.652344 581.285156 C 474.101562 582.167969 475.429688 581.390625 474.980469 580.511719 " fill-opacity="1" fill-rule="nonzero"/><path fill="#333a74" d="M 504.253906 683.34375 C 499.105469 662.390625 493.378906 641.578125 487.074219 620.941406 C 486.195312 618.070312 485.308594 615.203125 484.417969 612.335938 C 483.65625 609.886719 482.960938 607.398438 482.039062 605.003906 C 480.640625 601.371094 478.535156 597.660156 474.742188 596.25 C 474.964844 593.625 476.199219 591.238281 478.210938 589.511719 C 478.964844 588.867188 477.871094 587.785156 477.125 588.425781 C 474.671875 590.527344 473.257812 593.566406 473.15625 596.78125 C 473.144531 597.121094 473.402344 597.429688 473.722656 597.523438 C 477.527344 598.636719 479.472656 602.460938 480.742188 605.917969 C 482.429688 610.5 483.722656 615.25 485.148438 619.914062 C 488.261719 630.050781 491.234375 640.230469 494.066406 650.449219 C 499.710938 670.820312 504.804688 691.347656 509.332031 712 C 511.882812 723.632812 514.257812 735.308594 516.453125 747.011719 C 516.632812 747.984375 518.117188 747.570312 517.9375 746.605469 C 513.960938 725.394531 509.402344 704.296875 504.253906 683.34375 " fill-opacity="1" fill-rule="nonzero"/><path fill="#ffffff" d="M 404.089844 472.535156 C 403.988281 470.566406 400.910156 470.554688 401.011719 472.535156 C 401.757812 487.097656 402.921875 496 404.667969 510.476562 C 404.765625 511.300781 405.304688 512.015625 406.203125 512.015625 C 406.960938 512.015625 407.847656 511.308594 407.746094 510.476562 C 406 496 404.839844 487.097656 404.089844 472.535156 " fill-opacity="1" fill-rule="nonzero"/><g clip-path="url(#3e6e351d46)"><path fill="#606073" d="M 599.28125 804.953125 C 599.28125 807.742188 589.5 810 482.378906 810 C 371.878906 810 365.476562 807.742188 365.476562 804.953125 C 365.476562 802.171875 373.671875 800.980469 481.839844 800.980469 C 587.199219 800.980469 599.28125 802.171875 599.28125 804.953125 " fill-opacity="1" fill-rule="nonzero"/></g><path fill="#1a1a1a" d="M 410.085938 751.882812 C 410.085938 751.882812 386.886719 751.824219 386.671875 757.863281 C 386.457031 763.894531 421.414062 767.125 421.414062 767.125 L 410.085938 751.882812 " fill-opacity="1" fill-rule="nonzero"/><path fill="#e9946b" d="M 410.085938 751.882812 C 410.085938 751.882812 419.261719 751.597656 428.675781 753.488281 C 436.253906 755.007812 444.296875 758.40625 445.433594 760.925781 C 447.324219 765.121094 452.023438 782.878906 454.3125 793.355469 C 455.105469 796.980469 454.519531 800.515625 454.519531 801.527344 C 454.519531 804.953125 437.269531 804.21875 432.351562 804.160156 C 431.683594 804.15625 431.148438 803.621094 431.140625 802.949219 L 431.089844 799.058594 C 431.089844 799.058594 419.699219 803.011719 408.671875 804.425781 C 397.644531 805.839844 376.574219 806.691406 372.050781 805.558594 C 367.527344 804.425781 367.292969 803.613281 367.292969 800.222656 C 367.292969 796.832031 369.179688 796.699219 373.988281 796.132812 C 378.792969 795.566406 382.792969 792.851562 387.320312 790.300781 C 391.84375 787.757812 408.671875 771.375 411.5 768.832031 C 414.328125 766.292969 410.085938 751.882812 410.085938 751.882812 " fill-opacity="1" fill-rule="nonzero"/><path fill="#ffffff" d="M 447.484375 766.753906 C 441.359375 769.03125 436.574219 769.976562 431.535156 770.015625 C 420.960938 770.101562 419.335938 765.335938 412.214844 767.503906 C 412.058594 768.078125 411.828125 768.539062 411.5 768.832031 C 408.671875 771.375 391.84375 787.757812 387.320312 790.300781 C 382.792969 792.851562 378.792969 795.566406 373.988281 796.132812 C 369.179688 796.699219 367.292969 796.832031 367.292969 800.222656 C 367.292969 803.613281 367.527344 804.425781 372.050781 805.558594 C 376.574219 806.691406 397.644531 805.839844 408.671875 804.425781 C 419.699219 803.011719 431.089844 799.058594 431.089844 799.058594 L 431.140625 802.949219 C 431.148438 803.621094 431.683594 804.15625 432.351562 804.160156 C 437.269531 804.21875 454.519531 804.953125 454.519531 801.527344 C 454.519531 800.515625 455.105469 796.980469 454.3125 793.355469 C 453.328125 788.859375 451.902344 783.027344 450.445312 777.496094 C 449.902344 775.433594 448.015625 768.640625 447.484375 766.753906 " fill-opacity="1" fill-rule="nonzero"/><path fill="#4a494c" d="M 431.089844 799.058594 L 431.140625 802.949219 C 431.148438 803.621094 431.683594 804.15625 432.351562 804.160156 C 437.269531 804.21875 454.519531 804.953125 454.519531 801.527344 C 454.519531 800.515625 455.105469 796.980469 454.3125 793.355469 C 453.332031 788.859375 451.90625 783.027344 450.449219 777.503906 C 441.78125 782.144531 419.269531 791.535156 417.960938 790.417969 C 416.449219 789.117188 419.394531 777.453125 417.019531 775.300781 C 415.503906 773.921875 407.386719 772.527344 406.929688 773.058594 C 398.261719 780.808594 390.675781 788.417969 387.320312 790.300781 C 382.792969 792.851562 378.792969 795.566406 373.988281 796.132812 C 369.179688 796.699219 367.292969 796.832031 367.292969 800.222656 C 367.292969 803.613281 367.527344 804.425781 372.050781 805.558594 C 376.574219 806.691406 397.644531 805.839844 408.671875 804.425781 C 419.699219 803.011719 431.089844 799.058594 431.089844 799.058594 " fill-opacity="1" fill-rule="nonzero"/><path fill="#1c1b1e" d="M 431.089844 799.058594 L 431.140625 802.949219 C 431.148438 803.621094 431.683594 804.15625 432.351562 804.160156 C 437.269531 804.21875 454.519531 804.953125 454.519531 801.527344 C 454.519531 800.707031 454.902344 798.253906 454.632812 795.425781 C 444.488281 798.042969 434.660156 795.917969 431.246094 797.023438 C 427.566406 798.222656 414.871094 801.804688 408.15625 802.8125 C 401.4375 803.828125 393.023438 804.65625 380.234375 804.65625 C 371.996094 804.65625 368.6875 803.167969 367.371094 802.105469 C 367.605469 803.976562 368.523438 804.675781 372.050781 805.558594 C 376.574219 806.691406 397.644531 805.839844 408.671875 804.425781 C 419.699219 803.011719 431.089844 799.058594 431.089844 799.058594 " fill-opacity="1" fill-rule="nonzero"/><path fill="#1a1a1a" d="M 538.832031 746.265625 C 538.832031 746.265625 563.300781 743.117188 563.515625 749.152344 C 563.730469 755.191406 534.972656 762.617188 534.972656 762.617188 L 538.832031 746.265625 " fill-opacity="1" fill-rule="nonzero"/><path fill="#e9946b" d="M 538.558594 765.75 C 540.761719 767.753906 574.226562 788.496094 578.4375 791.097656 C 582.652344 793.707031 587.074219 795.953125 591.285156 796.132812 C 595.496094 796.308594 595.292969 798.316406 595.292969 799.921875 C 595.292969 801.527344 595.292969 804.546875 593.554688 805.117188 C 591.816406 805.695312 572.421875 805.929688 563.996094 805.730469 C 555.566406 805.53125 542.324219 803.328125 537.308594 802.328125 C 532.296875 801.320312 526.40625 799.058594 526.40625 799.058594 C 526.40625 799.058594 526.425781 802.765625 526.359375 802.949219 C 526.289062 803.136719 526.195312 804.183594 525.144531 804.160156 C 524.089844 804.148438 507.160156 803.8125 505.214844 803.726562 C 503.265625 803.640625 503.265625 790.023438 503.265625 781.144531 C 503.265625 772.265625 502.84375 761.867188 503.519531 760.089844 C 504.199219 758.3125 509.363281 753.742188 520.621094 750.363281 C 531.878906 746.980469 539.410156 746.222656 539.410156 746.222656 C 539.410156 746.222656 536.351562 763.742188 538.558594 765.75 " fill-opacity="1" fill-rule="nonzero"/><path fill="#ffffff" d="M 591.285156 796.132812 C 587.074219 795.953125 582.652344 793.707031 578.441406 791.097656 C 574.226562 788.496094 540.765625 767.753906 538.558594 765.75 C 538.148438 765.378906 537.925781 764.484375 537.824219 763.28125 C 533.351562 764.691406 529.070312 766.722656 524.644531 768.308594 C 517.742188 770.792969 510.078125 770.566406 503.140625 768.296875 C 503.167969 772.167969 503.265625 776.832031 503.265625 781.144531 C 503.265625 790.023438 503.265625 803.640625 505.214844 803.726562 C 507.160156 803.8125 524.089844 804.148438 525.144531 804.160156 C 526.195312 804.183594 526.289062 803.136719 526.359375 802.949219 C 526.425781 802.765625 526.40625 799.058594 526.40625 799.058594 C 526.40625 799.058594 532.296875 801.320312 537.308594 802.328125 C 542.324219 803.328125 555.566406 805.53125 563.996094 805.730469 C 572.421875 805.929688 591.816406 805.695312 593.554688 805.117188 C 595.292969 804.546875 595.292969 801.519531 595.292969 799.921875 C 595.292969 798.316406 595.496094 796.308594 591.285156 796.132812 " fill-opacity="1" fill-rule="nonzero"/><path fill="#4a494c" d="M 591.285156 796.132812 C 587.074219 795.953125 582.652344 793.707031 578.441406 791.097656 C 574.800781 788.851562 554.390625 775.085938 547.484375 770.089844 C 545.800781 770.714844 543.753906 771.75 543.753906 773.0625 C 543.753906 775.300781 547.746094 780.246094 548.222656 782.160156 C 548.703125 784.070312 543.914062 784.707031 531.785156 782.957031 C 522.296875 781.578125 508.707031 778.066406 503.238281 776.597656 C 503.253906 778.125 503.265625 779.660156 503.265625 781.144531 C 503.265625 790.023438 503.265625 803.640625 505.214844 803.726562 C 507.160156 803.8125 524.089844 804.148438 525.144531 804.160156 C 526.195312 804.183594 526.289062 803.136719 526.359375 802.949219 C 526.425781 802.765625 526.40625 799.058594 526.40625 799.058594 C 526.40625 799.058594 532.296875 801.320312 537.308594 802.328125 C 542.324219 803.328125 555.566406 805.53125 563.996094 805.730469 C 572.421875 805.929688 591.816406 805.695312 593.554688 805.117188 C 595.292969 804.546875 595.292969 801.519531 595.292969 799.921875 C 595.292969 798.316406 595.496094 796.308594 591.285156 796.132812 " fill-opacity="1" fill-rule="nonzero"/><path fill="#1c1b1e" d="M 563.996094 805.730469 C 572.421875 805.929688 591.816406 805.695312 593.554688 805.117188 C 594.242188 804.886719 594.65625 804.285156 594.90625 803.523438 C 592.046875 803.769531 585.34375 804.210938 573.285156 804.320312 C 556.363281 804.480469 545.03125 802.726562 537.847656 800.65625 C 530.664062 798.578125 525.558594 796.667969 523.960938 796.667969 C 522.433594 796.667969 511.226562 798.128906 503.550781 796.425781 C 503.804688 800.601562 504.292969 803.683594 505.214844 803.726562 C 507.160156 803.8125 524.089844 804.148438 525.144531 804.160156 C 526.195312 804.183594 526.289062 803.136719 526.359375 802.949219 C 526.425781 802.765625 526.40625 799.058594 526.40625 799.058594 C 526.40625 799.058594 532.296875 801.320312 537.308594 802.328125 C 542.324219 803.328125 555.566406 805.53125 563.996094 805.730469 " fill-opacity="1" fill-rule="nonzero"/><path fill="#e9946b" d="M 357.296875 184.414062 C 357.296875 184.414062 368.964844 180.304688 373.089844 177.359375 C 377.21875 174.414062 382.523438 152.035156 382.523438 152.035156 L 411.035156 157.488281 C 411.035156 157.488281 409.449219 171.46875 409.449219 175.589844 C 409.449219 179.714844 422.25 183.390625 422.25 183.390625 C 422.25 183.390625 396.753906 300.808594 390.855469 300.808594 C 384.960938 300.808594 357.296875 184.414062 357.296875 184.414062 " fill-opacity="1" fill-rule="nonzero"/><path fill="#1a1a1a" d="M 383.738281 160.546875 C 384.710938 163.410156 386.4375 166.09375 388.839844 167.96875 C 391.847656 170.3125 396.003906 171.230469 399.722656 171.582031 C 403.105469 171.902344 406.429688 171.625 409.699219 171 C 410.144531 165.332031 411.035156 157.488281 411.035156 157.488281 L 382.746094 152.074219 C 382.480469 154.925781 382.816406 157.828125 383.738281 160.546875 " fill-opacity="1" fill-rule="nonzero"/><path fill="#e9eef0" d="M 391.734375 183.757812 C 386.992188 183.527344 382.15625 182.898438 377.632812 181.414062 C 375.453125 180.699219 373.265625 179.742188 371.390625 178.414062 C 366.425781 181.199219 357.296875 184.414062 357.296875 184.414062 C 357.296875 184.414062 384.960938 300.808594 390.855469 300.808594 C 396.753906 300.808594 422.25 183.390625 422.25 183.390625 C 422.25 183.390625 415.242188 181.375 411.597656 178.65625 C 405.714844 182.28125 398.738281 184.097656 391.734375 183.757812 " fill-opacity="1" fill-rule="nonzero"/><path fill="#ed4450" d="M 382.589844 199.792969 C 382.589844 199.792969 386.289062 204.214844 387.796875 205.21875 C 389.300781 206.222656 368.453125 394.257812 373.171875 399.363281 C 377.886719 404.464844 385.746094 420.171875 392.820312 413.886719 C 399.894531 407.605469 409.722656 391.902344 409.722656 391.902344 C 409.722656 391.902344 394 207.273438 393.757812 205.582031 C 393.515625 203.890625 399.804688 197.847656 399.804688 197.847656 C 399.804688 197.847656 393.308594 188.21875 391.425781 187.785156 C 389.542969 187.347656 382.589844 199.792969 382.589844 199.792969 " fill-opacity="1" fill-rule="nonzero"/><path fill="#d5dfe2" d="M 427.652344 188.371094 C 422.835938 191.992188 417.640625 195.089844 412.15625 197.582031 C 409.433594 198.824219 406.605469 200.007812 403.726562 200.84375 C 403.058594 201.039062 402.984375 200.542969 402.652344 200.007812 C 402.277344 199.390625 401.894531 198.773438 401.507812 198.164062 C 400.707031 196.890625 399.886719 195.632812 399.019531 194.40625 C 397.199219 191.832031 395.171875 189.410156 392.796875 187.335938 C 392.914062 187.179688 393.035156 187.015625 393.152344 186.859375 C 394.046875 185.671875 392.042969 184.519531 391.160156 185.695312 L 385.339844 193.453125 C 384.390625 194.71875 383.4375 195.984375 382.488281 197.253906 C 381.679688 198.332031 380.925781 199.546875 379.910156 200.445312 C 378.785156 201.433594 377.691406 201.019531 376.464844 200.425781 C 375.160156 199.800781 373.878906 199.128906 372.621094 198.414062 C 370.207031 197.039062 367.875 195.511719 365.652344 193.84375 C 363.058594 191.902344 360.632812 189.742188 358.363281 187.429688 C 357.324219 186.371094 355.691406 188 356.730469 189.058594 C 361.089844 193.492188 366.054688 197.335938 371.457031 200.40625 C 372.8125 201.175781 374.191406 201.902344 375.601562 202.5625 C 376.925781 203.1875 378.328125 203.6875 379.78125 203.175781 C 381.042969 202.734375 381.964844 201.726562 382.761719 200.699219 C 383.8125 199.347656 384.824219 197.960938 385.851562 196.59375 C 387.703125 194.125 389.554688 191.65625 391.40625 189.1875 C 393.570312 191.121094 395.449219 193.332031 397.121094 195.703125 C 398.015625 196.980469 398.867188 198.289062 399.695312 199.609375 C 400.371094 200.6875 401.027344 202.402344 402.226562 203.007812 C 403.527344 203.667969 405.167969 202.808594 406.414062 202.371094 C 407.914062 201.839844 409.394531 201.261719 410.863281 200.648438 C 413.835938 199.402344 416.738281 197.996094 419.550781 196.417969 C 422.773438 194.609375 425.863281 192.582031 428.816406 190.363281 C 429.988281 189.480469 428.839844 187.480469 427.652344 188.371094 " fill-opacity="1" fill-rule="nonzero"/><path fill="#e9946b" d="M 531.902344 146.480469 C 531.902344 146.480469 526.777344 148.378906 525.464844 152.304688 C 524.15625 156.230469 530.644531 162.839844 532.738281 162.316406 C 534.835938 161.792969 532.425781 163.757812 531.902344 146.480469 " fill-opacity="1" fill-rule="nonzero"/><path fill="#953938" d="M 302.425781 432.84375 C 302.425781 432.84375 374.875 441 382.222656 439.371094 C 389.570312 437.734375 393.652344 410 393.652344 410 C 393.652344 410 401.820312 434.472656 407.535156 436.105469 C 413.25 437.734375 480.859375 428.765625 480.859375 428.765625 C 480.859375 428.765625 467.792969 351.265625 469.425781 334.949219 C 471.058594 318.632812 473 278.035156 473 278.035156 C 473 278.035156 515.324219 311.289062 536.554688 319.449219 C 557.785156 327.605469 580.648438 313.738281 583.914062 292.527344 C 587.183594 271.316406 572.929688 186.214844 572.929688 186.214844 L 548.566406 177.324219 L 548.738281 253.945312 C 548.738281 253.945312 487.203125 212.003906 479.53125 206.382812 C 471.859375 200.761719 425.832031 184.921875 422.25 183.390625 L 390.539062 295.796875 C 390.539062 295.796875 359.210938 190.492188 357.296875 184.414062 C 352.964844 186.15625 302.0625 207.40625 293.878906 213.027344 C 285.695312 218.644531 247.339844 251.855469 247.339844 251.855469 L 245.445312 188 L 222.390625 190.828125 C 222.390625 190.828125 217.164062 231.929688 214.09375 255.945312 C 211.027344 279.960938 215.628906 319.8125 241.710938 317.769531 C 267.796875 315.726562 302.109375 284.558594 302.109375 284.558594 C 302.109375 284.558594 309.269531 322.371094 309.78125 335.140625 C 310.292969 347.914062 302.425781 432.84375 302.425781 432.84375 " fill-opacity="1" fill-rule="nonzero"/><path fill="#621406" d="M 570.570312 214.644531 C 564.15625 221.597656 554.007812 224.605469 544.835938 222.230469 C 543.878906 221.976562 543.46875 223.460938 544.429688 223.710938 C 554.105469 226.222656 564.878906 223.082031 571.660156 215.730469 C 572.332031 215.003906 571.246094 213.914062 570.570312 214.644531 " fill-opacity="1" fill-rule="nonzero"/><path fill="#621406" d="M 315.035156 271.257812 C 309.867188 276.730469 304.59375 282.105469 299.222656 287.382812 C 298.160156 288.425781 299.796875 290.058594 300.855469 289.015625 C 306.226562 283.738281 311.5 278.363281 316.667969 272.890625 C 317.691406 271.808594 316.0625 270.171875 315.035156 271.257812 " fill-opacity="1" fill-rule="nonzero"/><path fill="#621406" d="M 441.625 201.464844 C 440.113281 197.316406 438.703125 193.132812 437.375 188.921875 C 436.441406 188.582031 435.527344 188.25 434.648438 187.929688 C 436.039062 192.417969 437.523438 196.875 439.117188 201.292969 C 433.574219 204.753906 428.230469 208.511719 423.097656 212.558594 C 421.933594 213.476562 423.578125 215.101562 424.730469 214.191406 C 425.699219 213.425781 426.6875 212.683594 427.671875 211.941406 C 429.777344 215.398438 431.878906 218.851562 433.984375 222.308594 C 435.046875 224.058594 436.109375 225.804688 437.171875 227.550781 C 437.621094 228.285156 438.253906 228.964844 437.816406 229.824219 C 437.351562 230.742188 436.800781 231.628906 436.292969 232.523438 C 432.484375 239.25 428.601562 245.933594 424.640625 252.574219 C 416.628906 266.011719 408.316406 279.269531 399.707031 292.332031 C 396.203125 297.652344 392.632812 302.925781 389.035156 308.183594 C 384.726562 303.324219 381.109375 297.929688 377.738281 292.398438 C 374.121094 286.460938 370.675781 280.417969 367.167969 274.410156 C 359.875 261.925781 352.574219 249.449219 345.285156 236.960938 C 344.875 236.253906 344.328125 235.496094 344.359375 234.644531 C 344.390625 233.75 344.90625 232.796875 345.21875 231.972656 C 345.933594 230.082031 346.648438 228.1875 347.359375 226.300781 C 348.664062 222.851562 349.964844 219.40625 351.269531 215.960938 C 352.269531 216.609375 353.261719 217.273438 354.238281 217.960938 C 355.457031 218.816406 356.613281 216.816406 355.402344 215.96875 C 350.917969 212.8125 346.160156 210.066406 341.183594 207.746094 C 343.03125 201.53125 344.742188 195.28125 346.320312 188.992188 C 345.464844 189.355469 344.578125 189.730469 343.65625 190.121094 C 342.121094 196.132812 340.472656 202.113281 338.6875 208.058594 C 338.554688 208.503906 338.769531 209.15625 339.222656 209.363281 C 342.683594 210.9375 346.042969 212.726562 349.28125 214.710938 C 348.035156 218.011719 346.785156 221.316406 345.535156 224.621094 C 344.886719 226.335938 344.242188 228.050781 343.59375 229.765625 C 343.019531 231.292969 342.09375 232.984375 342.050781 234.644531 C 342.003906 236.242188 343.003906 237.632812 343.773438 238.953125 C 344.710938 240.554688 345.648438 242.15625 346.582031 243.757812 L 352.199219 253.371094 C 359.621094 266.070312 366.9375 278.835938 374.476562 291.460938 C 378.382812 297.996094 382.546875 304.40625 387.640625 310.089844 C 387.660156 310.109375 387.675781 310.121094 387.691406 310.136719 C 387.523438 310.375 387.453125 310.492188 387.4375 310.535156 C 387.402344 310.578125 387.363281 310.625 387.324219 310.667969 C 387.257812 310.734375 387.214844 310.808594 387.183594 310.890625 C 387.054688 311.011719 386.972656 311.183594 386.992188 311.421875 C 388.605469 336.390625 390.222656 361.359375 391.839844 386.328125 C 392.289062 393.28125 392.738281 400.238281 393.1875 407.191406 C 393.253906 408.171875 394.792969 408.179688 394.730469 407.191406 C 393.113281 382.242188 391.5 357.292969 389.886719 332.34375 C 389.46875 325.925781 389.054688 319.511719 388.636719 313.101562 C 389 312.605469 389.351562 312.105469 389.695312 311.601562 C 389.703125 311.589844 389.71875 311.582031 389.730469 311.5625 C 398.871094 298.414062 404.933594 288.792969 413.460938 275.238281 C 421.957031 261.738281 430.144531 248.042969 438.015625 234.167969 C 438.589844 233.15625 439.179688 232.148438 439.738281 231.121094 C 440.191406 230.28125 440.488281 229.441406 440.242188 228.480469 C 439.984375 227.488281 439.289062 226.589844 438.769531 225.730469 C 438.167969 224.75 437.570312 223.765625 436.976562 222.785156 C 434.515625 218.742188 432.058594 214.703125 429.597656 210.664062 C 429.578125 210.628906 429.546875 210.597656 429.519531 210.5625 C 433.273438 207.816406 437.132812 205.210938 441.09375 202.769531 C 441.5 202.519531 441.796875 201.949219 441.625 201.464844 " fill-opacity="1" fill-rule="nonzero"/><path fill="#621406" d="M 238.386719 219.492188 C 231.304688 219.6875 224.4375 216.519531 219.78125 211.320312 C 219.699219 211.976562 219.613281 212.640625 219.53125 213.316406 C 224.441406 218.261719 231.355469 221.226562 238.386719 221.03125 C 239.375 221.003906 239.382812 219.464844 238.386719 219.492188 " fill-opacity="1" fill-rule="nonzero"/><path fill="#621406" d="M 312.554688 236.949219 C 314.523438 240.984375 316.316406 245.105469 317.925781 249.300781 C 318.273438 250.214844 319.765625 249.816406 319.40625 248.890625 C 314.148438 235.195312 306.976562 222.285156 298.132812 210.585938 C 297.648438 210.839844 297.191406 211.085938 296.761719 211.316406 C 302.839844 219.320312 308.136719 227.914062 312.554688 236.949219 " fill-opacity="1" fill-rule="nonzero"/><path fill="#621406" d="M 470.648438 250.410156 C 474.101562 235.074219 474.828125 219.34375 474.652344 203.667969 C 474.160156 203.433594 473.644531 203.191406 473.105469 202.941406 C 473.253906 213.617188 472.996094 224.289062 471.738281 234.902344 C 471.136719 239.972656 470.285156 245.015625 469.164062 250 C 468.949219 250.964844 470.429688 251.375 470.648438 250.410156 " fill-opacity="1" fill-rule="nonzero"/><path fill="#621406" d="M 394.460938 314.855469 C 394.335938 314.148438 393.765625 313.488281 393.066406 313.304688 C 392.984375 313.285156 392.90625 313.273438 392.824219 313.277344 C 392.632812 313.253906 392.453125 313.253906 392.25 313.285156 C 391.496094 313.394531 390.871094 314.070312 390.671875 314.78125 C 390.445312 315.585938 390.789062 316.4375 391.507812 316.859375 C 392.136719 317.230469 392.964844 317.25 393.601562 316.886719 C 393.945312 316.691406 394.203125 316.382812 394.355469 316.023438 C 394.515625 315.644531 394.527344 315.253906 394.460938 314.855469 " fill-opacity="1" fill-rule="nonzero"/><path fill="#621406" d="M 398.410156 356.199219 C 398.289062 356.058594 398.050781 355.972656 397.867188 355.972656 C 397.734375 355.972656 397.589844 356.027344 397.464844 356.105469 C 397.355469 356.054688 397.242188 356.011719 397.128906 355.988281 C 396.726562 355.910156 396.355469 355.96875 395.980469 356.136719 C 395.425781 356.386719 394.984375 356.992188 394.882812 357.585938 C 394.855469 357.753906 394.832031 357.925781 394.851562 358.09375 C 394.875 358.34375 394.925781 358.523438 395.027344 358.753906 C 395.164062 359.066406 395.40625 359.304688 395.675781 359.503906 C 396.167969 359.863281 396.832031 359.953125 397.417969 359.824219 C 398.152344 359.667969 398.726562 359.050781 398.914062 358.335938 C 399.109375 357.578125 398.921875 356.789062 398.410156 356.199219 " fill-opacity="1" fill-rule="nonzero"/><path fill="#621406" d="M 401.347656 401.863281 C 401.203125 401.207031 400.644531 400.8125 400.003906 400.726562 C 398.96875 400.585938 397.976562 401.226562 397.632812 402.199219 C 397.304688 403.125 397.726562 404.347656 398.625 404.789062 C 398.953125 404.953125 399.277344 404.996094 399.636719 404.9375 C 399.769531 404.914062 399.894531 404.867188 400.007812 404.800781 C 400.667969 404.574219 401.164062 403.933594 401.328125 403.257812 C 401.445312 402.804688 401.445312 402.324219 401.347656 401.863281 " fill-opacity="1" fill-rule="nonzero"/><path fill="#621406" d="M 471.210938 362.699219 C 461.269531 365.089844 451.351562 367.585938 441.464844 370.191406 C 440.027344 370.570312 440.640625 372.796875 442.078125 372.417969 C 451.851562 369.835938 461.65625 367.371094 471.480469 365.003906 C 471.390625 364.226562 471.300781 363.457031 471.210938 362.699219 " fill-opacity="1" fill-rule="nonzero"/><path fill="#621406" d="M 344.371094 372.292969 C 333.925781 369.574219 323.6875 366.066406 313.785156 361.769531 C 312.4375 361.183594 311.261719 363.167969 312.621094 363.761719 C 322.707031 368.140625 333.113281 371.746094 343.753906 374.515625 C 345.195312 374.890625 345.808594 372.667969 344.371094 372.292969 " fill-opacity="1" fill-rule="nonzero"/><path fill="#e9eef0" d="M 524.320312 303.273438 L 270.363281 303.273438 C 266.417969 303.273438 263.21875 300.078125 263.21875 296.136719 L 263.21875 45.785156 C 263.21875 41.839844 266.417969 38.648438 270.363281 38.648438 L 524.320312 38.648438 C 528.265625 38.648438 531.464844 41.839844 531.464844 45.785156 L 531.464844 296.136719 C 531.464844 300.078125 528.265625 303.273438 524.320312 303.273438 Z M 245.976562 7.144531 L 245.976562 457.828125 C 245.976562 461.777344 249.183594 464.972656 253.132812 464.96875 L 541.566406 464.582031 C 545.511719 464.578125 548.703125 461.382812 548.703125 457.445312 L 548.703125 7.144531 C 548.703125 3.199219 545.507812 0 541.558594 0 L 253.125 0 C 249.175781 0 245.976562 3.199219 245.976562 7.144531 " fill-opacity="1" fill-rule="nonzero"/><path fill="#b9c9cf" d="M 315.976562 351.644531 L 269.109375 351.644531 C 265.933594 351.644531 263.359375 349.074219 263.359375 345.898438 L 263.359375 317.039062 C 263.359375 313.871094 265.933594 311.296875 269.109375 311.296875 L 315.976562 311.296875 C 319.152344 311.296875 321.726562 313.871094 321.726562 317.039062 L 321.726562 345.898438 C 321.726562 349.074219 319.152344 351.644531 315.976562 351.644531 " fill-opacity="1" fill-rule="nonzero"/><path fill="#5b71cc" d="M 303.488281 335.613281 L 303.941406 333.84375 L 304.433594 331.871094 C 304.433594 331.871094 306.027344 325.554688 306.496094 324.097656 C 306.960938 322.566406 307.289062 321 307.484375 319.410156 C 307.507812 318.945312 307.769531 318.640625 308.265625 318.503906 C 308.976562 318.230469 309.773438 318.097656 310.652344 318.097656 C 311.804688 318.097656 312.957031 318.054688 314.109375 317.972656 L 314.519531 317.972656 C 314.90625 318.027344 315.097656 318.246094 315.097656 318.632812 C 315.097656 318.65625 315.070312 318.808594 315.015625 319.082031 C 314.878906 319.90625 314.519531 321.671875 313.945312 324.386719 L 313.289062 327.429688 L 313.121094 328.210938 C 313.121094 328.210938 312.710938 330.238281 312.628906 330.433594 L 312.339844 331.582031 C 312.203125 332.078125 311.148438 335.488281 311.148438 335.488281 L 310.40625 338.207031 C 309.746094 340.371094 309.167969 342.179688 308.675781 343.632812 C 308.507812 344.183594 308.152344 344.484375 307.605469 344.535156 L 305.175781 344.90625 C 304.078125 345.042969 303.226562 345.070312 302.625 344.992188 C 302.625 344.992188 300.742188 344.976562 300.527344 344.949219 L 299.414062 344.949219 C 299.136719 344.949219 298.933594 344.785156 298.796875 344.457031 C 298.386719 343.605469 298.027344 342.617188 297.726562 341.496094 C 297.398438 340.015625 295.421875 335.039062 295.421875 335.039062 C 295.308594 334.738281 295.171875 334.394531 295.007812 334.007812 L 294.84375 333.515625 L 293.074219 328.953125 L 292.664062 327.964844 C 292.523438 327.636719 292.402344 327.292969 292.289062 326.9375 C 292.128906 326.441406 291.90625 325.703125 291.632812 324.71875 L 290.890625 321.054688 L 290.441406 319.367188 C 290.273438 318.683594 290.535156 318.339844 291.222656 318.339844 L 293.195312 318.257812 L 293.691406 318.257812 C 293.828125 318.257812 293.980469 318.230469 294.144531 318.175781 C 294.804688 318.039062 295.585938 318.054688 296.488281 318.214844 L 296.945312 318.300781 L 297.398438 318.339844 C 297.835938 318.367188 298.109375 318.585938 298.21875 319 L 299.578125 324.183594 L 301.308594 329.898438 L 302.253906 333.515625 L 302.542969 334.542969 C 302.707031 335.039062 302.996094 335.820312 302.996094 335.820312 C 303.050781 335.902344 303.144531 335.96875 303.28125 336.023438 L 303.488281 335.613281 " fill-opacity="1" fill-rule="nonzero"/><path fill="#5b71cc" d="M 270.691406 333.558594 C 270.691406 331.773438 270.859375 330.046875 271.1875 328.375 C 271.324219 327.632812 271.488281 326.910156 271.679688 326.195312 C 271.707031 326.003906 271.789062 325.785156 271.925781 325.535156 L 272.21875 324.878906 L 273.695312 322.289062 C 274.191406 321.410156 275.070312 320.589844 276.332031 319.820312 C 276.496094 319.710938 276.714844 319.574219 276.992188 319.410156 L 277.773438 319 L 279.253906 318.300781 C 279.664062 318.078125 280.132812 317.914062 280.652344 317.804688 L 281.355469 317.683594 L 282.054688 317.558594 C 282.4375 317.503906 282.808594 317.503906 283.164062 317.558594 L 284.152344 317.597656 C 284.539062 317.628906 284.867188 317.667969 285.140625 317.722656 L 285.632812 317.765625 L 285.882812 317.804688 L 286.085938 317.886719 C 286.472656 318.027344 286.664062 318.300781 286.664062 318.710938 C 286.691406 319.09375 286.679688 319.792969 286.621094 320.808594 L 286.5 321.796875 L 286.414062 322.824219 L 286.292969 323.234375 C 286.183594 323.648438 285.90625 323.890625 285.46875 323.976562 L 282.507812 324.425781 L 281.476562 324.550781 C 279.828125 324.796875 279.152344 325.6875 278.328125 327.222656 C 277.890625 327.992188 277.640625 328.910156 277.589844 329.976562 C 277.589844 331.488281 277.308594 332.953125 277.855469 334.378906 L 278.761719 336.433594 C 279.363281 337.394531 279.957031 337.996094 280.53125 338.246094 C 280.996094 338.4375 281.492188 338.558594 282.011719 338.613281 L 282.507812 338.695312 L 283 338.738281 C 283.464844 338.765625 283.796875 338.808594 283.988281 338.859375 C 284.402344 338.972656 284.988281 339 285.757812 338.945312 C 286.335938 338.917969 286.636719 339.164062 286.664062 339.683594 C 286.773438 340.339844 286.84375 341.109375 286.871094 341.984375 C 286.921875 342.480469 286.953125 342.949219 286.953125 343.386719 L 286.992188 344.824219 C 286.992188 345.316406 286.757812 345.605469 286.292969 345.6875 L 286.128906 345.730469 L 285.925781 345.769531 L 285.46875 345.851562 L 285.058594 345.933594 L 284.605469 346.015625 L 283.289062 346.140625 L 281.96875 346.304688 C 281.367188 346.386719 280.613281 346.332031 279.707031 346.140625 C 278.390625 345.894531 277.171875 345.425781 276.042969 344.742188 C 274.398438 343.785156 273.1875 342.589844 272.421875 341.164062 C 271.789062 340.09375 271.378906 338.972656 271.1875 337.792969 L 270.816406 336.0625 C 270.761719 335.625 270.734375 335.199219 270.734375 334.789062 L 270.691406 334.175781 L 270.691406 333.558594 " fill-opacity="1" fill-rule="nonzero"/><path fill="#f8be39" d="M 335.625 318.601562 C 335.625 318.601562 337.582031 317.296875 338.886719 317.019531 C 340.1875 316.742188 342.796875 323.996094 343.265625 324.183594 C 343.730469 324.371094 348.199219 311.808594 349.597656 311.621094 C 350.996094 311.433594 354.8125 311.808594 354.71875 312.273438 C 354.628906 312.738281 346.523438 329.675781 345.871094 330.417969 C 345.21875 331.164062 340.472656 330.792969 340.472656 330.792969 C 340.472656 330.792969 334.789062 318.789062 335.625 318.601562 " fill-opacity="1" fill-rule="nonzero"/><path fill="#f8be39" d="M 335.625 348.050781 C 335.625 348.050781 337.582031 346.746094 338.886719 346.46875 C 340.1875 346.191406 342.796875 353.445312 343.265625 353.632812 C 343.730469 353.816406 348.199219 341.257812 349.597656 341.070312 C 350.996094 340.882812 354.8125 341.257812 354.71875 341.722656 C 354.628906 342.1875 346.523438 359.125 345.871094 359.867188 C 345.21875 360.613281 340.472656 360.238281 340.472656 360.238281 C 340.472656 360.238281 334.789062 348.238281 335.625 348.050781 " fill-opacity="1" fill-rule="nonzero"/><path fill="#f8be39" d="M 268.199219 375.558594 C 268.199219 375.558594 270.15625 374.257812 271.460938 373.976562 C 272.765625 373.699219 275.371094 380.957031 275.835938 381.144531 C 276.300781 381.328125 280.773438 368.765625 282.171875 368.582031 C 283.566406 368.394531 287.386719 368.765625 287.292969 369.234375 C 287.199219 369.699219 279.097656 386.632812 278.445312 387.375 C 277.792969 388.121094 273.042969 387.746094 273.042969 387.746094 C 273.042969 387.746094 267.359375 375.746094 268.199219 375.558594 " fill-opacity="1" fill-rule="nonzero"/><path fill="#f8be39" d="M 268.199219 405.792969 C 268.199219 405.792969 270.15625 404.488281 271.460938 404.210938 C 272.765625 403.933594 275.371094 411.1875 275.835938 411.375 C 276.300781 411.5625 280.773438 399 282.171875 398.816406 C 283.566406 398.628906 287.386719 399 287.292969 399.464844 C 287.199219 399.929688 279.097656 416.863281 278.445312 417.609375 C 277.792969 418.355469 273.042969 417.984375 273.042969 417.984375 C 273.042969 417.984375 267.359375 405.976562 268.199219 405.792969 " fill-opacity="1" fill-rule="nonzero"/><path fill="#f8be39" d="M 268.199219 436.027344 C 268.199219 436.027344 270.15625 434.726562 271.460938 434.445312 C 272.765625 434.164062 275.371094 441.425781 275.835938 441.609375 C 276.300781 441.796875 280.773438 429.234375 282.171875 429.046875 C 283.566406 428.863281 287.386719 429.234375 287.292969 429.699219 C 287.199219 430.167969 279.097656 447.101562 278.445312 447.84375 C 277.792969 448.589844 273.042969 448.214844 273.042969 448.214844 C 273.042969 448.214844 267.359375 436.214844 268.199219 436.027344 " fill-opacity="1" fill-rule="nonzero"/><path fill="#cdd9dd" d="M 527.589844 417.84375 L 300.191406 417.84375 C 298.140625 417.84375 296.484375 416.183594 296.484375 414.140625 L 296.484375 402.855469 C 296.484375 400.8125 298.140625 399.152344 300.191406 399.152344 L 527.589844 399.152344 C 529.636719 399.152344 531.300781 400.8125 531.300781 402.855469 L 531.300781 414.140625 C 531.300781 416.183594 529.636719 417.84375 527.589844 417.84375 " fill-opacity="1" fill-rule="nonzero"/><path fill="#cdd9dd" d="M 529.058594 388.273438 L 300.191406 388.273438 C 298.140625 388.273438 296.484375 386.613281 296.484375 384.570312 L 296.484375 373.285156 C 296.484375 371.238281 298.140625 369.582031 300.191406 369.582031 L 529.058594 369.582031 C 531.105469 369.582031 532.765625 371.238281 532.765625 373.285156 L 532.765625 384.570312 C 532.765625 386.613281 531.105469 388.273438 529.058594 388.273438 " fill-opacity="1" fill-rule="nonzero"/><path fill="#cdd9dd" d="M 382.957031 447.953125 L 301.367188 447.953125 C 299.324219 447.953125 297.664062 446.292969 297.664062 444.25 L 297.664062 432.964844 C 297.664062 430.921875 299.324219 429.261719 301.367188 429.261719 L 382.957031 429.261719 C 385.007812 429.261719 386.664062 430.921875 386.664062 432.964844 L 386.664062 444.25 C 386.664062 446.292969 385.007812 447.953125 382.957031 447.953125 " fill-opacity="1" fill-rule="nonzero"/><path fill="#cdd9dd" d="M 530.1875 360.34375 L 365.695312 360.34375 C 363.648438 360.34375 361.988281 358.6875 361.988281 356.640625 L 361.988281 345.355469 C 361.988281 343.308594 363.648438 341.652344 365.695312 341.652344 L 530.1875 341.652344 C 532.234375 341.652344 533.890625 343.308594 533.890625 345.355469 L 533.890625 356.640625 C 533.890625 358.6875 532.234375 360.34375 530.1875 360.34375 " fill-opacity="1" fill-rule="nonzero"/><path fill="#cdd9dd" d="M 530.1875 331.59375 L 365.695312 331.59375 C 363.648438 331.59375 361.988281 329.933594 361.988281 327.890625 L 361.988281 316.605469 C 361.988281 314.5625 363.648438 312.902344 365.695312 312.902344 L 530.1875 312.902344 C 532.234375 312.902344 533.890625 314.5625 533.890625 316.605469 L 533.890625 327.890625 C 533.890625 329.933594 532.234375 331.59375 530.1875 331.59375 " fill-opacity="1" fill-rule="nonzero"/><path fill="#e9946b" d="M 226.449219 165.667969 C 226.449219 165.667969 225.578125 171.917969 225.113281 174.863281 C 224.648438 177.8125 222.941406 188.359375 222.320312 191.148438 C 221.699219 193.9375 223.25 197.351562 230.082031 200.144531 C 236.914062 202.9375 245.960938 203.085938 245.960938 203.085938 L 246.617188 168.683594 L 226.449219 165.667969 " fill-opacity="1" fill-rule="nonzero"/><path fill="#e9946b" d="M 241.964844 200.175781 C 241.964844 200.175781 232.765625 198.242188 229.800781 191.058594 C 228.003906 186.722656 224.667969 183.945312 226.949219 179.675781 C 229.230469 175.40625 226.378906 175.976562 226.378906 170.285156 C 226.378906 164.59375 227.519531 164.59375 229.515625 162.03125 C 231.507812 159.472656 229.515625 157.195312 232.078125 155.488281 C 234.640625 153.777344 243.753906 152.640625 250.875 152.640625 C 258 152.640625 260.5625 157.476562 263.695312 158.617188 C 266.832031 159.757812 266.285156 164.144531 262.296875 164.144531 C 258.304688 164.144531 251.390625 160.382812 248.257812 162.089844 C 245.121094 163.796875 263.570312 167.726562 265.5625 172.851562 C 267.554688 177.972656 261.800781 177.578125 262.660156 180.707031 C 263.511719 183.839844 266.753906 186.167969 264.472656 188.445312 C 262.191406 190.726562 261 189.917969 261.566406 192.195312 C 262.136719 194.472656 264.234375 195.261719 263.382812 197.394531 C 261.675781 201.660156 241.964844 200.175781 241.964844 200.175781 " fill-opacity="1" fill-rule="nonzero"/><path fill="#e9946b" d="M 548.703125 181.882812 C 548.703125 181.882812 569.828125 172.859375 569.769531 173.300781 C 569.222656 177.1875 569.867188 181.015625 572.390625 185.042969 C 575.441406 189.921875 569.085938 198.089844 561.761719 202.359375 C 554.4375 206.628906 548.742188 207.644531 548.742188 207.644531 L 548.742188 182.035156 " fill-opacity="1" fill-rule="nonzero"/><path fill="#e9946b" d="M 571.585938 183.664062 C 571.585938 183.664062 568.371094 178.96875 569.527344 175.394531 C 571.417969 169.539062 567.328125 170.929688 567.113281 167.28125 C 566.898438 163.632812 569.261719 163.417969 567.328125 159.125 C 565.394531 154.828125 562.171875 155.472656 561.957031 151.605469 C 561.738281 147.742188 552.285156 145.8125 548.417969 147.3125 C 544.546875 148.816406 530.925781 159.402344 528.992188 161.121094 C 527.058594 162.835938 528.339844 166.484375 530.703125 167.34375 C 533.066406 168.199219 546.695312 161.269531 547.988281 161.914062 C 549.277344 162.558594 529.34375 171.65625 526.550781 175.519531 C 524.957031 177.71875 524.839844 180.769531 528.378906 182.109375 C 529.816406 182.65625 531.449219 181.960938 531.925781 183.332031 C 532.375 184.628906 529.554688 187.59375 532.777344 189.3125 C 536 191.027344 543.132812 188.4375 549.148438 186.503906 C 555.167969 184.570312 556.066406 186.890625 553.058594 188.824219 C 550.050781 190.753906 542.398438 195.410156 542.828125 197.984375 C 543.257812 200.5625 546.21875 200.171875 552.324219 198.097656 C 558.257812 196.082031 574.988281 189.738281 571.585938 183.664062 " fill-opacity="1" fill-rule="nonzero"/><path fill="#d97e56" d="M 238.988281 194.460938 C 237.390625 193.691406 235.855469 192.785156 234.433594 191.714844 C 233.71875 191.171875 233.03125 190.585938 232.375 189.96875 C 231.789062 189.417969 231.167969 188.976562 231.179688 188.117188 C 231.191406 187.371094 231.359375 186.691406 231.269531 185.933594 C 231.1875 185.261719 231.027344 184.613281 230.785156 183.976562 C 230.332031 182.765625 229.691406 181.640625 229.085938 180.5 C 228.542969 179.488281 227.941406 178.398438 227.808594 177.238281 C 227.632812 175.6875 228.707031 174.601562 229.117188 173.195312 C 229.613281 171.484375 228.605469 170.203125 228.332031 168.574219 C 228.058594 166.953125 228.46875 165.335938 229.355469 163.972656 C 230.164062 162.71875 228.167969 161.5625 227.359375 162.804688 C 225.890625 165.074219 225.527344 167.976562 226.488281 170.515625 C 226.742188 171.195312 227.097656 171.84375 226.890625 172.582031 C 226.710938 173.214844 226.304688 173.789062 226.035156 174.386719 C 225.542969 175.476562 225.386719 176.589844 225.570312 177.773438 C 225.910156 179.972656 227.285156 181.851562 228.226562 183.828125 C 228.667969 184.75 229.027344 185.742188 229.007812 186.777344 C 229 187.441406 228.8125 188.089844 228.882812 188.757812 C 228.960938 189.507812 229.3125 190.121094 229.808594 190.671875 C 231.980469 193.109375 234.898438 195.046875 237.824219 196.453125 C 239.15625 197.09375 240.332031 195.105469 238.988281 194.460938 " fill-opacity="1" fill-rule="nonzero"/><path fill="#d97e56" d="M 570.230469 175.699219 C 570.871094 172.894531 569.875 169.777344 567.605469 167.972656 C 566.453125 167.054688 564.808594 168.675781 565.972656 169.601562 C 567.878906 171.117188 568.699219 173.773438 567.6875 176.050781 C 567.105469 177.363281 566.378906 178.386719 566.722656 179.894531 C 566.886719 180.636719 567.269531 181.304688 567.433594 182.046875 C 567.59375 182.789062 567.585938 183.578125 567.453125 184.320312 C 566.917969 187.308594 564.582031 189.53125 562.265625 191.289062 C 559.734375 193.210938 556.9375 194.804688 554 196.011719 C 552.640625 196.566406 553.238281 198.800781 554.613281 198.238281 C 557.953125 196.871094 561.078125 195.109375 563.933594 192.898438 C 566.546875 190.871094 569.03125 188.300781 569.679688 184.933594 C 570.027344 183.125 569.726562 181.601562 569.136719 179.894531 C 568.835938 179.035156 568.988281 178.554688 569.390625 177.78125 C 569.734375 177.109375 570.0625 176.4375 570.230469 175.699219 " fill-opacity="1" fill-rule="nonzero"/><path fill="#d97e56" d="M 555.070312 183.648438 C 552.308594 183.398438 549.710938 184.621094 547.199219 185.59375 C 544.535156 186.628906 541.871094 187.660156 539.203125 188.695312 C 537.835938 189.226562 537.671875 190.292969 540.996094 189.371094 C 543.652344 188.636719 550.34375 186.742188 551.8125 186.332031 C 552.167969 186.613281 552.242188 187.046875 552.242188 187.050781 C 552.167969 188.210938 551.351562 188.957031 551.21875 189.078125 C 550.011719 190.214844 548.320312 191.183594 547.089844 192.292969 C 546.640625 192.699219 546 193.167969 546.445312 193.570312 C 546.925781 194.015625 552.757812 190.863281 553.355469 190.199219 C 554.007812 189.476562 554.472656 188.660156 554.578125 187.683594 C 554.644531 187.078125 554.519531 186.46875 554.242188 185.9375 C 554.515625 185.929688 554.789062 185.929688 555.070312 185.953125 C 556.550781 186.089844 556.539062 183.78125 555.070312 183.648438 " fill-opacity="1" fill-rule="nonzero"/><path fill="#e9946b" d="M 422.472656 120.820312 C 422.023438 114.941406 416.835938 106.964844 416.835938 106.964844 C 415.566406 104.554688 413.578125 103.003906 411.203125 102.171875 C 408.726562 104.234375 405.699219 105.648438 402.636719 106.550781 C 399.089844 107.597656 395.28125 108.035156 391.589844 107.605469 C 391.746094 112.804688 386.121094 117.949219 385.535156 121.28125 C 385.445312 123.0625 385.363281 124.835938 385.109375 126.605469 C 384.832031 128.523438 384.289062 132.75 383.945312 133.140625 C 383.496094 133.652344 380.824219 132.175781 380.824219 132.175781 C 380.824219 132.175781 378.355469 128.339844 375.367188 128.714844 C 374.074219 128.875 371.542969 129.691406 370.722656 131.8125 C 365.800781 144.507812 378.058594 148.570312 378.058594 148.570312 C 380.300781 160.484375 390.0625 167.964844 404.847656 167.445312 C 409.648438 167.273438 419.492188 167.65625 422.617188 162.871094 C 428.527344 153.816406 422.746094 124.40625 422.472656 120.820312 " fill-opacity="1" fill-rule="nonzero"/><path fill="#d97e56" d="M 413.816406 142.625 C 414.347656 142.304688 414.878906 141.984375 415.410156 141.664062 C 415.628906 141.53125 415.910156 141.476562 416.164062 141.535156 C 416.410156 141.585938 416.683594 141.765625 416.808594 141.988281 C 416.933594 142.210938 417.007812 142.484375 416.9375 142.742188 C 416.867188 143.003906 416.722656 143.242188 416.484375 143.386719 C 415.953125 143.707031 415.421875 144.027344 414.890625 144.351562 C 414.675781 144.484375 414.394531 144.535156 414.140625 144.480469 C 413.894531 144.429688 413.621094 144.25 413.496094 144.027344 C 413.367188 143.800781 413.296875 143.53125 413.363281 143.273438 C 413.433594 143.007812 413.582031 142.773438 413.816406 142.625 " fill-opacity="1" fill-rule="nonzero"/><path fill="#ffffff" d="M 421.199219 149.132812 L 406.292969 150.375 C 406.292969 150.375 407.535156 157.511719 409.710938 157.820312 C 411.882812 158.128906 417.472656 156.890625 417.472656 156.890625 L 421.199219 149.132812 " fill-opacity="1" fill-rule="nonzero"/><path fill="#1a1a1a" d="M 396.789062 132.632812 C 396.746094 132.226562 396.609375 131.847656 396.347656 131.546875 C 396.25 131.269531 396.125 131.003906 395.929688 130.789062 C 395.253906 130.039062 394.058594 130.1875 393.398438 130.875 C 392.722656 131.582031 392.695312 132.628906 392.921875 133.527344 C 393.035156 133.976562 393.246094 134.421875 393.554688 134.773438 C 393.566406 134.789062 393.570312 134.808594 393.582031 134.824219 C 393.882812 135.253906 394.347656 135.554688 394.886719 135.535156 C 395.1875 135.527344 395.449219 135.4375 395.679688 135.304688 C 396.109375 135.109375 396.472656 134.757812 396.667969 134.324219 C 396.90625 133.792969 396.921875 133.199219 396.789062 132.632812 " fill-opacity="1" fill-rule="nonzero"/><path fill="#1a1a1a" d="M 422.777344 129.460938 C 422.511719 129.023438 422.066406 128.75 421.59375 128.695312 C 421.546875 128.671875 421.507812 128.640625 421.457031 128.621094 C 420.578125 128.3125 419.925781 129.1875 419.699219 129.917969 C 419.53125 130.457031 419.542969 131.085938 419.726562 131.617188 C 419.933594 132.203125 420.300781 132.714844 420.835938 133.042969 C 420.839844 133.042969 420.84375 133.042969 420.84375 133.046875 C 421.058594 133.203125 421.320312 133.265625 421.582031 133.222656 C 421.804688 133.203125 422.011719 133.105469 422.191406 132.953125 C 422.339844 132.847656 422.472656 132.722656 422.578125 132.5625 C 422.757812 132.285156 422.847656 131.941406 422.921875 131.628906 C 423 131.324219 423.042969 131.003906 423.035156 130.691406 C 423.058594 130.257812 422.992188 129.824219 422.777344 129.460938 " fill-opacity="1" fill-rule="nonzero"/><path fill="#4b3333" d="M 395.769531 122.769531 C 395.410156 122.214844 394.769531 122.066406 394.1875 122.355469 C 392.140625 123.375 390.179688 124.5625 388.324219 125.902344 C 387.835938 126.253906 387.550781 126.921875 387.910156 127.480469 C 388.222656 127.960938 388.96875 128.273438 389.488281 127.890625 C 391.34375 126.554688 393.304688 125.371094 395.355469 124.347656 C 395.894531 124.074219 396.089844 123.265625 395.769531 122.769531 " fill-opacity="1" fill-rule="nonzero"/><path fill="#4b3333" d="M 423.753906 123.417969 C 423.667969 123.148438 423.492188 122.847656 423.226562 122.730469 C 422.003906 122.195312 420.785156 121.660156 419.566406 121.125 C 419.273438 120.992188 419 120.917969 418.675781 121.007812 C 418.410156 121.078125 418.117188 121.289062 417.988281 121.535156 C 417.84375 121.804688 417.773438 122.125 417.871094 122.425781 C 417.957031 122.691406 418.132812 122.996094 418.398438 123.113281 C 419.621094 123.648438 420.839844 124.183594 422.058594 124.71875 C 422.355469 124.847656 422.628906 124.925781 422.949219 124.835938 C 423.21875 124.761719 423.507812 124.554688 423.640625 124.308594 C 423.78125 124.039062 423.851562 123.714844 423.753906 123.417969 " fill-opacity="1" fill-rule="nonzero"/><path fill="#f8be39" d="M 273.007812 11.789062 L 275.03125 15.894531 C 275.171875 16.171875 275.4375 16.367188 275.746094 16.40625 L 280.273438 17.066406 C 281.050781 17.179688 281.363281 18.136719 280.796875 18.679688 L 277.523438 21.867188 C 277.296875 22.089844 277.199219 22.402344 277.25 22.710938 L 278.023438 27.214844 C 278.160156 27.984375 277.347656 28.578125 276.648438 28.214844 L 272.597656 26.085938 C 272.324219 25.9375 271.992188 25.9375 271.71875 26.085938 L 267.667969 28.214844 C 266.972656 28.578125 266.160156 27.984375 266.296875 27.214844 L 267.066406 22.710938 C 267.121094 22.402344 267.019531 22.089844 266.792969 21.867188 L 263.519531 18.679688 C 262.957031 18.136719 263.265625 17.179688 264.046875 17.066406 L 268.574219 16.40625 C 268.878906 16.367188 269.148438 16.171875 269.285156 15.894531 L 271.308594 11.789062 C 271.65625 11.089844 272.660156 11.089844 273.007812 11.789062 " fill-opacity="1" fill-rule="nonzero"/><path fill="#f8be39" d="M 297.546875 11.789062 L 299.570312 15.894531 C 299.707031 16.171875 299.976562 16.367188 300.28125 16.40625 L 304.8125 17.066406 C 305.585938 17.179688 305.898438 18.136719 305.335938 18.679688 L 302.058594 21.867188 C 301.835938 22.089844 301.734375 22.402344 301.785156 22.710938 L 302.558594 27.214844 C 302.695312 27.984375 301.882812 28.578125 301.1875 28.214844 L 297.136719 26.085938 C 296.863281 25.9375 296.53125 25.9375 296.253906 26.085938 L 292.207031 28.214844 C 291.511719 28.578125 290.699219 27.984375 290.832031 27.214844 L 291.605469 22.710938 C 291.65625 22.402344 291.554688 22.089844 291.332031 21.867188 L 288.058594 18.679688 C 287.492188 18.136719 287.804688 17.179688 288.582031 17.066406 L 293.109375 16.40625 C 293.417969 16.367188 293.683594 16.171875 293.824219 15.894531 L 295.84375 11.789062 C 296.195312 11.089844 297.199219 11.089844 297.546875 11.789062 " fill-opacity="1" fill-rule="nonzero"/><path fill="#f8be39" d="M 322.082031 11.789062 L 324.105469 15.894531 C 324.246094 16.171875 324.511719 16.367188 324.816406 16.40625 L 329.347656 17.066406 C 330.125 17.179688 330.4375 18.136719 329.871094 18.679688 L 326.597656 21.867188 C 326.371094 22.089844 326.273438 22.402344 326.324219 22.710938 L 327.097656 27.214844 C 327.230469 27.984375 326.417969 28.578125 325.722656 28.214844 L 321.671875 26.085938 C 321.398438 25.9375 321.066406 25.9375 320.792969 26.085938 L 316.742188 28.214844 C 316.046875 28.578125 315.234375 27.984375 315.367188 27.214844 L 316.140625 22.710938 C 316.195312 22.402344 316.089844 22.089844 315.867188 21.867188 L 312.59375 18.679688 C 312.03125 18.136719 312.339844 17.179688 313.117188 17.066406 L 317.644531 16.40625 C 317.953125 16.367188 318.21875 16.171875 318.359375 15.894531 L 320.382812 11.789062 C 320.730469 11.089844 321.734375 11.089844 322.082031 11.789062 " fill-opacity="1" fill-rule="nonzero"/><path fill="#f8be39" d="M 346.617188 11.789062 L 348.640625 15.894531 C 348.78125 16.171875 349.046875 16.367188 349.355469 16.40625 L 353.882812 17.066406 C 354.660156 17.179688 354.972656 18.136719 354.40625 18.679688 L 351.132812 21.867188 C 350.910156 22.089844 350.808594 22.402344 350.859375 22.710938 L 351.632812 27.214844 C 351.765625 27.984375 350.953125 28.578125 350.261719 28.214844 L 346.207031 26.085938 C 345.933594 25.9375 345.601562 25.9375 345.328125 26.085938 L 341.277344 28.214844 C 340.582031 28.578125 339.769531 27.984375 339.90625 27.214844 L 340.675781 22.710938 C 340.730469 22.402344 340.628906 22.089844 340.402344 21.867188 L 337.128906 18.679688 C 336.566406 18.136719 336.875 17.179688 337.652344 17.066406 L 342.183594 16.40625 C 342.492188 16.367188 342.757812 16.171875 342.894531 15.894531 L 344.917969 11.789062 C 345.269531 11.089844 346.269531 11.089844 346.617188 11.789062 " fill-opacity="1" fill-rule="nonzero"/><path fill="#b9c9cf" d="M 371.152344 11.789062 L 373.179688 15.894531 C 373.316406 16.171875 373.585938 16.367188 373.890625 16.40625 L 378.421875 17.066406 C 379.195312 17.179688 379.507812 18.136719 378.945312 18.679688 L 375.667969 21.867188 C 375.445312 22.089844 375.34375 22.402344 375.394531 22.710938 L 376.167969 27.214844 C 376.304688 27.984375 375.492188 28.578125 374.796875 28.214844 L 370.746094 26.085938 C 370.46875 25.9375 370.140625 25.9375 369.863281 26.085938 L 365.816406 28.214844 C 365.121094 28.578125 364.308594 27.984375 364.441406 27.214844 L 365.214844 22.710938 C 365.265625 22.402344 365.164062 22.089844 364.941406 21.867188 L 361.667969 18.679688 C 361.101562 18.136719 361.414062 17.179688 362.191406 17.066406 L 366.71875 16.40625 C 367.027344 16.367188 367.292969 16.171875 367.429688 15.894531 L 369.457031 11.789062 C 369.804688 11.089844 370.808594 11.089844 371.152344 11.789062 " fill-opacity="1" fill-rule="nonzero"/></svg>