<svg xmlns="http://www.w3.org/2000/svg" xmlns:xlink="http://www.w3.org/1999/xlink" width="1080" zoomAndPan="magnify" viewBox="0 0 810 809.999993" height="1080" preserveAspectRatio="xMidYMid meet" version="1.0"><defs><clipPath id="8bc96adcc4"><path d="M 151.214844 114.273438 L 697.214844 114.273438 L 697.214844 660.273438 L 151.214844 660.273438 Z M 151.214844 114.273438 " clip-rule="nonzero"/></clipPath><clipPath id="5efcb210c4"><path d="M 151.214844 431 L 328 431 L 328 660.273438 L 151.214844 660.273438 Z M 151.214844 431 " clip-rule="nonzero"/></clipPath><clipPath id="8b699df9fd"><path d="M 521 431 L 697.214844 431 L 697.214844 660.273438 L 521 660.273438 Z M 521 431 " clip-rule="nonzero"/></clipPath></defs><path fill="#e6e9ed" d="M 441.828125 598.628906 L 459.4375 651.46875 L 388.988281 651.46875 L 406.601562 598.628906 L 441.828125 598.628906 " fill-opacity="1" fill-rule="nonzero"/><path fill="#ccd1d9" d="M 444.820312 560.066406 C 448.949219 568.769531 454.519531 585.9375 441.828125 598.628906 L 406.601562 598.628906 C 393.734375 585.765625 399.652344 568.253906 403.78125 559.722656 C 414.167969 562.269531 428.960938 564.125 444.820312 560.066406 " fill-opacity="1" fill-rule="nonzero"/><path fill="#fcd770" d="M 503.472656 651.46875 L 459.4375 651.46875 L 441.828125 598.628906 C 454.519531 585.9375 448.949219 568.769531 444.820312 560.066406 C 449.667969 558.828125 454.519531 557.074219 459.4375 554.597656 C 459.4375 554.597656 523.90625 554.597656 552.183594 600.832031 C 560.09375 613.695312 565.117188 630.242188 565.117188 651.46875 L 503.472656 651.46875 " fill-opacity="1" fill-rule="nonzero"/><path fill="#fcd770" d="M 388.988281 554.597656 C 388.988281 554.597656 394.699219 557.417969 403.78125 559.722656 C 399.652344 568.253906 393.734375 585.765625 406.601562 598.628906 L 388.988281 651.46875 L 283.308594 651.46875 C 283.308594 554.597656 388.988281 554.597656 388.988281 554.597656 " fill-opacity="1" fill-rule="nonzero"/><path fill="#69d6f4" d="M 683.039062 334.09375 C 668.488281 263.023438 625.523438 202.441406 566.527344 164.808594 C 525.382812 138.320312 476.605469 123.082031 424.214844 123.082031 C 371.820312 123.082031 323.042969 138.320312 281.898438 164.808594 C 222.902344 202.441406 179.9375 263.023438 165.386719 334.09375 C 161.878906 351.257812 160.019531 369.042969 160.019531 387.273438 C 160.019531 399.246094 160.8125 410.976562 162.324219 422.5 L 208.972656 417.824219 L 250.011719 413.695312 C 248.808594 405.058594 248.085938 396.253906 248.085938 387.273438 C 248.085938 368.871094 250.90625 351.15625 256.167969 334.4375 C 269.757812 291.125 299.683594 254.902344 338.796875 233.335938 C 364.046875 219.160156 393.21875 211.144531 424.214844 211.144531 C 455.207031 211.144531 484.449219 219.160156 509.734375 233.335938 L 509.734375 233.4375 C 531.472656 245.304688 550.324219 261.886719 565.117188 281.597656 L 583.074219 311.285156 C 586.6875 318.75 589.78125 326.421875 592.257812 334.4375 C 597.523438 351.085938 600.34375 368.871094 600.34375 387.273438 C 600.34375 396.253906 599.621094 405.058594 598.417969 413.695312 L 639.457031 417.824219 L 686.101562 422.5 C 687.617188 410.976562 688.40625 399.246094 688.40625 387.273438 C 688.40625 369.042969 686.550781 351.257812 683.039062 334.09375 " fill-opacity="1" fill-rule="nonzero"/><path fill="#ff826e" d="M 583.074219 311.285156 L 521.085938 378.46875 L 521.085938 369.664062 C 521.085938 369.664062 521.085938 337.875 494.390625 317.097656 L 494.664062 316.824219 L 617.957031 255.179688 C 623.320312 252.632812 630.820312 259.683594 626.761719 263.984375 L 583.074219 311.285156 " fill-opacity="1" fill-rule="nonzero"/><path fill="#656d78" d="M 494.664062 396.082031 L 433.019531 396.082031 C 402.917969 396.082031 392.875 381.804688 389.777344 369.488281 L 388.988281 369.664062 C 353.761719 369.664062 353.761719 396.082031 353.761719 396.082031 L 353.761719 422.5 C 353.761719 422.5 327.34375 422.5 327.34375 448.921875 L 327.34375 378.46875 C 327.34375 378.46875 327.34375 318.851562 385.996094 316.925781 C 399.652344 299.210938 433.019531 299.210938 433.019531 299.210938 C 461.917969 299.210938 481.351562 306.777344 494.390625 317.097656 C 521.085938 337.875 521.085938 369.664062 521.085938 369.664062 L 521.085938 448.921875 C 521.085938 422.5 494.664062 422.5 494.664062 422.5 L 494.664062 396.082031 " fill-opacity="1" fill-rule="nonzero"/><path fill="#f0d0b4" d="M 494.664062 422.5 C 494.664062 422.5 521.085938 422.5 521.085938 448.921875 C 521.085938 475.339844 494.664062 475.339844 494.664062 475.339844 L 494.664062 422.5 " fill-opacity="1" fill-rule="nonzero"/><path fill="#f0d0b4" d="M 459.4375 554.597656 C 454.519531 557.074219 449.667969 558.828125 444.820312 560.066406 C 428.960938 564.125 414.167969 562.269531 403.78125 559.722656 C 394.699219 557.417969 388.988281 554.597656 388.988281 554.597656 L 388.988281 519.371094 L 390.398438 514.96875 C 399.273438 517.6875 410.382812 519.371094 424.214844 519.371094 C 438.042969 519.371094 449.152344 517.6875 458.027344 514.96875 L 459.4375 519.371094 L 459.4375 554.597656 " fill-opacity="1" fill-rule="nonzero"/><path fill="#f0d0b4" d="M 494.664062 422.5 L 494.664062 475.339844 C 494.664062 475.339844 494.664062 503.789062 458.027344 514.96875 C 449.152344 517.6875 438.042969 519.371094 424.214844 519.371094 C 410.382812 519.371094 399.273438 517.6875 390.398438 514.96875 C 353.761719 503.789062 353.761719 475.339844 353.761719 475.339844 L 353.761719 396.082031 C 353.761719 396.082031 353.761719 369.664062 388.988281 369.664062 L 389.777344 369.488281 C 392.875 381.804688 402.917969 396.082031 433.019531 396.082031 L 494.664062 396.082031 L 494.664062 422.5 " fill-opacity="1" fill-rule="nonzero"/><path fill="#f0d0b4" d="M 353.761719 422.5 L 353.761719 475.339844 C 353.761719 475.339844 327.34375 475.339844 327.34375 448.921875 C 327.34375 422.5 353.761719 422.5 353.761719 422.5 " fill-opacity="1" fill-rule="nonzero"/><g clip-path="url(#8bc96adcc4)"><path fill="#000000" d="M 512.277344 642.664062 L 512.277344 607.4375 L 494.664062 607.4375 L 494.664062 642.664062 L 465.769531 642.664062 L 451.769531 600.554688 C 459.816406 589.445312 459.4375 576.269531 456.308594 565.46875 C 457.890625 564.847656 459.507812 564.195312 461.089844 563.4375 C 473.820312 563.851562 550.289062 569.527344 555.964844 642.664062 Z M 387.199219 563.4375 C 388.402344 563.988281 389.984375 564.640625 392.117188 565.398438 C 388.988281 576.234375 388.574219 589.445312 396.660156 600.554688 L 382.65625 642.664062 L 353.761719 642.664062 L 353.761719 607.4375 L 336.148438 607.4375 L 336.148438 642.664062 L 292.460938 642.664062 C 298.136719 569.699219 374.160156 563.886719 387.199219 563.4375 Z M 424.214844 528.179688 C 434.257812 528.179688 442.996094 527.316406 450.632812 525.804688 L 450.632812 548.851562 C 428.652344 557.625 407.117188 552.019531 397.792969 548.679688 L 397.792969 525.804688 C 405.429688 527.316406 414.167969 528.179688 424.214844 528.179688 Z M 362.570312 475.339844 L 362.570312 396.082031 C 362.570312 395.429688 362.878906 380.84375 383.757812 378.742188 C 385.167969 381.910156 386.855469 385.039062 389.296875 388.03125 C 398.480469 399.210938 413.171875 404.886719 433.019531 404.886719 L 433.019531 387.273438 C 418.777344 387.273438 408.664062 383.800781 402.988281 376.953125 C 395.144531 367.53125 397.621094 353.871094 397.621094 353.734375 L 388.988281 352.050781 L 380.351562 350.328125 C 380.285156 350.707031 379.492188 355.28125 379.769531 361.507812 C 352.558594 365.222656 344.957031 385.074219 344.957031 396.082031 L 344.957031 414.933594 C 341.996094 415.65625 339.039062 416.652344 336.148438 418.199219 L 336.148438 378.503906 C 336.183594 373.753906 337.523438 336.949219 371.960938 327.726562 C 371.582031 329.859375 371.375 332.0625 371.375 334.4375 L 388.988281 334.4375 C 388.988281 308.464844 432.605469 308.015625 433.019531 308.015625 C 510.867188 308.015625 512.242188 367.183594 512.277344 369.664062 L 512.277344 418.199219 C 509.386719 416.652344 506.429688 415.65625 503.472656 414.933594 L 503.472656 387.273438 L 494.664062 387.273438 C 475.953125 387.273438 462.949219 383.042969 456 374.71875 C 448.398438 365.601562 450.460938 353.839844 450.460938 353.699219 L 441.828125 352.050781 L 433.191406 350.328125 C 433.019531 351.121094 429.441406 370.074219 442.238281 385.726562 C 451.390625 396.839844 466.011719 403.167969 485.859375 404.578125 L 485.859375 475.238281 C 485.824219 476.679688 484.3125 510.566406 424.214844 510.566406 C 364.117188 510.566406 362.601562 476.679688 362.570312 475.339844 Z M 336.148438 448.921875 C 336.148438 439.839844 340.449219 435.503906 344.957031 433.371094 L 344.957031 464.503906 C 340.519531 462.40625 336.148438 458.070312 336.148438 448.921875 Z M 522.425781 230.480469 L 568.488281 176.710938 C 619.226562 211.558594 656.757812 264.226562 672.03125 325.628906 L 598.621094 325.628906 C 597.109375 321.363281 595.390625 317.132812 593.53125 312.96875 L 633.195312 270.003906 C 637.632812 265.257812 637.90625 258.34375 633.882812 252.839844 C 629.308594 246.507812 620.84375 244.101562 614 247.300781 L 567.558594 270.519531 C 554.554688 254.523438 539.316406 241.074219 522.425781 230.480469 Z M 341.894531 221.914062 L 294.9375 167.148438 C 332.882812 144.789062 377.050781 131.886719 424.214844 131.886719 C 471.375 131.886719 515.546875 144.789062 553.488281 167.148438 L 506.808594 221.605469 C 481.59375 209.046875 453.523438 202.339844 424.214844 202.339844 C 394.628906 202.339844 366.730469 209.496094 341.894531 221.914062 Z M 250.078125 325.628906 L 176.394531 325.628906 C 191.667969 264.226562 229.199219 211.558594 279.9375 176.710938 L 326.242188 230.71875 C 291.1875 252.703125 264.113281 286.070312 250.078125 325.628906 Z M 170.097656 412.867188 C 169.238281 404.40625 168.828125 395.804688 168.828125 387.273438 C 168.828125 372.242188 170.203125 357.554688 172.714844 343.242188 L 244.78125 343.242188 C 241.308594 357.382812 239.277344 372.070312 239.277344 387.273438 C 239.277344 393.46875 239.585938 399.695312 240.207031 405.816406 Z M 678.328125 412.867188 L 608.21875 405.816406 C 608.839844 399.695312 609.148438 393.46875 609.148438 387.273438 C 609.148438 372.242188 607.324219 357.519531 603.851562 343.242188 L 675.714844 343.242188 C 678.222656 357.554688 679.601562 372.242188 679.601562 387.273438 C 679.601562 395.804688 679.1875 404.40625 678.328125 412.867188 Z M 509.527344 319.230469 L 610.285156 268.871094 L 528.34375 357.621094 C 526.246094 347.441406 521.289062 332.476562 509.527344 319.230469 Z M 503.472656 464.46875 L 503.472656 433.335938 C 507.910156 435.433594 512.277344 439.769531 512.277344 448.921875 C 512.277344 458 507.976562 462.335938 503.472656 464.46875 Z M 437.734375 589.824219 L 410.695312 589.824219 C 406.359375 583.492188 407.21875 575.855469 409.144531 569.800781 C 414.101562 570.664062 419.570312 571.246094 425.519531 571.246094 C 429.925781 571.246094 434.566406 570.800781 439.316406 570.042969 C 441.207031 576.0625 442 583.597656 437.734375 589.824219 Z M 412.929688 607.4375 L 435.496094 607.4375 L 447.226562 642.664062 L 401.199219 642.664062 Z M 468.246094 546.375 L 468.246094 520.507812 C 491.980469 510.566406 499.757812 493.261719 502.234375 483.21875 C 515.304688 480.429688 529.890625 470.453125 529.890625 448.921875 L 529.890625 381.910156 L 580.390625 327.210938 C 587.753906 346.304688 591.535156 366.429688 591.535156 387.273438 C 591.535156 395.703125 590.917969 404.132812 589.679688 412.386719 L 588.300781 421.539062 L 693.671875 432.132812 L 694.804688 423.671875 C 696.386719 411.699219 697.214844 399.453125 697.214844 387.273438 C 697.214844 236.738281 574.75 114.273438 424.214844 114.273438 C 273.679688 114.273438 151.214844 236.738281 151.214844 387.273438 C 151.214844 399.453125 152.039062 411.699219 153.621094 423.671875 L 154.757812 432.132812 L 260.125 421.539062 L 258.75 412.386719 C 257.511719 404.132812 256.890625 395.703125 256.890625 387.273438 C 256.890625 295.015625 331.953125 219.953125 424.214844 219.953125 C 473.785156 219.953125 519.570312 241.210938 551.425781 278.605469 L 495.148438 306.746094 C 481.007812 297.179688 461.089844 290.402344 433.019531 290.402344 C 418.503906 290.402344 395.214844 294.703125 381.796875 308.394531 C 332.054688 312.214844 318.535156 355.179688 318.535156 378.46875 L 318.535156 448.921875 C 318.535156 470.453125 333.121094 480.429688 346.195312 483.21875 C 348.671875 493.261719 356.445312 510.566406 380.179688 520.507812 L 380.179688 546.375 C 353.347656 549.023438 274.503906 564.332031 274.503906 651.46875 L 274.503906 660.273438 L 573.921875 660.273438 L 573.921875 651.46875 C 573.921875 564.332031 495.078125 549.023438 468.246094 546.375 " fill-opacity="1" fill-rule="nonzero"/></g><path fill="#000000" d="M 457.683594 480.601562 L 443.582031 470.078125 C 441.242188 473.207031 432.433594 482.183594 423.25 482.183594 C 417.058594 482.183594 410.867188 478.125 404.847656 470.078125 L 390.742188 480.601562 C 400.304688 493.332031 411.210938 499.796875 423.25 499.796875 C 443.066406 499.796875 457.101562 481.394531 457.683594 480.601562 " fill-opacity="1" fill-rule="nonzero"/><path fill="#000000" d="M 397.792969 431.308594 C 397.792969 426.457031 393.839844 422.5 388.988281 422.5 C 384.136719 422.5 380.179688 426.457031 380.179688 431.308594 C 380.179688 436.15625 384.136719 440.113281 388.988281 440.113281 C 393.839844 440.113281 397.792969 436.15625 397.792969 431.308594 " fill-opacity="1" fill-rule="nonzero"/><path fill="#000000" d="M 459.4375 440.113281 C 464.289062 440.113281 468.246094 436.15625 468.246094 431.308594 C 468.246094 426.457031 464.289062 422.5 459.4375 422.5 C 454.589844 422.5 450.632812 426.457031 450.632812 431.308594 C 450.632812 436.15625 454.589844 440.113281 459.4375 440.113281 " fill-opacity="1" fill-rule="nonzero"/><g clip-path="url(#5efcb210c4)"><path fill="#000000" d="M 186.4375 607.4375 L 256.890625 607.4375 C 267.519531 607.4375 283.308594 600.382812 283.308594 581.015625 C 283.308594 561.617188 267.519531 554.597656 256.890625 554.597656 L 230.574219 554.597656 C 226.515625 554.496094 221.664062 552.878906 221.664062 545.792969 C 221.664062 538.703125 226.515625 537.089844 230.472656 536.984375 L 292.117188 536.984375 C 306.289062 536.984375 327.34375 527.59375 327.34375 501.757812 C 327.34375 475.925781 306.289062 466.53125 292.117188 466.53125 L 212.960938 466.53125 C 208.902344 466.429688 204.050781 464.8125 204.050781 457.726562 C 204.050781 450.640625 208.902344 449.023438 212.859375 448.921875 L 300.921875 448.921875 L 300.921875 431.308594 L 212.859375 431.308594 C 202.230469 431.308594 186.4375 438.324219 186.4375 457.726562 C 186.4375 477.128906 202.230469 484.144531 212.859375 484.144531 L 292.117188 484.144531 C 295.074219 484.144531 309.730469 485.007812 309.730469 501.757812 C 309.730469 517.859375 296.210938 519.304688 292.117188 519.371094 L 230.472656 519.371094 C 219.84375 519.371094 204.050781 526.390625 204.050781 545.792969 C 204.050781 565.191406 219.84375 572.210938 230.472656 572.210938 L 256.789062 572.210938 C 260.847656 572.3125 265.699219 573.929688 265.699219 581.015625 C 265.699219 588.101562 260.847656 589.71875 256.890625 589.824219 L 186.4375 589.824219 C 172.265625 589.824219 151.214844 599.214844 151.214844 625.050781 C 151.214844 650.882812 172.265625 660.273438 186.4375 660.273438 L 256.890625 660.273438 L 256.890625 642.664062 L 186.4375 642.664062 C 183.515625 642.664062 168.828125 641.800781 168.828125 625.050781 C 168.828125 608.984375 182.347656 607.503906 186.4375 607.4375 " fill-opacity="1" fill-rule="nonzero"/></g><g clip-path="url(#8b699df9fd)"><path fill="#000000" d="M 661.988281 589.824219 L 591.640625 589.824219 C 587.578125 589.71875 582.730469 588.101562 582.730469 581.015625 C 582.730469 573.929688 587.578125 572.3125 591.535156 572.210938 L 617.957031 572.210938 C 628.585938 572.210938 644.375 565.191406 644.375 545.792969 C 644.375 526.390625 628.585938 519.371094 617.957031 519.371094 L 556.308594 519.371094 C 553.351562 519.371094 538.699219 518.511719 538.699219 501.757812 C 538.699219 485.660156 552.214844 484.214844 556.308594 484.144531 L 635.566406 484.144531 C 646.199219 484.144531 661.988281 477.128906 661.988281 457.726562 C 661.988281 438.324219 646.199219 431.308594 635.566406 431.308594 L 547.503906 431.308594 L 547.503906 448.921875 L 635.464844 448.921875 C 639.523438 449.023438 644.375 450.640625 644.375 457.726562 C 644.375 464.8125 639.523438 466.429688 635.566406 466.53125 L 556.308594 466.53125 C 542.136719 466.53125 521.085938 475.925781 521.085938 501.757812 C 521.085938 527.59375 542.136719 536.984375 556.308594 536.984375 L 617.851562 536.984375 C 621.910156 537.089844 626.761719 538.703125 626.761719 545.792969 C 626.761719 552.878906 621.910156 554.496094 617.957031 554.597656 L 591.535156 554.597656 C 580.90625 554.597656 565.117188 561.617188 565.117188 581.015625 C 565.117188 600.382812 580.90625 607.4375 591.535156 607.4375 L 661.988281 607.4375 C 664.945312 607.4375 679.601562 608.296875 679.601562 625.050781 C 679.601562 641.113281 666.082031 642.59375 661.988281 642.664062 L 591.535156 642.664062 L 591.535156 660.273438 L 661.988281 660.273438 C 676.160156 660.273438 697.214844 650.882812 697.214844 625.050781 C 697.214844 599.214844 676.160156 589.824219 661.988281 589.824219 " fill-opacity="1" fill-rule="nonzero"/></g></svg>