<svg xmlns="http://www.w3.org/2000/svg" xmlns:xlink="http://www.w3.org/1999/xlink" width="1080" zoomAndPan="magnify" viewBox="0 0 810 809.999993" height="1080" preserveAspectRatio="xMidYMid meet" version="1.0"><path fill="#6d2a21" d="M -8 505.605469 C -4.949219 529.558594 26.421875 546.128906 27.90625 547.34375 C 12.039062 525.203125 -1.535156 496.144531 23.820312 469.097656 C 62.835938 427.496094 44.503906 384.960938 26.136719 355.347656 C 13.125 334.375 14.253906 313.535156 29.214844 293.335938 C 20.234375 301.238281 11.742188 310.972656 6.46875 322.40625 C -0.582031 337.707031 9.542969 352.929688 20.261719 369.042969 C 29.8125 383.398438 39.683594 398.242188 36.484375 413.421875 C 30.816406 440.316406 17.875 456.128906 7.480469 468.835938 C -2.582031 481.140625 -10.535156 490.855469 -8 505.605469 Z M 213.652344 101.390625 C 245.398438 94.78125 276.945312 110.429688 282.242188 151.792969 C 287.535156 193.152344 338.175781 168.871094 367.398438 192.578125 C 396.625 216.289062 390.964844 243.753906 360.714844 297.640625 C 345.148438 325.367188 364.847656 344.472656 387.386719 361.789062 C 384.761719 358.492188 382.445312 355.183594 380.410156 351.847656 C 373.746094 340.902344 370.308594 329.835938 369.90625 318.015625 C 369.132812 295.15625 379.910156 272.632812 391.980469 249.648438 C 408.25 218.679688 401.226562 194.40625 371.660156 179.460938 C 357.035156 172.0625 343.242188 171.007812 331.074219 170.082031 C 321.03125 169.308594 310.074219 169.011719 302.757812 164.757812 C 295.890625 160.765625 290.808594 152.792969 286.980469 140.496094 C 277.097656 108.71875 250.792969 80.980469 214.316406 90.65625 C 203.09375 93.632812 195.058594 99.296875 190.429688 107.503906 C 184.855469 117.398438 184.105469 129.433594 185.273438 136.71875 C 185.878906 125.566406 191.503906 106.003906 213.652344 101.390625 Z M 33.390625 412.835938 C 36.335938 398.859375 26.8125 384.542969 17.601562 370.695312 C 6.902344 354.613281 -4.15625 337.980469 3.585938 321.1875 C 11.691406 303.597656 53.871094 264.269531 61.25 255.347656 C 81.871094 230.398438 65.738281 195.460938 75.636719 162.753906 C 86.664062 126.292969 144.21875 105.667969 184.777344 143.113281 C 181.089844 139.710938 179.375 120.78125 187.652344 106.078125 C 192.699219 97.105469 201.394531 90.929688 213.496094 87.722656 C 231.027344 83.074219 247.859375 86.433594 262.15625 97.4375 C 274.644531 107.046875 284.335938 122.089844 290.011719 139.613281 C 299.132812 167.789062 309.957031 165.683594 331.132812 167.789062 C 344.921875 169.164062 357.945312 169.082031 373.144531 176.765625 C 404.050781 192.390625 411.738281 218.761719 394.796875 251.007812 C 382.917969 273.621094 372.3125 295.753906 373.066406 317.898438 C 373.707031 336.835938 380.875 353.359375 399.101562 370.976562 C 415.792969 383.5625 424.550781 395.363281 423.824219 410.300781 C 421.933594 449.234375 368.675781 468.75 400.535156 514.671875 C 432.988281 561.441406 358.058594 592.472656 208.761719 593.558594 C 94.183594 594.390625 23.910156 547.835938 21.367188 546.003906 C 6.25 535.121094 -8.417969 521.792969 -11.113281 506.117188 C -13.875 490.046875 -5.546875 479.863281 5.007812 466.964844 C 15.195312 454.515625 27.871094 439.019531 33.390625 412.835938 " fill-opacity="1" fill-rule="nonzero"/><path fill="#491d14" d="M 136.144531 283.414062 C 136.144531 283.414062 147.355469 308.917969 144.71875 328.738281 C 142.078125 348.558594 123.378906 363.667969 123.378906 363.667969 L 280.746094 366.664062 C 280.746094 366.664062 260.066406 348.796875 257.664062 327.832031 C 255.066406 305.117188 265.640625 285.167969 265.640625 285.167969 L 136.144531 283.414062 " fill-opacity="1" fill-rule="nonzero"/><path fill="#6a5baa" d="M 312.894531 657.925781 C 312.894531 693.261719 266.109375 713.28125 204 713.28125 C 141.894531 713.28125 87.984375 693.261719 87.984375 657.925781 C 87.984375 622.589844 138.332031 593.945312 200.4375 593.945312 C 262.546875 593.945312 312.894531 622.589844 312.894531 657.925781 " fill-opacity="1" fill-rule="nonzero"/><path fill="#f99680" d="M 294.949219 475.714844 C 299.8125 483.882812 326.757812 533.84375 336.3125 558.6875 L 376.042969 566.375 C 377.601562 566.679688 379.027344 565.410156 378.8125 563.851562 C 370.476562 504.15625 324.042969 397.183594 314.128906 383.730469 C 305.800781 372.425781 256.027344 358.148438 242.007812 354.847656 C 239.296875 354.207031 234.710938 352.273438 232.867188 350.261719 C 219.078125 335.25 224.625 297.726562 224.625 297.726562 L 176.5 298.019531 C 176.5 298.019531 181.585938 329.921875 169.457031 347.042969 C 166.804688 350.789062 160.40625 352.511719 155.964844 354.058594 C 139.832031 359.691406 101.113281 366.714844 88.613281 381.6875 C 81.050781 390.746094 26.957031 552.667969 33.976562 568.542969 L 77.769531 554.476562 C 88.53125 526.890625 109.855469 484.683594 113.390625 472.117188 C 117.695312 477.664062 130.800781 522.390625 129.488281 544.851562 C 125.441406 614.171875 108.546875 631.859375 108.546875 631.859375 C 108.546875 631.859375 139.683594 647.914062 204.640625 647.828125 C 279.617188 647.730469 300.023438 642.125 300.023438 642.125 C 300.023438 642.125 281.0625 615.726562 279.796875 547.296875 C 279.339844 522.796875 293.898438 483.789062 294.949219 475.714844 " fill-opacity="1" fill-rule="nonzero"/><path fill="#ffc44d" d="M 313.964844 380.226562 C 296.769531 363.230469 239.425781 353.921875 238.140625 353.53125 C 238.140625 353.53125 235.992188 381.84375 198.882812 381.90625 C 169.171875 381.953125 161.527344 352.191406 161.527344 352.191406 C 161.527344 352.191406 104.425781 360.175781 86.507812 381.6875 C 64.96875 407.550781 43.894531 479.046875 44.355469 481.660156 C 44.8125 484.273438 58.816406 492.859375 75.367188 497.308594 C 91.914062 501.761719 105.300781 503.191406 106.90625 502.300781 C 107.445312 502.003906 111.949219 493.398438 115.664062 485.363281 C 123.054688 495.011719 129.847656 541.046875 129.488281 547.144531 C 125.433594 616.667969 107.160156 628.78125 107.160156 628.78125 C 107.160156 628.78125 138.644531 649.894531 203.78125 649.800781 C 278.984375 649.703125 300.023438 642.125 300.023438 642.125 C 300.023438 642.125 279.339844 618.816406 278.070312 550.191406 C 277.917969 541.957031 287.382812 500.800781 292.726562 484.613281 C 296.460938 492.402344 299.320312 501.300781 299.855469 501.59375 C 301.460938 502.484375 312.722656 503.152344 329.273438 498.699219 C 345.816406 494.25 364.25 482.234375 364.710938 479.625 C 365.167969 477.011719 337.601562 403.597656 313.964844 380.226562 " fill-opacity="1" fill-rule="nonzero"/><path fill="#fd8b1a" d="M 292.984375 486.613281 C 296.554688 493.496094 299.25 501.453125 299.789062 501.746094 C 300.625 502.207031 305.273438 502.902344 315.582031 501.5 C 315.582031 501.5 300.113281 475.898438 289.539062 451.433594 C 288.527344 449.09375 286.878906 449.355469 286.996094 451.890625 C 289.816406 511.445312 238.101562 506.800781 237.90625 509.3125 C 237.679688 512.253906 264.625 515.148438 275.035156 508.457031 C 275.074219 508.429688 275.121094 508.425781 275.171875 508.414062 C 279.082031 507.078125 277.007812 535.734375 276.371094 554.464844 C 274.9375 597.003906 248.410156 639.558594 202.902344 637.945312 C 153.570312 636.195312 136.84375 581.203125 134.765625 549.300781 C 133.863281 535.476562 133.164062 507.253906 133.164062 507.253906 C 149.136719 515.148438 171.003906 510.863281 170.890625 508.667969 C 170.726562 505.574219 126.949219 507.324219 121.863281 452.496094 C 121.582031 449.410156 120.050781 449.550781 119.058594 452.496094 C 109.121094 481.867188 95.4375 501.613281 95.4375 501.613281 C 101.417969 502.640625 106.074219 502.761719 106.90625 502.300781 C 107.445312 502.003906 111.933594 493.414062 115.648438 485.375 C 116.082031 487.070312 115.773438 485.222656 116.082031 487.070312 C 130.867188 575.835938 96.101562 633.914062 96.101562 633.914062 C 96.101562 633.914062 139.390625 653.699219 204.53125 653.613281 C 279.726562 653.511719 309.300781 641.097656 309.300781 641.097656 C 309.300781 641.097656 277.039062 581.066406 292.984375 486.613281 " fill-opacity="1" fill-rule="nonzero"/><path fill="#e87e6d" d="M 225.855469 336.070312 C 223.1875 320.835938 224.578125 310.179688 224.578125 310.179688 L 177.523438 310.472656 C 177.523438 310.472656 177.992188 320.839844 175.054688 334.640625 C 191.359375 348.191406 208.148438 349.511719 225.855469 336.070312 " fill-opacity="1" fill-rule="nonzero"/><path fill="#e87e6d" d="M 100.722656 502.335938 L 95.4375 501.613281 C 81 533.082031 55.804688 549.34375 55.804688 549.34375 C 55.804688 549.34375 76.648438 541.820312 81.3125 545.75 C 86.105469 533.679688 96.292969 516.007812 100.722656 502.335938 " fill-opacity="1" fill-rule="nonzero"/><path fill="#e87e6d" d="M 309.265625 502.167969 L 315.582031 501.5 C 335.679688 540.148438 353.1875 548.355469 353.1875 548.355469 C 353.1875 548.355469 341.054688 543.304688 330.933594 545.949219 C 330.933594 545.949219 316.707031 516.945312 309.265625 502.167969 " fill-opacity="1" fill-rule="nonzero"/><path fill="#f99680" d="M 35.011719 570.003906 C 33.367188 568.039062 33.535156 565.289062 35.464844 563.601562 C 43.867188 556.246094 81.3125 545.75 81.3125 545.75 C 108.300781 552.765625 158.402344 585.515625 185.925781 595.988281 C 189.769531 597.449219 194.3125 599.5 196.75 602.417969 C 200.878906 607.359375 204.339844 613.863281 197.414062 615.039062 C 186.441406 616.910156 97.066406 601.605469 81.046875 598.023438 C 62.035156 593.78125 40.480469 576.539062 35.011719 570.003906 " fill-opacity="1" fill-rule="nonzero"/><path fill="#e87e6d" d="M 115.679688 598.421875 C 80.714844 593.558594 63.453125 587.128906 33.351562 564.230469 C 33.351562 564.230469 33.351562 568.375 34.539062 569.835938 C 39.914062 576.445312 61.921875 593.765625 80.929688 598.011719 C 96.960938 601.585938 186.324219 616.890625 197.304688 615.023438 C 199.519531 614.648438 200.8125 613.6875 201.414062 612.40625 C 177.566406 611.777344 148.441406 602.976562 115.679688 598.421875 " fill-opacity="1" fill-rule="nonzero"/><path fill="#f99680" d="M 378.773438 563.570312 L 331.578125 545.699219 C 302.605469 557.003906 251.992188 579.960938 227.683594 592.734375 C 224.054688 594.640625 217.8125 598.253906 215.378906 601.175781 C 211.265625 606.121094 209.222656 612.90625 216.152344 614.074219 C 227.128906 615.921875 316.46875 600.464844 332.492188 596.863281 C 351.496094 592.585938 379.355469 570.261719 378.773438 563.570312 " fill-opacity="1" fill-rule="nonzero"/><path fill="#e87e6d" d="M 297.855469 597.3125 C 332.816406 592.390625 348.253906 583.492188 378.316406 560.539062 C 378.914062 562.382812 379.214844 567.320312 378.28125 568.441406 C 372.816406 574.984375 351.605469 592.570312 332.605469 596.847656 C 316.582031 600.453125 227.242188 615.910156 216.265625 614.058594 C 214.042969 613.6875 212.75 612.730469 212.148438 611.445312 C 235.992188 610.773438 265.097656 601.929688 297.855469 597.3125 " fill-opacity="1" fill-rule="nonzero"/><path fill="#f99680" d="M 241.785156 604.640625 C 239.160156 596.730469 230.582031 592.890625 223.410156 596.445312 C 219.863281 598.199219 216.230469 600.429688 214.132812 602.957031 C 209.042969 609.0625 205.433594 628.75 208.371094 645.890625 C 211.300781 663.027344 231.609375 649.089844 240.269531 629.035156 C 244.421875 619.417969 243.890625 610.988281 241.785156 604.640625 " fill-opacity="1" fill-rule="nonzero"/><path fill="#e87e6d" d="M 238.03125 621.753906 C 241.1875 614.441406 241.625 607.832031 240.742188 602.289062 C 241.144531 603.027344 241.496094 603.804688 241.773438 604.640625 C 243.878906 610.988281 244.410156 619.417969 240.257812 629.035156 C 231.597656 649.089844 211.292969 663.027344 208.359375 645.890625 C 208.234375 645.15625 208.136719 644.414062 208.035156 643.675781 C 214.042969 652.09375 230.472656 639.257812 238.03125 621.753906 " fill-opacity="1" fill-rule="nonzero"/><path fill="#f99680" d="M 171.144531 606.636719 C 173.757812 598.726562 182.328125 594.875 189.503906 598.410156 C 193.054688 600.152344 197.570312 603.5 197.570312 603.5 C 202.667969 609.605469 209.003906 630.96875 204.640625 647.828125 C 201.339844 660.566406 181.402344 651.070312 172.707031 631.03125 C 168.539062 621.417969 169.046875 612.992188 171.144531 606.636719 " fill-opacity="1" fill-rule="nonzero"/><path fill="#e87e6d" d="M 174.921875 623.746094 C 171.753906 616.441406 171.296875 609.828125 172.175781 604.28125 C 171.78125 605.019531 171.421875 605.800781 171.144531 606.636719 C 169.046875 612.992188 168.539062 621.417969 172.707031 631.03125 C 181.402344 651.070312 200.644531 660.566406 204.640625 647.828125 C 204.863281 647.117188 204.855469 646.355469 204.960938 645.613281 C 198.964844 654.042969 182.515625 641.242188 174.921875 623.746094 " fill-opacity="1" fill-rule="nonzero"/><path fill="#e7e0f0" d="M 317.195312 645.644531 L 87.960938 645.644531 C 84.851562 645.644531 81.980469 643.320312 81.578125 640.457031 L 58.5625 476.308594 C 57.984375 472.230469 60.585938 468.871094 64.34375 468.871094 L 340.816406 468.871094 C 344.574219 468.871094 347.171875 472.230469 346.597656 476.308594 L 323.582031 640.457031 C 323.179688 643.320312 320.308594 645.644531 317.195312 645.644531 " fill-opacity="1" fill-rule="nonzero"/><path fill="#c7bdd6" d="M 319.554688 653.902344 L 85.605469 653.902344 C 83.964844 653.902344 82.625 652.585938 82.625 650.980469 L 82.625 648.5625 C 82.625 646.960938 83.964844 645.644531 85.605469 645.644531 L 319.554688 645.644531 C 321.191406 645.644531 322.535156 646.960938 322.535156 648.5625 L 322.535156 650.980469 C 322.535156 652.585938 321.191406 653.902344 319.554688 653.902344 " fill-opacity="1" fill-rule="nonzero"/><path fill="#c7bdd6" d="M 332.480469 474.507812 C 332.480469 474.507812 302.28125 599.535156 179.886719 612.5 C 145.949219 616.09375 113.550781 607.75 86.96875 591.367188 C 85.523438 590.480469 83.683594 591.652344 83.910156 593.304688 L 89.78125 635.152344 C 90.15625 637.828125 92.847656 640.007812 95.757812 640.007812 L 310.367188 640.007812 C 313.28125 640.007812 315.96875 637.828125 316.34375 635.152344 L 337.894531 481.476562 C 338.433594 477.65625 336 474.507812 332.480469 474.507812 " fill-opacity="1" fill-rule="nonzero"/><path fill="#c7bdd6" d="M 229.199219 562.613281 C 229.199219 569.714844 217.28125 575.480469 202.582031 575.480469 C 187.878906 575.480469 175.960938 569.714844 175.960938 562.613281 C 175.960938 555.507812 187.878906 549.746094 202.582031 549.746094 C 217.28125 549.746094 229.199219 555.507812 229.199219 562.613281 " fill-opacity="1" fill-rule="nonzero"/><path fill="#ffffff" d="M 77.679688 479.703125 L 246.484375 468.871094 L 64.3125 468.871094 C 60.558594 468.871094 57.957031 472.230469 58.527344 476.308594 L 77.082031 608.617188 L 71.121094 486.902344 C 70.933594 483.152344 73.855469 479.953125 77.679688 479.703125 " fill-opacity="1" fill-rule="nonzero"/><path fill="#ff8d6a" d="M 4.601562 628.976562 C 4.601562 628.976562 12.121094 598.0625 71.875 609.179688 C 131.628906 620.292969 198.617188 669.09375 244.15625 689.164062 C 293.839844 711.070312 302.65625 711.6875 302.65625 711.6875 C 302.65625 711.6875 320.351562 707.457031 342.421875 701.167969 C 378.007812 691.027344 386.011719 703.503906 386.582031 709.164062 C 387.390625 717.160156 384.800781 725.609375 358.859375 732.144531 C 323.707031 740.992188 296.910156 736.589844 296.910156 736.589844 C 284.195312 734.441406 103.175781 720.335938 72.085938 709.558594 C 33.703125 696.253906 -10.574219 666.132812 4.601562 628.976562 " fill-opacity="1" fill-rule="nonzero"/><path fill="#c7bdd6" d="M 295.109375 712.363281 C 295.109375 712.363281 346.628906 689.414062 363.097656 689.066406 C 377.570312 688.765625 394.828125 702.042969 393.445312 713.839844 C 392.058594 725.636719 377.433594 738.675781 351.941406 739.660156 C 330.464844 740.496094 289.050781 737.3125 289.050781 737.3125 C 289.050781 737.3125 298.605469 728.421875 295.109375 712.363281 " fill-opacity="1" fill-rule="nonzero"/><path fill="#e7e0f0" d="M 289.050781 737.3125 C 289.050781 737.3125 298.605469 728.421875 295.109375 712.363281 C 295.109375 712.363281 337.449219 693.347656 357.632812 689.566406 C 371.140625 691.328125 385.441406 703.308594 384.171875 714.089844 C 382.863281 725.230469 369.738281 737.464844 346.808594 739.621094 C 324.5 739.878906 289.050781 737.3125 289.050781 737.3125 " fill-opacity="1" fill-rule="nonzero"/><path fill="#c7bdd6" d="M 295.796875 717.042969 C 295.796875 717.042969 330.03125 705.621094 343.9375 704.625 C 357.84375 703.628906 363.738281 710.558594 363.949219 715.464844 C 364.167969 720.363281 356.179688 728.769531 345.21875 729.640625 C 334.257812 730.507812 295.058594 726.070312 295.058594 726.070312 C 295.058594 726.070312 296.003906 721.675781 295.796875 717.042969 " fill-opacity="1" fill-rule="nonzero"/><path fill="#ffffff" d="M 344.421875 701.082031 C 344.421875 701.082031 345.21875 703.183594 346.011719 706.144531 C 346.417969 707.625 346.789062 709.332031 347.074219 711.140625 C 347.339844 712.953125 347.527344 714.871094 347.492188 716.792969 C 347.558594 718.722656 347.304688 720.628906 347.117188 722.46875 C 346.78125 724.277344 346.511719 726.023438 346.121094 727.519531 C 345.835938 729.058594 345.414062 730.300781 345.21875 731.242188 C 345 732.175781 344.914062 732.746094 344.914062 732.746094 C 344.914062 732.746094 345.339844 732.394531 346.027344 731.707031 C 346.695312 731.011719 347.753906 730.046875 348.601562 728.609375 C 349.59375 727.238281 350.429688 725.445312 351.152344 723.433594 C 351.800781 721.390625 352.175781 719.097656 352.203125 716.785156 C 352.136719 714.476562 351.820312 712.160156 351.082031 710.128906 C 350.394531 708.09375 349.453125 706.316406 348.433594 704.960938 C 346.46875 702.179688 344.421875 701.082031 344.421875 701.082031 " fill-opacity="1" fill-rule="nonzero"/><path fill="#ffffff" d="M 328.019531 701.792969 C 328.019531 701.792969 328.820312 703.894531 329.613281 706.855469 C 330.015625 708.339844 330.386719 710.042969 330.671875 711.859375 C 330.9375 713.667969 331.128906 715.589844 331.097656 717.507812 C 331.160156 719.433594 330.90625 721.339844 330.714844 723.183594 C 330.386719 724.992188 330.113281 726.734375 329.722656 728.234375 C 329.441406 729.769531 329.011719 731.011719 328.816406 731.957031 C 328.605469 732.894531 328.511719 733.457031 328.511719 733.457031 C 328.511719 733.457031 328.933594 733.105469 329.628906 732.425781 C 330.292969 731.726562 331.351562 730.765625 332.199219 729.320312 C 333.191406 727.957031 334.035156 726.15625 334.753906 724.144531 C 335.402344 722.101562 335.777344 719.816406 335.804688 717.496094 C 335.734375 715.1875 335.417969 712.875 334.683594 710.84375 C 333.996094 708.8125 333.054688 707.035156 332.03125 705.675781 C 330.066406 702.894531 328.019531 701.792969 328.019531 701.792969 " fill-opacity="1" fill-rule="nonzero"/><path fill="#ffffff" d="M 312.769531 705.632812 C 312.769531 705.632812 313.570312 707.371094 314.285156 709.933594 C 314.667969 711.207031 315.015625 712.683594 315.285156 714.257812 C 315.546875 715.832031 315.707031 717.507812 315.6875 719.183594 C 315.742188 720.867188 315.511719 722.539062 315.328125 724.136719 C 315.015625 725.707031 314.753906 727.210938 314.378906 728.5 C 314.097656 729.8125 313.75 730.90625 313.507812 731.683594 C 313.285156 732.464844 313.195312 732.945312 313.195312 732.945312 C 313.195312 732.945312 313.546875 732.632812 314.105469 732.023438 C 314.613281 731.386719 315.546875 730.566406 316.234375 729.3125 C 317.0625 728.128906 317.75 726.582031 318.351562 724.859375 C 318.886719 723.105469 319.199219 721.15625 319.222656 719.179688 C 319.207031 715.207031 317.800781 711.386719 316.09375 709.050781 C 314.425781 706.664062 312.769531 705.632812 312.769531 705.632812 " fill-opacity="1" fill-rule="nonzero"/><path fill="#8577bf" d="M 3.265625 627.71875 C 3.265625 627.71875 14.238281 595.792969 73.925781 607.246094 C 133.613281 618.699219 300.390625 710.429688 300.65625 711.324219 C 303.070312 719.292969 301.527344 732.289062 298.4375 738.222656 C 298.136719 738.800781 98.792969 722.671875 70.382812 712.644531 C 32.074219 699.121094 -12.109375 664.789062 3.265625 627.71875 " fill-opacity="1" fill-rule="nonzero"/><path fill="#6a5baa" d="M 265.667969 695.0625 C 265.667969 695.0625 274.292969 705.160156 265.710938 715.929688 C 260.695312 722.226562 252.394531 726.859375 226.582031 725.757812 C 166.449219 723.1875 113.722656 719.21875 72.265625 705.453125 C 44.601562 696.265625 9.613281 670.460938 0.246094 646.007812 C 2.5 675.695312 38.476562 701.398438 70.382812 712.65625 C 98.789062 722.6875 299.480469 739.257812 299.804688 738.695312 C 304.777344 730.007812 304.941406 715.425781 302.558594 711.261719 C 302.089844 710.449219 272.152344 697.398438 265.667969 695.0625 " fill-opacity="1" fill-rule="nonzero"/><path fill="#ff8d6a" d="M 404.691406 632.234375 C 404.691406 632.234375 397.648438 600.925781 338.359375 611.8125 C 279.074219 622.710938 212.132812 671.683594 166.796875 691.722656 C 117.335938 713.589844 109.953125 714.9375 109.953125 714.9375 C 109.953125 714.9375 95.980469 711.75 70.871094 703.207031 C 53.078125 697.144531 37.417969 703.980469 33.503906 708.1875 C 27.996094 714.101562 37.503906 732.003906 56.589844 737.769531 C 87.050781 746.976562 108.273438 742.542969 108.273438 742.542969 C 120.894531 740.441406 305.929688 724.089844 336.839844 713.367188 C 375.003906 700.132812 419.226562 669.921875 404.691406 632.234375 " fill-opacity="1" fill-rule="nonzero"/><path fill="#c7bdd6" d="M 119.925781 716.972656 C 119.925781 716.972656 67.507812 694.347656 50.835938 694.191406 C 36.183594 694.054688 18.863281 707.699219 20.40625 719.617188 C 21.949219 731.546875 36.902344 744.574219 62.71875 745.277344 C 84.472656 745.863281 126.355469 742.160156 126.355469 742.160156 C 126.355469 742.160156 116.578125 733.273438 119.925781 716.972656 " fill-opacity="1" fill-rule="nonzero"/><path fill="#e7e0f0" d="M 126.355469 742.160156 C 126.355469 742.160156 116.578125 733.273438 119.925781 716.972656 C 119.925781 716.972656 76.847656 698.21875 56.378906 694.628906 C 42.71875 696.574219 28.382812 708.871094 29.792969 719.765625 C 31.25 731.023438 44.675781 743.253906 67.917969 745.171875 C 90.5 745.167969 126.355469 742.160156 126.355469 742.160156 " fill-opacity="1" fill-rule="nonzero"/><path fill="#c7bdd6" d="M 119.285156 721.726562 C 119.285156 721.726562 84.5 710.558594 70.414062 709.710938 C 56.328125 708.863281 50.4375 715.953125 50.277344 720.917969 C 50.117188 725.886719 58.300781 734.300781 69.410156 735.050781 C 80.511719 735.804688 120.136719 730.84375 120.136719 730.84375 C 120.136719 730.84375 119.128906 726.414062 119.285156 721.726562 " fill-opacity="1" fill-rule="nonzero"/><path fill="#ffffff" d="M 69.882812 706.132812 C 69.882812 706.132812 69.09375 708.273438 68.328125 711.277344 C 67.933594 712.777344 67.585938 714.511719 67.3125 716.347656 C 67.0625 718.183594 66.894531 720.128906 66.957031 722.074219 C 66.90625 724.023438 67.1875 725.957031 67.402344 727.816406 C 67.757812 729.640625 68.058594 731.398438 68.464844 732.914062 C 68.773438 734.46875 69.21875 735.722656 69.425781 736.671875 C 69.652344 737.613281 69.757812 738.1875 69.757812 738.1875 C 69.757812 738.1875 69.316406 737.839844 68.609375 737.15625 C 67.925781 736.457031 66.847656 735.496094 65.972656 734.042969 C 64.953125 732.675781 64.082031 730.867188 63.328125 728.835938 C 62.648438 726.773438 62.242188 724.457031 62.1875 722.117188 C 62.230469 719.777344 62.519531 717.4375 63.242188 715.371094 C 63.914062 713.300781 64.847656 711.492188 65.863281 710.109375 C 67.820312 707.269531 69.882812 706.132812 69.882812 706.132812 " fill-opacity="1" fill-rule="nonzero"/><path fill="#ffffff" d="M 86.492188 706.664062 C 86.492188 706.664062 85.703125 708.800781 84.9375 711.804688 C 84.542969 713.308594 84.195312 715.039062 83.921875 716.875 C 83.671875 718.71875 83.503906 720.660156 83.566406 722.605469 C 83.515625 724.554688 83.796875 726.484375 84.007812 728.339844 C 84.375 730.171875 84.667969 731.929688 85.074219 733.445312 C 85.382812 734.996094 85.828125 736.253906 86.035156 737.207031 C 86.261719 738.144531 86.359375 738.71875 86.359375 738.71875 C 86.359375 738.71875 85.933594 738.367188 85.21875 737.683594 C 84.535156 736.988281 83.457031 736.019531 82.582031 734.578125 C 81.554688 733.203125 80.691406 731.394531 79.9375 729.363281 C 79.257812 727.296875 78.851562 724.992188 78.796875 722.648438 C 78.835938 720.308594 79.128906 717.960938 79.851562 715.898438 C 80.523438 713.828125 81.457031 712.019531 82.472656 710.636719 C 84.433594 707.800781 86.492188 706.664062 86.492188 706.664062 " fill-opacity="1" fill-rule="nonzero"/><path fill="#ffffff" d="M 101.972656 710.375 C 101.972656 710.375 101.183594 712.132812 100.488281 714.742188 C 100.121094 716.035156 99.78125 717.535156 99.527344 719.128906 C 99.285156 720.726562 99.136719 722.425781 99.175781 724.121094 C 99.140625 725.828125 99.390625 727.515625 99.597656 729.128906 C 99.933594 730.714844 100.222656 732.234375 100.609375 733.535156 C 100.914062 734.859375 101.277344 735.960938 101.527344 736.742188 C 101.757812 737.535156 101.863281 738.019531 101.863281 738.019531 C 101.863281 738.019531 101.5 737.710938 100.929688 737.097656 C 100.40625 736.460938 99.453125 735.640625 98.742188 734.382812 C 97.886719 733.191406 97.175781 731.632812 96.546875 729.894531 C 95.988281 728.128906 95.644531 726.152344 95.601562 724.152344 C 95.570312 720.140625 96.949219 716.25 98.644531 713.867188 C 100.304688 711.433594 101.972656 710.375 101.972656 710.375 " fill-opacity="1" fill-rule="nonzero"/><path fill="#8577bf" d="M 406.023438 630.976562 C 406.023438 630.976562 395.585938 598.609375 336.359375 609.847656 C 277.125 621.085938 210.449219 670.449219 165.222656 690.757812 C 139.511719 702.296875 120.128906 708.738281 111.335938 711.652344 C 110.464844 711.9375 110.089844 713.007812 110.582031 713.808594 C 113.105469 717.917969 114.503906 720.140625 115.507812 727.039062 C 116.160156 731.535156 115.742188 737.480469 112.964844 741.496094 C 112.589844 742.039062 113.015625 742.78125 113.648438 742.710938 C 149.824219 738.621094 310.242188 726.480469 338.484375 716.5 C 376.582031 703.042969 420.761719 668.570312 406.023438 630.976562 " fill-opacity="1" fill-rule="nonzero"/><path fill="#6a5baa" d="M 184.371094 681.253906 C 184.371094 681.253906 131.382812 705.867188 131.859375 717.347656 C 132.269531 727.042969 142.183594 731.746094 167.746094 730.785156 C 227.296875 728.542969 317.976562 712.863281 335.988281 706.496094 C 363.320312 696.839844 399.1875 674.179688 408.773438 649.496094 C 406.15625 679.519531 370.210938 705.308594 338.484375 716.519531 C 310.242188 726.496094 113.015625 743.820312 112.910156 743.167969 C 111.988281 737.480469 109.617188 718.210938 110.050781 712.253906 C 110.121094 711.316406 184.371094 681.253906 184.371094 681.253906 " fill-opacity="1" fill-rule="nonzero"/><path fill="#f9e7e2" d="M 199.433594 381.367188 C 170.402344 381.367188 161.71875 352.058594 161.71875 352.058594 C 161.71875 352.058594 157.183594 352.523438 148.964844 354.445312 C 152.863281 375.261719 172.476562 392.816406 199.894531 392.816406 C 226.679688 392.816406 247.34375 376.355469 252.003906 356.289062 C 244.253906 354.507812 238.359375 353.574219 237.972656 353.457031 C 237.972656 353.457031 234.535156 381.367188 199.433594 381.367188 " fill-opacity="1" fill-rule="nonzero"/><path fill="#491d14" d="M 134.71875 313.515625 C 134.71875 313.515625 135.167969 314.355469 135.640625 315.964844 C 135.855469 316.769531 136.144531 317.761719 136.300781 318.917969 C 136.390625 319.5 136.476562 320.117188 136.570312 320.777344 C 136.621094 321.433594 136.628906 322.121094 136.667969 322.855469 C 136.730469 324.3125 136.617188 325.898438 136.410156 327.566406 C 136.128906 329.214844 135.875 330.996094 135.242188 332.742188 C 134.777344 334.542969 133.90625 336.25 133.09375 338.019531 C 132.691406 338.910156 132.109375 339.703125 131.601562 340.546875 C 131.046875 341.355469 130.578125 342.246094 129.949219 342.996094 L 128.050781 345.242188 C 127.425781 346.007812 126.773438 346.730469 126.035156 347.34375 C 125.324219 347.996094 124.613281 348.628906 123.902344 349.246094 L 122.847656 350.164062 C 122.496094 350.457031 122.09375 350.691406 121.722656 350.953125 C 120.21875 351.96875 118.753906 352.929688 117.335938 353.769531 C 115.871094 354.519531 114.453125 355.171875 113.15625 355.757812 C 112.503906 356.050781 111.894531 356.363281 111.289062 356.59375 C 110.667969 356.789062 110.078125 356.976562 109.523438 357.148438 C 108.421875 357.503906 107.445312 357.761719 106.652344 357.984375 C 105.054688 358.429688 104.136719 358.621094 104.136719 358.621094 C 104.136719 358.621094 104.902344 358.035156 106.253906 357.105469 C 106.929688 356.644531 107.742188 356.074219 108.691406 355.476562 C 109.164062 355.171875 109.664062 354.847656 110.195312 354.503906 C 110.695312 354.128906 111.230469 353.738281 111.777344 353.324219 C 112.875 352.496094 114.050781 351.609375 115.332031 350.734375 C 116.527344 349.746094 117.71875 348.632812 119.007812 347.578125 C 120.339844 346.5625 121.398438 345.191406 122.675781 344.023438 C 123.324219 343.441406 123.859375 342.75 124.402344 342.070312 L 126.066406 340.058594 C 126.644531 339.394531 127.046875 338.625 127.542969 337.917969 C 127.996094 337.179688 128.582031 336.519531 128.949219 335.75 C 129.726562 334.230469 130.632812 332.796875 131.199219 331.257812 C 131.898438 329.769531 132.378906 328.261719 132.859375 326.816406 C 133.121094 326.097656 133.214844 325.359375 133.417969 324.671875 C 133.609375 323.976562 133.792969 323.296875 133.886719 322.632812 C 134.007812 321.964844 134.121094 321.328125 134.226562 320.722656 C 134.304688 320.109375 134.378906 319.519531 134.449219 318.976562 C 134.574219 317.871094 134.636719 316.898438 134.683594 316.089844 C 134.699219 315.28125 134.75 314.632812 134.726562 314.195312 C 134.722656 313.753906 134.71875 313.515625 134.71875 313.515625 " fill-opacity="1" fill-rule="nonzero"/><path fill="#491d14" d="M 275.578125 308.773438 C 275.578125 308.773438 275.492188 309.605469 275.328125 311.058594 C 275.183594 312.507812 275.011719 314.5625 274.867188 316.996094 C 274.816406 318.210938 274.78125 319.527344 274.757812 320.902344 C 274.738281 322.28125 274.8125 323.726562 274.871094 325.207031 C 275.066406 328.164062 275.429688 331.28125 276.234375 334.25 C 276.617188 335.746094 277.097656 337.199219 277.675781 338.585938 C 277.921875 339.296875 278.296875 339.941406 278.582031 340.628906 C 278.910156 341.285156 279.292969 341.902344 279.617188 342.550781 C 280.003906 343.152344 280.382812 343.75 280.757812 344.332031 C 281.171875 344.890625 281.5625 345.457031 281.96875 345.984375 C 282.402344 346.5 282.828125 346.992188 283.238281 347.476562 C 283.671875 347.9375 284.101562 348.382812 284.511719 348.816406 C 284.90625 349.269531 285.367188 349.601562 285.757812 349.992188 C 286.164062 350.359375 286.53125 350.746094 286.925781 351.039062 C 287.714844 351.632812 288.347656 352.253906 288.941406 352.664062 C 290.109375 353.511719 290.777344 354.054688 290.777344 354.054688 C 290.777344 354.054688 289.960938 353.875 288.527344 353.449219 C 287.8125 353.253906 286.984375 352.890625 286.019531 352.496094 C 285.070312 352.070312 284.011719 351.53125 282.914062 350.832031 C 282.371094 350.46875 281.804688 350.089844 281.226562 349.691406 C 280.671875 349.253906 280.121094 348.769531 279.542969 348.285156 C 278.988281 347.769531 278.449219 347.203125 277.878906 346.640625 C 277.335938 346.058594 276.847656 345.402344 276.316406 344.761719 C 275.355469 343.402344 274.421875 341.941406 273.699219 340.34375 C 272.933594 338.769531 272.363281 337.082031 271.902344 335.378906 C 271.472656 333.667969 271.160156 331.9375 271.015625 330.226562 C 270.839844 328.515625 270.855469 326.828125 270.914062 325.214844 C 271.097656 321.980469 271.648438 319.027344 272.34375 316.574219 C 273.027344 314.117188 273.839844 312.15625 274.476562 310.820312 C 275.109375 309.484375 275.578125 308.773438 275.578125 308.773438 " fill-opacity="1" fill-rule="nonzero"/><path fill="#f99680" d="M 270.828125 245.253906 C 269.578125 245.363281 268.425781 245.652344 267.351562 246.089844 C 267.277344 198.398438 240.40625 174.074219 204.449219 173.574219 C 168.40625 173.074219 136.757812 196.769531 135.527344 244.601562 C 134.265625 243.933594 132.871094 243.496094 131.328125 243.328125 C 123.921875 242.496094 118.726562 249.171875 119.480469 260.414062 C 120.457031 274.972656 132.527344 285.914062 137.21875 287.195312 C 140.457031 288.078125 142 285.675781 142 285.675781 C 154.132812 321.925781 181.929688 339.628906 202.605469 339.628906 C 223.441406 339.628906 247.828125 318.398438 259.566406 287.855469 C 259.566406 287.855469 260.558594 289.324219 262.640625 289.425781 C 268.390625 289.710938 281.144531 277.265625 282.511719 262.738281 C 283.566406 251.523438 278.183594 244.613281 270.828125 245.253906 " fill-opacity="1" fill-rule="nonzero"/><path fill="#ef7d70" d="M 173.664062 298.71875 C 173.664062 298.71875 175.460938 311.347656 185.664062 318.761719 C 194.5625 325.230469 208.222656 323.910156 214.890625 319.859375 C 225.792969 313.238281 228.691406 301.207031 228.691406 301.207031 C 194.535156 333.414062 173.664062 298.71875 173.664062 298.71875 " fill-opacity="1" fill-rule="nonzero"/><path fill="#382625" d="M 172.59375 297.828125 C 172.339844 297.320312 172.910156 296.796875 173.339844 297.148438 C 176.492188 299.730469 183.882812 303.414062 200.242188 303.074219 C 218.664062 302.691406 226.726562 299.882812 229.679688 298.4375 C 230.132812 298.21875 230.566406 298.757812 230.3125 299.203125 C 228.015625 303.210938 218.910156 316.550781 201.214844 316.582031 C 183.6875 316.609375 175.945312 304.445312 172.59375 297.828125 " fill-opacity="1" fill-rule="nonzero"/><path fill="#ffffff" d="M 201.101562 303.335938 C 191.625 303.765625 178.617188 300.429688 178.617188 300.429688 C 178.617188 300.429688 180.304688 305.988281 183.007812 307.800781 C 183.8125 308.339844 184.859375 308.898438 186.167969 309.398438 C 183.632812 309.566406 181.902344 309.957031 181.902344 309.957031 C 191.097656 319.738281 211.644531 319.34375 220.058594 310.503906 C 220.058594 310.503906 217.886719 309.363281 214.59375 308.816406 C 216.589844 308.21875 218.046875 307.546875 218.761719 306.84375 C 220.71875 304.925781 222.503906 300.515625 222.503906 300.515625 C 222.503906 300.515625 213.261719 302.789062 201.101562 303.335938 " fill-opacity="1" fill-rule="nonzero"/><path fill="#ef7d70" d="M 175.335938 298.535156 C 179.457031 301.609375 188.035156 304.222656 201.382812 304.128906 C 216.601562 304.019531 223.964844 300.804688 228.078125 299.132812 C 228.078125 299.132812 210.878906 297.960938 207.550781 298.484375 C 203.40625 299.136719 201.03125 299.402344 195.804688 298.546875 C 190.582031 297.6875 175.335938 298.535156 175.335938 298.535156 " fill-opacity="1" fill-rule="nonzero"/><path fill="#e87e6d" d="M 193.128906 282.730469 C 192.667969 282.078125 193.378906 281.203125 194.058594 281.46875 C 195.703125 282.121094 198.707031 283.066406 201.675781 282.949219 C 204.953125 282.8125 207.261719 282.164062 208.960938 281.578125 C 209.601562 281.355469 210.238281 282.035156 209.777344 282.636719 C 208.550781 284.230469 206.132812 286.875 201.621094 286.859375 C 197.449219 286.839844 194.246094 284.3125 193.128906 282.730469 " fill-opacity="1" fill-rule="nonzero"/><path fill="#6d2a21" d="M 161.792969 241.324219 C 160.996094 239.78125 166.859375 235.066406 173.738281 233.117188 C 181.574219 230.898438 187.097656 230.910156 187.046875 234.484375 C 187.015625 236.542969 182.363281 237.113281 174.796875 238.828125 C 167.714844 240.4375 162.179688 242.070312 161.792969 241.324219 " fill-opacity="1" fill-rule="nonzero"/><path fill="#6d2a21" d="M 241.3125 241.046875 C 242.0625 239.480469 236.078125 234.917969 229.144531 233.152344 C 221.253906 231.144531 215.734375 231.296875 215.886719 234.871094 C 215.964844 236.921875 220.636719 237.375 228.242188 238.894531 C 235.367188 240.316406 240.941406 241.804688 241.3125 241.046875 " fill-opacity="1" fill-rule="nonzero"/><path fill="#382625" d="M 160.894531 267.105469 C 160.074219 263.796875 160.71875 260.21875 162.542969 257.121094 C 164.347656 253.992188 167.714844 251.609375 171.265625 250.890625 C 174.78125 250.09375 178.722656 250.8125 181.644531 252.78125 C 184.5625 254.75 186.683594 257.621094 187.429688 260.917969 C 184.59375 259.347656 182.019531 258.199219 179.566406 257.617188 C 177.117188 257.019531 174.902344 257.058594 172.660156 257.554688 C 170.4375 258.09375 168.480469 259 166.546875 260.609375 C 164.617188 262.214844 162.792969 264.410156 160.894531 267.105469 " fill-opacity="1" fill-rule="nonzero"/><path fill="#382625" d="M 241.773438 267.121094 C 239.878906 264.421875 238.066406 262.222656 236.136719 260.609375 C 234.203125 258.996094 232.25 258.082031 230.027344 257.546875 C 227.785156 257.039062 225.570312 256.996094 223.128906 257.589844 C 220.667969 258.164062 218.089844 259.3125 215.253906 260.871094 C 216.003906 257.574219 218.132812 254.710938 221.054688 252.75 C 223.984375 250.785156 227.925781 250.078125 231.441406 250.886719 C 234.992188 251.609375 238.351562 254.003906 240.148438 257.132812 C 241.964844 260.234375 242.597656 263.820312 241.773438 267.121094 " fill-opacity="1" fill-rule="nonzero"/><path fill="#6d2a21" d="M 194.53125 158.355469 C 166.328125 158.820312 140.601562 169.53125 128.726562 222.59375 C 122.945312 248.441406 135.632812 264.339844 140.59375 268.390625 C 141.324219 268.988281 142.308594 268.230469 142.089844 267.292969 C 139.09375 254.554688 140.484375 234.683594 158.390625 226.441406 C 177.796875 217.511719 182.496094 210.914062 181.402344 194.667969 C 180.203125 176.804688 195.605469 174.164062 200.707031 174.164062 C 208.800781 174.164062 240.191406 174.164062 243.457031 216.5 C 245.265625 239.988281 269.191406 244.984375 262.851562 270.679688 C 262.851562 270.679688 265.695312 271.421875 270.199219 261.820312 C 287.003906 226 273.882812 157.039062 194.53125 158.355469 " fill-opacity="1" fill-rule="nonzero"/><path fill="#491d14" d="M 249.03125 229.460938 C 239.003906 215.839844 259.457031 179.089844 238.707031 167.097656 C 218.652344 155.515625 198.238281 175.765625 198.238281 175.765625 L 198.695312 177.871094 C 208.445312 175.765625 239.082031 177.289062 238.839844 215.957031 C 238.761719 228.832031 241.957031 236.554688 257.664062 248.410156 C 267.03125 255.480469 260.039062 271.308594 261.429688 272.125 C 263.101562 273.105469 267.558594 269.179688 270.1875 263.65625 C 273.730469 256.203125 275.257812 245.863281 275.257812 245.863281 C 272.113281 231.59375 257.90625 241.511719 249.03125 229.460938 " fill-opacity="1" fill-rule="nonzero"/><path fill="#491d14" d="M 206.113281 176.300781 C 206.113281 176.300781 195.046875 161.207031 180.390625 168.21875 C 171.980469 172.242188 171.042969 179.460938 170.855469 190.621094 C 170.742188 197.523438 174.09375 208.382812 167.457031 214.683594 C 161.011719 220.796875 136.277344 217.035156 130.210938 231.933594 C 129.464844 233.761719 127.632812 239.90625 127.847656 243.40625 C 128.59375 255.238281 134.699219 262.921875 140.402344 268.230469 C 141.117188 268.898438 142.28125 268.300781 142.140625 267.332031 C 140.175781 254.109375 141.910156 231.824219 159.214844 227.097656 C 175.292969 222.710938 184.714844 215.980469 184.871094 198.421875 C 185.066406 176.832031 206.113281 176.300781 206.113281 176.300781 " fill-opacity="1" fill-rule="nonzero"/><path fill="#41206b" d="M 706.707031 658.722656 C 706.707031 693.769531 660.308594 713.625 598.703125 713.625 C 537.113281 713.625 483.644531 693.769531 483.644531 658.722656 C 483.644531 623.675781 533.582031 595.261719 595.171875 595.261719 C 656.769531 595.261719 706.707031 623.675781 706.707031 658.722656 " fill-opacity="1" fill-rule="nonzero"/><path fill="#221f40" d="M 557.03125 125.882812 C 556.4375 120.160156 558.03125 115.363281 561.769531 111.617188 C 565.96875 107.414062 572.816406 104.78125 580.875 104.109375 C 569.773438 107.324219 561.558594 115.292969 561.148438 125.058594 C 560.835938 132.429688 564.996094 139.867188 571.664062 145.417969 C 567.8125 143.828125 558.359375 138.652344 557.03125 125.882812 Z M 598.875 101.003906 C 592.761719 99.421875 574.320312 97.84375 561.191406 109.671875 C 556.976562 113.476562 555.179688 119.925781 555.8125 126.011719 C 557.558594 142.816406 577.894531 153.988281 595.210938 154.410156 C 616.636719 154.933594 629.835938 147.054688 631 132.875 C 632.234375 117.738281 622.820312 105.945312 598.875 101.003906 " fill-opacity="1" fill-rule="nonzero"/><path fill="#ff8d6a" d="M 465.855469 371.535156 C 448.480469 388.007812 412.785156 514.746094 410.195312 552.828125 C 410.195312 552.828125 461.5625 565.441406 462.894531 562.125 C 475.324219 531.171875 523.34375 412.292969 531.027344 354.949219 C 505.28125 355.265625 473.667969 364.125 465.855469 371.535156 " fill-opacity="1" fill-rule="nonzero"/><path fill="#ff8d6a" d="M 729.953125 373.53125 C 747.332031 390.003906 784.367188 519.121094 789.222656 560.382812 C 789.222656 560.382812 737.082031 572.035156 735.753906 568.722656 C 723.320312 537.765625 676.121094 412.292969 668.4375 354.949219 C 694.191406 355.265625 722.140625 366.121094 729.953125 373.53125 " fill-opacity="1" fill-rule="nonzero"/><path fill="#ff8d6a" d="M 731.730469 374.699219 C 725.472656 361.695312 646.199219 339.289062 636.160156 331.347656 C 631.449219 327.621094 628.007812 297.949219 628.007812 297.949219 L 569.359375 296.742188 C 569.359375 296.742188 570.707031 326.128906 562.769531 330.015625 C 557.585938 332.558594 473.695312 351.210938 462.839844 372.359375 C 451.988281 393.507812 491.25 475.613281 497.15625 456.472656 C 505.824219 508.355469 520.644531 617.183594 520.644531 617.183594 C 520.644531 617.183594 543.917969 631.273438 596.257812 631.203125 C 656.671875 631.125 679.839844 620.191406 679.839844 620.191406 C 679.839844 620.191406 694.78125 518.011719 705.949219 462.460938 C 710.832031 482.136719 740.667969 393.28125 731.730469 374.699219 " fill-opacity="1" fill-rule="nonzero"/><path fill="#6ac5dd" d="M 414.992188 499.753906 C 426.421875 506.375 458.027344 516.367188 483.554688 522.679688 L 490.265625 497.890625 L 503.222656 617.253906 L 689.75 614.816406 L 706.363281 500.53125 L 713.226562 524.65625 C 713.351562 525.464844 714.59375 527.929688 715.410156 527.910156 C 736.273438 527.433594 777.84375 513.378906 785.707031 507.632812 C 785.707031 507.632812 764.988281 405.445312 727.273438 367.945312 C 702.148438 342.957031 636.160156 331.347656 636.160156 331.347656 C 636.160156 331.347656 629.796875 363.132812 599.804688 363.347656 C 568.941406 363.574219 562.769531 330.015625 562.769531 330.015625 C 562.769531 330.015625 491.449219 337.75 460.953125 372.632812 C 437.347656 399.644531 414.992188 499.753906 414.992188 499.753906 " fill-opacity="1" fill-rule="nonzero"/><path fill="#ff8d6a" d="M 661.917969 243.066406 C 659.507812 241.550781 655.902344 242.820312 653.277344 244.300781 C 657.253906 207.136719 633.792969 168.007812 599.042969 169.234375 C 563.347656 170.496094 543.347656 207.71875 544.828125 242.804688 C 541.210938 240.246094 536.917969 238.339844 534.332031 241.265625 C 524.769531 252.125 539.179688 274.425781 548.707031 271.570312 C 549.964844 271.191406 550.589844 269.148438 551.226562 267.949219 C 551.226562 267.949219 554.144531 296.226562 560.75 302.445312 C 582.558594 322.972656 582.558594 322.972656 600.257812 322.917969 C 617.472656 322.871094 617.472656 322.691406 636.882812 302.929688 C 642.945312 296.753906 645.191406 269.945312 645.191406 269.945312 C 646.097656 271.75 647.988281 272.554688 649.855469 272.65625 C 655.945312 272.984375 674.339844 250.886719 661.917969 243.066406 " fill-opacity="1" fill-rule="nonzero"/><path fill="#221f40" d="M 548.316406 251.84375 C 544.644531 241.460938 538.738281 239.886719 538.738281 239.886719 C 538.738281 239.886719 531.863281 206.832031 535.136719 192.042969 C 540.132812 169.492188 557.695312 143.964844 597.15625 143.964844 C 629.214844 143.964844 654.921875 166.695312 660.367188 189.65625 C 664.613281 207.558594 658.402344 242.503906 658.402344 242.503906 C 658.402344 242.503906 653.921875 243.636719 651.777344 248.074219 L 649.871094 252.730469 L 648.367188 252.3125 C 648.367188 252.3125 655.054688 220.964844 647.28125 217.429688 C 640.867188 214.515625 640.582031 207.03125 633.765625 196.316406 C 625.109375 182.710938 617.761719 194.773438 599.210938 194.691406 C 580.773438 194.601562 570.617188 181.542969 565.699219 194.875 C 560.433594 209.15625 560.730469 215.316406 553.699219 218.488281 C 542.71875 223.445312 550.132812 251.660156 550.132812 251.660156 L 548.316406 251.84375 " fill-opacity="1" fill-rule="nonzero"/><path fill="#221f40" d="M 649.867188 252.714844 L 648.359375 252.296875 C 631.246094 306.988281 569.917969 308.046875 550.132812 251.644531 L 548.316406 251.828125 C 550.839844 264.707031 539.070312 288.238281 545.675781 307.914062 C 551.265625 324.566406 588.738281 345.816406 603.6875 345.546875 C 618.382812 345.285156 643.003906 325.035156 651.261719 309.785156 C 661.980469 290.003906 646.503906 260.210938 649.867188 252.714844 " fill-opacity="1" fill-rule="nonzero"/><path fill="#1fb0bf" d="M 732.410156 525.714844 L 712.558594 446.0625 C 712.5625 443.484375 709.265625 442.230469 708.007812 446.0625 C 683.128906 521.984375 643.082031 588.679688 599.367188 587.847656 C 556.097656 587.027344 524.660156 552.496094 491.992188 449.273438 C 491.019531 446.195312 488.265625 446.375 487.167969 448.503906 L 487.167969 448.511719 C 486.960938 448.910156 486.835938 449.394531 486.773438 449.925781 L 467.640625 518.425781 L 483.554688 522.679688 L 490.382812 499.335938 L 503.222656 617.246094 C 503.222656 617.246094 533.722656 644.003906 601.273438 642.488281 C 658.59375 641.207031 689.75 614.816406 689.75 614.816406 L 706.253906 501 L 714.542969 528.679688 L 732.410156 525.714844 " fill-opacity="1" fill-rule="nonzero"/><path fill="#15152d" d="M 621.667969 294.015625 C 626.621094 292.058594 632.417969 288.09375 633.324219 278.800781 C 633.324219 278.800781 630.34375 282.097656 627.582031 282.644531 C 623.867188 283.375 621.425781 281.570312 616.804688 276.304688 C 612.019531 270.851562 605.550781 275.121094 602.882812 276.566406 C 601.632812 277.246094 600.113281 277.242188 598.867188 276.558594 C 596.214844 275.113281 590.503906 271.066406 585.773438 276.511719 C 582.683594 280.070312 580.695312 283.039062 577.953125 283.207031 C 571.351562 283.613281 566.804688 279.125 566.804688 279.125 C 566.804688 279.125 567.539062 294.738281 586.164062 295.207031 C 592.230469 295.363281 597.667969 292.484375 600.226562 287.125 C 600.789062 285.933594 601.273438 286.148438 601.710938 287.175781 C 604.847656 294.5625 614.074219 297.027344 621.667969 294.015625 " fill-opacity="1" fill-rule="nonzero"/><path fill="#15152d" d="M 609.816406 149.6875 C 615.816406 150.539062 627.535156 152.683594 629.625 164.21875 C 631.734375 175.851562 622.605469 185.675781 610.972656 189.820312 C 599.335938 193.964844 590.359375 193.6875 582.046875 188.457031 C 573.519531 183.089844 567.421875 179.289062 561.871094 196.832031 C 556.316406 214.371094 548.621094 208.992188 546.621094 220.160156 C 544.628906 231.328125 548.25 241.578125 548.25 241.578125 C 547.03125 232.875 548.902344 221.722656 555.773438 218.617188 C 562.804688 215.445312 561.886719 210.777344 567.152344 196.496094 C 572.070312 183.164062 581.777344 196.515625 600.214844 196.605469 C 618.765625 196.691406 624.402344 183.375 633.066406 196.980469 C 639.882812 207.6875 639.480469 214.574219 645.890625 217.492188 C 653.671875 221.03125 648.367188 252.3125 648.367188 252.3125 L 649.867188 252.714844 C 653.003906 243.863281 658.402344 242.503906 658.402344 242.503906 C 658.402344 242.503906 665.644531 206.523438 661.398438 188.625 C 657.421875 171.871094 644.144531 153.550781 623.554688 147.054688 C 623.554688 147.054688 618.230469 147.949219 609.816406 149.6875 " fill-opacity="1" fill-rule="nonzero"/><path fill="#15152d" d="M 651.261719 309.730469 C 661.980469 289.949219 646.503906 260.152344 649.867188 252.660156 L 648.359375 252.246094 C 646.449219 258.351562 643.582031 264.507812 640.6875 269.269531 C 640.988281 269.765625 659.769531 293.492188 629.730469 333.347656 C 638.820312 326.332031 647.109375 317.402344 651.261719 309.730469 " fill-opacity="1" fill-rule="nonzero"/><path fill="#15152d" d="M 624.28125 146.542969 C 628.277344 143.058594 631.8125 137.535156 632.273438 131.9375 C 632.683594 126.949219 630.804688 123.335938 628.671875 119.167969 C 631.128906 123.050781 633.464844 128.023438 633.464844 133.035156 C 633.464844 139.5625 628.761719 143.890625 624.28125 146.542969 Z M 623.066406 111.886719 C 623.066406 111.886719 623.5625 112.40625 624.242188 113.179688 C 619.984375 108.777344 613.847656 105.144531 605.425781 102.628906 C 609.195312 104.445312 620.789062 112.132812 620.5625 126.347656 C 620.308594 142.136719 608.785156 150.722656 608.785156 150.722656 L 616.351562 149.992188 C 616.351562 149.992188 634.894531 147.765625 634.894531 133.332031 C 634.894531 121.5 623.066406 111.886719 623.066406 111.886719 " fill-opacity="1" fill-rule="nonzero"/><path fill="#e7e0f0" d="M 572.359375 147.996094 C 572.359375 147.996094 585.820312 149.976562 598.050781 150.316406 C 610.644531 150.316406 624.808594 147.464844 624.808594 147.464844 C 624.808594 147.464844 614.488281 152.644531 597.703125 152.644531 C 581.515625 152.644531 572.359375 147.996094 572.359375 147.996094 " fill-opacity="1" fill-rule="nonzero"/><path fill="#ff8d6a" d="M 596 641.960938 C 598.757812 638.859375 598.582031 630.273438 595.453125 624.746094 C 582.089844 601.175781 544.289062 601.101562 544.289062 601.101562 C 544.289062 601.101562 475.050781 532.714844 456.148438 529.246094 C 443.683594 526.960938 425.449219 536.933594 415.765625 544.144531 C 411.234375 547.519531 408.753906 552.523438 410.90625 557.511719 C 415.316406 567.769531 425.152344 583.167969 435.457031 589.597656 C 451.839844 599.820312 536.792969 617.484375 536.792969 617.484375 C 536.792969 617.484375 552.097656 622.75 559.253906 631.605469 C 568.472656 643.011719 586.121094 653.074219 596 641.960938 " fill-opacity="1" fill-rule="nonzero"/><path fill="#ec6e4b" d="M 410.683594 556.949219 L 412.546875 561.046875 C 417.480469 571.03125 426.148438 584.089844 435.457031 589.597656 C 458.492188 603.222656 536.792969 617.484375 536.792969 617.484375 C 442.242188 592.988281 410.683594 556.949219 410.683594 556.949219 " fill-opacity="1" fill-rule="nonzero"/><path fill="#ff8d6a" d="M 597.074219 641.371094 C 594.4375 638.101562 595.019531 629.429688 598.457031 623.992188 C 613.09375 600.804688 651.308594 602.546875 651.308594 602.546875 C 651.308594 602.546875 724.589844 536.75 743.863281 534.152344 C 756.566406 532.449219 774.523438 543.398438 783.972656 551.160156 C 788.386719 554.785156 790.648438 559.960938 788.238281 564.910156 C 783.289062 575.0625 772.605469 590.15625 761.878906 596.152344 C 744.824219 605.703125 658.097656 619.472656 658.097656 619.472656 C 658.097656 619.472656 642.375 624.054688 634.71875 632.667969 C 624.851562 643.753906 606.519531 653.078125 597.074219 641.371094 " fill-opacity="1" fill-rule="nonzero"/><path fill="#ec6e4b" d="M 788.433594 564.519531 L 786.355469 568.574219 C 780.886719 578.429688 771.5 591.207031 761.824219 596.332031 C 737.882812 608.996094 658.042969 619.652344 658.042969 619.652344 C 754.800781 599.429688 788.433594 564.519531 788.433594 564.519531 " fill-opacity="1" fill-rule="nonzero"/><path fill="#ec6e4b" d="M 467.640625 518.425781 L 478.960938 521.519531 L 472.515625 538.011719 C 472.515625 538.011719 467.074219 537.976562 460.476562 540.097656 C 453.882812 542.222656 452.429688 543.230469 452.429688 543.230469 C 452.429688 543.230469 461.929688 536.632812 464.167969 531.378906 C 466.402344 526.125 467.640625 518.425781 467.640625 518.425781 " fill-opacity="1" fill-rule="nonzero"/><path fill="#ec6e4b" d="M 720.121094 527.75 L 725.816406 543.03125 C 725.816406 543.03125 729.378906 542.613281 736.671875 544.539062 C 743.96875 546.472656 745.808594 547.894531 745.808594 547.894531 C 745.808594 547.894531 736.839844 540.769531 735 535.484375 C 733.152344 530.203125 732.410156 525.714844 732.410156 525.714844 L 720.121094 527.75 " fill-opacity="1" fill-rule="nonzero"/><path fill="#e7e0f0" d="M 708.425781 638.832031 L 492.324219 638.832031 C 489.394531 638.832031 486.683594 636.589844 486.304688 633.835938 L 464.609375 475.683594 C 464.066406 471.753906 466.519531 468.515625 470.058594 468.515625 L 730.695312 468.515625 C 734.238281 468.515625 736.683594 471.753906 736.148438 475.683594 L 714.449219 633.835938 C 714.070312 636.589844 711.363281 638.832031 708.425781 638.832031 " fill-opacity="1" fill-rule="nonzero"/><path fill="#c7bdd6" d="M 710.648438 646.78125 L 490.109375 646.78125 C 488.5625 646.78125 487.296875 645.519531 487.296875 643.972656 L 487.296875 641.644531 C 487.296875 640.097656 488.5625 638.832031 490.109375 638.832031 L 710.648438 638.832031 C 712.195312 638.832031 713.457031 640.097656 713.457031 641.644531 L 713.457031 643.972656 C 713.457031 645.519531 712.195312 646.78125 710.648438 646.78125 " fill-opacity="1" fill-rule="nonzero"/><path fill="#c7bdd6" d="M 722.835938 473.945312 C 722.835938 473.945312 694.371094 594.410156 578.984375 606.898438 C 546.992188 610.359375 516.449219 602.320312 491.386719 586.539062 C 490.03125 585.683594 488.292969 586.8125 488.507812 588.402344 L 494.039062 628.71875 C 494.394531 631.300781 496.929688 633.398438 499.675781 633.398438 L 701.992188 633.398438 C 704.738281 633.398438 707.273438 631.300781 707.628906 628.71875 L 727.941406 480.664062 C 728.449219 476.984375 726.152344 473.945312 722.835938 473.945312 " fill-opacity="1" fill-rule="nonzero"/><path fill="#c7bdd6" d="M 625.472656 558.835938 C 625.472656 565.679688 614.234375 571.226562 600.378906 571.226562 C 586.515625 571.226562 575.285156 565.679688 575.285156 558.835938 C 575.285156 551.984375 586.515625 546.4375 600.378906 546.4375 C 614.234375 546.4375 625.472656 551.984375 625.472656 558.835938 " fill-opacity="1" fill-rule="nonzero"/><path fill="#ffffff" d="M 482.636719 478.957031 L 641.765625 468.515625 L 470.03125 468.515625 C 466.488281 468.515625 464.042969 471.753906 464.578125 475.683594 L 482.066406 603.160156 L 476.453125 485.886719 C 476.277344 482.277344 479.023438 479.195312 482.636719 478.957031 " fill-opacity="1" fill-rule="nonzero"/><path fill="#c7bdd6" d="M 692.980469 716.375 C 692.980469 716.375 745.898438 692.488281 762.8125 692.125 C 777.671875 691.808594 795.402344 705.628906 793.980469 717.910156 C 792.554688 730.1875 777.535156 743.765625 751.351562 744.789062 C 729.292969 745.65625 686.753906 742.34375 686.753906 742.34375 C 686.753906 742.34375 696.574219 733.089844 692.980469 716.375 " fill-opacity="1" fill-rule="nonzero"/><path fill="#e7e0f0" d="M 686.753906 742.34375 C 686.753906 742.34375 696.574219 733.089844 692.980469 716.375 C 692.980469 716.375 736.460938 696.578125 757.195312 692.644531 C 771.070312 694.476562 785.753906 706.949219 784.457031 718.167969 C 783.113281 729.761719 769.628906 742.503906 746.078125 744.75 C 723.164062 745.007812 686.753906 742.34375 686.753906 742.34375 " fill-opacity="1" fill-rule="nonzero"/><path fill="#c7bdd6" d="M 693.683594 721.25 C 693.683594 721.25 728.847656 709.355469 743.132812 708.316406 C 757.410156 707.277344 763.46875 714.492188 763.6875 719.601562 C 763.902344 724.703125 755.710938 733.445312 744.445312 734.351562 C 733.1875 735.257812 692.925781 730.640625 692.925781 730.640625 C 692.925781 730.640625 693.902344 726.066406 693.683594 721.25 " fill-opacity="1" fill-rule="nonzero"/><path fill="#ffffff" d="M 743.625 704.628906 C 743.625 704.628906 744.445312 706.816406 745.261719 709.898438 C 745.679688 711.441406 746.058594 713.21875 746.351562 715.097656 C 746.625 716.988281 746.820312 718.984375 746.785156 720.984375 C 746.851562 722.992188 746.589844 724.976562 746.398438 726.890625 C 746.050781 728.777344 745.773438 730.589844 745.378906 732.152344 C 745.082031 733.753906 744.648438 735.046875 744.441406 736.027344 C 744.226562 736.996094 744.132812 737.589844 744.132812 737.589844 C 744.132812 737.589844 744.566406 737.226562 745.277344 736.515625 C 745.960938 735.789062 747.046875 734.785156 747.921875 733.285156 C 748.941406 731.863281 749.800781 729.992188 750.542969 727.890625 C 751.210938 725.765625 751.59375 723.386719 751.621094 720.972656 C 751.550781 718.570312 751.226562 716.164062 750.472656 714.050781 C 749.761719 711.929688 748.800781 710.082031 747.746094 708.671875 C 745.730469 705.773438 743.625 704.628906 743.625 704.628906 " fill-opacity="1" fill-rule="nonzero"/><path fill="#ffffff" d="M 726.785156 705.371094 C 726.785156 705.371094 727.601562 707.558594 728.421875 710.640625 C 728.832031 712.183594 729.210938 713.960938 729.503906 715.847656 C 729.785156 717.730469 729.972656 719.726562 729.941406 721.726562 C 730.011719 723.734375 729.742188 725.71875 729.550781 727.632812 C 729.210938 729.515625 728.929688 731.332031 728.53125 732.894531 C 728.242188 734.496094 727.804688 735.789062 727.601562 736.769531 C 727.378906 737.738281 727.289062 738.332031 727.289062 738.332031 C 727.289062 738.332031 727.722656 737.96875 728.4375 737.253906 C 729.117188 736.527344 730.207031 735.519531 731.074219 734.027344 C 732.09375 732.597656 732.957031 730.734375 733.699219 728.636719 C 734.363281 726.507812 734.746094 724.121094 734.773438 721.71875 C 734.703125 719.3125 734.382812 716.90625 733.625 714.792969 C 732.921875 712.671875 731.953125 710.824219 730.90625 709.414062 C 728.882812 706.515625 726.785156 705.371094 726.785156 705.371094 " fill-opacity="1" fill-rule="nonzero"/><path fill="#ffffff" d="M 711.121094 709.371094 C 711.121094 709.371094 711.941406 711.175781 712.675781 713.847656 C 713.070312 715.167969 713.425781 716.703125 713.707031 718.34375 C 713.96875 719.984375 714.140625 721.726562 714.117188 723.476562 C 714.167969 725.230469 713.9375 726.964844 713.742188 728.625 C 713.425781 730.261719 713.152344 731.832031 712.773438 733.167969 C 712.480469 734.535156 712.125 735.675781 711.878906 736.480469 C 711.652344 737.296875 711.558594 737.800781 711.558594 737.800781 C 711.558594 737.800781 711.921875 737.472656 712.488281 736.835938 C 713.011719 736.175781 713.972656 735.320312 714.679688 734.019531 C 715.527344 732.785156 716.238281 731.179688 716.851562 729.378906 C 717.398438 727.554688 717.722656 725.523438 717.742188 723.464844 C 717.726562 719.335938 716.285156 715.351562 714.539062 712.925781 C 712.820312 710.445312 711.121094 709.371094 711.121094 709.371094 " fill-opacity="1" fill-rule="nonzero"/><path fill="#6d4199" d="M 393.234375 628.261719 C 393.234375 628.261719 404.5 595.03125 465.804688 606.953125 C 527.113281 618.878906 698.402344 714.355469 698.679688 715.292969 C 701.152344 723.585938 701.265625 736.789062 698.097656 742.964844 C 697.785156 743.566406 491.34375 727.101562 462.167969 716.664062 C 422.820312 702.589844 377.433594 666.851562 393.234375 628.261719 " fill-opacity="1" fill-rule="nonzero"/><path fill="#41206b" d="M 662.746094 698.367188 C 662.746094 698.367188 671.601562 708.871094 662.785156 720.085938 C 657.632812 726.640625 649.109375 731.460938 622.597656 730.3125 C 560.835938 727.644531 506.675781 723.507812 464.097656 709.175781 C 435.683594 699.621094 399.75 672.753906 390.132812 647.300781 C 392.449219 678.203125 429.394531 704.960938 462.164062 716.683594 C 491.34375 727.117188 697.84375 743.6875 698.175781 743.097656 C 703.28125 734.050781 703.078125 719.5625 700.632812 715.230469 C 700.148438 714.382812 669.402344 700.792969 662.746094 698.367188 " fill-opacity="1" fill-rule="nonzero"/><path fill="#c7bdd6" d="M 511.851562 718.210938 C 511.851562 718.210938 458.726562 693.042969 441.617188 692.359375 C 426.578125 691.765625 408.378906 705.421875 409.601562 717.878906 C 410.816406 730.335938 425.769531 744.351562 452.257812 745.882812 C 474.566406 747.171875 517.679688 744.613281 517.679688 744.613281 C 517.679688 744.613281 507.914062 735.0625 511.851562 718.210938 " fill-opacity="1" fill-rule="nonzero"/><path fill="#e7e0f0" d="M 517.625 744.683594 C 517.625 744.683594 507.914062 735.0625 511.851562 718.210938 C 511.851562 718.210938 469.683594 697.320312 447.457031 693.191406 C 433.375 694.792969 418.121094 706.9375 419.230469 718.316406 C 420.386719 730.078125 433.796875 743.222656 457.589844 745.941406 C 480.777344 746.636719 517.625 744.683594 517.625 744.683594 " fill-opacity="1" fill-rule="nonzero"/><path fill="#c7bdd6" d="M 511.050781 723.132812 C 511.050781 723.132812 475.675781 710.441406 461.242188 709.117188 C 446.804688 707.800781 440.542969 714.992188 440.226562 720.152344 C 439.914062 725.3125 448.050781 734.324219 459.4375 735.453125 C 470.816406 736.578125 511.644531 732.652344 511.644531 732.652344 C 511.644531 732.652344 510.746094 728.007812 511.050781 723.132812 " fill-opacity="1" fill-rule="nonzero"/><path fill="#ffffff" d="M 460.804688 705.378906 C 460.804688 705.378906 459.9375 707.582031 459.050781 710.683594 C 458.605469 712.230469 458.1875 714.023438 457.855469 715.925781 C 457.542969 717.832031 457.316406 719.847656 457.308594 721.875 C 457.203125 723.902344 457.4375 725.917969 457.59375 727.859375 C 457.910156 729.773438 458.15625 731.609375 458.535156 733.203125 C 458.800781 734.828125 459.21875 736.148438 459.40625 737.144531 C 459.609375 738.128906 459.695312 738.726562 459.695312 738.726562 C 459.695312 738.726562 459.257812 738.347656 458.550781 737.617188 C 457.871094 736.867188 456.792969 735.832031 455.9375 734.300781 C 454.929688 732.839844 454.09375 730.929688 453.382812 728.792969 C 452.746094 726.628906 452.398438 724.210938 452.414062 721.769531 C 452.53125 719.335938 452.898438 716.910156 453.703125 714.78125 C 454.460938 712.65625 455.472656 710.804688 456.558594 709.390625 C 458.65625 706.496094 460.804688 705.378906 460.804688 705.378906 " fill-opacity="1" fill-rule="nonzero"/><path fill="#ffffff" d="M 477.839844 706.445312 C 477.839844 706.445312 476.972656 708.644531 476.089844 711.746094 C 475.640625 713.296875 475.226562 715.09375 474.894531 716.996094 C 474.578125 718.894531 474.347656 720.917969 474.347656 722.9375 C 474.242188 724.964844 474.472656 726.988281 474.628906 728.925781 C 474.945312 730.839844 475.195312 732.679688 475.566406 734.269531 C 475.835938 735.890625 476.25 737.210938 476.441406 738.207031 C 476.644531 739.195312 476.730469 739.796875 476.730469 739.796875 C 476.730469 739.796875 476.292969 739.417969 475.589844 738.683594 C 474.910156 737.9375 473.832031 736.902344 472.972656 735.363281 C 471.96875 733.90625 471.128906 732 470.414062 729.863281 C 469.78125 727.699219 469.4375 725.277344 469.453125 722.839844 C 469.566406 720.40625 469.9375 717.972656 470.742188 715.851562 C 471.492188 713.71875 472.507812 711.867188 473.59375 710.457031 C 475.6875 707.566406 477.839844 706.445312 477.839844 706.445312 " fill-opacity="1" fill-rule="nonzero"/><path fill="#ffffff" d="M 493.617188 710.789062 C 493.617188 710.789062 492.757812 712.597656 491.964844 715.289062 C 491.546875 716.617188 491.152344 718.167969 490.839844 719.816406 C 490.546875 721.476562 490.339844 723.238281 490.328125 725.007812 C 490.238281 726.777344 490.449219 728.539062 490.613281 730.226562 C 490.910156 731.886719 491.152344 733.476562 491.515625 734.84375 C 491.789062 736.230469 492.125 737.390625 492.355469 738.210938 C 492.570312 739.039062 492.660156 739.546875 492.660156 739.546875 C 492.660156 739.546875 492.296875 739.21875 491.730469 738.558594 C 491.214844 737.878906 490.261719 737 489.566406 735.664062 C 488.730469 734.398438 488.046875 732.757812 487.449219 730.929688 C 486.929688 729.070312 486.640625 727.011719 486.660156 724.929688 C 486.75 720.75 488.289062 716.746094 490.097656 714.320312 C 491.878906 711.835938 493.617188 710.789062 493.617188 710.789062 " fill-opacity="1" fill-rule="nonzero"/><path fill="#6d4199" d="M 808.203125 637.605469 C 808.203125 637.605469 798.472656 603.605469 737.320312 613.460938 C 676.171875 623.316406 606.203125 672.613281 559.152344 692.335938 C 532.40625 703.546875 512.3125 709.644531 503.191406 712.402344 C 502.292969 712.675781 501.875 713.78125 502.355469 714.625 C 504.824219 718.984375 506.1875 721.335938 507.003906 728.546875 C 507.539062 733.246094 506.925781 739.421875 503.949219 743.507812 C 503.550781 744.0625 503.964844 744.851562 504.625 744.796875 C 541.878906 741.660156 706.9375 734.003906 736.246094 724.496094 C 775.765625 711.675781 822.179688 677.175781 808.203125 637.605469 " fill-opacity="1" fill-rule="nonzero"/><path fill="#41206b" d="M 626.886719 657.65625 C 626.886719 657.65625 601.65625 672.621094 574.757812 685.253906 C 547.183594 698.203125 523.9375 708.960938 524.089844 718.972656 C 524.25 729.066406 534.808594 735.285156 561.078125 735.074219 C 622.28125 734.589844 715.300781 720.074219 733.988281 714.015625 C 762.347656 704.8125 799.855469 682.347656 810.453125 656.960938 C 806.851562 688.117188 769.160156 713.835938 736.246094 724.511719 C 706.9375 734.019531 503.859375 745.980469 503.769531 745.304688 C 502.996094 739.359375 501.1875 719.621094 501.820312 713.433594 C 501.871094 712.917969 539.691406 696.914062 572.804688 682.285156 C 601.945312 669.40625 626.886719 657.65625 626.886719 657.65625 " fill-opacity="1" fill-rule="nonzero"/></svg>